M48
; DRILL file {KiCad (5.1.5)-3} date 8/13/2020 9:18:44 PM
; FORMAT={3:3/ absolute / metric / suppress leading zeros}
; #@! TF.CreationDate,2020-08-13T21:18:44+02:00
; #@! TF.GenerationSoftware,Kicad,Pcbnew,(5.1.5)-3
FMAT,2
METRIC,TZ
T1C0.300
T2C0.500
T3C1.000
T4C2.500
%
G90
G05
T1
X137566Y-92735
X137566Y-121971
X138938Y-116078
X139040Y-122022
X139192Y-97917
X139700Y-115316
X139954Y-131191
X140589Y-93726
X140792Y-117881
X141224Y-114732
X141529Y-117145
X141859Y-94996
X142240Y-93345
X142596Y-96893
X142799Y-112014
X142875Y-110922
X143129Y-92456
X143131Y-123192
X143383Y-116180
X143434Y-117272
X143713Y-122682
X143815Y-125044
X143993Y-110973
X144132Y-97582
X144183Y-100317
X144272Y-118034
X144501Y-110160
X144526Y-115214
X144983Y-125019
X145161Y-119634
X145263Y-107163
X145390Y-105004
X145826Y-113905
X145898Y-110134
X146050Y-124460
X146304Y-120650
X146380Y-111862
X146837Y-119685
X146863Y-122555
X146939Y-125095
X147244Y-113411
X147422Y-92634
X147498Y-118694
X148133Y-117831
X148336Y-114732
X148438Y-110058
X149479Y-100711
X149504Y-118466
X149987Y-106426
X149987Y-107061
X149987Y-107696
X150495Y-127254
X150622Y-106426
X150622Y-107061
X150622Y-107696
X151028Y-100406
X151130Y-127889
X152019Y-103505
X152019Y-104267
X152070Y-116840
X152400Y-111252
X152527Y-107442
X152654Y-96596
X152679Y-99746
X152781Y-103505
X152781Y-104267
X153162Y-111252
X153289Y-90805
X153289Y-107442
X153314Y-96596
X153340Y-99746
X153543Y-103505
X153543Y-104267
X153873Y-124993
X153899Y-116205
X153924Y-111252
X154051Y-107442
X154305Y-103505
X154305Y-104267
X154432Y-124409
X154788Y-122352
X155067Y-103505
X155067Y-104267
X155067Y-106045
X155067Y-106807
X155067Y-107696
X155372Y-121082
X155956Y-107696
X156286Y-123876
X156413Y-111481
X156667Y-120675
X156718Y-107696
X157124Y-120193
X157201Y-126797
X157226Y-128880
X157480Y-107696
X157988Y-92583
X159766Y-101600
T2
X132125Y-94000
X132674Y-92674
X132674Y-95326
X134000Y-92125
X134000Y-95875
X135326Y-92674
X135326Y-95326
X135875Y-94000
X132125Y-131000
X132674Y-129674
X132674Y-132326
X134000Y-129125
X134000Y-132875
X135326Y-129674
X135326Y-132326
X135875Y-131000
X159125Y-131000
X159674Y-129674
X159674Y-132326
X161000Y-129125
X161000Y-132875
X162326Y-129674
X162326Y-132326
X162875Y-131000
X159125Y-94000
X159674Y-92674
X159674Y-95326
X161000Y-92125
X161000Y-95875
X162326Y-92674
X162326Y-95326
X162875Y-94000
T3
X142367Y-130277
X142367Y-132817
X144907Y-130277
X144907Y-132817
X147447Y-130277
X147447Y-132817
X149987Y-130277
X149987Y-132817
X152527Y-130277
X152527Y-132817
X160147Y-103124
X160147Y-105664
X160147Y-108204
X160147Y-110744
X160147Y-113284
X160147Y-115824
X160147Y-118364
X160147Y-120904
X160147Y-123444
X160147Y-125984
X162687Y-103124
X162687Y-105664
X162687Y-108204
X162687Y-110744
X162687Y-113284
X162687Y-115824
X162687Y-118364
X162687Y-120904
X162687Y-123444
X162687Y-125984
X132207Y-103124
X132207Y-105664
X132207Y-108204
X132207Y-110744
X132207Y-113284
X132207Y-115824
X132207Y-118364
X132207Y-120904
X132207Y-123444
X132207Y-125984
X134747Y-103124
X134747Y-105664
X134747Y-108204
X134747Y-110744
X134747Y-113284
X134747Y-115824
X134747Y-118364
X134747Y-120904
X134747Y-123444
X134747Y-125984
X138506Y-103835
X138506Y-106375
X141046Y-103835
X141046Y-106375
X143586Y-103835
X143586Y-106375
T4
X134000Y-94000
X134000Y-131000
X161000Y-131000
X161000Y-94000
T0
M30
