G04 #@! TF.GenerationSoftware,KiCad,Pcbnew,(5.1.5)-3*
G04 #@! TF.CreationDate,2020-08-13T21:18:49+02:00*
G04 #@! TF.ProjectId,STM32 Dev.Board,53544d33-3220-4446-9576-2e426f617264,rev?*
G04 #@! TF.SameCoordinates,Original*
G04 #@! TF.FileFunction,Soldermask,Bot*
G04 #@! TF.FilePolarity,Negative*
%FSLAX46Y46*%
G04 Gerber Fmt 4.6, Leading zero omitted, Abs format (unit mm)*
G04 Created by KiCad (PCBNEW (5.1.5)-3) date 2020-08-13 21:18:49*
%MOMM*%
%LPD*%
G04 APERTURE LIST*
%ADD10C,0.100000*%
G04 APERTURE END LIST*
D10*
G36*
X152640512Y-131920527D02*
G01*
X152789812Y-131950224D01*
X152953784Y-132018144D01*
X153101354Y-132116747D01*
X153226853Y-132242246D01*
X153325456Y-132389816D01*
X153393376Y-132553788D01*
X153428000Y-132727859D01*
X153428000Y-132905341D01*
X153393376Y-133079412D01*
X153325456Y-133243384D01*
X153226853Y-133390954D01*
X153101354Y-133516453D01*
X152953784Y-133615056D01*
X152789812Y-133682976D01*
X152640512Y-133712673D01*
X152615742Y-133717600D01*
X152438258Y-133717600D01*
X152413488Y-133712673D01*
X152264188Y-133682976D01*
X152100216Y-133615056D01*
X151952646Y-133516453D01*
X151827147Y-133390954D01*
X151728544Y-133243384D01*
X151660624Y-133079412D01*
X151626000Y-132905341D01*
X151626000Y-132727859D01*
X151660624Y-132553788D01*
X151728544Y-132389816D01*
X151827147Y-132242246D01*
X151952646Y-132116747D01*
X152100216Y-132018144D01*
X152264188Y-131950224D01*
X152413488Y-131920527D01*
X152438258Y-131915600D01*
X152615742Y-131915600D01*
X152640512Y-131920527D01*
G37*
G36*
X150100512Y-131920527D02*
G01*
X150249812Y-131950224D01*
X150413784Y-132018144D01*
X150561354Y-132116747D01*
X150686853Y-132242246D01*
X150785456Y-132389816D01*
X150853376Y-132553788D01*
X150888000Y-132727859D01*
X150888000Y-132905341D01*
X150853376Y-133079412D01*
X150785456Y-133243384D01*
X150686853Y-133390954D01*
X150561354Y-133516453D01*
X150413784Y-133615056D01*
X150249812Y-133682976D01*
X150100512Y-133712673D01*
X150075742Y-133717600D01*
X149898258Y-133717600D01*
X149873488Y-133712673D01*
X149724188Y-133682976D01*
X149560216Y-133615056D01*
X149412646Y-133516453D01*
X149287147Y-133390954D01*
X149188544Y-133243384D01*
X149120624Y-133079412D01*
X149086000Y-132905341D01*
X149086000Y-132727859D01*
X149120624Y-132553788D01*
X149188544Y-132389816D01*
X149287147Y-132242246D01*
X149412646Y-132116747D01*
X149560216Y-132018144D01*
X149724188Y-131950224D01*
X149873488Y-131920527D01*
X149898258Y-131915600D01*
X150075742Y-131915600D01*
X150100512Y-131920527D01*
G37*
G36*
X143268000Y-133717600D02*
G01*
X141466000Y-133717600D01*
X141466000Y-131915600D01*
X143268000Y-131915600D01*
X143268000Y-133717600D01*
G37*
G36*
X147560512Y-131920527D02*
G01*
X147709812Y-131950224D01*
X147873784Y-132018144D01*
X148021354Y-132116747D01*
X148146853Y-132242246D01*
X148245456Y-132389816D01*
X148313376Y-132553788D01*
X148348000Y-132727859D01*
X148348000Y-132905341D01*
X148313376Y-133079412D01*
X148245456Y-133243384D01*
X148146853Y-133390954D01*
X148021354Y-133516453D01*
X147873784Y-133615056D01*
X147709812Y-133682976D01*
X147560512Y-133712673D01*
X147535742Y-133717600D01*
X147358258Y-133717600D01*
X147333488Y-133712673D01*
X147184188Y-133682976D01*
X147020216Y-133615056D01*
X146872646Y-133516453D01*
X146747147Y-133390954D01*
X146648544Y-133243384D01*
X146580624Y-133079412D01*
X146546000Y-132905341D01*
X146546000Y-132727859D01*
X146580624Y-132553788D01*
X146648544Y-132389816D01*
X146747147Y-132242246D01*
X146872646Y-132116747D01*
X147020216Y-132018144D01*
X147184188Y-131950224D01*
X147333488Y-131920527D01*
X147358258Y-131915600D01*
X147535742Y-131915600D01*
X147560512Y-131920527D01*
G37*
G36*
X145020512Y-131920527D02*
G01*
X145169812Y-131950224D01*
X145333784Y-132018144D01*
X145481354Y-132116747D01*
X145606853Y-132242246D01*
X145705456Y-132389816D01*
X145773376Y-132553788D01*
X145808000Y-132727859D01*
X145808000Y-132905341D01*
X145773376Y-133079412D01*
X145705456Y-133243384D01*
X145606853Y-133390954D01*
X145481354Y-133516453D01*
X145333784Y-133615056D01*
X145169812Y-133682976D01*
X145020512Y-133712673D01*
X144995742Y-133717600D01*
X144818258Y-133717600D01*
X144793488Y-133712673D01*
X144644188Y-133682976D01*
X144480216Y-133615056D01*
X144332646Y-133516453D01*
X144207147Y-133390954D01*
X144108544Y-133243384D01*
X144040624Y-133079412D01*
X144006000Y-132905341D01*
X144006000Y-132727859D01*
X144040624Y-132553788D01*
X144108544Y-132389816D01*
X144207147Y-132242246D01*
X144332646Y-132116747D01*
X144480216Y-132018144D01*
X144644188Y-131950224D01*
X144793488Y-131920527D01*
X144818258Y-131915600D01*
X144995742Y-131915600D01*
X145020512Y-131920527D01*
G37*
G36*
X134744098Y-128547033D02*
G01*
X135208350Y-128739332D01*
X135208352Y-128739333D01*
X135626168Y-129018509D01*
X135981491Y-129373832D01*
X136117075Y-129576748D01*
X136260668Y-129791650D01*
X136452967Y-130255902D01*
X136551000Y-130748747D01*
X136551000Y-131251253D01*
X136452967Y-131744098D01*
X136266499Y-132194273D01*
X136260667Y-132208352D01*
X135981491Y-132626168D01*
X135626168Y-132981491D01*
X135208352Y-133260667D01*
X135208351Y-133260668D01*
X135208350Y-133260668D01*
X134744098Y-133452967D01*
X134251253Y-133551000D01*
X133748747Y-133551000D01*
X133255902Y-133452967D01*
X132791650Y-133260668D01*
X132791649Y-133260668D01*
X132791648Y-133260667D01*
X132373832Y-132981491D01*
X132018509Y-132626168D01*
X131739333Y-132208352D01*
X131733501Y-132194273D01*
X131547033Y-131744098D01*
X131449000Y-131251253D01*
X131449000Y-130748747D01*
X131547033Y-130255902D01*
X131739332Y-129791650D01*
X131882925Y-129576748D01*
X132018509Y-129373832D01*
X132373832Y-129018509D01*
X132791648Y-128739333D01*
X132791650Y-128739332D01*
X133255902Y-128547033D01*
X133748747Y-128449000D01*
X134251253Y-128449000D01*
X134744098Y-128547033D01*
G37*
G36*
X161744098Y-128547033D02*
G01*
X162208350Y-128739332D01*
X162208352Y-128739333D01*
X162626168Y-129018509D01*
X162981491Y-129373832D01*
X163117075Y-129576748D01*
X163260668Y-129791650D01*
X163452967Y-130255902D01*
X163551000Y-130748747D01*
X163551000Y-131251253D01*
X163452967Y-131744098D01*
X163266499Y-132194273D01*
X163260667Y-132208352D01*
X162981491Y-132626168D01*
X162626168Y-132981491D01*
X162208352Y-133260667D01*
X162208351Y-133260668D01*
X162208350Y-133260668D01*
X161744098Y-133452967D01*
X161251253Y-133551000D01*
X160748747Y-133551000D01*
X160255902Y-133452967D01*
X159791650Y-133260668D01*
X159791649Y-133260668D01*
X159791648Y-133260667D01*
X159373832Y-132981491D01*
X159018509Y-132626168D01*
X158739333Y-132208352D01*
X158733501Y-132194273D01*
X158547033Y-131744098D01*
X158449000Y-131251253D01*
X158449000Y-130748747D01*
X158547033Y-130255902D01*
X158739332Y-129791650D01*
X158882925Y-129576748D01*
X159018509Y-129373832D01*
X159373832Y-129018509D01*
X159791648Y-128739333D01*
X159791650Y-128739332D01*
X160255902Y-128547033D01*
X160748747Y-128449000D01*
X161251253Y-128449000D01*
X161744098Y-128547033D01*
G37*
G36*
X150100512Y-129380527D02*
G01*
X150249812Y-129410224D01*
X150413784Y-129478144D01*
X150561354Y-129576747D01*
X150686853Y-129702246D01*
X150785456Y-129849816D01*
X150853376Y-130013788D01*
X150888000Y-130187859D01*
X150888000Y-130365341D01*
X150853376Y-130539412D01*
X150785456Y-130703384D01*
X150686853Y-130850954D01*
X150561354Y-130976453D01*
X150413784Y-131075056D01*
X150249812Y-131142976D01*
X150100512Y-131172673D01*
X150075742Y-131177600D01*
X149898258Y-131177600D01*
X149873488Y-131172673D01*
X149724188Y-131142976D01*
X149560216Y-131075056D01*
X149412646Y-130976453D01*
X149287147Y-130850954D01*
X149188544Y-130703384D01*
X149120624Y-130539412D01*
X149086000Y-130365341D01*
X149086000Y-130187859D01*
X149120624Y-130013788D01*
X149188544Y-129849816D01*
X149287147Y-129702246D01*
X149412646Y-129576747D01*
X149560216Y-129478144D01*
X149724188Y-129410224D01*
X149873488Y-129380527D01*
X149898258Y-129375600D01*
X150075742Y-129375600D01*
X150100512Y-129380527D01*
G37*
G36*
X147560512Y-129380527D02*
G01*
X147709812Y-129410224D01*
X147873784Y-129478144D01*
X148021354Y-129576747D01*
X148146853Y-129702246D01*
X148245456Y-129849816D01*
X148313376Y-130013788D01*
X148348000Y-130187859D01*
X148348000Y-130365341D01*
X148313376Y-130539412D01*
X148245456Y-130703384D01*
X148146853Y-130850954D01*
X148021354Y-130976453D01*
X147873784Y-131075056D01*
X147709812Y-131142976D01*
X147560512Y-131172673D01*
X147535742Y-131177600D01*
X147358258Y-131177600D01*
X147333488Y-131172673D01*
X147184188Y-131142976D01*
X147020216Y-131075056D01*
X146872646Y-130976453D01*
X146747147Y-130850954D01*
X146648544Y-130703384D01*
X146580624Y-130539412D01*
X146546000Y-130365341D01*
X146546000Y-130187859D01*
X146580624Y-130013788D01*
X146648544Y-129849816D01*
X146747147Y-129702246D01*
X146872646Y-129576747D01*
X147020216Y-129478144D01*
X147184188Y-129410224D01*
X147333488Y-129380527D01*
X147358258Y-129375600D01*
X147535742Y-129375600D01*
X147560512Y-129380527D01*
G37*
G36*
X142480512Y-129380527D02*
G01*
X142629812Y-129410224D01*
X142793784Y-129478144D01*
X142941354Y-129576747D01*
X143066853Y-129702246D01*
X143165456Y-129849816D01*
X143233376Y-130013788D01*
X143268000Y-130187859D01*
X143268000Y-130365341D01*
X143233376Y-130539412D01*
X143165456Y-130703384D01*
X143066853Y-130850954D01*
X142941354Y-130976453D01*
X142793784Y-131075056D01*
X142629812Y-131142976D01*
X142480512Y-131172673D01*
X142455742Y-131177600D01*
X142278258Y-131177600D01*
X142253488Y-131172673D01*
X142104188Y-131142976D01*
X141940216Y-131075056D01*
X141792646Y-130976453D01*
X141667147Y-130850954D01*
X141568544Y-130703384D01*
X141500624Y-130539412D01*
X141466000Y-130365341D01*
X141466000Y-130187859D01*
X141500624Y-130013788D01*
X141568544Y-129849816D01*
X141667147Y-129702246D01*
X141792646Y-129576747D01*
X141940216Y-129478144D01*
X142104188Y-129410224D01*
X142253488Y-129380527D01*
X142278258Y-129375600D01*
X142455742Y-129375600D01*
X142480512Y-129380527D01*
G37*
G36*
X145020512Y-129380527D02*
G01*
X145169812Y-129410224D01*
X145333784Y-129478144D01*
X145481354Y-129576747D01*
X145606853Y-129702246D01*
X145705456Y-129849816D01*
X145773376Y-130013788D01*
X145808000Y-130187859D01*
X145808000Y-130365341D01*
X145773376Y-130539412D01*
X145705456Y-130703384D01*
X145606853Y-130850954D01*
X145481354Y-130976453D01*
X145333784Y-131075056D01*
X145169812Y-131142976D01*
X145020512Y-131172673D01*
X144995742Y-131177600D01*
X144818258Y-131177600D01*
X144793488Y-131172673D01*
X144644188Y-131142976D01*
X144480216Y-131075056D01*
X144332646Y-130976453D01*
X144207147Y-130850954D01*
X144108544Y-130703384D01*
X144040624Y-130539412D01*
X144006000Y-130365341D01*
X144006000Y-130187859D01*
X144040624Y-130013788D01*
X144108544Y-129849816D01*
X144207147Y-129702246D01*
X144332646Y-129576747D01*
X144480216Y-129478144D01*
X144644188Y-129410224D01*
X144793488Y-129380527D01*
X144818258Y-129375600D01*
X144995742Y-129375600D01*
X145020512Y-129380527D01*
G37*
G36*
X152640512Y-129380527D02*
G01*
X152789812Y-129410224D01*
X152953784Y-129478144D01*
X153101354Y-129576747D01*
X153226853Y-129702246D01*
X153325456Y-129849816D01*
X153393376Y-130013788D01*
X153428000Y-130187859D01*
X153428000Y-130365341D01*
X153393376Y-130539412D01*
X153325456Y-130703384D01*
X153226853Y-130850954D01*
X153101354Y-130976453D01*
X152953784Y-131075056D01*
X152789812Y-131142976D01*
X152640512Y-131172673D01*
X152615742Y-131177600D01*
X152438258Y-131177600D01*
X152413488Y-131172673D01*
X152264188Y-131142976D01*
X152100216Y-131075056D01*
X151952646Y-130976453D01*
X151827147Y-130850954D01*
X151728544Y-130703384D01*
X151660624Y-130539412D01*
X151626000Y-130365341D01*
X151626000Y-130187859D01*
X151660624Y-130013788D01*
X151728544Y-129849816D01*
X151827147Y-129702246D01*
X151952646Y-129576747D01*
X152100216Y-129478144D01*
X152264188Y-129410224D01*
X152413488Y-129380527D01*
X152438258Y-129375600D01*
X152615742Y-129375600D01*
X152640512Y-129380527D01*
G37*
G36*
X162800512Y-125087927D02*
G01*
X162949812Y-125117624D01*
X163113784Y-125185544D01*
X163261354Y-125284147D01*
X163386853Y-125409646D01*
X163485456Y-125557216D01*
X163553376Y-125721188D01*
X163588000Y-125895259D01*
X163588000Y-126072741D01*
X163553376Y-126246812D01*
X163485456Y-126410784D01*
X163386853Y-126558354D01*
X163261354Y-126683853D01*
X163113784Y-126782456D01*
X162949812Y-126850376D01*
X162800512Y-126880073D01*
X162775742Y-126885000D01*
X162598258Y-126885000D01*
X162573488Y-126880073D01*
X162424188Y-126850376D01*
X162260216Y-126782456D01*
X162112646Y-126683853D01*
X161987147Y-126558354D01*
X161888544Y-126410784D01*
X161820624Y-126246812D01*
X161786000Y-126072741D01*
X161786000Y-125895259D01*
X161820624Y-125721188D01*
X161888544Y-125557216D01*
X161987147Y-125409646D01*
X162112646Y-125284147D01*
X162260216Y-125185544D01*
X162424188Y-125117624D01*
X162573488Y-125087927D01*
X162598258Y-125083000D01*
X162775742Y-125083000D01*
X162800512Y-125087927D01*
G37*
G36*
X134860512Y-125087927D02*
G01*
X135009812Y-125117624D01*
X135173784Y-125185544D01*
X135321354Y-125284147D01*
X135446853Y-125409646D01*
X135545456Y-125557216D01*
X135613376Y-125721188D01*
X135648000Y-125895259D01*
X135648000Y-126072741D01*
X135613376Y-126246812D01*
X135545456Y-126410784D01*
X135446853Y-126558354D01*
X135321354Y-126683853D01*
X135173784Y-126782456D01*
X135009812Y-126850376D01*
X134860512Y-126880073D01*
X134835742Y-126885000D01*
X134658258Y-126885000D01*
X134633488Y-126880073D01*
X134484188Y-126850376D01*
X134320216Y-126782456D01*
X134172646Y-126683853D01*
X134047147Y-126558354D01*
X133948544Y-126410784D01*
X133880624Y-126246812D01*
X133846000Y-126072741D01*
X133846000Y-125895259D01*
X133880624Y-125721188D01*
X133948544Y-125557216D01*
X134047147Y-125409646D01*
X134172646Y-125284147D01*
X134320216Y-125185544D01*
X134484188Y-125117624D01*
X134633488Y-125087927D01*
X134658258Y-125083000D01*
X134835742Y-125083000D01*
X134860512Y-125087927D01*
G37*
G36*
X133108000Y-126885000D02*
G01*
X131306000Y-126885000D01*
X131306000Y-125083000D01*
X133108000Y-125083000D01*
X133108000Y-126885000D01*
G37*
G36*
X161048000Y-126885000D02*
G01*
X159246000Y-126885000D01*
X159246000Y-125083000D01*
X161048000Y-125083000D01*
X161048000Y-126885000D01*
G37*
G36*
X132320512Y-122547927D02*
G01*
X132469812Y-122577624D01*
X132633784Y-122645544D01*
X132781354Y-122744147D01*
X132906853Y-122869646D01*
X133005456Y-123017216D01*
X133073376Y-123181188D01*
X133108000Y-123355259D01*
X133108000Y-123532741D01*
X133073376Y-123706812D01*
X133005456Y-123870784D01*
X132906853Y-124018354D01*
X132781354Y-124143853D01*
X132633784Y-124242456D01*
X132469812Y-124310376D01*
X132320512Y-124340073D01*
X132295742Y-124345000D01*
X132118258Y-124345000D01*
X132093488Y-124340073D01*
X131944188Y-124310376D01*
X131780216Y-124242456D01*
X131632646Y-124143853D01*
X131507147Y-124018354D01*
X131408544Y-123870784D01*
X131340624Y-123706812D01*
X131306000Y-123532741D01*
X131306000Y-123355259D01*
X131340624Y-123181188D01*
X131408544Y-123017216D01*
X131507147Y-122869646D01*
X131632646Y-122744147D01*
X131780216Y-122645544D01*
X131944188Y-122577624D01*
X132093488Y-122547927D01*
X132118258Y-122543000D01*
X132295742Y-122543000D01*
X132320512Y-122547927D01*
G37*
G36*
X162800512Y-122547927D02*
G01*
X162949812Y-122577624D01*
X163113784Y-122645544D01*
X163261354Y-122744147D01*
X163386853Y-122869646D01*
X163485456Y-123017216D01*
X163553376Y-123181188D01*
X163588000Y-123355259D01*
X163588000Y-123532741D01*
X163553376Y-123706812D01*
X163485456Y-123870784D01*
X163386853Y-124018354D01*
X163261354Y-124143853D01*
X163113784Y-124242456D01*
X162949812Y-124310376D01*
X162800512Y-124340073D01*
X162775742Y-124345000D01*
X162598258Y-124345000D01*
X162573488Y-124340073D01*
X162424188Y-124310376D01*
X162260216Y-124242456D01*
X162112646Y-124143853D01*
X161987147Y-124018354D01*
X161888544Y-123870784D01*
X161820624Y-123706812D01*
X161786000Y-123532741D01*
X161786000Y-123355259D01*
X161820624Y-123181188D01*
X161888544Y-123017216D01*
X161987147Y-122869646D01*
X162112646Y-122744147D01*
X162260216Y-122645544D01*
X162424188Y-122577624D01*
X162573488Y-122547927D01*
X162598258Y-122543000D01*
X162775742Y-122543000D01*
X162800512Y-122547927D01*
G37*
G36*
X160260512Y-122547927D02*
G01*
X160409812Y-122577624D01*
X160573784Y-122645544D01*
X160721354Y-122744147D01*
X160846853Y-122869646D01*
X160945456Y-123017216D01*
X161013376Y-123181188D01*
X161048000Y-123355259D01*
X161048000Y-123532741D01*
X161013376Y-123706812D01*
X160945456Y-123870784D01*
X160846853Y-124018354D01*
X160721354Y-124143853D01*
X160573784Y-124242456D01*
X160409812Y-124310376D01*
X160260512Y-124340073D01*
X160235742Y-124345000D01*
X160058258Y-124345000D01*
X160033488Y-124340073D01*
X159884188Y-124310376D01*
X159720216Y-124242456D01*
X159572646Y-124143853D01*
X159447147Y-124018354D01*
X159348544Y-123870784D01*
X159280624Y-123706812D01*
X159246000Y-123532741D01*
X159246000Y-123355259D01*
X159280624Y-123181188D01*
X159348544Y-123017216D01*
X159447147Y-122869646D01*
X159572646Y-122744147D01*
X159720216Y-122645544D01*
X159884188Y-122577624D01*
X160033488Y-122547927D01*
X160058258Y-122543000D01*
X160235742Y-122543000D01*
X160260512Y-122547927D01*
G37*
G36*
X134860512Y-122547927D02*
G01*
X135009812Y-122577624D01*
X135173784Y-122645544D01*
X135321354Y-122744147D01*
X135446853Y-122869646D01*
X135545456Y-123017216D01*
X135613376Y-123181188D01*
X135648000Y-123355259D01*
X135648000Y-123532741D01*
X135613376Y-123706812D01*
X135545456Y-123870784D01*
X135446853Y-124018354D01*
X135321354Y-124143853D01*
X135173784Y-124242456D01*
X135009812Y-124310376D01*
X134860512Y-124340073D01*
X134835742Y-124345000D01*
X134658258Y-124345000D01*
X134633488Y-124340073D01*
X134484188Y-124310376D01*
X134320216Y-124242456D01*
X134172646Y-124143853D01*
X134047147Y-124018354D01*
X133948544Y-123870784D01*
X133880624Y-123706812D01*
X133846000Y-123532741D01*
X133846000Y-123355259D01*
X133880624Y-123181188D01*
X133948544Y-123017216D01*
X134047147Y-122869646D01*
X134172646Y-122744147D01*
X134320216Y-122645544D01*
X134484188Y-122577624D01*
X134633488Y-122547927D01*
X134658258Y-122543000D01*
X134835742Y-122543000D01*
X134860512Y-122547927D01*
G37*
G36*
X162800512Y-120007927D02*
G01*
X162949812Y-120037624D01*
X163113784Y-120105544D01*
X163261354Y-120204147D01*
X163386853Y-120329646D01*
X163485456Y-120477216D01*
X163553376Y-120641188D01*
X163588000Y-120815259D01*
X163588000Y-120992741D01*
X163553376Y-121166812D01*
X163485456Y-121330784D01*
X163386853Y-121478354D01*
X163261354Y-121603853D01*
X163113784Y-121702456D01*
X162949812Y-121770376D01*
X162800512Y-121800073D01*
X162775742Y-121805000D01*
X162598258Y-121805000D01*
X162573488Y-121800073D01*
X162424188Y-121770376D01*
X162260216Y-121702456D01*
X162112646Y-121603853D01*
X161987147Y-121478354D01*
X161888544Y-121330784D01*
X161820624Y-121166812D01*
X161786000Y-120992741D01*
X161786000Y-120815259D01*
X161820624Y-120641188D01*
X161888544Y-120477216D01*
X161987147Y-120329646D01*
X162112646Y-120204147D01*
X162260216Y-120105544D01*
X162424188Y-120037624D01*
X162573488Y-120007927D01*
X162598258Y-120003000D01*
X162775742Y-120003000D01*
X162800512Y-120007927D01*
G37*
G36*
X160260512Y-120007927D02*
G01*
X160409812Y-120037624D01*
X160573784Y-120105544D01*
X160721354Y-120204147D01*
X160846853Y-120329646D01*
X160945456Y-120477216D01*
X161013376Y-120641188D01*
X161048000Y-120815259D01*
X161048000Y-120992741D01*
X161013376Y-121166812D01*
X160945456Y-121330784D01*
X160846853Y-121478354D01*
X160721354Y-121603853D01*
X160573784Y-121702456D01*
X160409812Y-121770376D01*
X160260512Y-121800073D01*
X160235742Y-121805000D01*
X160058258Y-121805000D01*
X160033488Y-121800073D01*
X159884188Y-121770376D01*
X159720216Y-121702456D01*
X159572646Y-121603853D01*
X159447147Y-121478354D01*
X159348544Y-121330784D01*
X159280624Y-121166812D01*
X159246000Y-120992741D01*
X159246000Y-120815259D01*
X159280624Y-120641188D01*
X159348544Y-120477216D01*
X159447147Y-120329646D01*
X159572646Y-120204147D01*
X159720216Y-120105544D01*
X159884188Y-120037624D01*
X160033488Y-120007927D01*
X160058258Y-120003000D01*
X160235742Y-120003000D01*
X160260512Y-120007927D01*
G37*
G36*
X132320512Y-120007927D02*
G01*
X132469812Y-120037624D01*
X132633784Y-120105544D01*
X132781354Y-120204147D01*
X132906853Y-120329646D01*
X133005456Y-120477216D01*
X133073376Y-120641188D01*
X133108000Y-120815259D01*
X133108000Y-120992741D01*
X133073376Y-121166812D01*
X133005456Y-121330784D01*
X132906853Y-121478354D01*
X132781354Y-121603853D01*
X132633784Y-121702456D01*
X132469812Y-121770376D01*
X132320512Y-121800073D01*
X132295742Y-121805000D01*
X132118258Y-121805000D01*
X132093488Y-121800073D01*
X131944188Y-121770376D01*
X131780216Y-121702456D01*
X131632646Y-121603853D01*
X131507147Y-121478354D01*
X131408544Y-121330784D01*
X131340624Y-121166812D01*
X131306000Y-120992741D01*
X131306000Y-120815259D01*
X131340624Y-120641188D01*
X131408544Y-120477216D01*
X131507147Y-120329646D01*
X131632646Y-120204147D01*
X131780216Y-120105544D01*
X131944188Y-120037624D01*
X132093488Y-120007927D01*
X132118258Y-120003000D01*
X132295742Y-120003000D01*
X132320512Y-120007927D01*
G37*
G36*
X134860512Y-120007927D02*
G01*
X135009812Y-120037624D01*
X135173784Y-120105544D01*
X135321354Y-120204147D01*
X135446853Y-120329646D01*
X135545456Y-120477216D01*
X135613376Y-120641188D01*
X135648000Y-120815259D01*
X135648000Y-120992741D01*
X135613376Y-121166812D01*
X135545456Y-121330784D01*
X135446853Y-121478354D01*
X135321354Y-121603853D01*
X135173784Y-121702456D01*
X135009812Y-121770376D01*
X134860512Y-121800073D01*
X134835742Y-121805000D01*
X134658258Y-121805000D01*
X134633488Y-121800073D01*
X134484188Y-121770376D01*
X134320216Y-121702456D01*
X134172646Y-121603853D01*
X134047147Y-121478354D01*
X133948544Y-121330784D01*
X133880624Y-121166812D01*
X133846000Y-120992741D01*
X133846000Y-120815259D01*
X133880624Y-120641188D01*
X133948544Y-120477216D01*
X134047147Y-120329646D01*
X134172646Y-120204147D01*
X134320216Y-120105544D01*
X134484188Y-120037624D01*
X134633488Y-120007927D01*
X134658258Y-120003000D01*
X134835742Y-120003000D01*
X134860512Y-120007927D01*
G37*
G36*
X132320512Y-117467927D02*
G01*
X132469812Y-117497624D01*
X132633784Y-117565544D01*
X132781354Y-117664147D01*
X132906853Y-117789646D01*
X133005456Y-117937216D01*
X133073376Y-118101188D01*
X133108000Y-118275259D01*
X133108000Y-118452741D01*
X133073376Y-118626812D01*
X133005456Y-118790784D01*
X132906853Y-118938354D01*
X132781354Y-119063853D01*
X132633784Y-119162456D01*
X132469812Y-119230376D01*
X132320512Y-119260073D01*
X132295742Y-119265000D01*
X132118258Y-119265000D01*
X132093488Y-119260073D01*
X131944188Y-119230376D01*
X131780216Y-119162456D01*
X131632646Y-119063853D01*
X131507147Y-118938354D01*
X131408544Y-118790784D01*
X131340624Y-118626812D01*
X131306000Y-118452741D01*
X131306000Y-118275259D01*
X131340624Y-118101188D01*
X131408544Y-117937216D01*
X131507147Y-117789646D01*
X131632646Y-117664147D01*
X131780216Y-117565544D01*
X131944188Y-117497624D01*
X132093488Y-117467927D01*
X132118258Y-117463000D01*
X132295742Y-117463000D01*
X132320512Y-117467927D01*
G37*
G36*
X134860512Y-117467927D02*
G01*
X135009812Y-117497624D01*
X135173784Y-117565544D01*
X135321354Y-117664147D01*
X135446853Y-117789646D01*
X135545456Y-117937216D01*
X135613376Y-118101188D01*
X135648000Y-118275259D01*
X135648000Y-118452741D01*
X135613376Y-118626812D01*
X135545456Y-118790784D01*
X135446853Y-118938354D01*
X135321354Y-119063853D01*
X135173784Y-119162456D01*
X135009812Y-119230376D01*
X134860512Y-119260073D01*
X134835742Y-119265000D01*
X134658258Y-119265000D01*
X134633488Y-119260073D01*
X134484188Y-119230376D01*
X134320216Y-119162456D01*
X134172646Y-119063853D01*
X134047147Y-118938354D01*
X133948544Y-118790784D01*
X133880624Y-118626812D01*
X133846000Y-118452741D01*
X133846000Y-118275259D01*
X133880624Y-118101188D01*
X133948544Y-117937216D01*
X134047147Y-117789646D01*
X134172646Y-117664147D01*
X134320216Y-117565544D01*
X134484188Y-117497624D01*
X134633488Y-117467927D01*
X134658258Y-117463000D01*
X134835742Y-117463000D01*
X134860512Y-117467927D01*
G37*
G36*
X160260512Y-117467927D02*
G01*
X160409812Y-117497624D01*
X160573784Y-117565544D01*
X160721354Y-117664147D01*
X160846853Y-117789646D01*
X160945456Y-117937216D01*
X161013376Y-118101188D01*
X161048000Y-118275259D01*
X161048000Y-118452741D01*
X161013376Y-118626812D01*
X160945456Y-118790784D01*
X160846853Y-118938354D01*
X160721354Y-119063853D01*
X160573784Y-119162456D01*
X160409812Y-119230376D01*
X160260512Y-119260073D01*
X160235742Y-119265000D01*
X160058258Y-119265000D01*
X160033488Y-119260073D01*
X159884188Y-119230376D01*
X159720216Y-119162456D01*
X159572646Y-119063853D01*
X159447147Y-118938354D01*
X159348544Y-118790784D01*
X159280624Y-118626812D01*
X159246000Y-118452741D01*
X159246000Y-118275259D01*
X159280624Y-118101188D01*
X159348544Y-117937216D01*
X159447147Y-117789646D01*
X159572646Y-117664147D01*
X159720216Y-117565544D01*
X159884188Y-117497624D01*
X160033488Y-117467927D01*
X160058258Y-117463000D01*
X160235742Y-117463000D01*
X160260512Y-117467927D01*
G37*
G36*
X162800512Y-117467927D02*
G01*
X162949812Y-117497624D01*
X163113784Y-117565544D01*
X163261354Y-117664147D01*
X163386853Y-117789646D01*
X163485456Y-117937216D01*
X163553376Y-118101188D01*
X163588000Y-118275259D01*
X163588000Y-118452741D01*
X163553376Y-118626812D01*
X163485456Y-118790784D01*
X163386853Y-118938354D01*
X163261354Y-119063853D01*
X163113784Y-119162456D01*
X162949812Y-119230376D01*
X162800512Y-119260073D01*
X162775742Y-119265000D01*
X162598258Y-119265000D01*
X162573488Y-119260073D01*
X162424188Y-119230376D01*
X162260216Y-119162456D01*
X162112646Y-119063853D01*
X161987147Y-118938354D01*
X161888544Y-118790784D01*
X161820624Y-118626812D01*
X161786000Y-118452741D01*
X161786000Y-118275259D01*
X161820624Y-118101188D01*
X161888544Y-117937216D01*
X161987147Y-117789646D01*
X162112646Y-117664147D01*
X162260216Y-117565544D01*
X162424188Y-117497624D01*
X162573488Y-117467927D01*
X162598258Y-117463000D01*
X162775742Y-117463000D01*
X162800512Y-117467927D01*
G37*
G36*
X160260512Y-114927927D02*
G01*
X160409812Y-114957624D01*
X160573784Y-115025544D01*
X160721354Y-115124147D01*
X160846853Y-115249646D01*
X160945456Y-115397216D01*
X161013376Y-115561188D01*
X161048000Y-115735259D01*
X161048000Y-115912741D01*
X161013376Y-116086812D01*
X160945456Y-116250784D01*
X160846853Y-116398354D01*
X160721354Y-116523853D01*
X160573784Y-116622456D01*
X160409812Y-116690376D01*
X160260512Y-116720073D01*
X160235742Y-116725000D01*
X160058258Y-116725000D01*
X160033488Y-116720073D01*
X159884188Y-116690376D01*
X159720216Y-116622456D01*
X159572646Y-116523853D01*
X159447147Y-116398354D01*
X159348544Y-116250784D01*
X159280624Y-116086812D01*
X159246000Y-115912741D01*
X159246000Y-115735259D01*
X159280624Y-115561188D01*
X159348544Y-115397216D01*
X159447147Y-115249646D01*
X159572646Y-115124147D01*
X159720216Y-115025544D01*
X159884188Y-114957624D01*
X160033488Y-114927927D01*
X160058258Y-114923000D01*
X160235742Y-114923000D01*
X160260512Y-114927927D01*
G37*
G36*
X162800512Y-114927927D02*
G01*
X162949812Y-114957624D01*
X163113784Y-115025544D01*
X163261354Y-115124147D01*
X163386853Y-115249646D01*
X163485456Y-115397216D01*
X163553376Y-115561188D01*
X163588000Y-115735259D01*
X163588000Y-115912741D01*
X163553376Y-116086812D01*
X163485456Y-116250784D01*
X163386853Y-116398354D01*
X163261354Y-116523853D01*
X163113784Y-116622456D01*
X162949812Y-116690376D01*
X162800512Y-116720073D01*
X162775742Y-116725000D01*
X162598258Y-116725000D01*
X162573488Y-116720073D01*
X162424188Y-116690376D01*
X162260216Y-116622456D01*
X162112646Y-116523853D01*
X161987147Y-116398354D01*
X161888544Y-116250784D01*
X161820624Y-116086812D01*
X161786000Y-115912741D01*
X161786000Y-115735259D01*
X161820624Y-115561188D01*
X161888544Y-115397216D01*
X161987147Y-115249646D01*
X162112646Y-115124147D01*
X162260216Y-115025544D01*
X162424188Y-114957624D01*
X162573488Y-114927927D01*
X162598258Y-114923000D01*
X162775742Y-114923000D01*
X162800512Y-114927927D01*
G37*
G36*
X132320512Y-114927927D02*
G01*
X132469812Y-114957624D01*
X132633784Y-115025544D01*
X132781354Y-115124147D01*
X132906853Y-115249646D01*
X133005456Y-115397216D01*
X133073376Y-115561188D01*
X133108000Y-115735259D01*
X133108000Y-115912741D01*
X133073376Y-116086812D01*
X133005456Y-116250784D01*
X132906853Y-116398354D01*
X132781354Y-116523853D01*
X132633784Y-116622456D01*
X132469812Y-116690376D01*
X132320512Y-116720073D01*
X132295742Y-116725000D01*
X132118258Y-116725000D01*
X132093488Y-116720073D01*
X131944188Y-116690376D01*
X131780216Y-116622456D01*
X131632646Y-116523853D01*
X131507147Y-116398354D01*
X131408544Y-116250784D01*
X131340624Y-116086812D01*
X131306000Y-115912741D01*
X131306000Y-115735259D01*
X131340624Y-115561188D01*
X131408544Y-115397216D01*
X131507147Y-115249646D01*
X131632646Y-115124147D01*
X131780216Y-115025544D01*
X131944188Y-114957624D01*
X132093488Y-114927927D01*
X132118258Y-114923000D01*
X132295742Y-114923000D01*
X132320512Y-114927927D01*
G37*
G36*
X134860512Y-114927927D02*
G01*
X135009812Y-114957624D01*
X135173784Y-115025544D01*
X135321354Y-115124147D01*
X135446853Y-115249646D01*
X135545456Y-115397216D01*
X135613376Y-115561188D01*
X135648000Y-115735259D01*
X135648000Y-115912741D01*
X135613376Y-116086812D01*
X135545456Y-116250784D01*
X135446853Y-116398354D01*
X135321354Y-116523853D01*
X135173784Y-116622456D01*
X135009812Y-116690376D01*
X134860512Y-116720073D01*
X134835742Y-116725000D01*
X134658258Y-116725000D01*
X134633488Y-116720073D01*
X134484188Y-116690376D01*
X134320216Y-116622456D01*
X134172646Y-116523853D01*
X134047147Y-116398354D01*
X133948544Y-116250784D01*
X133880624Y-116086812D01*
X133846000Y-115912741D01*
X133846000Y-115735259D01*
X133880624Y-115561188D01*
X133948544Y-115397216D01*
X134047147Y-115249646D01*
X134172646Y-115124147D01*
X134320216Y-115025544D01*
X134484188Y-114957624D01*
X134633488Y-114927927D01*
X134658258Y-114923000D01*
X134835742Y-114923000D01*
X134860512Y-114927927D01*
G37*
G36*
X160260512Y-112387927D02*
G01*
X160409812Y-112417624D01*
X160573784Y-112485544D01*
X160721354Y-112584147D01*
X160846853Y-112709646D01*
X160945456Y-112857216D01*
X161013376Y-113021188D01*
X161048000Y-113195259D01*
X161048000Y-113372741D01*
X161013376Y-113546812D01*
X160945456Y-113710784D01*
X160846853Y-113858354D01*
X160721354Y-113983853D01*
X160573784Y-114082456D01*
X160409812Y-114150376D01*
X160260512Y-114180073D01*
X160235742Y-114185000D01*
X160058258Y-114185000D01*
X160033488Y-114180073D01*
X159884188Y-114150376D01*
X159720216Y-114082456D01*
X159572646Y-113983853D01*
X159447147Y-113858354D01*
X159348544Y-113710784D01*
X159280624Y-113546812D01*
X159246000Y-113372741D01*
X159246000Y-113195259D01*
X159280624Y-113021188D01*
X159348544Y-112857216D01*
X159447147Y-112709646D01*
X159572646Y-112584147D01*
X159720216Y-112485544D01*
X159884188Y-112417624D01*
X160033488Y-112387927D01*
X160058258Y-112383000D01*
X160235742Y-112383000D01*
X160260512Y-112387927D01*
G37*
G36*
X132320512Y-112387927D02*
G01*
X132469812Y-112417624D01*
X132633784Y-112485544D01*
X132781354Y-112584147D01*
X132906853Y-112709646D01*
X133005456Y-112857216D01*
X133073376Y-113021188D01*
X133108000Y-113195259D01*
X133108000Y-113372741D01*
X133073376Y-113546812D01*
X133005456Y-113710784D01*
X132906853Y-113858354D01*
X132781354Y-113983853D01*
X132633784Y-114082456D01*
X132469812Y-114150376D01*
X132320512Y-114180073D01*
X132295742Y-114185000D01*
X132118258Y-114185000D01*
X132093488Y-114180073D01*
X131944188Y-114150376D01*
X131780216Y-114082456D01*
X131632646Y-113983853D01*
X131507147Y-113858354D01*
X131408544Y-113710784D01*
X131340624Y-113546812D01*
X131306000Y-113372741D01*
X131306000Y-113195259D01*
X131340624Y-113021188D01*
X131408544Y-112857216D01*
X131507147Y-112709646D01*
X131632646Y-112584147D01*
X131780216Y-112485544D01*
X131944188Y-112417624D01*
X132093488Y-112387927D01*
X132118258Y-112383000D01*
X132295742Y-112383000D01*
X132320512Y-112387927D01*
G37*
G36*
X134860512Y-112387927D02*
G01*
X135009812Y-112417624D01*
X135173784Y-112485544D01*
X135321354Y-112584147D01*
X135446853Y-112709646D01*
X135545456Y-112857216D01*
X135613376Y-113021188D01*
X135648000Y-113195259D01*
X135648000Y-113372741D01*
X135613376Y-113546812D01*
X135545456Y-113710784D01*
X135446853Y-113858354D01*
X135321354Y-113983853D01*
X135173784Y-114082456D01*
X135009812Y-114150376D01*
X134860512Y-114180073D01*
X134835742Y-114185000D01*
X134658258Y-114185000D01*
X134633488Y-114180073D01*
X134484188Y-114150376D01*
X134320216Y-114082456D01*
X134172646Y-113983853D01*
X134047147Y-113858354D01*
X133948544Y-113710784D01*
X133880624Y-113546812D01*
X133846000Y-113372741D01*
X133846000Y-113195259D01*
X133880624Y-113021188D01*
X133948544Y-112857216D01*
X134047147Y-112709646D01*
X134172646Y-112584147D01*
X134320216Y-112485544D01*
X134484188Y-112417624D01*
X134633488Y-112387927D01*
X134658258Y-112383000D01*
X134835742Y-112383000D01*
X134860512Y-112387927D01*
G37*
G36*
X162800512Y-112387927D02*
G01*
X162949812Y-112417624D01*
X163113784Y-112485544D01*
X163261354Y-112584147D01*
X163386853Y-112709646D01*
X163485456Y-112857216D01*
X163553376Y-113021188D01*
X163588000Y-113195259D01*
X163588000Y-113372741D01*
X163553376Y-113546812D01*
X163485456Y-113710784D01*
X163386853Y-113858354D01*
X163261354Y-113983853D01*
X163113784Y-114082456D01*
X162949812Y-114150376D01*
X162800512Y-114180073D01*
X162775742Y-114185000D01*
X162598258Y-114185000D01*
X162573488Y-114180073D01*
X162424188Y-114150376D01*
X162260216Y-114082456D01*
X162112646Y-113983853D01*
X161987147Y-113858354D01*
X161888544Y-113710784D01*
X161820624Y-113546812D01*
X161786000Y-113372741D01*
X161786000Y-113195259D01*
X161820624Y-113021188D01*
X161888544Y-112857216D01*
X161987147Y-112709646D01*
X162112646Y-112584147D01*
X162260216Y-112485544D01*
X162424188Y-112417624D01*
X162573488Y-112387927D01*
X162598258Y-112383000D01*
X162775742Y-112383000D01*
X162800512Y-112387927D01*
G37*
G36*
X162800512Y-109847927D02*
G01*
X162949812Y-109877624D01*
X163113784Y-109945544D01*
X163261354Y-110044147D01*
X163386853Y-110169646D01*
X163485456Y-110317216D01*
X163553376Y-110481188D01*
X163588000Y-110655259D01*
X163588000Y-110832741D01*
X163553376Y-111006812D01*
X163485456Y-111170784D01*
X163386853Y-111318354D01*
X163261354Y-111443853D01*
X163113784Y-111542456D01*
X162949812Y-111610376D01*
X162800512Y-111640073D01*
X162775742Y-111645000D01*
X162598258Y-111645000D01*
X162573488Y-111640073D01*
X162424188Y-111610376D01*
X162260216Y-111542456D01*
X162112646Y-111443853D01*
X161987147Y-111318354D01*
X161888544Y-111170784D01*
X161820624Y-111006812D01*
X161786000Y-110832741D01*
X161786000Y-110655259D01*
X161820624Y-110481188D01*
X161888544Y-110317216D01*
X161987147Y-110169646D01*
X162112646Y-110044147D01*
X162260216Y-109945544D01*
X162424188Y-109877624D01*
X162573488Y-109847927D01*
X162598258Y-109843000D01*
X162775742Y-109843000D01*
X162800512Y-109847927D01*
G37*
G36*
X132320512Y-109847927D02*
G01*
X132469812Y-109877624D01*
X132633784Y-109945544D01*
X132781354Y-110044147D01*
X132906853Y-110169646D01*
X133005456Y-110317216D01*
X133073376Y-110481188D01*
X133108000Y-110655259D01*
X133108000Y-110832741D01*
X133073376Y-111006812D01*
X133005456Y-111170784D01*
X132906853Y-111318354D01*
X132781354Y-111443853D01*
X132633784Y-111542456D01*
X132469812Y-111610376D01*
X132320512Y-111640073D01*
X132295742Y-111645000D01*
X132118258Y-111645000D01*
X132093488Y-111640073D01*
X131944188Y-111610376D01*
X131780216Y-111542456D01*
X131632646Y-111443853D01*
X131507147Y-111318354D01*
X131408544Y-111170784D01*
X131340624Y-111006812D01*
X131306000Y-110832741D01*
X131306000Y-110655259D01*
X131340624Y-110481188D01*
X131408544Y-110317216D01*
X131507147Y-110169646D01*
X131632646Y-110044147D01*
X131780216Y-109945544D01*
X131944188Y-109877624D01*
X132093488Y-109847927D01*
X132118258Y-109843000D01*
X132295742Y-109843000D01*
X132320512Y-109847927D01*
G37*
G36*
X160260512Y-109847927D02*
G01*
X160409812Y-109877624D01*
X160573784Y-109945544D01*
X160721354Y-110044147D01*
X160846853Y-110169646D01*
X160945456Y-110317216D01*
X161013376Y-110481188D01*
X161048000Y-110655259D01*
X161048000Y-110832741D01*
X161013376Y-111006812D01*
X160945456Y-111170784D01*
X160846853Y-111318354D01*
X160721354Y-111443853D01*
X160573784Y-111542456D01*
X160409812Y-111610376D01*
X160260512Y-111640073D01*
X160235742Y-111645000D01*
X160058258Y-111645000D01*
X160033488Y-111640073D01*
X159884188Y-111610376D01*
X159720216Y-111542456D01*
X159572646Y-111443853D01*
X159447147Y-111318354D01*
X159348544Y-111170784D01*
X159280624Y-111006812D01*
X159246000Y-110832741D01*
X159246000Y-110655259D01*
X159280624Y-110481188D01*
X159348544Y-110317216D01*
X159447147Y-110169646D01*
X159572646Y-110044147D01*
X159720216Y-109945544D01*
X159884188Y-109877624D01*
X160033488Y-109847927D01*
X160058258Y-109843000D01*
X160235742Y-109843000D01*
X160260512Y-109847927D01*
G37*
G36*
X134860512Y-109847927D02*
G01*
X135009812Y-109877624D01*
X135173784Y-109945544D01*
X135321354Y-110044147D01*
X135446853Y-110169646D01*
X135545456Y-110317216D01*
X135613376Y-110481188D01*
X135648000Y-110655259D01*
X135648000Y-110832741D01*
X135613376Y-111006812D01*
X135545456Y-111170784D01*
X135446853Y-111318354D01*
X135321354Y-111443853D01*
X135173784Y-111542456D01*
X135009812Y-111610376D01*
X134860512Y-111640073D01*
X134835742Y-111645000D01*
X134658258Y-111645000D01*
X134633488Y-111640073D01*
X134484188Y-111610376D01*
X134320216Y-111542456D01*
X134172646Y-111443853D01*
X134047147Y-111318354D01*
X133948544Y-111170784D01*
X133880624Y-111006812D01*
X133846000Y-110832741D01*
X133846000Y-110655259D01*
X133880624Y-110481188D01*
X133948544Y-110317216D01*
X134047147Y-110169646D01*
X134172646Y-110044147D01*
X134320216Y-109945544D01*
X134484188Y-109877624D01*
X134633488Y-109847927D01*
X134658258Y-109843000D01*
X134835742Y-109843000D01*
X134860512Y-109847927D01*
G37*
G36*
X160260512Y-107307927D02*
G01*
X160409812Y-107337624D01*
X160573784Y-107405544D01*
X160721354Y-107504147D01*
X160846853Y-107629646D01*
X160945456Y-107777216D01*
X161013376Y-107941188D01*
X161048000Y-108115259D01*
X161048000Y-108292741D01*
X161013376Y-108466812D01*
X160945456Y-108630784D01*
X160846853Y-108778354D01*
X160721354Y-108903853D01*
X160573784Y-109002456D01*
X160409812Y-109070376D01*
X160260512Y-109100073D01*
X160235742Y-109105000D01*
X160058258Y-109105000D01*
X160033488Y-109100073D01*
X159884188Y-109070376D01*
X159720216Y-109002456D01*
X159572646Y-108903853D01*
X159447147Y-108778354D01*
X159348544Y-108630784D01*
X159280624Y-108466812D01*
X159246000Y-108292741D01*
X159246000Y-108115259D01*
X159280624Y-107941188D01*
X159348544Y-107777216D01*
X159447147Y-107629646D01*
X159572646Y-107504147D01*
X159720216Y-107405544D01*
X159884188Y-107337624D01*
X160033488Y-107307927D01*
X160058258Y-107303000D01*
X160235742Y-107303000D01*
X160260512Y-107307927D01*
G37*
G36*
X132320512Y-107307927D02*
G01*
X132469812Y-107337624D01*
X132633784Y-107405544D01*
X132781354Y-107504147D01*
X132906853Y-107629646D01*
X133005456Y-107777216D01*
X133073376Y-107941188D01*
X133108000Y-108115259D01*
X133108000Y-108292741D01*
X133073376Y-108466812D01*
X133005456Y-108630784D01*
X132906853Y-108778354D01*
X132781354Y-108903853D01*
X132633784Y-109002456D01*
X132469812Y-109070376D01*
X132320512Y-109100073D01*
X132295742Y-109105000D01*
X132118258Y-109105000D01*
X132093488Y-109100073D01*
X131944188Y-109070376D01*
X131780216Y-109002456D01*
X131632646Y-108903853D01*
X131507147Y-108778354D01*
X131408544Y-108630784D01*
X131340624Y-108466812D01*
X131306000Y-108292741D01*
X131306000Y-108115259D01*
X131340624Y-107941188D01*
X131408544Y-107777216D01*
X131507147Y-107629646D01*
X131632646Y-107504147D01*
X131780216Y-107405544D01*
X131944188Y-107337624D01*
X132093488Y-107307927D01*
X132118258Y-107303000D01*
X132295742Y-107303000D01*
X132320512Y-107307927D01*
G37*
G36*
X134860512Y-107307927D02*
G01*
X135009812Y-107337624D01*
X135173784Y-107405544D01*
X135321354Y-107504147D01*
X135446853Y-107629646D01*
X135545456Y-107777216D01*
X135613376Y-107941188D01*
X135648000Y-108115259D01*
X135648000Y-108292741D01*
X135613376Y-108466812D01*
X135545456Y-108630784D01*
X135446853Y-108778354D01*
X135321354Y-108903853D01*
X135173784Y-109002456D01*
X135009812Y-109070376D01*
X134860512Y-109100073D01*
X134835742Y-109105000D01*
X134658258Y-109105000D01*
X134633488Y-109100073D01*
X134484188Y-109070376D01*
X134320216Y-109002456D01*
X134172646Y-108903853D01*
X134047147Y-108778354D01*
X133948544Y-108630784D01*
X133880624Y-108466812D01*
X133846000Y-108292741D01*
X133846000Y-108115259D01*
X133880624Y-107941188D01*
X133948544Y-107777216D01*
X134047147Y-107629646D01*
X134172646Y-107504147D01*
X134320216Y-107405544D01*
X134484188Y-107337624D01*
X134633488Y-107307927D01*
X134658258Y-107303000D01*
X134835742Y-107303000D01*
X134860512Y-107307927D01*
G37*
G36*
X162800512Y-107307927D02*
G01*
X162949812Y-107337624D01*
X163113784Y-107405544D01*
X163261354Y-107504147D01*
X163386853Y-107629646D01*
X163485456Y-107777216D01*
X163553376Y-107941188D01*
X163588000Y-108115259D01*
X163588000Y-108292741D01*
X163553376Y-108466812D01*
X163485456Y-108630784D01*
X163386853Y-108778354D01*
X163261354Y-108903853D01*
X163113784Y-109002456D01*
X162949812Y-109070376D01*
X162800512Y-109100073D01*
X162775742Y-109105000D01*
X162598258Y-109105000D01*
X162573488Y-109100073D01*
X162424188Y-109070376D01*
X162260216Y-109002456D01*
X162112646Y-108903853D01*
X161987147Y-108778354D01*
X161888544Y-108630784D01*
X161820624Y-108466812D01*
X161786000Y-108292741D01*
X161786000Y-108115259D01*
X161820624Y-107941188D01*
X161888544Y-107777216D01*
X161987147Y-107629646D01*
X162112646Y-107504147D01*
X162260216Y-107405544D01*
X162424188Y-107337624D01*
X162573488Y-107307927D01*
X162598258Y-107303000D01*
X162775742Y-107303000D01*
X162800512Y-107307927D01*
G37*
G36*
X143699712Y-105479127D02*
G01*
X143849012Y-105508824D01*
X144012984Y-105576744D01*
X144160554Y-105675347D01*
X144286053Y-105800846D01*
X144384656Y-105948416D01*
X144452576Y-106112388D01*
X144487200Y-106286459D01*
X144487200Y-106463941D01*
X144452576Y-106638012D01*
X144384656Y-106801984D01*
X144286053Y-106949554D01*
X144160554Y-107075053D01*
X144012984Y-107173656D01*
X143849012Y-107241576D01*
X143699712Y-107271273D01*
X143674942Y-107276200D01*
X143497458Y-107276200D01*
X143472688Y-107271273D01*
X143323388Y-107241576D01*
X143159416Y-107173656D01*
X143011846Y-107075053D01*
X142886347Y-106949554D01*
X142787744Y-106801984D01*
X142719824Y-106638012D01*
X142685200Y-106463941D01*
X142685200Y-106286459D01*
X142719824Y-106112388D01*
X142787744Y-105948416D01*
X142886347Y-105800846D01*
X143011846Y-105675347D01*
X143159416Y-105576744D01*
X143323388Y-105508824D01*
X143472688Y-105479127D01*
X143497458Y-105474200D01*
X143674942Y-105474200D01*
X143699712Y-105479127D01*
G37*
G36*
X139407200Y-107276200D02*
G01*
X137605200Y-107276200D01*
X137605200Y-105474200D01*
X139407200Y-105474200D01*
X139407200Y-107276200D01*
G37*
G36*
X141159712Y-105479127D02*
G01*
X141309012Y-105508824D01*
X141472984Y-105576744D01*
X141620554Y-105675347D01*
X141746053Y-105800846D01*
X141844656Y-105948416D01*
X141912576Y-106112388D01*
X141947200Y-106286459D01*
X141947200Y-106463941D01*
X141912576Y-106638012D01*
X141844656Y-106801984D01*
X141746053Y-106949554D01*
X141620554Y-107075053D01*
X141472984Y-107173656D01*
X141309012Y-107241576D01*
X141159712Y-107271273D01*
X141134942Y-107276200D01*
X140957458Y-107276200D01*
X140932688Y-107271273D01*
X140783388Y-107241576D01*
X140619416Y-107173656D01*
X140471846Y-107075053D01*
X140346347Y-106949554D01*
X140247744Y-106801984D01*
X140179824Y-106638012D01*
X140145200Y-106463941D01*
X140145200Y-106286459D01*
X140179824Y-106112388D01*
X140247744Y-105948416D01*
X140346347Y-105800846D01*
X140471846Y-105675347D01*
X140619416Y-105576744D01*
X140783388Y-105508824D01*
X140932688Y-105479127D01*
X140957458Y-105474200D01*
X141134942Y-105474200D01*
X141159712Y-105479127D01*
G37*
G36*
X134860512Y-104767927D02*
G01*
X135009812Y-104797624D01*
X135173784Y-104865544D01*
X135321354Y-104964147D01*
X135446853Y-105089646D01*
X135545456Y-105237216D01*
X135613376Y-105401188D01*
X135648000Y-105575259D01*
X135648000Y-105752741D01*
X135613376Y-105926812D01*
X135545456Y-106090784D01*
X135446853Y-106238354D01*
X135321354Y-106363853D01*
X135173784Y-106462456D01*
X135009812Y-106530376D01*
X134860512Y-106560073D01*
X134835742Y-106565000D01*
X134658258Y-106565000D01*
X134633488Y-106560073D01*
X134484188Y-106530376D01*
X134320216Y-106462456D01*
X134172646Y-106363853D01*
X134047147Y-106238354D01*
X133948544Y-106090784D01*
X133880624Y-105926812D01*
X133846000Y-105752741D01*
X133846000Y-105575259D01*
X133880624Y-105401188D01*
X133948544Y-105237216D01*
X134047147Y-105089646D01*
X134172646Y-104964147D01*
X134320216Y-104865544D01*
X134484188Y-104797624D01*
X134633488Y-104767927D01*
X134658258Y-104763000D01*
X134835742Y-104763000D01*
X134860512Y-104767927D01*
G37*
G36*
X162800512Y-104767927D02*
G01*
X162949812Y-104797624D01*
X163113784Y-104865544D01*
X163261354Y-104964147D01*
X163386853Y-105089646D01*
X163485456Y-105237216D01*
X163553376Y-105401188D01*
X163588000Y-105575259D01*
X163588000Y-105752741D01*
X163553376Y-105926812D01*
X163485456Y-106090784D01*
X163386853Y-106238354D01*
X163261354Y-106363853D01*
X163113784Y-106462456D01*
X162949812Y-106530376D01*
X162800512Y-106560073D01*
X162775742Y-106565000D01*
X162598258Y-106565000D01*
X162573488Y-106560073D01*
X162424188Y-106530376D01*
X162260216Y-106462456D01*
X162112646Y-106363853D01*
X161987147Y-106238354D01*
X161888544Y-106090784D01*
X161820624Y-105926812D01*
X161786000Y-105752741D01*
X161786000Y-105575259D01*
X161820624Y-105401188D01*
X161888544Y-105237216D01*
X161987147Y-105089646D01*
X162112646Y-104964147D01*
X162260216Y-104865544D01*
X162424188Y-104797624D01*
X162573488Y-104767927D01*
X162598258Y-104763000D01*
X162775742Y-104763000D01*
X162800512Y-104767927D01*
G37*
G36*
X160260512Y-104767927D02*
G01*
X160409812Y-104797624D01*
X160573784Y-104865544D01*
X160721354Y-104964147D01*
X160846853Y-105089646D01*
X160945456Y-105237216D01*
X161013376Y-105401188D01*
X161048000Y-105575259D01*
X161048000Y-105752741D01*
X161013376Y-105926812D01*
X160945456Y-106090784D01*
X160846853Y-106238354D01*
X160721354Y-106363853D01*
X160573784Y-106462456D01*
X160409812Y-106530376D01*
X160260512Y-106560073D01*
X160235742Y-106565000D01*
X160058258Y-106565000D01*
X160033488Y-106560073D01*
X159884188Y-106530376D01*
X159720216Y-106462456D01*
X159572646Y-106363853D01*
X159447147Y-106238354D01*
X159348544Y-106090784D01*
X159280624Y-105926812D01*
X159246000Y-105752741D01*
X159246000Y-105575259D01*
X159280624Y-105401188D01*
X159348544Y-105237216D01*
X159447147Y-105089646D01*
X159572646Y-104964147D01*
X159720216Y-104865544D01*
X159884188Y-104797624D01*
X160033488Y-104767927D01*
X160058258Y-104763000D01*
X160235742Y-104763000D01*
X160260512Y-104767927D01*
G37*
G36*
X132320512Y-104767927D02*
G01*
X132469812Y-104797624D01*
X132633784Y-104865544D01*
X132781354Y-104964147D01*
X132906853Y-105089646D01*
X133005456Y-105237216D01*
X133073376Y-105401188D01*
X133108000Y-105575259D01*
X133108000Y-105752741D01*
X133073376Y-105926812D01*
X133005456Y-106090784D01*
X132906853Y-106238354D01*
X132781354Y-106363853D01*
X132633784Y-106462456D01*
X132469812Y-106530376D01*
X132320512Y-106560073D01*
X132295742Y-106565000D01*
X132118258Y-106565000D01*
X132093488Y-106560073D01*
X131944188Y-106530376D01*
X131780216Y-106462456D01*
X131632646Y-106363853D01*
X131507147Y-106238354D01*
X131408544Y-106090784D01*
X131340624Y-105926812D01*
X131306000Y-105752741D01*
X131306000Y-105575259D01*
X131340624Y-105401188D01*
X131408544Y-105237216D01*
X131507147Y-105089646D01*
X131632646Y-104964147D01*
X131780216Y-104865544D01*
X131944188Y-104797624D01*
X132093488Y-104767927D01*
X132118258Y-104763000D01*
X132295742Y-104763000D01*
X132320512Y-104767927D01*
G37*
G36*
X138619712Y-102939127D02*
G01*
X138769012Y-102968824D01*
X138932984Y-103036744D01*
X139080554Y-103135347D01*
X139206053Y-103260846D01*
X139304656Y-103408416D01*
X139372576Y-103572388D01*
X139407200Y-103746459D01*
X139407200Y-103923941D01*
X139372576Y-104098012D01*
X139304656Y-104261984D01*
X139206053Y-104409554D01*
X139080554Y-104535053D01*
X138932984Y-104633656D01*
X138769012Y-104701576D01*
X138619712Y-104731273D01*
X138594942Y-104736200D01*
X138417458Y-104736200D01*
X138392688Y-104731273D01*
X138243388Y-104701576D01*
X138079416Y-104633656D01*
X137931846Y-104535053D01*
X137806347Y-104409554D01*
X137707744Y-104261984D01*
X137639824Y-104098012D01*
X137605200Y-103923941D01*
X137605200Y-103746459D01*
X137639824Y-103572388D01*
X137707744Y-103408416D01*
X137806347Y-103260846D01*
X137931846Y-103135347D01*
X138079416Y-103036744D01*
X138243388Y-102968824D01*
X138392688Y-102939127D01*
X138417458Y-102934200D01*
X138594942Y-102934200D01*
X138619712Y-102939127D01*
G37*
G36*
X141159712Y-102939127D02*
G01*
X141309012Y-102968824D01*
X141472984Y-103036744D01*
X141620554Y-103135347D01*
X141746053Y-103260846D01*
X141844656Y-103408416D01*
X141912576Y-103572388D01*
X141947200Y-103746459D01*
X141947200Y-103923941D01*
X141912576Y-104098012D01*
X141844656Y-104261984D01*
X141746053Y-104409554D01*
X141620554Y-104535053D01*
X141472984Y-104633656D01*
X141309012Y-104701576D01*
X141159712Y-104731273D01*
X141134942Y-104736200D01*
X140957458Y-104736200D01*
X140932688Y-104731273D01*
X140783388Y-104701576D01*
X140619416Y-104633656D01*
X140471846Y-104535053D01*
X140346347Y-104409554D01*
X140247744Y-104261984D01*
X140179824Y-104098012D01*
X140145200Y-103923941D01*
X140145200Y-103746459D01*
X140179824Y-103572388D01*
X140247744Y-103408416D01*
X140346347Y-103260846D01*
X140471846Y-103135347D01*
X140619416Y-103036744D01*
X140783388Y-102968824D01*
X140932688Y-102939127D01*
X140957458Y-102934200D01*
X141134942Y-102934200D01*
X141159712Y-102939127D01*
G37*
G36*
X143699712Y-102939127D02*
G01*
X143849012Y-102968824D01*
X144012984Y-103036744D01*
X144160554Y-103135347D01*
X144286053Y-103260846D01*
X144384656Y-103408416D01*
X144452576Y-103572388D01*
X144487200Y-103746459D01*
X144487200Y-103923941D01*
X144452576Y-104098012D01*
X144384656Y-104261984D01*
X144286053Y-104409554D01*
X144160554Y-104535053D01*
X144012984Y-104633656D01*
X143849012Y-104701576D01*
X143699712Y-104731273D01*
X143674942Y-104736200D01*
X143497458Y-104736200D01*
X143472688Y-104731273D01*
X143323388Y-104701576D01*
X143159416Y-104633656D01*
X143011846Y-104535053D01*
X142886347Y-104409554D01*
X142787744Y-104261984D01*
X142719824Y-104098012D01*
X142685200Y-103923941D01*
X142685200Y-103746459D01*
X142719824Y-103572388D01*
X142787744Y-103408416D01*
X142886347Y-103260846D01*
X143011846Y-103135347D01*
X143159416Y-103036744D01*
X143323388Y-102968824D01*
X143472688Y-102939127D01*
X143497458Y-102934200D01*
X143674942Y-102934200D01*
X143699712Y-102939127D01*
G37*
G36*
X162800512Y-102227927D02*
G01*
X162949812Y-102257624D01*
X163113784Y-102325544D01*
X163261354Y-102424147D01*
X163386853Y-102549646D01*
X163485456Y-102697216D01*
X163553376Y-102861188D01*
X163588000Y-103035259D01*
X163588000Y-103212741D01*
X163553376Y-103386812D01*
X163485456Y-103550784D01*
X163386853Y-103698354D01*
X163261354Y-103823853D01*
X163113784Y-103922456D01*
X162949812Y-103990376D01*
X162800512Y-104020073D01*
X162775742Y-104025000D01*
X162598258Y-104025000D01*
X162573488Y-104020073D01*
X162424188Y-103990376D01*
X162260216Y-103922456D01*
X162112646Y-103823853D01*
X161987147Y-103698354D01*
X161888544Y-103550784D01*
X161820624Y-103386812D01*
X161786000Y-103212741D01*
X161786000Y-103035259D01*
X161820624Y-102861188D01*
X161888544Y-102697216D01*
X161987147Y-102549646D01*
X162112646Y-102424147D01*
X162260216Y-102325544D01*
X162424188Y-102257624D01*
X162573488Y-102227927D01*
X162598258Y-102223000D01*
X162775742Y-102223000D01*
X162800512Y-102227927D01*
G37*
G36*
X132320512Y-102227927D02*
G01*
X132469812Y-102257624D01*
X132633784Y-102325544D01*
X132781354Y-102424147D01*
X132906853Y-102549646D01*
X133005456Y-102697216D01*
X133073376Y-102861188D01*
X133108000Y-103035259D01*
X133108000Y-103212741D01*
X133073376Y-103386812D01*
X133005456Y-103550784D01*
X132906853Y-103698354D01*
X132781354Y-103823853D01*
X132633784Y-103922456D01*
X132469812Y-103990376D01*
X132320512Y-104020073D01*
X132295742Y-104025000D01*
X132118258Y-104025000D01*
X132093488Y-104020073D01*
X131944188Y-103990376D01*
X131780216Y-103922456D01*
X131632646Y-103823853D01*
X131507147Y-103698354D01*
X131408544Y-103550784D01*
X131340624Y-103386812D01*
X131306000Y-103212741D01*
X131306000Y-103035259D01*
X131340624Y-102861188D01*
X131408544Y-102697216D01*
X131507147Y-102549646D01*
X131632646Y-102424147D01*
X131780216Y-102325544D01*
X131944188Y-102257624D01*
X132093488Y-102227927D01*
X132118258Y-102223000D01*
X132295742Y-102223000D01*
X132320512Y-102227927D01*
G37*
G36*
X134860512Y-102227927D02*
G01*
X135009812Y-102257624D01*
X135173784Y-102325544D01*
X135321354Y-102424147D01*
X135446853Y-102549646D01*
X135545456Y-102697216D01*
X135613376Y-102861188D01*
X135648000Y-103035259D01*
X135648000Y-103212741D01*
X135613376Y-103386812D01*
X135545456Y-103550784D01*
X135446853Y-103698354D01*
X135321354Y-103823853D01*
X135173784Y-103922456D01*
X135009812Y-103990376D01*
X134860512Y-104020073D01*
X134835742Y-104025000D01*
X134658258Y-104025000D01*
X134633488Y-104020073D01*
X134484188Y-103990376D01*
X134320216Y-103922456D01*
X134172646Y-103823853D01*
X134047147Y-103698354D01*
X133948544Y-103550784D01*
X133880624Y-103386812D01*
X133846000Y-103212741D01*
X133846000Y-103035259D01*
X133880624Y-102861188D01*
X133948544Y-102697216D01*
X134047147Y-102549646D01*
X134172646Y-102424147D01*
X134320216Y-102325544D01*
X134484188Y-102257624D01*
X134633488Y-102227927D01*
X134658258Y-102223000D01*
X134835742Y-102223000D01*
X134860512Y-102227927D01*
G37*
G36*
X160260512Y-102227927D02*
G01*
X160409812Y-102257624D01*
X160573784Y-102325544D01*
X160721354Y-102424147D01*
X160846853Y-102549646D01*
X160945456Y-102697216D01*
X161013376Y-102861188D01*
X161048000Y-103035259D01*
X161048000Y-103212741D01*
X161013376Y-103386812D01*
X160945456Y-103550784D01*
X160846853Y-103698354D01*
X160721354Y-103823853D01*
X160573784Y-103922456D01*
X160409812Y-103990376D01*
X160260512Y-104020073D01*
X160235742Y-104025000D01*
X160058258Y-104025000D01*
X160033488Y-104020073D01*
X159884188Y-103990376D01*
X159720216Y-103922456D01*
X159572646Y-103823853D01*
X159447147Y-103698354D01*
X159348544Y-103550784D01*
X159280624Y-103386812D01*
X159246000Y-103212741D01*
X159246000Y-103035259D01*
X159280624Y-102861188D01*
X159348544Y-102697216D01*
X159447147Y-102549646D01*
X159572646Y-102424147D01*
X159720216Y-102325544D01*
X159884188Y-102257624D01*
X160033488Y-102227927D01*
X160058258Y-102223000D01*
X160235742Y-102223000D01*
X160260512Y-102227927D01*
G37*
G36*
X134744098Y-91547033D02*
G01*
X135208350Y-91739332D01*
X135208352Y-91739333D01*
X135626168Y-92018509D01*
X135981491Y-92373832D01*
X136116575Y-92576000D01*
X136260668Y-92791650D01*
X136452967Y-93255902D01*
X136551000Y-93748747D01*
X136551000Y-94251253D01*
X136452967Y-94744098D01*
X136331093Y-95038329D01*
X136260667Y-95208352D01*
X135981491Y-95626168D01*
X135626168Y-95981491D01*
X135208352Y-96260667D01*
X135208351Y-96260668D01*
X135208350Y-96260668D01*
X134744098Y-96452967D01*
X134251253Y-96551000D01*
X133748747Y-96551000D01*
X133255902Y-96452967D01*
X132791650Y-96260668D01*
X132791649Y-96260668D01*
X132791648Y-96260667D01*
X132373832Y-95981491D01*
X132018509Y-95626168D01*
X131739333Y-95208352D01*
X131668907Y-95038329D01*
X131547033Y-94744098D01*
X131449000Y-94251253D01*
X131449000Y-93748747D01*
X131547033Y-93255902D01*
X131739332Y-92791650D01*
X131883425Y-92576000D01*
X132018509Y-92373832D01*
X132373832Y-92018509D01*
X132791648Y-91739333D01*
X132791650Y-91739332D01*
X133255902Y-91547033D01*
X133748747Y-91449000D01*
X134251253Y-91449000D01*
X134744098Y-91547033D01*
G37*
G36*
X161744098Y-91547033D02*
G01*
X162208350Y-91739332D01*
X162208352Y-91739333D01*
X162626168Y-92018509D01*
X162981491Y-92373832D01*
X163116575Y-92576000D01*
X163260668Y-92791650D01*
X163452967Y-93255902D01*
X163551000Y-93748747D01*
X163551000Y-94251253D01*
X163452967Y-94744098D01*
X163331093Y-95038329D01*
X163260667Y-95208352D01*
X162981491Y-95626168D01*
X162626168Y-95981491D01*
X162208352Y-96260667D01*
X162208351Y-96260668D01*
X162208350Y-96260668D01*
X161744098Y-96452967D01*
X161251253Y-96551000D01*
X160748747Y-96551000D01*
X160255902Y-96452967D01*
X159791650Y-96260668D01*
X159791649Y-96260668D01*
X159791648Y-96260667D01*
X159373832Y-95981491D01*
X159018509Y-95626168D01*
X158739333Y-95208352D01*
X158668907Y-95038329D01*
X158547033Y-94744098D01*
X158449000Y-94251253D01*
X158449000Y-93748747D01*
X158547033Y-93255902D01*
X158739332Y-92791650D01*
X158883425Y-92576000D01*
X159018509Y-92373832D01*
X159373832Y-92018509D01*
X159791648Y-91739333D01*
X159791650Y-91739332D01*
X160255902Y-91547033D01*
X160748747Y-91449000D01*
X161251253Y-91449000D01*
X161744098Y-91547033D01*
G37*
M02*
