G04 #@! TF.GenerationSoftware,KiCad,Pcbnew,(5.1.5)-3*
G04 #@! TF.CreationDate,2020-08-13T21:18:48+02:00*
G04 #@! TF.ProjectId,STM32 Dev.Board,53544d33-3220-4446-9576-2e426f617264,rev?*
G04 #@! TF.SameCoordinates,Original*
G04 #@! TF.FileFunction,Copper,L2,Inr*
G04 #@! TF.FilePolarity,Positive*
%FSLAX46Y46*%
G04 Gerber Fmt 4.6, Leading zero omitted, Abs format (unit mm)*
G04 Created by KiCad (PCBNEW (5.1.5)-3) date 2020-08-13 21:18:48*
%MOMM*%
%LPD*%
G04 APERTURE LIST*
%ADD10C,0.800000*%
%ADD11C,5.000000*%
%ADD12O,1.700000X1.700000*%
%ADD13R,1.700000X1.700000*%
%ADD14C,0.600000*%
%ADD15C,0.254000*%
G04 APERTURE END LIST*
D10*
X162325825Y-129674175D03*
X161000000Y-129125000D03*
X159674175Y-129674175D03*
X159125000Y-131000000D03*
X159674175Y-132325825D03*
X161000000Y-132875000D03*
X162325825Y-132325825D03*
X162875000Y-131000000D03*
D11*
X161000000Y-131000000D03*
D10*
X135325825Y-92674175D03*
X134000000Y-92125000D03*
X132674175Y-92674175D03*
X132125000Y-94000000D03*
X132674175Y-95325825D03*
X134000000Y-95875000D03*
X135325825Y-95325825D03*
X135875000Y-94000000D03*
D11*
X134000000Y-94000000D03*
D10*
X135325825Y-129674175D03*
X134000000Y-129125000D03*
X132674175Y-129674175D03*
X132125000Y-131000000D03*
X132674175Y-132325825D03*
X134000000Y-132875000D03*
X135325825Y-132325825D03*
X135875000Y-131000000D03*
D11*
X134000000Y-131000000D03*
D10*
X162325825Y-92674175D03*
X161000000Y-92125000D03*
X159674175Y-92674175D03*
X159125000Y-94000000D03*
X159674175Y-95325825D03*
X161000000Y-95875000D03*
X162325825Y-95325825D03*
X162875000Y-94000000D03*
D11*
X161000000Y-94000000D03*
D12*
X134747000Y-103124000D03*
X132207000Y-103124000D03*
X134747000Y-105664000D03*
X132207000Y-105664000D03*
X134747000Y-108204000D03*
X132207000Y-108204000D03*
X134747000Y-110744000D03*
X132207000Y-110744000D03*
X134747000Y-113284000D03*
X132207000Y-113284000D03*
X134747000Y-115824000D03*
X132207000Y-115824000D03*
X134747000Y-118364000D03*
X132207000Y-118364000D03*
X134747000Y-120904000D03*
X132207000Y-120904000D03*
X134747000Y-123444000D03*
X132207000Y-123444000D03*
X134747000Y-125984000D03*
D13*
X132207000Y-125984000D03*
D12*
X162687000Y-103124000D03*
X160147000Y-103124000D03*
X162687000Y-105664000D03*
X160147000Y-105664000D03*
X162687000Y-108204000D03*
X160147000Y-108204000D03*
X162687000Y-110744000D03*
X160147000Y-110744000D03*
X162687000Y-113284000D03*
X160147000Y-113284000D03*
X162687000Y-115824000D03*
X160147000Y-115824000D03*
X162687000Y-118364000D03*
X160147000Y-118364000D03*
X162687000Y-120904000D03*
X160147000Y-120904000D03*
X162687000Y-123444000D03*
X160147000Y-123444000D03*
X162687000Y-125984000D03*
D13*
X160147000Y-125984000D03*
D12*
X152527000Y-130276600D03*
X152527000Y-132816600D03*
X149987000Y-130276600D03*
X149987000Y-132816600D03*
X147447000Y-130276600D03*
X147447000Y-132816600D03*
X144907000Y-130276600D03*
X144907000Y-132816600D03*
X142367000Y-130276600D03*
D13*
X142367000Y-132816600D03*
D12*
X143586200Y-103835200D03*
X143586200Y-106375200D03*
X141046200Y-103835200D03*
X141046200Y-106375200D03*
X138506200Y-103835200D03*
D13*
X138506200Y-106375200D03*
D14*
X150495000Y-127254000D03*
X151130000Y-127889000D03*
X152400000Y-111252000D03*
X155956000Y-107696000D03*
X156718000Y-107696000D03*
X157480000Y-107696000D03*
X155067000Y-106807000D03*
X155067000Y-106045000D03*
X155067000Y-107696000D03*
X153289000Y-107442000D03*
X154051000Y-107442000D03*
X153162000Y-111252000D03*
X153924000Y-111252000D03*
X142240000Y-93345000D03*
X143129000Y-92456000D03*
X153289000Y-90805000D03*
X157988000Y-92583000D03*
X144183100Y-100317300D03*
X149479000Y-100711000D03*
X139192000Y-97917000D03*
X152527000Y-107442000D03*
X157200600Y-126796800D03*
X157226000Y-128879600D03*
X146050000Y-124460000D03*
X146939000Y-125095000D03*
X143713200Y-122682000D03*
X143131398Y-123192398D03*
X159766000Y-101600000D03*
X139700000Y-115316000D03*
X138938000Y-116078000D03*
X147421600Y-92633800D03*
X139954000Y-131191000D03*
X152654000Y-96596200D03*
X153314400Y-96596200D03*
X152679400Y-99745800D03*
X153339800Y-99745800D03*
X137566400Y-92735400D03*
X146304000Y-120650000D03*
X141224000Y-114731800D03*
X149504400Y-118465600D03*
X145897600Y-110134400D03*
X153873200Y-124993400D03*
X154432000Y-124409200D03*
X154787600Y-122351800D03*
X155371800Y-121081800D03*
X147243800Y-113411000D03*
X153898600Y-116205000D03*
X140589000Y-93726000D03*
X141859000Y-94996000D03*
X142595600Y-96893380D03*
X152019000Y-103505000D03*
X152019000Y-104267000D03*
X152781000Y-103505000D03*
X152781000Y-104267000D03*
X155067000Y-103505000D03*
X155067000Y-104267000D03*
X149987000Y-106426000D03*
X150622000Y-106426000D03*
X149987000Y-107696000D03*
X150622000Y-107696000D03*
X153543000Y-103505000D03*
X153543000Y-104267000D03*
X149987000Y-107061000D03*
X150622000Y-107061000D03*
X154305000Y-104267000D03*
X154305000Y-103505000D03*
X144132167Y-97581853D03*
X146862800Y-122555000D03*
X144983200Y-125018800D03*
X143814800Y-125044200D03*
X140792200Y-117881400D03*
X141528800Y-117144800D03*
X148437600Y-110058200D03*
X137566400Y-121970800D03*
X139039600Y-122021600D03*
X157124400Y-120192800D03*
X156667200Y-120675400D03*
X156286200Y-123875800D03*
X152069800Y-116840000D03*
X146380200Y-111861600D03*
X156413200Y-111480600D03*
X144272000Y-118033800D03*
X143433800Y-117271800D03*
X143383000Y-116179600D03*
X148132800Y-117830600D03*
X147497800Y-118694200D03*
X146837400Y-119684800D03*
X143992600Y-110972600D03*
X144500600Y-110159800D03*
X142875000Y-110921800D03*
X142798800Y-112014000D03*
X144526000Y-115214400D03*
X145262600Y-107162600D03*
X145161000Y-119634000D03*
X145389600Y-105003600D03*
X148336000Y-114731800D03*
X151028400Y-100406200D03*
X145826190Y-113905468D03*
D15*
G36*
X152354000Y-90712911D02*
G01*
X152354000Y-90897089D01*
X152389932Y-91077729D01*
X152460414Y-91247889D01*
X152562738Y-91401028D01*
X152692972Y-91531262D01*
X152846111Y-91633586D01*
X153016271Y-91704068D01*
X153196911Y-91740000D01*
X153381089Y-91740000D01*
X153561729Y-91704068D01*
X153731889Y-91633586D01*
X153885028Y-91531262D01*
X154015262Y-91401028D01*
X154117586Y-91247889D01*
X154188068Y-91077729D01*
X154224000Y-90897089D01*
X154224000Y-90712911D01*
X154213475Y-90660000D01*
X160967722Y-90660000D01*
X161648126Y-90726714D01*
X162271572Y-90914943D01*
X162846579Y-91220681D01*
X163351247Y-91632279D01*
X163766362Y-92134067D01*
X164076105Y-92706924D01*
X164268682Y-93329039D01*
X164340000Y-94007584D01*
X164340001Y-130967711D01*
X164273286Y-131648126D01*
X164085057Y-132271570D01*
X163779323Y-132846573D01*
X163367721Y-133351248D01*
X162865933Y-133766362D01*
X162293077Y-134076104D01*
X161670961Y-134268682D01*
X160992417Y-134340000D01*
X134032279Y-134340000D01*
X133351874Y-134273286D01*
X132728430Y-134085057D01*
X132153427Y-133779323D01*
X131648752Y-133367721D01*
X131233638Y-132865933D01*
X130923896Y-132293077D01*
X130731318Y-131670961D01*
X130660000Y-130992417D01*
X130660000Y-130691229D01*
X130865000Y-130691229D01*
X130865000Y-131308771D01*
X130985476Y-131914446D01*
X131221799Y-132484979D01*
X131564886Y-132998446D01*
X132001554Y-133435114D01*
X132515021Y-133778201D01*
X133085554Y-134014524D01*
X133691229Y-134135000D01*
X134308771Y-134135000D01*
X134914446Y-134014524D01*
X135484979Y-133778201D01*
X135652002Y-133666600D01*
X141057789Y-133666600D01*
X141066613Y-133756188D01*
X141092744Y-133842332D01*
X141135180Y-133921724D01*
X141192289Y-133991311D01*
X141261876Y-134048420D01*
X141341268Y-134090856D01*
X141427412Y-134116987D01*
X141517000Y-134125811D01*
X141979750Y-134123600D01*
X142094000Y-134009350D01*
X142094000Y-133089600D01*
X141174250Y-133089600D01*
X141060000Y-133203850D01*
X141057789Y-133666600D01*
X135652002Y-133666600D01*
X135998446Y-133435114D01*
X136435114Y-132998446D01*
X136778201Y-132484979D01*
X137014524Y-131914446D01*
X137135000Y-131308771D01*
X137135000Y-131098911D01*
X139019000Y-131098911D01*
X139019000Y-131283089D01*
X139054932Y-131463729D01*
X139125414Y-131633889D01*
X139227738Y-131787028D01*
X139357972Y-131917262D01*
X139511111Y-132019586D01*
X139681271Y-132090068D01*
X139861911Y-132126000D01*
X140046089Y-132126000D01*
X140226729Y-132090068D01*
X140396889Y-132019586D01*
X140550028Y-131917262D01*
X140680262Y-131787028D01*
X140782586Y-131633889D01*
X140853068Y-131463729D01*
X140889000Y-131283089D01*
X140889000Y-131098911D01*
X140853068Y-130918271D01*
X140782586Y-130748111D01*
X140680262Y-130594972D01*
X140550028Y-130464738D01*
X140396889Y-130362414D01*
X140226729Y-130291932D01*
X140046089Y-130256000D01*
X139861911Y-130256000D01*
X139681271Y-130291932D01*
X139511111Y-130362414D01*
X139357972Y-130464738D01*
X139227738Y-130594972D01*
X139125414Y-130748111D01*
X139054932Y-130918271D01*
X139019000Y-131098911D01*
X137135000Y-131098911D01*
X137135000Y-130691229D01*
X137023433Y-130130340D01*
X140882000Y-130130340D01*
X140882000Y-130422860D01*
X140939068Y-130709758D01*
X141051010Y-130980011D01*
X141213525Y-131223232D01*
X141420368Y-131430075D01*
X141536214Y-131507481D01*
X141517000Y-131507389D01*
X141427412Y-131516213D01*
X141341268Y-131542344D01*
X141261876Y-131584780D01*
X141192289Y-131641889D01*
X141135180Y-131711476D01*
X141092744Y-131790868D01*
X141066613Y-131877012D01*
X141057789Y-131966600D01*
X141060000Y-132429350D01*
X141174250Y-132543600D01*
X142094000Y-132543600D01*
X142094000Y-132523600D01*
X142640000Y-132523600D01*
X142640000Y-132543600D01*
X142660000Y-132543600D01*
X142660000Y-133089600D01*
X142640000Y-133089600D01*
X142640000Y-134009350D01*
X142754250Y-134123600D01*
X143217000Y-134125811D01*
X143306588Y-134116987D01*
X143392732Y-134090856D01*
X143472124Y-134048420D01*
X143541711Y-133991311D01*
X143598820Y-133921724D01*
X143641256Y-133842332D01*
X143667387Y-133756188D01*
X143676211Y-133666600D01*
X143676119Y-133647386D01*
X143753525Y-133763232D01*
X143960368Y-133970075D01*
X144203589Y-134132590D01*
X144473842Y-134244532D01*
X144760740Y-134301600D01*
X145053260Y-134301600D01*
X145340158Y-134244532D01*
X145610411Y-134132590D01*
X145853632Y-133970075D01*
X146060475Y-133763232D01*
X146177000Y-133588840D01*
X146293525Y-133763232D01*
X146500368Y-133970075D01*
X146743589Y-134132590D01*
X147013842Y-134244532D01*
X147300740Y-134301600D01*
X147593260Y-134301600D01*
X147880158Y-134244532D01*
X148150411Y-134132590D01*
X148393632Y-133970075D01*
X148600475Y-133763232D01*
X148717000Y-133588840D01*
X148833525Y-133763232D01*
X149040368Y-133970075D01*
X149283589Y-134132590D01*
X149553842Y-134244532D01*
X149840740Y-134301600D01*
X150133260Y-134301600D01*
X150420158Y-134244532D01*
X150690411Y-134132590D01*
X150933632Y-133970075D01*
X151140475Y-133763232D01*
X151257000Y-133588840D01*
X151373525Y-133763232D01*
X151580368Y-133970075D01*
X151823589Y-134132590D01*
X152093842Y-134244532D01*
X152380740Y-134301600D01*
X152673260Y-134301600D01*
X152960158Y-134244532D01*
X153230411Y-134132590D01*
X153473632Y-133970075D01*
X153680475Y-133763232D01*
X153842990Y-133520011D01*
X153954932Y-133249758D01*
X154012000Y-132962860D01*
X154012000Y-132670340D01*
X153954932Y-132383442D01*
X153842990Y-132113189D01*
X153680475Y-131869968D01*
X153473632Y-131663125D01*
X153299240Y-131546600D01*
X153473632Y-131430075D01*
X153680475Y-131223232D01*
X153842990Y-130980011D01*
X153954932Y-130709758D01*
X153958617Y-130691229D01*
X157865000Y-130691229D01*
X157865000Y-131308771D01*
X157985476Y-131914446D01*
X158221799Y-132484979D01*
X158564886Y-132998446D01*
X159001554Y-133435114D01*
X159515021Y-133778201D01*
X160085554Y-134014524D01*
X160691229Y-134135000D01*
X161308771Y-134135000D01*
X161914446Y-134014524D01*
X162484979Y-133778201D01*
X162998446Y-133435114D01*
X163435114Y-132998446D01*
X163778201Y-132484979D01*
X164014524Y-131914446D01*
X164135000Y-131308771D01*
X164135000Y-130691229D01*
X164014524Y-130085554D01*
X163778201Y-129515021D01*
X163435114Y-129001554D01*
X162998446Y-128564886D01*
X162484979Y-128221799D01*
X161914446Y-127985476D01*
X161308771Y-127865000D01*
X160691229Y-127865000D01*
X160085554Y-127985476D01*
X159515021Y-128221799D01*
X159001554Y-128564886D01*
X158564886Y-129001554D01*
X158221799Y-129515021D01*
X157985476Y-130085554D01*
X157865000Y-130691229D01*
X153958617Y-130691229D01*
X154012000Y-130422860D01*
X154012000Y-130130340D01*
X153954932Y-129843442D01*
X153842990Y-129573189D01*
X153680475Y-129329968D01*
X153473632Y-129123125D01*
X153230411Y-128960610D01*
X152960158Y-128848668D01*
X152673260Y-128791600D01*
X152380740Y-128791600D01*
X152093842Y-128848668D01*
X151823589Y-128960610D01*
X151580368Y-129123125D01*
X151373525Y-129329968D01*
X151257000Y-129504360D01*
X151140475Y-129329968D01*
X150933632Y-129123125D01*
X150690411Y-128960610D01*
X150420158Y-128848668D01*
X150133260Y-128791600D01*
X149840740Y-128791600D01*
X149553842Y-128848668D01*
X149283589Y-128960610D01*
X149040368Y-129123125D01*
X148833525Y-129329968D01*
X148717000Y-129504360D01*
X148600475Y-129329968D01*
X148393632Y-129123125D01*
X148150411Y-128960610D01*
X147880158Y-128848668D01*
X147593260Y-128791600D01*
X147300740Y-128791600D01*
X147013842Y-128848668D01*
X146743589Y-128960610D01*
X146500368Y-129123125D01*
X146293525Y-129329968D01*
X146177000Y-129504360D01*
X146060475Y-129329968D01*
X145853632Y-129123125D01*
X145610411Y-128960610D01*
X145340158Y-128848668D01*
X145053260Y-128791600D01*
X144760740Y-128791600D01*
X144473842Y-128848668D01*
X144203589Y-128960610D01*
X143960368Y-129123125D01*
X143753525Y-129329968D01*
X143637000Y-129504360D01*
X143520475Y-129329968D01*
X143313632Y-129123125D01*
X143070411Y-128960610D01*
X142800158Y-128848668D01*
X142513260Y-128791600D01*
X142220740Y-128791600D01*
X141933842Y-128848668D01*
X141663589Y-128960610D01*
X141420368Y-129123125D01*
X141213525Y-129329968D01*
X141051010Y-129573189D01*
X140939068Y-129843442D01*
X140882000Y-130130340D01*
X137023433Y-130130340D01*
X137014524Y-130085554D01*
X136778201Y-129515021D01*
X136435114Y-129001554D01*
X135998446Y-128564886D01*
X135484979Y-128221799D01*
X134914446Y-127985476D01*
X134308771Y-127865000D01*
X133691229Y-127865000D01*
X133085554Y-127985476D01*
X132515021Y-128221799D01*
X132001554Y-128564886D01*
X131564886Y-129001554D01*
X131221799Y-129515021D01*
X130985476Y-130085554D01*
X130865000Y-130691229D01*
X130660000Y-130691229D01*
X130660000Y-125134000D01*
X130718928Y-125134000D01*
X130718928Y-126834000D01*
X130731188Y-126958482D01*
X130767498Y-127078180D01*
X130826463Y-127188494D01*
X130905815Y-127285185D01*
X131002506Y-127364537D01*
X131112820Y-127423502D01*
X131232518Y-127459812D01*
X131357000Y-127472072D01*
X133057000Y-127472072D01*
X133181482Y-127459812D01*
X133301180Y-127423502D01*
X133411494Y-127364537D01*
X133508185Y-127285185D01*
X133587537Y-127188494D01*
X133646502Y-127078180D01*
X133668513Y-127005620D01*
X133800368Y-127137475D01*
X134043589Y-127299990D01*
X134313842Y-127411932D01*
X134600740Y-127469000D01*
X134893260Y-127469000D01*
X135180158Y-127411932D01*
X135450411Y-127299990D01*
X135693632Y-127137475D01*
X135900475Y-126930632D01*
X136062990Y-126687411D01*
X136174932Y-126417158D01*
X136232000Y-126130260D01*
X136232000Y-125837740D01*
X136174932Y-125550842D01*
X136062990Y-125280589D01*
X135900475Y-125037368D01*
X135693632Y-124830525D01*
X135519240Y-124714000D01*
X135693632Y-124597475D01*
X135900475Y-124390632D01*
X136062990Y-124147411D01*
X136174932Y-123877158D01*
X136232000Y-123590260D01*
X136232000Y-123297740D01*
X136192729Y-123100309D01*
X142196398Y-123100309D01*
X142196398Y-123284487D01*
X142232330Y-123465127D01*
X142302812Y-123635287D01*
X142405136Y-123788426D01*
X142535370Y-123918660D01*
X142688509Y-124020984D01*
X142858669Y-124091466D01*
X143039309Y-124127398D01*
X143223487Y-124127398D01*
X143404127Y-124091466D01*
X143574287Y-124020984D01*
X143727426Y-123918660D01*
X143857660Y-123788426D01*
X143959984Y-123635287D01*
X143982129Y-123581824D01*
X143985929Y-123581068D01*
X144156089Y-123510586D01*
X144309228Y-123408262D01*
X144439462Y-123278028D01*
X144541786Y-123124889D01*
X144612268Y-122954729D01*
X144648200Y-122774089D01*
X144648200Y-122589911D01*
X144612268Y-122409271D01*
X144541786Y-122239111D01*
X144439462Y-122085972D01*
X144309228Y-121955738D01*
X144156089Y-121853414D01*
X143985929Y-121782932D01*
X143805289Y-121747000D01*
X143621111Y-121747000D01*
X143440471Y-121782932D01*
X143270311Y-121853414D01*
X143117172Y-121955738D01*
X142986938Y-122085972D01*
X142884614Y-122239111D01*
X142862469Y-122292574D01*
X142858669Y-122293330D01*
X142688509Y-122363812D01*
X142535370Y-122466136D01*
X142405136Y-122596370D01*
X142302812Y-122749509D01*
X142232330Y-122919669D01*
X142196398Y-123100309D01*
X136192729Y-123100309D01*
X136174932Y-123010842D01*
X136062990Y-122740589D01*
X135900475Y-122497368D01*
X135693632Y-122290525D01*
X135519240Y-122174000D01*
X135693632Y-122057475D01*
X135900475Y-121850632D01*
X136062990Y-121607411D01*
X136174932Y-121337158D01*
X136232000Y-121050260D01*
X136232000Y-120757740D01*
X136174932Y-120470842D01*
X136062990Y-120200589D01*
X135900475Y-119957368D01*
X135693632Y-119750525D01*
X135519240Y-119634000D01*
X135693632Y-119517475D01*
X135900475Y-119310632D01*
X136062990Y-119067411D01*
X136174932Y-118797158D01*
X136232000Y-118510260D01*
X136232000Y-118217740D01*
X136174932Y-117930842D01*
X136062990Y-117660589D01*
X135900475Y-117417368D01*
X135693632Y-117210525D01*
X135519240Y-117094000D01*
X135693632Y-116977475D01*
X135900475Y-116770632D01*
X136062990Y-116527411D01*
X136174932Y-116257158D01*
X136228886Y-115985911D01*
X138003000Y-115985911D01*
X138003000Y-116170089D01*
X138038932Y-116350729D01*
X138109414Y-116520889D01*
X138211738Y-116674028D01*
X138341972Y-116804262D01*
X138495111Y-116906586D01*
X138665271Y-116977068D01*
X138845911Y-117013000D01*
X139030089Y-117013000D01*
X139210729Y-116977068D01*
X139380889Y-116906586D01*
X139534028Y-116804262D01*
X139664262Y-116674028D01*
X139766586Y-116520889D01*
X139837068Y-116350729D01*
X139859576Y-116237576D01*
X139972729Y-116215068D01*
X140142889Y-116144586D01*
X140296028Y-116042262D01*
X140426262Y-115912028D01*
X140528586Y-115758889D01*
X140599068Y-115588729D01*
X140625543Y-115455633D01*
X140627972Y-115458062D01*
X140781111Y-115560386D01*
X140951271Y-115630868D01*
X141131911Y-115666800D01*
X141316089Y-115666800D01*
X141496729Y-115630868D01*
X141666889Y-115560386D01*
X141820028Y-115458062D01*
X141950262Y-115327828D01*
X142052586Y-115174689D01*
X142123068Y-115004529D01*
X142159000Y-114823889D01*
X142159000Y-114639711D01*
X142123068Y-114459071D01*
X142052586Y-114288911D01*
X141950262Y-114135772D01*
X141820028Y-114005538D01*
X141666889Y-113903214D01*
X141496729Y-113832732D01*
X141316089Y-113796800D01*
X141131911Y-113796800D01*
X140951271Y-113832732D01*
X140781111Y-113903214D01*
X140627972Y-114005538D01*
X140497738Y-114135772D01*
X140395414Y-114288911D01*
X140324932Y-114459071D01*
X140298457Y-114592167D01*
X140296028Y-114589738D01*
X140142889Y-114487414D01*
X139972729Y-114416932D01*
X139792089Y-114381000D01*
X139607911Y-114381000D01*
X139427271Y-114416932D01*
X139257111Y-114487414D01*
X139103972Y-114589738D01*
X138973738Y-114719972D01*
X138871414Y-114873111D01*
X138800932Y-115043271D01*
X138778424Y-115156424D01*
X138665271Y-115178932D01*
X138495111Y-115249414D01*
X138341972Y-115351738D01*
X138211738Y-115481972D01*
X138109414Y-115635111D01*
X138038932Y-115805271D01*
X138003000Y-115985911D01*
X136228886Y-115985911D01*
X136232000Y-115970260D01*
X136232000Y-115677740D01*
X136174932Y-115390842D01*
X136062990Y-115120589D01*
X135900475Y-114877368D01*
X135693632Y-114670525D01*
X135519240Y-114554000D01*
X135693632Y-114437475D01*
X135900475Y-114230632D01*
X136062990Y-113987411D01*
X136174932Y-113717158D01*
X136232000Y-113430260D01*
X136232000Y-113137740D01*
X136174932Y-112850842D01*
X136062990Y-112580589D01*
X135900475Y-112337368D01*
X135693632Y-112130525D01*
X135519240Y-112014000D01*
X135657060Y-111921911D01*
X141863800Y-111921911D01*
X141863800Y-112106089D01*
X141899732Y-112286729D01*
X141970214Y-112456889D01*
X142072538Y-112610028D01*
X142202772Y-112740262D01*
X142355911Y-112842586D01*
X142526071Y-112913068D01*
X142706711Y-112949000D01*
X142890889Y-112949000D01*
X143071529Y-112913068D01*
X143241689Y-112842586D01*
X143394828Y-112740262D01*
X143525062Y-112610028D01*
X143627386Y-112456889D01*
X143697868Y-112286729D01*
X143733800Y-112106089D01*
X143733800Y-111921911D01*
X143723968Y-111872483D01*
X143900511Y-111907600D01*
X144084689Y-111907600D01*
X144265329Y-111871668D01*
X144435489Y-111801186D01*
X144588628Y-111698862D01*
X144718862Y-111568628D01*
X144821186Y-111415489D01*
X144891668Y-111245329D01*
X144927600Y-111064689D01*
X144927600Y-110994967D01*
X144943489Y-110988386D01*
X145096628Y-110886062D01*
X145211800Y-110770890D01*
X145301572Y-110860662D01*
X145454711Y-110962986D01*
X145624871Y-111033468D01*
X145805511Y-111069400D01*
X145882855Y-111069400D01*
X145784172Y-111135338D01*
X145653938Y-111265572D01*
X145551614Y-111418711D01*
X145481132Y-111588871D01*
X145445200Y-111769511D01*
X145445200Y-111953689D01*
X145481132Y-112134329D01*
X145551614Y-112304489D01*
X145653938Y-112457628D01*
X145784172Y-112587862D01*
X145937311Y-112690186D01*
X146107471Y-112760668D01*
X146288111Y-112796600D01*
X146472289Y-112796600D01*
X146551708Y-112780802D01*
X146517538Y-112814972D01*
X146415214Y-112968111D01*
X146348249Y-113129781D01*
X146269079Y-113076882D01*
X146098919Y-113006400D01*
X145918279Y-112970468D01*
X145734101Y-112970468D01*
X145553461Y-113006400D01*
X145383301Y-113076882D01*
X145230162Y-113179206D01*
X145099928Y-113309440D01*
X144997604Y-113462579D01*
X144927122Y-113632739D01*
X144891190Y-113813379D01*
X144891190Y-113997557D01*
X144927122Y-114178197D01*
X144997604Y-114348357D01*
X145065979Y-114450687D01*
X144968889Y-114385814D01*
X144798729Y-114315332D01*
X144618089Y-114279400D01*
X144433911Y-114279400D01*
X144253271Y-114315332D01*
X144083111Y-114385814D01*
X143929972Y-114488138D01*
X143799738Y-114618372D01*
X143697414Y-114771511D01*
X143626932Y-114941671D01*
X143591000Y-115122311D01*
X143591000Y-115267656D01*
X143475089Y-115244600D01*
X143290911Y-115244600D01*
X143110271Y-115280532D01*
X142940111Y-115351014D01*
X142786972Y-115453338D01*
X142656738Y-115583572D01*
X142554414Y-115736711D01*
X142483932Y-115906871D01*
X142448000Y-116087511D01*
X142448000Y-116271689D01*
X142483932Y-116452329D01*
X142554414Y-116622489D01*
X142648777Y-116763714D01*
X142605214Y-116828911D01*
X142534732Y-116999071D01*
X142498800Y-117179711D01*
X142498800Y-117363889D01*
X142534732Y-117544529D01*
X142605214Y-117714689D01*
X142707538Y-117867828D01*
X142837772Y-117998062D01*
X142990911Y-118100386D01*
X143161071Y-118170868D01*
X143341711Y-118206800D01*
X143353094Y-118206800D01*
X143372932Y-118306529D01*
X143443414Y-118476689D01*
X143545738Y-118629828D01*
X143675972Y-118760062D01*
X143829111Y-118862386D01*
X143999271Y-118932868D01*
X144179911Y-118968800D01*
X144364089Y-118968800D01*
X144538629Y-118934081D01*
X144434738Y-119037972D01*
X144332414Y-119191111D01*
X144261932Y-119361271D01*
X144226000Y-119541911D01*
X144226000Y-119726089D01*
X144261932Y-119906729D01*
X144332414Y-120076889D01*
X144434738Y-120230028D01*
X144564972Y-120360262D01*
X144718111Y-120462586D01*
X144888271Y-120533068D01*
X145068911Y-120569000D01*
X145253089Y-120569000D01*
X145371479Y-120545451D01*
X145369000Y-120557911D01*
X145369000Y-120742089D01*
X145404932Y-120922729D01*
X145475414Y-121092889D01*
X145577738Y-121246028D01*
X145707972Y-121376262D01*
X145861111Y-121478586D01*
X146031271Y-121549068D01*
X146211911Y-121585000D01*
X146396089Y-121585000D01*
X146576729Y-121549068D01*
X146746889Y-121478586D01*
X146900028Y-121376262D01*
X147030262Y-121246028D01*
X147132586Y-121092889D01*
X147203068Y-120922729D01*
X147239000Y-120742089D01*
X147239000Y-120557911D01*
X147233960Y-120532576D01*
X147280289Y-120513386D01*
X147433428Y-120411062D01*
X147563662Y-120280828D01*
X147665986Y-120127689D01*
X147736468Y-119957529D01*
X147772400Y-119776889D01*
X147772400Y-119592711D01*
X147772360Y-119592510D01*
X147940689Y-119522786D01*
X148093828Y-119420462D01*
X148224062Y-119290228D01*
X148326386Y-119137089D01*
X148396868Y-118966929D01*
X148432800Y-118786289D01*
X148432800Y-118718372D01*
X148575689Y-118659186D01*
X148587959Y-118650988D01*
X148605332Y-118738329D01*
X148675814Y-118908489D01*
X148763449Y-119039645D01*
X147757247Y-120045847D01*
X147741453Y-120065093D01*
X147729717Y-120087049D01*
X147722490Y-120110874D01*
X147720050Y-120135650D01*
X147722490Y-120160426D01*
X147729717Y-120184251D01*
X147741453Y-120206207D01*
X147757773Y-120225976D01*
X149225368Y-121676526D01*
X148065697Y-122836197D01*
X148049903Y-122855443D01*
X148038167Y-122877399D01*
X148030940Y-122901224D01*
X148028500Y-122926000D01*
X148030940Y-122950776D01*
X148038167Y-122974601D01*
X148049903Y-122996557D01*
X148066467Y-123016566D01*
X149044704Y-123978247D01*
X147874000Y-125150967D01*
X147874000Y-125002911D01*
X147838068Y-124822271D01*
X147767586Y-124652111D01*
X147665262Y-124498972D01*
X147535028Y-124368738D01*
X147381889Y-124266414D01*
X147211729Y-124195932D01*
X147031089Y-124160000D01*
X146937772Y-124160000D01*
X146878586Y-124017111D01*
X146776262Y-123863972D01*
X146646028Y-123733738D01*
X146492889Y-123631414D01*
X146322729Y-123560932D01*
X146142089Y-123525000D01*
X145957911Y-123525000D01*
X145777271Y-123560932D01*
X145607111Y-123631414D01*
X145453972Y-123733738D01*
X145323738Y-123863972D01*
X145221414Y-124017111D01*
X145150932Y-124187271D01*
X145115000Y-124367911D01*
X145115000Y-124552089D01*
X145150932Y-124732729D01*
X145221414Y-124902889D01*
X145323738Y-125056028D01*
X145453972Y-125186262D01*
X145607111Y-125288586D01*
X145777271Y-125359068D01*
X145957911Y-125395000D01*
X146051228Y-125395000D01*
X146110414Y-125537889D01*
X146212738Y-125691028D01*
X146342972Y-125821262D01*
X146496111Y-125923586D01*
X146666271Y-125994068D01*
X146846911Y-126030000D01*
X147031089Y-126030000D01*
X147211729Y-125994068D01*
X147381889Y-125923586D01*
X147535028Y-125821262D01*
X147665262Y-125691028D01*
X147693765Y-125648371D01*
X149376497Y-127331103D01*
X149377022Y-127331624D01*
X149610850Y-127562745D01*
X149666414Y-127696889D01*
X149768738Y-127850028D01*
X149898972Y-127980262D01*
X150052111Y-128082586D01*
X150197856Y-128142955D01*
X150240694Y-128185297D01*
X150301414Y-128331889D01*
X150403738Y-128485028D01*
X150533972Y-128615262D01*
X150687111Y-128717586D01*
X150845659Y-128783258D01*
X151132162Y-129066444D01*
X151151499Y-129082126D01*
X151173523Y-129093734D01*
X151197389Y-129100822D01*
X151222179Y-129103118D01*
X151246941Y-129100533D01*
X151270723Y-129093168D01*
X151292611Y-129081304D01*
X151312967Y-129064164D01*
X151579090Y-128787511D01*
X156291000Y-128787511D01*
X156291000Y-128971689D01*
X156326932Y-129152329D01*
X156397414Y-129322489D01*
X156499738Y-129475628D01*
X156629972Y-129605862D01*
X156783111Y-129708186D01*
X156953271Y-129778668D01*
X157133911Y-129814600D01*
X157318089Y-129814600D01*
X157498729Y-129778668D01*
X157668889Y-129708186D01*
X157822028Y-129605862D01*
X157952262Y-129475628D01*
X158054586Y-129322489D01*
X158125068Y-129152329D01*
X158161000Y-128971689D01*
X158161000Y-128787511D01*
X158125068Y-128606871D01*
X158054586Y-128436711D01*
X157952262Y-128283572D01*
X157822028Y-128153338D01*
X157668889Y-128051014D01*
X157498729Y-127980532D01*
X157318089Y-127944600D01*
X157133911Y-127944600D01*
X156953271Y-127980532D01*
X156783111Y-128051014D01*
X156629972Y-128153338D01*
X156499738Y-128283572D01*
X156397414Y-128436711D01*
X156326932Y-128606871D01*
X156291000Y-128787511D01*
X151579090Y-128787511D01*
X153582622Y-126704711D01*
X156265600Y-126704711D01*
X156265600Y-126888889D01*
X156301532Y-127069529D01*
X156372014Y-127239689D01*
X156474338Y-127392828D01*
X156604572Y-127523062D01*
X156757711Y-127625386D01*
X156927871Y-127695868D01*
X157108511Y-127731800D01*
X157292689Y-127731800D01*
X157473329Y-127695868D01*
X157643489Y-127625386D01*
X157796628Y-127523062D01*
X157926862Y-127392828D01*
X158029186Y-127239689D01*
X158099668Y-127069529D01*
X158135600Y-126888889D01*
X158135600Y-126704711D01*
X158099668Y-126524071D01*
X158029186Y-126353911D01*
X157926862Y-126200772D01*
X157796628Y-126070538D01*
X157643489Y-125968214D01*
X157473329Y-125897732D01*
X157292689Y-125861800D01*
X157108511Y-125861800D01*
X156927871Y-125897732D01*
X156757711Y-125968214D01*
X156604572Y-126070538D01*
X156474338Y-126200772D01*
X156372014Y-126353911D01*
X156301532Y-126524071D01*
X156265600Y-126704711D01*
X153582622Y-126704711D01*
X155093554Y-125134000D01*
X158658928Y-125134000D01*
X158658928Y-126834000D01*
X158671188Y-126958482D01*
X158707498Y-127078180D01*
X158766463Y-127188494D01*
X158845815Y-127285185D01*
X158942506Y-127364537D01*
X159052820Y-127423502D01*
X159172518Y-127459812D01*
X159297000Y-127472072D01*
X160997000Y-127472072D01*
X161121482Y-127459812D01*
X161241180Y-127423502D01*
X161351494Y-127364537D01*
X161448185Y-127285185D01*
X161527537Y-127188494D01*
X161586502Y-127078180D01*
X161608513Y-127005620D01*
X161740368Y-127137475D01*
X161983589Y-127299990D01*
X162253842Y-127411932D01*
X162540740Y-127469000D01*
X162833260Y-127469000D01*
X163120158Y-127411932D01*
X163390411Y-127299990D01*
X163633632Y-127137475D01*
X163840475Y-126930632D01*
X164002990Y-126687411D01*
X164114932Y-126417158D01*
X164172000Y-126130260D01*
X164172000Y-125837740D01*
X164114932Y-125550842D01*
X164002990Y-125280589D01*
X163840475Y-125037368D01*
X163633632Y-124830525D01*
X163459240Y-124714000D01*
X163633632Y-124597475D01*
X163840475Y-124390632D01*
X164002990Y-124147411D01*
X164114932Y-123877158D01*
X164172000Y-123590260D01*
X164172000Y-123297740D01*
X164114932Y-123010842D01*
X164002990Y-122740589D01*
X163840475Y-122497368D01*
X163633632Y-122290525D01*
X163459240Y-122174000D01*
X163633632Y-122057475D01*
X163840475Y-121850632D01*
X164002990Y-121607411D01*
X164114932Y-121337158D01*
X164172000Y-121050260D01*
X164172000Y-120757740D01*
X164114932Y-120470842D01*
X164002990Y-120200589D01*
X163840475Y-119957368D01*
X163633632Y-119750525D01*
X163459240Y-119634000D01*
X163633632Y-119517475D01*
X163840475Y-119310632D01*
X164002990Y-119067411D01*
X164114932Y-118797158D01*
X164172000Y-118510260D01*
X164172000Y-118217740D01*
X164114932Y-117930842D01*
X164002990Y-117660589D01*
X163840475Y-117417368D01*
X163633632Y-117210525D01*
X163459240Y-117094000D01*
X163633632Y-116977475D01*
X163840475Y-116770632D01*
X164002990Y-116527411D01*
X164114932Y-116257158D01*
X164172000Y-115970260D01*
X164172000Y-115677740D01*
X164114932Y-115390842D01*
X164002990Y-115120589D01*
X163840475Y-114877368D01*
X163633632Y-114670525D01*
X163459240Y-114554000D01*
X163633632Y-114437475D01*
X163840475Y-114230632D01*
X164002990Y-113987411D01*
X164114932Y-113717158D01*
X164172000Y-113430260D01*
X164172000Y-113137740D01*
X164114932Y-112850842D01*
X164002990Y-112580589D01*
X163840475Y-112337368D01*
X163633632Y-112130525D01*
X163459240Y-112014000D01*
X163633632Y-111897475D01*
X163840475Y-111690632D01*
X164002990Y-111447411D01*
X164114932Y-111177158D01*
X164172000Y-110890260D01*
X164172000Y-110597740D01*
X164114932Y-110310842D01*
X164002990Y-110040589D01*
X163840475Y-109797368D01*
X163633632Y-109590525D01*
X163459240Y-109474000D01*
X163633632Y-109357475D01*
X163840475Y-109150632D01*
X164002990Y-108907411D01*
X164114932Y-108637158D01*
X164172000Y-108350260D01*
X164172000Y-108057740D01*
X164114932Y-107770842D01*
X164002990Y-107500589D01*
X163840475Y-107257368D01*
X163633632Y-107050525D01*
X163459240Y-106934000D01*
X163633632Y-106817475D01*
X163840475Y-106610632D01*
X164002990Y-106367411D01*
X164114932Y-106097158D01*
X164172000Y-105810260D01*
X164172000Y-105517740D01*
X164114932Y-105230842D01*
X164002990Y-104960589D01*
X163840475Y-104717368D01*
X163633632Y-104510525D01*
X163459240Y-104394000D01*
X163633632Y-104277475D01*
X163840475Y-104070632D01*
X164002990Y-103827411D01*
X164114932Y-103557158D01*
X164172000Y-103270260D01*
X164172000Y-102977740D01*
X164114932Y-102690842D01*
X164002990Y-102420589D01*
X163840475Y-102177368D01*
X163633632Y-101970525D01*
X163390411Y-101808010D01*
X163120158Y-101696068D01*
X162833260Y-101639000D01*
X162540740Y-101639000D01*
X162253842Y-101696068D01*
X161983589Y-101808010D01*
X161740368Y-101970525D01*
X161533525Y-102177368D01*
X161417000Y-102351760D01*
X161300475Y-102177368D01*
X161093632Y-101970525D01*
X160850411Y-101808010D01*
X160691070Y-101742009D01*
X160701000Y-101692089D01*
X160701000Y-101507911D01*
X160665068Y-101327271D01*
X160594586Y-101157111D01*
X160492262Y-101003972D01*
X160362028Y-100873738D01*
X160208889Y-100771414D01*
X160038729Y-100700932D01*
X159858089Y-100665000D01*
X159673911Y-100665000D01*
X159493271Y-100700932D01*
X159323111Y-100771414D01*
X159169972Y-100873738D01*
X159039738Y-101003972D01*
X158937414Y-101157111D01*
X158866932Y-101327271D01*
X158831000Y-101507911D01*
X158831000Y-101692089D01*
X158866932Y-101872729D01*
X158937414Y-102042889D01*
X159013754Y-102157139D01*
X158993525Y-102177368D01*
X158831010Y-102420589D01*
X158719068Y-102690842D01*
X158662000Y-102977740D01*
X158662000Y-103270260D01*
X158719068Y-103557158D01*
X158831010Y-103827411D01*
X158993525Y-104070632D01*
X159200368Y-104277475D01*
X159374760Y-104394000D01*
X159200368Y-104510525D01*
X158993525Y-104717368D01*
X158831010Y-104960589D01*
X158719068Y-105230842D01*
X158662000Y-105517740D01*
X158662000Y-105810260D01*
X158719068Y-106097158D01*
X158831010Y-106367411D01*
X158993525Y-106610632D01*
X159200368Y-106817475D01*
X159374760Y-106934000D01*
X159200368Y-107050525D01*
X158993525Y-107257368D01*
X158831010Y-107500589D01*
X158719068Y-107770842D01*
X158662000Y-108057740D01*
X158662000Y-108350260D01*
X158719068Y-108637158D01*
X158831010Y-108907411D01*
X158993525Y-109150632D01*
X159200368Y-109357475D01*
X159374760Y-109474000D01*
X159200368Y-109590525D01*
X158993525Y-109797368D01*
X158831010Y-110040589D01*
X158719068Y-110310842D01*
X158662000Y-110597740D01*
X158662000Y-110890260D01*
X158719068Y-111177158D01*
X158831010Y-111447411D01*
X158993525Y-111690632D01*
X159200368Y-111897475D01*
X159374760Y-112014000D01*
X159200368Y-112130525D01*
X158993525Y-112337368D01*
X158831010Y-112580589D01*
X158719068Y-112850842D01*
X158662000Y-113137740D01*
X158662000Y-113430260D01*
X158719068Y-113717158D01*
X158831010Y-113987411D01*
X158993525Y-114230632D01*
X159200368Y-114437475D01*
X159374760Y-114554000D01*
X159200368Y-114670525D01*
X158993525Y-114877368D01*
X158831010Y-115120589D01*
X158719068Y-115390842D01*
X158662000Y-115677740D01*
X158662000Y-115970260D01*
X158719068Y-116257158D01*
X158831010Y-116527411D01*
X158993525Y-116770632D01*
X159200368Y-116977475D01*
X159374760Y-117094000D01*
X159200368Y-117210525D01*
X158993525Y-117417368D01*
X158831010Y-117660589D01*
X158719068Y-117930842D01*
X158662000Y-118217740D01*
X158662000Y-118510260D01*
X158719068Y-118797158D01*
X158831010Y-119067411D01*
X158993525Y-119310632D01*
X159200368Y-119517475D01*
X159374760Y-119634000D01*
X159200368Y-119750525D01*
X158993525Y-119957368D01*
X158831010Y-120200589D01*
X158719068Y-120470842D01*
X158662000Y-120757740D01*
X158662000Y-121050260D01*
X158719068Y-121337158D01*
X158831010Y-121607411D01*
X158993525Y-121850632D01*
X159200368Y-122057475D01*
X159374760Y-122174000D01*
X159200368Y-122290525D01*
X158993525Y-122497368D01*
X158831010Y-122740589D01*
X158719068Y-123010842D01*
X158662000Y-123297740D01*
X158662000Y-123590260D01*
X158719068Y-123877158D01*
X158831010Y-124147411D01*
X158993525Y-124390632D01*
X159125380Y-124522487D01*
X159052820Y-124544498D01*
X158942506Y-124603463D01*
X158845815Y-124682815D01*
X158766463Y-124779506D01*
X158707498Y-124889820D01*
X158671188Y-125009518D01*
X158658928Y-125134000D01*
X155093554Y-125134000D01*
X155646886Y-124558776D01*
X155690172Y-124602062D01*
X155843311Y-124704386D01*
X156013471Y-124774868D01*
X156194111Y-124810800D01*
X156378289Y-124810800D01*
X156558929Y-124774868D01*
X156729089Y-124704386D01*
X156882228Y-124602062D01*
X157012462Y-124471828D01*
X157114786Y-124318689D01*
X157185268Y-124148529D01*
X157221200Y-123967889D01*
X157221200Y-123783711D01*
X157185268Y-123603071D01*
X157114786Y-123432911D01*
X157012462Y-123279772D01*
X156882228Y-123149538D01*
X156729089Y-123047214D01*
X156558929Y-122976732D01*
X156378289Y-122940800D01*
X156194111Y-122940800D01*
X156013471Y-122976732D01*
X155843311Y-123047214D01*
X155690172Y-123149538D01*
X155559938Y-123279772D01*
X155457614Y-123432911D01*
X155387132Y-123603071D01*
X155360914Y-123734878D01*
X154908344Y-123281100D01*
X155060329Y-123250868D01*
X155230489Y-123180386D01*
X155383628Y-123078062D01*
X155513862Y-122947828D01*
X155616186Y-122794689D01*
X155686668Y-122624529D01*
X155722600Y-122443889D01*
X155722600Y-122259711D01*
X155686668Y-122079071D01*
X155645777Y-121980351D01*
X155814689Y-121910386D01*
X155967828Y-121808062D01*
X156098062Y-121677828D01*
X156200386Y-121524689D01*
X156270868Y-121354529D01*
X156306800Y-121173889D01*
X156306800Y-120989711D01*
X156270868Y-120809071D01*
X156200386Y-120638911D01*
X156098062Y-120485772D01*
X155967828Y-120355538D01*
X155814689Y-120253214D01*
X155644529Y-120182732D01*
X155463889Y-120146800D01*
X155279711Y-120146800D01*
X155099071Y-120182732D01*
X154928911Y-120253214D01*
X154775772Y-120355538D01*
X154645538Y-120485772D01*
X154543214Y-120638911D01*
X154472732Y-120809071D01*
X154436800Y-120989711D01*
X154436800Y-121173889D01*
X154472732Y-121354529D01*
X154513623Y-121453249D01*
X154344711Y-121523214D01*
X154191572Y-121625538D01*
X154061338Y-121755772D01*
X153959014Y-121908911D01*
X153888532Y-122079071D01*
X153858764Y-122228721D01*
X151942672Y-120307517D01*
X151923448Y-120291697D01*
X151901507Y-120279932D01*
X151877692Y-120272673D01*
X151852919Y-120270200D01*
X151828139Y-120272607D01*
X151804306Y-120279803D01*
X151782333Y-120291509D01*
X151763148Y-120307197D01*
X151130000Y-120937520D01*
X149586199Y-119400600D01*
X149596489Y-119400600D01*
X149777129Y-119364668D01*
X149947289Y-119294186D01*
X150100428Y-119191862D01*
X150230662Y-119061628D01*
X150332986Y-118908489D01*
X150403468Y-118738329D01*
X150439400Y-118557689D01*
X150439400Y-118373511D01*
X150403468Y-118192871D01*
X150332986Y-118022711D01*
X150230662Y-117869572D01*
X150100428Y-117739338D01*
X149947289Y-117637014D01*
X149777129Y-117566532D01*
X149596489Y-117530600D01*
X149412311Y-117530600D01*
X149231671Y-117566532D01*
X149061511Y-117637014D01*
X149049241Y-117645212D01*
X149031868Y-117557871D01*
X148961386Y-117387711D01*
X148859062Y-117234572D01*
X148728828Y-117104338D01*
X148575689Y-117002014D01*
X148405529Y-116931532D01*
X148224889Y-116895600D01*
X148040711Y-116895600D01*
X147860071Y-116931532D01*
X147689911Y-117002014D01*
X147536772Y-117104338D01*
X147406538Y-117234572D01*
X147304214Y-117387711D01*
X147233732Y-117557871D01*
X147197800Y-117738511D01*
X147197800Y-117806428D01*
X147054911Y-117865614D01*
X146901772Y-117967938D01*
X146771538Y-118098172D01*
X146669214Y-118251311D01*
X146598732Y-118421471D01*
X146562800Y-118602111D01*
X146562800Y-118786289D01*
X146562840Y-118786490D01*
X146394511Y-118856214D01*
X146241372Y-118958538D01*
X146111138Y-119088772D01*
X146009934Y-119240235D01*
X145989586Y-119191111D01*
X145887262Y-119037972D01*
X145757028Y-118907738D01*
X145603889Y-118805414D01*
X145433729Y-118734932D01*
X145253089Y-118699000D01*
X145068911Y-118699000D01*
X144894371Y-118733719D01*
X144998262Y-118629828D01*
X145100586Y-118476689D01*
X145171068Y-118306529D01*
X145207000Y-118125889D01*
X145207000Y-117941711D01*
X145171068Y-117761071D01*
X145100586Y-117590911D01*
X144998262Y-117437772D01*
X144868028Y-117307538D01*
X144714889Y-117205214D01*
X144544729Y-117134732D01*
X144364089Y-117098800D01*
X144352706Y-117098800D01*
X144332868Y-116999071D01*
X144262386Y-116828911D01*
X144208264Y-116747911D01*
X151134800Y-116747911D01*
X151134800Y-116932089D01*
X151170732Y-117112729D01*
X151241214Y-117282889D01*
X151343538Y-117436028D01*
X151473772Y-117566262D01*
X151626911Y-117668586D01*
X151797071Y-117739068D01*
X151977711Y-117775000D01*
X152161889Y-117775000D01*
X152342529Y-117739068D01*
X152512689Y-117668586D01*
X152665828Y-117566262D01*
X152796062Y-117436028D01*
X152898386Y-117282889D01*
X152968868Y-117112729D01*
X153004800Y-116932089D01*
X153004800Y-116747911D01*
X152968868Y-116567271D01*
X152898386Y-116397111D01*
X152796062Y-116243972D01*
X152665828Y-116113738D01*
X152664591Y-116112911D01*
X152963600Y-116112911D01*
X152963600Y-116297089D01*
X152999532Y-116477729D01*
X153070014Y-116647889D01*
X153172338Y-116801028D01*
X153302572Y-116931262D01*
X153455711Y-117033586D01*
X153625871Y-117104068D01*
X153806511Y-117140000D01*
X153990689Y-117140000D01*
X154171329Y-117104068D01*
X154341489Y-117033586D01*
X154494628Y-116931262D01*
X154624862Y-116801028D01*
X154727186Y-116647889D01*
X154797668Y-116477729D01*
X154833600Y-116297089D01*
X154833600Y-116112911D01*
X154797668Y-115932271D01*
X154727186Y-115762111D01*
X154624862Y-115608972D01*
X154494628Y-115478738D01*
X154341489Y-115376414D01*
X154171329Y-115305932D01*
X153990689Y-115270000D01*
X153806511Y-115270000D01*
X153625871Y-115305932D01*
X153455711Y-115376414D01*
X153302572Y-115478738D01*
X153172338Y-115608972D01*
X153070014Y-115762111D01*
X152999532Y-115932271D01*
X152963600Y-116112911D01*
X152664591Y-116112911D01*
X152512689Y-116011414D01*
X152342529Y-115940932D01*
X152161889Y-115905000D01*
X151977711Y-115905000D01*
X151797071Y-115940932D01*
X151626911Y-116011414D01*
X151473772Y-116113738D01*
X151343538Y-116243972D01*
X151241214Y-116397111D01*
X151170732Y-116567271D01*
X151134800Y-116747911D01*
X144208264Y-116747911D01*
X144168023Y-116687686D01*
X144211586Y-116622489D01*
X144282068Y-116452329D01*
X144318000Y-116271689D01*
X144318000Y-116126344D01*
X144433911Y-116149400D01*
X144618089Y-116149400D01*
X144798729Y-116113468D01*
X144968889Y-116042986D01*
X145122028Y-115940662D01*
X145252262Y-115810428D01*
X145354586Y-115657289D01*
X145425068Y-115487129D01*
X145461000Y-115306489D01*
X145461000Y-115122311D01*
X145425068Y-114941671D01*
X145354586Y-114771511D01*
X145286211Y-114669181D01*
X145383301Y-114734054D01*
X145553461Y-114804536D01*
X145734101Y-114840468D01*
X145918279Y-114840468D01*
X146098919Y-114804536D01*
X146269079Y-114734054D01*
X146422218Y-114631730D01*
X146552452Y-114501496D01*
X146654776Y-114348357D01*
X146721741Y-114186687D01*
X146800911Y-114239586D01*
X146971071Y-114310068D01*
X147151711Y-114346000D01*
X147335889Y-114346000D01*
X147497045Y-114313944D01*
X147436932Y-114459071D01*
X147401000Y-114639711D01*
X147401000Y-114823889D01*
X147436932Y-115004529D01*
X147507414Y-115174689D01*
X147609738Y-115327828D01*
X147739972Y-115458062D01*
X147893111Y-115560386D01*
X148063271Y-115630868D01*
X148243911Y-115666800D01*
X148428089Y-115666800D01*
X148608729Y-115630868D01*
X148778889Y-115560386D01*
X148932028Y-115458062D01*
X149062262Y-115327828D01*
X149164586Y-115174689D01*
X149235068Y-115004529D01*
X149271000Y-114823889D01*
X149271000Y-114639711D01*
X149235068Y-114459071D01*
X149164586Y-114288911D01*
X149062262Y-114135772D01*
X148932028Y-114005538D01*
X148778889Y-113903214D01*
X148608729Y-113832732D01*
X148428089Y-113796800D01*
X148243911Y-113796800D01*
X148082755Y-113828856D01*
X148142868Y-113683729D01*
X148178800Y-113503089D01*
X148178800Y-113318911D01*
X148142868Y-113138271D01*
X148072386Y-112968111D01*
X147970062Y-112814972D01*
X147839828Y-112684738D01*
X147686689Y-112582414D01*
X147516529Y-112511932D01*
X147335889Y-112476000D01*
X147151711Y-112476000D01*
X147072292Y-112491798D01*
X147106462Y-112457628D01*
X147208786Y-112304489D01*
X147279268Y-112134329D01*
X147315200Y-111953689D01*
X147315200Y-111769511D01*
X147279268Y-111588871D01*
X147208786Y-111418711D01*
X147106462Y-111265572D01*
X147000801Y-111159911D01*
X151465000Y-111159911D01*
X151465000Y-111344089D01*
X151500932Y-111524729D01*
X151571414Y-111694889D01*
X151673738Y-111848028D01*
X151803972Y-111978262D01*
X151957111Y-112080586D01*
X152127271Y-112151068D01*
X152307911Y-112187000D01*
X152492089Y-112187000D01*
X152672729Y-112151068D01*
X152781000Y-112106221D01*
X152889271Y-112151068D01*
X153069911Y-112187000D01*
X153254089Y-112187000D01*
X153434729Y-112151068D01*
X153543000Y-112106221D01*
X153651271Y-112151068D01*
X153831911Y-112187000D01*
X154016089Y-112187000D01*
X154196729Y-112151068D01*
X154366889Y-112080586D01*
X154520028Y-111978262D01*
X154650262Y-111848028D01*
X154752586Y-111694889D01*
X154823068Y-111524729D01*
X154850163Y-111388511D01*
X155478200Y-111388511D01*
X155478200Y-111572689D01*
X155514132Y-111753329D01*
X155584614Y-111923489D01*
X155686938Y-112076628D01*
X155817172Y-112206862D01*
X155970311Y-112309186D01*
X156140471Y-112379668D01*
X156321111Y-112415600D01*
X156505289Y-112415600D01*
X156685929Y-112379668D01*
X156856089Y-112309186D01*
X157009228Y-112206862D01*
X157139462Y-112076628D01*
X157241786Y-111923489D01*
X157312268Y-111753329D01*
X157348200Y-111572689D01*
X157348200Y-111388511D01*
X157312268Y-111207871D01*
X157241786Y-111037711D01*
X157139462Y-110884572D01*
X157009228Y-110754338D01*
X156856089Y-110652014D01*
X156685929Y-110581532D01*
X156505289Y-110545600D01*
X156321111Y-110545600D01*
X156140471Y-110581532D01*
X155970311Y-110652014D01*
X155817172Y-110754338D01*
X155686938Y-110884572D01*
X155584614Y-111037711D01*
X155514132Y-111207871D01*
X155478200Y-111388511D01*
X154850163Y-111388511D01*
X154859000Y-111344089D01*
X154859000Y-111159911D01*
X154823068Y-110979271D01*
X154752586Y-110809111D01*
X154650262Y-110655972D01*
X154520028Y-110525738D01*
X154366889Y-110423414D01*
X154196729Y-110352932D01*
X154016089Y-110317000D01*
X153831911Y-110317000D01*
X153651271Y-110352932D01*
X153543000Y-110397779D01*
X153434729Y-110352932D01*
X153254089Y-110317000D01*
X153069911Y-110317000D01*
X152889271Y-110352932D01*
X152781000Y-110397779D01*
X152672729Y-110352932D01*
X152492089Y-110317000D01*
X152307911Y-110317000D01*
X152127271Y-110352932D01*
X151957111Y-110423414D01*
X151803972Y-110525738D01*
X151673738Y-110655972D01*
X151571414Y-110809111D01*
X151500932Y-110979271D01*
X151465000Y-111159911D01*
X147000801Y-111159911D01*
X146976228Y-111135338D01*
X146823089Y-111033014D01*
X146652929Y-110962532D01*
X146472289Y-110926600D01*
X146394945Y-110926600D01*
X146493628Y-110860662D01*
X146623862Y-110730428D01*
X146726186Y-110577289D01*
X146796668Y-110407129D01*
X146832600Y-110226489D01*
X146832600Y-110042311D01*
X146796668Y-109861671D01*
X146726186Y-109691511D01*
X146623862Y-109538372D01*
X146493628Y-109408138D01*
X146340489Y-109305814D01*
X146170329Y-109235332D01*
X145989689Y-109199400D01*
X145805511Y-109199400D01*
X145624871Y-109235332D01*
X145454711Y-109305814D01*
X145301572Y-109408138D01*
X145186400Y-109523310D01*
X145096628Y-109433538D01*
X144943489Y-109331214D01*
X144773329Y-109260732D01*
X144592689Y-109224800D01*
X144408511Y-109224800D01*
X144227871Y-109260732D01*
X144057711Y-109331214D01*
X143904572Y-109433538D01*
X143774338Y-109563772D01*
X143672014Y-109716911D01*
X143601532Y-109887071D01*
X143565600Y-110067711D01*
X143565600Y-110137433D01*
X143549711Y-110144014D01*
X143471658Y-110196168D01*
X143471028Y-110195538D01*
X143317889Y-110093214D01*
X143147729Y-110022732D01*
X142967089Y-109986800D01*
X142782911Y-109986800D01*
X142602271Y-110022732D01*
X142432111Y-110093214D01*
X142278972Y-110195538D01*
X142148738Y-110325772D01*
X142046414Y-110478911D01*
X141975932Y-110649071D01*
X141940000Y-110829711D01*
X141940000Y-111013889D01*
X141975932Y-111194529D01*
X142046414Y-111364689D01*
X142078220Y-111412290D01*
X142072538Y-111417972D01*
X141970214Y-111571111D01*
X141899732Y-111741271D01*
X141863800Y-111921911D01*
X135657060Y-111921911D01*
X135693632Y-111897475D01*
X135900475Y-111690632D01*
X136062990Y-111447411D01*
X136174932Y-111177158D01*
X136232000Y-110890260D01*
X136232000Y-110597740D01*
X136174932Y-110310842D01*
X136062990Y-110040589D01*
X135900475Y-109797368D01*
X135693632Y-109590525D01*
X135519240Y-109474000D01*
X135693632Y-109357475D01*
X135900475Y-109150632D01*
X136062990Y-108907411D01*
X136174932Y-108637158D01*
X136232000Y-108350260D01*
X136232000Y-108057740D01*
X136174932Y-107770842D01*
X136062990Y-107500589D01*
X135900475Y-107257368D01*
X135868307Y-107225200D01*
X137196989Y-107225200D01*
X137205813Y-107314788D01*
X137231944Y-107400932D01*
X137274380Y-107480324D01*
X137331489Y-107549911D01*
X137401076Y-107607020D01*
X137480468Y-107649456D01*
X137566612Y-107675587D01*
X137656200Y-107684411D01*
X138118950Y-107682200D01*
X138233200Y-107567950D01*
X138233200Y-106648200D01*
X137313450Y-106648200D01*
X137199200Y-106762450D01*
X137196989Y-107225200D01*
X135868307Y-107225200D01*
X135693632Y-107050525D01*
X135519240Y-106934000D01*
X135693632Y-106817475D01*
X135900475Y-106610632D01*
X136062990Y-106367411D01*
X136174932Y-106097158D01*
X136232000Y-105810260D01*
X136232000Y-105525200D01*
X137196989Y-105525200D01*
X137199200Y-105987950D01*
X137313450Y-106102200D01*
X138233200Y-106102200D01*
X138233200Y-105182450D01*
X138118950Y-105068200D01*
X137656200Y-105065989D01*
X137566612Y-105074813D01*
X137480468Y-105100944D01*
X137401076Y-105143380D01*
X137331489Y-105200489D01*
X137274380Y-105270076D01*
X137231944Y-105349468D01*
X137205813Y-105435612D01*
X137196989Y-105525200D01*
X136232000Y-105525200D01*
X136232000Y-105517740D01*
X136174932Y-105230842D01*
X136062990Y-104960589D01*
X135900475Y-104717368D01*
X135693632Y-104510525D01*
X135450411Y-104348010D01*
X135346072Y-104304791D01*
X137286460Y-104304791D01*
X137401510Y-104533727D01*
X137559012Y-104735819D01*
X137752914Y-104903301D01*
X137975764Y-105029737D01*
X138036611Y-105054928D01*
X138233200Y-104996287D01*
X138233200Y-104108200D01*
X137342267Y-104108200D01*
X137286460Y-104304791D01*
X135346072Y-104304791D01*
X135317579Y-104292989D01*
X135445527Y-104228690D01*
X135647619Y-104071188D01*
X135815101Y-103877286D01*
X135941537Y-103654436D01*
X135966728Y-103593589D01*
X135908087Y-103397000D01*
X135020000Y-103397000D01*
X135020000Y-103417000D01*
X134474000Y-103417000D01*
X134474000Y-103397000D01*
X133585913Y-103397000D01*
X133527272Y-103593589D01*
X133552463Y-103654436D01*
X133678899Y-103877286D01*
X133846381Y-104071188D01*
X134048473Y-104228690D01*
X134176421Y-104292989D01*
X134043589Y-104348010D01*
X133800368Y-104510525D01*
X133593525Y-104717368D01*
X133477000Y-104891760D01*
X133360475Y-104717368D01*
X133153632Y-104510525D01*
X132910411Y-104348010D01*
X132777579Y-104292989D01*
X132905527Y-104228690D01*
X133107619Y-104071188D01*
X133275101Y-103877286D01*
X133401537Y-103654436D01*
X133426728Y-103593589D01*
X133368087Y-103397000D01*
X132480000Y-103397000D01*
X132480000Y-103417000D01*
X131934000Y-103417000D01*
X131934000Y-103397000D01*
X131045913Y-103397000D01*
X130987272Y-103593589D01*
X131012463Y-103654436D01*
X131138899Y-103877286D01*
X131306381Y-104071188D01*
X131508473Y-104228690D01*
X131636421Y-104292989D01*
X131503589Y-104348010D01*
X131260368Y-104510525D01*
X131053525Y-104717368D01*
X130891010Y-104960589D01*
X130779068Y-105230842D01*
X130722000Y-105517740D01*
X130722000Y-105810260D01*
X130779068Y-106097158D01*
X130891010Y-106367411D01*
X131053525Y-106610632D01*
X131260368Y-106817475D01*
X131434760Y-106934000D01*
X131260368Y-107050525D01*
X131053525Y-107257368D01*
X130891010Y-107500589D01*
X130779068Y-107770842D01*
X130722000Y-108057740D01*
X130722000Y-108350260D01*
X130779068Y-108637158D01*
X130891010Y-108907411D01*
X131053525Y-109150632D01*
X131260368Y-109357475D01*
X131434760Y-109474000D01*
X131260368Y-109590525D01*
X131053525Y-109797368D01*
X130891010Y-110040589D01*
X130779068Y-110310842D01*
X130722000Y-110597740D01*
X130722000Y-110890260D01*
X130779068Y-111177158D01*
X130891010Y-111447411D01*
X131053525Y-111690632D01*
X131260368Y-111897475D01*
X131434760Y-112014000D01*
X131260368Y-112130525D01*
X131053525Y-112337368D01*
X130891010Y-112580589D01*
X130779068Y-112850842D01*
X130722000Y-113137740D01*
X130722000Y-113430260D01*
X130779068Y-113717158D01*
X130891010Y-113987411D01*
X131053525Y-114230632D01*
X131260368Y-114437475D01*
X131434760Y-114554000D01*
X131260368Y-114670525D01*
X131053525Y-114877368D01*
X130891010Y-115120589D01*
X130779068Y-115390842D01*
X130722000Y-115677740D01*
X130722000Y-115970260D01*
X130779068Y-116257158D01*
X130891010Y-116527411D01*
X131053525Y-116770632D01*
X131260368Y-116977475D01*
X131434760Y-117094000D01*
X131260368Y-117210525D01*
X131053525Y-117417368D01*
X130891010Y-117660589D01*
X130779068Y-117930842D01*
X130722000Y-118217740D01*
X130722000Y-118510260D01*
X130779068Y-118797158D01*
X130891010Y-119067411D01*
X131053525Y-119310632D01*
X131260368Y-119517475D01*
X131434760Y-119634000D01*
X131260368Y-119750525D01*
X131053525Y-119957368D01*
X130891010Y-120200589D01*
X130779068Y-120470842D01*
X130722000Y-120757740D01*
X130722000Y-121050260D01*
X130779068Y-121337158D01*
X130891010Y-121607411D01*
X131053525Y-121850632D01*
X131260368Y-122057475D01*
X131434760Y-122174000D01*
X131260368Y-122290525D01*
X131053525Y-122497368D01*
X130891010Y-122740589D01*
X130779068Y-123010842D01*
X130722000Y-123297740D01*
X130722000Y-123590260D01*
X130779068Y-123877158D01*
X130891010Y-124147411D01*
X131053525Y-124390632D01*
X131185380Y-124522487D01*
X131112820Y-124544498D01*
X131002506Y-124603463D01*
X130905815Y-124682815D01*
X130826463Y-124779506D01*
X130767498Y-124889820D01*
X130731188Y-125009518D01*
X130718928Y-125134000D01*
X130660000Y-125134000D01*
X130660000Y-103365609D01*
X137286460Y-103365609D01*
X137342267Y-103562200D01*
X138233200Y-103562200D01*
X138233200Y-102674113D01*
X138779200Y-102674113D01*
X138779200Y-103562200D01*
X138799200Y-103562200D01*
X138799200Y-104108200D01*
X138779200Y-104108200D01*
X138779200Y-104996287D01*
X138975789Y-105054928D01*
X139036636Y-105029737D01*
X139259486Y-104903301D01*
X139453388Y-104735819D01*
X139610890Y-104533727D01*
X139675189Y-104405779D01*
X139730210Y-104538611D01*
X139892725Y-104781832D01*
X140099568Y-104988675D01*
X140273960Y-105105200D01*
X140099568Y-105221725D01*
X139892725Y-105428568D01*
X139815319Y-105544414D01*
X139815411Y-105525200D01*
X139806587Y-105435612D01*
X139780456Y-105349468D01*
X139738020Y-105270076D01*
X139680911Y-105200489D01*
X139611324Y-105143380D01*
X139531932Y-105100944D01*
X139445788Y-105074813D01*
X139356200Y-105065989D01*
X138893450Y-105068200D01*
X138779200Y-105182450D01*
X138779200Y-106102200D01*
X138799200Y-106102200D01*
X138799200Y-106648200D01*
X138779200Y-106648200D01*
X138779200Y-107567950D01*
X138893450Y-107682200D01*
X139356200Y-107684411D01*
X139445788Y-107675587D01*
X139531932Y-107649456D01*
X139611324Y-107607020D01*
X139680911Y-107549911D01*
X139738020Y-107480324D01*
X139780456Y-107400932D01*
X139806587Y-107314788D01*
X139815411Y-107225200D01*
X139815319Y-107205986D01*
X139892725Y-107321832D01*
X140099568Y-107528675D01*
X140342789Y-107691190D01*
X140613042Y-107803132D01*
X140899940Y-107860200D01*
X141192460Y-107860200D01*
X141479358Y-107803132D01*
X141749611Y-107691190D01*
X141992832Y-107528675D01*
X142199675Y-107321832D01*
X142316200Y-107147440D01*
X142432725Y-107321832D01*
X142639568Y-107528675D01*
X142882789Y-107691190D01*
X143153042Y-107803132D01*
X143439940Y-107860200D01*
X143732460Y-107860200D01*
X144019358Y-107803132D01*
X144289611Y-107691190D01*
X144430515Y-107597041D01*
X144434014Y-107605489D01*
X144536338Y-107758628D01*
X144666572Y-107888862D01*
X144819711Y-107991186D01*
X144989871Y-108061668D01*
X145170511Y-108097600D01*
X145354689Y-108097600D01*
X145535329Y-108061668D01*
X145705489Y-107991186D01*
X145858628Y-107888862D01*
X145988862Y-107758628D01*
X146091186Y-107605489D01*
X146161668Y-107435329D01*
X146178658Y-107349911D01*
X151592000Y-107349911D01*
X151592000Y-107534089D01*
X151627932Y-107714729D01*
X151698414Y-107884889D01*
X151800738Y-108038028D01*
X151930972Y-108168262D01*
X152084111Y-108270586D01*
X152254271Y-108341068D01*
X152434911Y-108377000D01*
X152619089Y-108377000D01*
X152799729Y-108341068D01*
X152908000Y-108296221D01*
X153016271Y-108341068D01*
X153196911Y-108377000D01*
X153381089Y-108377000D01*
X153561729Y-108341068D01*
X153670000Y-108296221D01*
X153778271Y-108341068D01*
X153958911Y-108377000D01*
X154143089Y-108377000D01*
X154323729Y-108341068D01*
X154370433Y-108321723D01*
X154470972Y-108422262D01*
X154624111Y-108524586D01*
X154794271Y-108595068D01*
X154974911Y-108631000D01*
X155159089Y-108631000D01*
X155339729Y-108595068D01*
X155509889Y-108524586D01*
X155511500Y-108523510D01*
X155513111Y-108524586D01*
X155683271Y-108595068D01*
X155863911Y-108631000D01*
X156048089Y-108631000D01*
X156228729Y-108595068D01*
X156337000Y-108550221D01*
X156445271Y-108595068D01*
X156625911Y-108631000D01*
X156810089Y-108631000D01*
X156990729Y-108595068D01*
X157099000Y-108550221D01*
X157207271Y-108595068D01*
X157387911Y-108631000D01*
X157572089Y-108631000D01*
X157752729Y-108595068D01*
X157922889Y-108524586D01*
X158076028Y-108422262D01*
X158206262Y-108292028D01*
X158308586Y-108138889D01*
X158379068Y-107968729D01*
X158415000Y-107788089D01*
X158415000Y-107603911D01*
X158379068Y-107423271D01*
X158308586Y-107253111D01*
X158206262Y-107099972D01*
X158076028Y-106969738D01*
X157922889Y-106867414D01*
X157752729Y-106796932D01*
X157572089Y-106761000D01*
X157387911Y-106761000D01*
X157207271Y-106796932D01*
X157099000Y-106841779D01*
X156990729Y-106796932D01*
X156810089Y-106761000D01*
X156625911Y-106761000D01*
X156445271Y-106796932D01*
X156337000Y-106841779D01*
X156228729Y-106796932D01*
X156048089Y-106761000D01*
X156002000Y-106761000D01*
X156002000Y-106714911D01*
X155966068Y-106534271D01*
X155921221Y-106426000D01*
X155966068Y-106317729D01*
X156002000Y-106137089D01*
X156002000Y-105952911D01*
X155966068Y-105772271D01*
X155895586Y-105602111D01*
X155793262Y-105448972D01*
X155663028Y-105318738D01*
X155509889Y-105216414D01*
X155339729Y-105145932D01*
X155159089Y-105110000D01*
X154974911Y-105110000D01*
X154794271Y-105145932D01*
X154624111Y-105216414D01*
X154470972Y-105318738D01*
X154340738Y-105448972D01*
X154238414Y-105602111D01*
X154167932Y-105772271D01*
X154132000Y-105952911D01*
X154132000Y-106137089D01*
X154167932Y-106317729D01*
X154212779Y-106426000D01*
X154176477Y-106513641D01*
X154143089Y-106507000D01*
X153958911Y-106507000D01*
X153778271Y-106542932D01*
X153670000Y-106587779D01*
X153561729Y-106542932D01*
X153381089Y-106507000D01*
X153196911Y-106507000D01*
X153016271Y-106542932D01*
X152908000Y-106587779D01*
X152799729Y-106542932D01*
X152619089Y-106507000D01*
X152434911Y-106507000D01*
X152254271Y-106542932D01*
X152084111Y-106613414D01*
X151930972Y-106715738D01*
X151800738Y-106845972D01*
X151698414Y-106999111D01*
X151627932Y-107169271D01*
X151592000Y-107349911D01*
X146178658Y-107349911D01*
X146197600Y-107254689D01*
X146197600Y-107070511D01*
X146161668Y-106889871D01*
X146091186Y-106719711D01*
X145988862Y-106566572D01*
X145858628Y-106436338D01*
X145705489Y-106334014D01*
X145535329Y-106263532D01*
X145354689Y-106227600D01*
X145170511Y-106227600D01*
X145071200Y-106247354D01*
X145071200Y-106228940D01*
X145014132Y-105942042D01*
X144973168Y-105843145D01*
X145116871Y-105902668D01*
X145297511Y-105938600D01*
X145481689Y-105938600D01*
X145662329Y-105902668D01*
X145832489Y-105832186D01*
X145985628Y-105729862D01*
X146115862Y-105599628D01*
X146218186Y-105446489D01*
X146288668Y-105276329D01*
X146324600Y-105095689D01*
X146324600Y-104911511D01*
X146288668Y-104730871D01*
X146218186Y-104560711D01*
X146115862Y-104407572D01*
X145985628Y-104277338D01*
X145832489Y-104175014D01*
X145662329Y-104104532D01*
X145481689Y-104068600D01*
X145297511Y-104068600D01*
X145116871Y-104104532D01*
X145040420Y-104136199D01*
X145071200Y-103981460D01*
X145071200Y-103688940D01*
X145014132Y-103402042D01*
X144902190Y-103131789D01*
X144739675Y-102888568D01*
X144532832Y-102681725D01*
X144289611Y-102519210D01*
X144019358Y-102407268D01*
X143732460Y-102350200D01*
X143439940Y-102350200D01*
X143153042Y-102407268D01*
X142882789Y-102519210D01*
X142639568Y-102681725D01*
X142432725Y-102888568D01*
X142316200Y-103062960D01*
X142199675Y-102888568D01*
X141992832Y-102681725D01*
X141749611Y-102519210D01*
X141479358Y-102407268D01*
X141192460Y-102350200D01*
X140899940Y-102350200D01*
X140613042Y-102407268D01*
X140342789Y-102519210D01*
X140099568Y-102681725D01*
X139892725Y-102888568D01*
X139730210Y-103131789D01*
X139675189Y-103264621D01*
X139610890Y-103136673D01*
X139453388Y-102934581D01*
X139259486Y-102767099D01*
X139036636Y-102640663D01*
X138975789Y-102615472D01*
X138779200Y-102674113D01*
X138233200Y-102674113D01*
X138036611Y-102615472D01*
X137975764Y-102640663D01*
X137752914Y-102767099D01*
X137559012Y-102934581D01*
X137401510Y-103136673D01*
X137286460Y-103365609D01*
X130660000Y-103365609D01*
X130660000Y-102654411D01*
X130987272Y-102654411D01*
X131045913Y-102851000D01*
X131934000Y-102851000D01*
X131934000Y-101960067D01*
X132480000Y-101960067D01*
X132480000Y-102851000D01*
X133368087Y-102851000D01*
X133426728Y-102654411D01*
X133527272Y-102654411D01*
X133585913Y-102851000D01*
X134474000Y-102851000D01*
X134474000Y-101960067D01*
X135020000Y-101960067D01*
X135020000Y-102851000D01*
X135908087Y-102851000D01*
X135966728Y-102654411D01*
X135941537Y-102593564D01*
X135815101Y-102370714D01*
X135647619Y-102176812D01*
X135445527Y-102019310D01*
X135216591Y-101904260D01*
X135020000Y-101960067D01*
X134474000Y-101960067D01*
X134277409Y-101904260D01*
X134048473Y-102019310D01*
X133846381Y-102176812D01*
X133678899Y-102370714D01*
X133552463Y-102593564D01*
X133527272Y-102654411D01*
X133426728Y-102654411D01*
X133401537Y-102593564D01*
X133275101Y-102370714D01*
X133107619Y-102176812D01*
X132905527Y-102019310D01*
X132676591Y-101904260D01*
X132480000Y-101960067D01*
X131934000Y-101960067D01*
X131737409Y-101904260D01*
X131508473Y-102019310D01*
X131306381Y-102176812D01*
X131138899Y-102370714D01*
X131012463Y-102593564D01*
X130987272Y-102654411D01*
X130660000Y-102654411D01*
X130660000Y-100225211D01*
X143248100Y-100225211D01*
X143248100Y-100409389D01*
X143284032Y-100590029D01*
X143354514Y-100760189D01*
X143456838Y-100913328D01*
X143587072Y-101043562D01*
X143740211Y-101145886D01*
X143910371Y-101216368D01*
X144091011Y-101252300D01*
X144275189Y-101252300D01*
X144455829Y-101216368D01*
X144625989Y-101145886D01*
X144779128Y-101043562D01*
X144909362Y-100913328D01*
X145011686Y-100760189D01*
X145070204Y-100618911D01*
X148544000Y-100618911D01*
X148544000Y-100803089D01*
X148579932Y-100983729D01*
X148650414Y-101153889D01*
X148752738Y-101307028D01*
X148882972Y-101437262D01*
X149036111Y-101539586D01*
X149206271Y-101610068D01*
X149386911Y-101646000D01*
X149571089Y-101646000D01*
X149751729Y-101610068D01*
X149921889Y-101539586D01*
X150075028Y-101437262D01*
X150205262Y-101307028D01*
X150307586Y-101153889D01*
X150350411Y-101050501D01*
X150432372Y-101132462D01*
X150585511Y-101234786D01*
X150755671Y-101305268D01*
X150936311Y-101341200D01*
X151120489Y-101341200D01*
X151301129Y-101305268D01*
X151471289Y-101234786D01*
X151624428Y-101132462D01*
X151754662Y-101002228D01*
X151856986Y-100849089D01*
X151927468Y-100678929D01*
X151963400Y-100498289D01*
X151963400Y-100352090D01*
X152083372Y-100472062D01*
X152236511Y-100574386D01*
X152406671Y-100644868D01*
X152587311Y-100680800D01*
X152771489Y-100680800D01*
X152952129Y-100644868D01*
X153009600Y-100621063D01*
X153067071Y-100644868D01*
X153247711Y-100680800D01*
X153431889Y-100680800D01*
X153612529Y-100644868D01*
X153782689Y-100574386D01*
X153935828Y-100472062D01*
X154066062Y-100341828D01*
X154168386Y-100188689D01*
X154238868Y-100018529D01*
X154274800Y-99837889D01*
X154274800Y-99653711D01*
X154238868Y-99473071D01*
X154168386Y-99302911D01*
X154066062Y-99149772D01*
X153935828Y-99019538D01*
X153782689Y-98917214D01*
X153612529Y-98846732D01*
X153431889Y-98810800D01*
X153247711Y-98810800D01*
X153067071Y-98846732D01*
X153009600Y-98870537D01*
X152952129Y-98846732D01*
X152771489Y-98810800D01*
X152587311Y-98810800D01*
X152406671Y-98846732D01*
X152236511Y-98917214D01*
X152083372Y-99019538D01*
X151953138Y-99149772D01*
X151850814Y-99302911D01*
X151780332Y-99473071D01*
X151744400Y-99653711D01*
X151744400Y-99799910D01*
X151624428Y-99679938D01*
X151471289Y-99577614D01*
X151301129Y-99507132D01*
X151120489Y-99471200D01*
X150936311Y-99471200D01*
X150755671Y-99507132D01*
X150585511Y-99577614D01*
X150432372Y-99679938D01*
X150302138Y-99810172D01*
X150199814Y-99963311D01*
X150156989Y-100066699D01*
X150075028Y-99984738D01*
X149921889Y-99882414D01*
X149751729Y-99811932D01*
X149571089Y-99776000D01*
X149386911Y-99776000D01*
X149206271Y-99811932D01*
X149036111Y-99882414D01*
X148882972Y-99984738D01*
X148752738Y-100114972D01*
X148650414Y-100268111D01*
X148579932Y-100438271D01*
X148544000Y-100618911D01*
X145070204Y-100618911D01*
X145082168Y-100590029D01*
X145118100Y-100409389D01*
X145118100Y-100225211D01*
X145082168Y-100044571D01*
X145011686Y-99874411D01*
X144909362Y-99721272D01*
X144779128Y-99591038D01*
X144625989Y-99488714D01*
X144455829Y-99418232D01*
X144275189Y-99382300D01*
X144091011Y-99382300D01*
X143910371Y-99418232D01*
X143740211Y-99488714D01*
X143587072Y-99591038D01*
X143456838Y-99721272D01*
X143354514Y-99874411D01*
X143284032Y-100044571D01*
X143248100Y-100225211D01*
X130660000Y-100225211D01*
X130660000Y-97824911D01*
X138257000Y-97824911D01*
X138257000Y-98009089D01*
X138292932Y-98189729D01*
X138363414Y-98359889D01*
X138465738Y-98513028D01*
X138595972Y-98643262D01*
X138749111Y-98745586D01*
X138919271Y-98816068D01*
X139099911Y-98852000D01*
X139284089Y-98852000D01*
X139464729Y-98816068D01*
X139634889Y-98745586D01*
X139788028Y-98643262D01*
X139918262Y-98513028D01*
X140020586Y-98359889D01*
X140091068Y-98189729D01*
X140127000Y-98009089D01*
X140127000Y-97824911D01*
X140091068Y-97644271D01*
X140020586Y-97474111D01*
X139918262Y-97320972D01*
X139788028Y-97190738D01*
X139634889Y-97088414D01*
X139464729Y-97017932D01*
X139284089Y-96982000D01*
X139099911Y-96982000D01*
X138919271Y-97017932D01*
X138749111Y-97088414D01*
X138595972Y-97190738D01*
X138465738Y-97320972D01*
X138363414Y-97474111D01*
X138292932Y-97644271D01*
X138257000Y-97824911D01*
X130660000Y-97824911D01*
X130660000Y-94032278D01*
X130693440Y-93691229D01*
X130865000Y-93691229D01*
X130865000Y-94308771D01*
X130985476Y-94914446D01*
X131221799Y-95484979D01*
X131564886Y-95998446D01*
X132001554Y-96435114D01*
X132515021Y-96778201D01*
X133085554Y-97014524D01*
X133691229Y-97135000D01*
X134308771Y-97135000D01*
X134914446Y-97014524D01*
X135484979Y-96778201D01*
X135895184Y-96504111D01*
X151719000Y-96504111D01*
X151719000Y-96688289D01*
X151754932Y-96868929D01*
X151825414Y-97039089D01*
X151927738Y-97192228D01*
X152057972Y-97322462D01*
X152211111Y-97424786D01*
X152381271Y-97495268D01*
X152561911Y-97531200D01*
X152746089Y-97531200D01*
X152926729Y-97495268D01*
X152984200Y-97471463D01*
X153041671Y-97495268D01*
X153222311Y-97531200D01*
X153406489Y-97531200D01*
X153587129Y-97495268D01*
X153757289Y-97424786D01*
X153910428Y-97322462D01*
X154040662Y-97192228D01*
X154142986Y-97039089D01*
X154213468Y-96868929D01*
X154249400Y-96688289D01*
X154249400Y-96504111D01*
X154213468Y-96323471D01*
X154142986Y-96153311D01*
X154040662Y-96000172D01*
X153910428Y-95869938D01*
X153757289Y-95767614D01*
X153587129Y-95697132D01*
X153406489Y-95661200D01*
X153222311Y-95661200D01*
X153041671Y-95697132D01*
X152984200Y-95720937D01*
X152926729Y-95697132D01*
X152746089Y-95661200D01*
X152561911Y-95661200D01*
X152381271Y-95697132D01*
X152211111Y-95767614D01*
X152057972Y-95869938D01*
X151927738Y-96000172D01*
X151825414Y-96153311D01*
X151754932Y-96323471D01*
X151719000Y-96504111D01*
X135895184Y-96504111D01*
X135998446Y-96435114D01*
X136435114Y-95998446D01*
X136778201Y-95484979D01*
X137014524Y-94914446D01*
X137135000Y-94308771D01*
X137135000Y-93691229D01*
X137107571Y-93553335D01*
X137123511Y-93563986D01*
X137293671Y-93634468D01*
X137474311Y-93670400D01*
X137658489Y-93670400D01*
X137839129Y-93634468D01*
X138009289Y-93563986D01*
X138162428Y-93461662D01*
X138292662Y-93331428D01*
X138345125Y-93252911D01*
X141305000Y-93252911D01*
X141305000Y-93437089D01*
X141340932Y-93617729D01*
X141411414Y-93787889D01*
X141513738Y-93941028D01*
X141643972Y-94071262D01*
X141797111Y-94173586D01*
X141967271Y-94244068D01*
X142147911Y-94280000D01*
X142332089Y-94280000D01*
X142512729Y-94244068D01*
X142682889Y-94173586D01*
X142836028Y-94071262D01*
X142966262Y-93941028D01*
X143068586Y-93787889D01*
X143139068Y-93617729D01*
X143175000Y-93437089D01*
X143175000Y-93391000D01*
X143221089Y-93391000D01*
X143401729Y-93355068D01*
X143571889Y-93284586D01*
X143725028Y-93182262D01*
X143855262Y-93052028D01*
X143957586Y-92898889D01*
X144028068Y-92728729D01*
X144064000Y-92548089D01*
X144064000Y-92541711D01*
X146486600Y-92541711D01*
X146486600Y-92725889D01*
X146522532Y-92906529D01*
X146593014Y-93076689D01*
X146695338Y-93229828D01*
X146825572Y-93360062D01*
X146978711Y-93462386D01*
X147148871Y-93532868D01*
X147329511Y-93568800D01*
X147513689Y-93568800D01*
X147694329Y-93532868D01*
X147864489Y-93462386D01*
X148017628Y-93360062D01*
X148147862Y-93229828D01*
X148250186Y-93076689D01*
X148320668Y-92906529D01*
X148356600Y-92725889D01*
X148356600Y-92541711D01*
X148346496Y-92490911D01*
X157053000Y-92490911D01*
X157053000Y-92675089D01*
X157088932Y-92855729D01*
X157159414Y-93025889D01*
X157261738Y-93179028D01*
X157391972Y-93309262D01*
X157545111Y-93411586D01*
X157715271Y-93482068D01*
X157895911Y-93518000D01*
X157899457Y-93518000D01*
X157865000Y-93691229D01*
X157865000Y-94308771D01*
X157985476Y-94914446D01*
X158221799Y-95484979D01*
X158564886Y-95998446D01*
X159001554Y-96435114D01*
X159515021Y-96778201D01*
X160085554Y-97014524D01*
X160691229Y-97135000D01*
X161308771Y-97135000D01*
X161914446Y-97014524D01*
X162484979Y-96778201D01*
X162998446Y-96435114D01*
X163435114Y-95998446D01*
X163778201Y-95484979D01*
X164014524Y-94914446D01*
X164135000Y-94308771D01*
X164135000Y-93691229D01*
X164014524Y-93085554D01*
X163778201Y-92515021D01*
X163435114Y-92001554D01*
X162998446Y-91564886D01*
X162484979Y-91221799D01*
X161914446Y-90985476D01*
X161308771Y-90865000D01*
X160691229Y-90865000D01*
X160085554Y-90985476D01*
X159515021Y-91221799D01*
X159001554Y-91564886D01*
X158646865Y-91919575D01*
X158584028Y-91856738D01*
X158430889Y-91754414D01*
X158260729Y-91683932D01*
X158080089Y-91648000D01*
X157895911Y-91648000D01*
X157715271Y-91683932D01*
X157545111Y-91754414D01*
X157391972Y-91856738D01*
X157261738Y-91986972D01*
X157159414Y-92140111D01*
X157088932Y-92310271D01*
X157053000Y-92490911D01*
X148346496Y-92490911D01*
X148320668Y-92361071D01*
X148250186Y-92190911D01*
X148147862Y-92037772D01*
X148017628Y-91907538D01*
X147864489Y-91805214D01*
X147694329Y-91734732D01*
X147513689Y-91698800D01*
X147329511Y-91698800D01*
X147148871Y-91734732D01*
X146978711Y-91805214D01*
X146825572Y-91907538D01*
X146695338Y-92037772D01*
X146593014Y-92190911D01*
X146522532Y-92361071D01*
X146486600Y-92541711D01*
X144064000Y-92541711D01*
X144064000Y-92363911D01*
X144028068Y-92183271D01*
X143957586Y-92013111D01*
X143855262Y-91859972D01*
X143725028Y-91729738D01*
X143571889Y-91627414D01*
X143401729Y-91556932D01*
X143221089Y-91521000D01*
X143036911Y-91521000D01*
X142856271Y-91556932D01*
X142686111Y-91627414D01*
X142532972Y-91729738D01*
X142402738Y-91859972D01*
X142300414Y-92013111D01*
X142229932Y-92183271D01*
X142194000Y-92363911D01*
X142194000Y-92410000D01*
X142147911Y-92410000D01*
X141967271Y-92445932D01*
X141797111Y-92516414D01*
X141643972Y-92618738D01*
X141513738Y-92748972D01*
X141411414Y-92902111D01*
X141340932Y-93072271D01*
X141305000Y-93252911D01*
X138345125Y-93252911D01*
X138394986Y-93178289D01*
X138465468Y-93008129D01*
X138501400Y-92827489D01*
X138501400Y-92643311D01*
X138465468Y-92462671D01*
X138394986Y-92292511D01*
X138292662Y-92139372D01*
X138162428Y-92009138D01*
X138009289Y-91906814D01*
X137839129Y-91836332D01*
X137658489Y-91800400D01*
X137474311Y-91800400D01*
X137293671Y-91836332D01*
X137123511Y-91906814D01*
X136970372Y-92009138D01*
X136840138Y-92139372D01*
X136737814Y-92292511D01*
X136696374Y-92392558D01*
X136435114Y-92001554D01*
X135998446Y-91564886D01*
X135484979Y-91221799D01*
X134914446Y-90985476D01*
X134308771Y-90865000D01*
X133691229Y-90865000D01*
X133085554Y-90985476D01*
X132515021Y-91221799D01*
X132001554Y-91564886D01*
X131564886Y-92001554D01*
X131221799Y-92515021D01*
X130985476Y-93085554D01*
X130865000Y-93691229D01*
X130693440Y-93691229D01*
X130726714Y-93351874D01*
X130914943Y-92728428D01*
X131220681Y-92153421D01*
X131632279Y-91648753D01*
X132134067Y-91233638D01*
X132706924Y-90923895D01*
X133329039Y-90731318D01*
X134007584Y-90660000D01*
X152364525Y-90660000D01*
X152354000Y-90712911D01*
G37*
X152354000Y-90712911D02*
X152354000Y-90897089D01*
X152389932Y-91077729D01*
X152460414Y-91247889D01*
X152562738Y-91401028D01*
X152692972Y-91531262D01*
X152846111Y-91633586D01*
X153016271Y-91704068D01*
X153196911Y-91740000D01*
X153381089Y-91740000D01*
X153561729Y-91704068D01*
X153731889Y-91633586D01*
X153885028Y-91531262D01*
X154015262Y-91401028D01*
X154117586Y-91247889D01*
X154188068Y-91077729D01*
X154224000Y-90897089D01*
X154224000Y-90712911D01*
X154213475Y-90660000D01*
X160967722Y-90660000D01*
X161648126Y-90726714D01*
X162271572Y-90914943D01*
X162846579Y-91220681D01*
X163351247Y-91632279D01*
X163766362Y-92134067D01*
X164076105Y-92706924D01*
X164268682Y-93329039D01*
X164340000Y-94007584D01*
X164340001Y-130967711D01*
X164273286Y-131648126D01*
X164085057Y-132271570D01*
X163779323Y-132846573D01*
X163367721Y-133351248D01*
X162865933Y-133766362D01*
X162293077Y-134076104D01*
X161670961Y-134268682D01*
X160992417Y-134340000D01*
X134032279Y-134340000D01*
X133351874Y-134273286D01*
X132728430Y-134085057D01*
X132153427Y-133779323D01*
X131648752Y-133367721D01*
X131233638Y-132865933D01*
X130923896Y-132293077D01*
X130731318Y-131670961D01*
X130660000Y-130992417D01*
X130660000Y-130691229D01*
X130865000Y-130691229D01*
X130865000Y-131308771D01*
X130985476Y-131914446D01*
X131221799Y-132484979D01*
X131564886Y-132998446D01*
X132001554Y-133435114D01*
X132515021Y-133778201D01*
X133085554Y-134014524D01*
X133691229Y-134135000D01*
X134308771Y-134135000D01*
X134914446Y-134014524D01*
X135484979Y-133778201D01*
X135652002Y-133666600D01*
X141057789Y-133666600D01*
X141066613Y-133756188D01*
X141092744Y-133842332D01*
X141135180Y-133921724D01*
X141192289Y-133991311D01*
X141261876Y-134048420D01*
X141341268Y-134090856D01*
X141427412Y-134116987D01*
X141517000Y-134125811D01*
X141979750Y-134123600D01*
X142094000Y-134009350D01*
X142094000Y-133089600D01*
X141174250Y-133089600D01*
X141060000Y-133203850D01*
X141057789Y-133666600D01*
X135652002Y-133666600D01*
X135998446Y-133435114D01*
X136435114Y-132998446D01*
X136778201Y-132484979D01*
X137014524Y-131914446D01*
X137135000Y-131308771D01*
X137135000Y-131098911D01*
X139019000Y-131098911D01*
X139019000Y-131283089D01*
X139054932Y-131463729D01*
X139125414Y-131633889D01*
X139227738Y-131787028D01*
X139357972Y-131917262D01*
X139511111Y-132019586D01*
X139681271Y-132090068D01*
X139861911Y-132126000D01*
X140046089Y-132126000D01*
X140226729Y-132090068D01*
X140396889Y-132019586D01*
X140550028Y-131917262D01*
X140680262Y-131787028D01*
X140782586Y-131633889D01*
X140853068Y-131463729D01*
X140889000Y-131283089D01*
X140889000Y-131098911D01*
X140853068Y-130918271D01*
X140782586Y-130748111D01*
X140680262Y-130594972D01*
X140550028Y-130464738D01*
X140396889Y-130362414D01*
X140226729Y-130291932D01*
X140046089Y-130256000D01*
X139861911Y-130256000D01*
X139681271Y-130291932D01*
X139511111Y-130362414D01*
X139357972Y-130464738D01*
X139227738Y-130594972D01*
X139125414Y-130748111D01*
X139054932Y-130918271D01*
X139019000Y-131098911D01*
X137135000Y-131098911D01*
X137135000Y-130691229D01*
X137023433Y-130130340D01*
X140882000Y-130130340D01*
X140882000Y-130422860D01*
X140939068Y-130709758D01*
X141051010Y-130980011D01*
X141213525Y-131223232D01*
X141420368Y-131430075D01*
X141536214Y-131507481D01*
X141517000Y-131507389D01*
X141427412Y-131516213D01*
X141341268Y-131542344D01*
X141261876Y-131584780D01*
X141192289Y-131641889D01*
X141135180Y-131711476D01*
X141092744Y-131790868D01*
X141066613Y-131877012D01*
X141057789Y-131966600D01*
X141060000Y-132429350D01*
X141174250Y-132543600D01*
X142094000Y-132543600D01*
X142094000Y-132523600D01*
X142640000Y-132523600D01*
X142640000Y-132543600D01*
X142660000Y-132543600D01*
X142660000Y-133089600D01*
X142640000Y-133089600D01*
X142640000Y-134009350D01*
X142754250Y-134123600D01*
X143217000Y-134125811D01*
X143306588Y-134116987D01*
X143392732Y-134090856D01*
X143472124Y-134048420D01*
X143541711Y-133991311D01*
X143598820Y-133921724D01*
X143641256Y-133842332D01*
X143667387Y-133756188D01*
X143676211Y-133666600D01*
X143676119Y-133647386D01*
X143753525Y-133763232D01*
X143960368Y-133970075D01*
X144203589Y-134132590D01*
X144473842Y-134244532D01*
X144760740Y-134301600D01*
X145053260Y-134301600D01*
X145340158Y-134244532D01*
X145610411Y-134132590D01*
X145853632Y-133970075D01*
X146060475Y-133763232D01*
X146177000Y-133588840D01*
X146293525Y-133763232D01*
X146500368Y-133970075D01*
X146743589Y-134132590D01*
X147013842Y-134244532D01*
X147300740Y-134301600D01*
X147593260Y-134301600D01*
X147880158Y-134244532D01*
X148150411Y-134132590D01*
X148393632Y-133970075D01*
X148600475Y-133763232D01*
X148717000Y-133588840D01*
X148833525Y-133763232D01*
X149040368Y-133970075D01*
X149283589Y-134132590D01*
X149553842Y-134244532D01*
X149840740Y-134301600D01*
X150133260Y-134301600D01*
X150420158Y-134244532D01*
X150690411Y-134132590D01*
X150933632Y-133970075D01*
X151140475Y-133763232D01*
X151257000Y-133588840D01*
X151373525Y-133763232D01*
X151580368Y-133970075D01*
X151823589Y-134132590D01*
X152093842Y-134244532D01*
X152380740Y-134301600D01*
X152673260Y-134301600D01*
X152960158Y-134244532D01*
X153230411Y-134132590D01*
X153473632Y-133970075D01*
X153680475Y-133763232D01*
X153842990Y-133520011D01*
X153954932Y-133249758D01*
X154012000Y-132962860D01*
X154012000Y-132670340D01*
X153954932Y-132383442D01*
X153842990Y-132113189D01*
X153680475Y-131869968D01*
X153473632Y-131663125D01*
X153299240Y-131546600D01*
X153473632Y-131430075D01*
X153680475Y-131223232D01*
X153842990Y-130980011D01*
X153954932Y-130709758D01*
X153958617Y-130691229D01*
X157865000Y-130691229D01*
X157865000Y-131308771D01*
X157985476Y-131914446D01*
X158221799Y-132484979D01*
X158564886Y-132998446D01*
X159001554Y-133435114D01*
X159515021Y-133778201D01*
X160085554Y-134014524D01*
X160691229Y-134135000D01*
X161308771Y-134135000D01*
X161914446Y-134014524D01*
X162484979Y-133778201D01*
X162998446Y-133435114D01*
X163435114Y-132998446D01*
X163778201Y-132484979D01*
X164014524Y-131914446D01*
X164135000Y-131308771D01*
X164135000Y-130691229D01*
X164014524Y-130085554D01*
X163778201Y-129515021D01*
X163435114Y-129001554D01*
X162998446Y-128564886D01*
X162484979Y-128221799D01*
X161914446Y-127985476D01*
X161308771Y-127865000D01*
X160691229Y-127865000D01*
X160085554Y-127985476D01*
X159515021Y-128221799D01*
X159001554Y-128564886D01*
X158564886Y-129001554D01*
X158221799Y-129515021D01*
X157985476Y-130085554D01*
X157865000Y-130691229D01*
X153958617Y-130691229D01*
X154012000Y-130422860D01*
X154012000Y-130130340D01*
X153954932Y-129843442D01*
X153842990Y-129573189D01*
X153680475Y-129329968D01*
X153473632Y-129123125D01*
X153230411Y-128960610D01*
X152960158Y-128848668D01*
X152673260Y-128791600D01*
X152380740Y-128791600D01*
X152093842Y-128848668D01*
X151823589Y-128960610D01*
X151580368Y-129123125D01*
X151373525Y-129329968D01*
X151257000Y-129504360D01*
X151140475Y-129329968D01*
X150933632Y-129123125D01*
X150690411Y-128960610D01*
X150420158Y-128848668D01*
X150133260Y-128791600D01*
X149840740Y-128791600D01*
X149553842Y-128848668D01*
X149283589Y-128960610D01*
X149040368Y-129123125D01*
X148833525Y-129329968D01*
X148717000Y-129504360D01*
X148600475Y-129329968D01*
X148393632Y-129123125D01*
X148150411Y-128960610D01*
X147880158Y-128848668D01*
X147593260Y-128791600D01*
X147300740Y-128791600D01*
X147013842Y-128848668D01*
X146743589Y-128960610D01*
X146500368Y-129123125D01*
X146293525Y-129329968D01*
X146177000Y-129504360D01*
X146060475Y-129329968D01*
X145853632Y-129123125D01*
X145610411Y-128960610D01*
X145340158Y-128848668D01*
X145053260Y-128791600D01*
X144760740Y-128791600D01*
X144473842Y-128848668D01*
X144203589Y-128960610D01*
X143960368Y-129123125D01*
X143753525Y-129329968D01*
X143637000Y-129504360D01*
X143520475Y-129329968D01*
X143313632Y-129123125D01*
X143070411Y-128960610D01*
X142800158Y-128848668D01*
X142513260Y-128791600D01*
X142220740Y-128791600D01*
X141933842Y-128848668D01*
X141663589Y-128960610D01*
X141420368Y-129123125D01*
X141213525Y-129329968D01*
X141051010Y-129573189D01*
X140939068Y-129843442D01*
X140882000Y-130130340D01*
X137023433Y-130130340D01*
X137014524Y-130085554D01*
X136778201Y-129515021D01*
X136435114Y-129001554D01*
X135998446Y-128564886D01*
X135484979Y-128221799D01*
X134914446Y-127985476D01*
X134308771Y-127865000D01*
X133691229Y-127865000D01*
X133085554Y-127985476D01*
X132515021Y-128221799D01*
X132001554Y-128564886D01*
X131564886Y-129001554D01*
X131221799Y-129515021D01*
X130985476Y-130085554D01*
X130865000Y-130691229D01*
X130660000Y-130691229D01*
X130660000Y-125134000D01*
X130718928Y-125134000D01*
X130718928Y-126834000D01*
X130731188Y-126958482D01*
X130767498Y-127078180D01*
X130826463Y-127188494D01*
X130905815Y-127285185D01*
X131002506Y-127364537D01*
X131112820Y-127423502D01*
X131232518Y-127459812D01*
X131357000Y-127472072D01*
X133057000Y-127472072D01*
X133181482Y-127459812D01*
X133301180Y-127423502D01*
X133411494Y-127364537D01*
X133508185Y-127285185D01*
X133587537Y-127188494D01*
X133646502Y-127078180D01*
X133668513Y-127005620D01*
X133800368Y-127137475D01*
X134043589Y-127299990D01*
X134313842Y-127411932D01*
X134600740Y-127469000D01*
X134893260Y-127469000D01*
X135180158Y-127411932D01*
X135450411Y-127299990D01*
X135693632Y-127137475D01*
X135900475Y-126930632D01*
X136062990Y-126687411D01*
X136174932Y-126417158D01*
X136232000Y-126130260D01*
X136232000Y-125837740D01*
X136174932Y-125550842D01*
X136062990Y-125280589D01*
X135900475Y-125037368D01*
X135693632Y-124830525D01*
X135519240Y-124714000D01*
X135693632Y-124597475D01*
X135900475Y-124390632D01*
X136062990Y-124147411D01*
X136174932Y-123877158D01*
X136232000Y-123590260D01*
X136232000Y-123297740D01*
X136192729Y-123100309D01*
X142196398Y-123100309D01*
X142196398Y-123284487D01*
X142232330Y-123465127D01*
X142302812Y-123635287D01*
X142405136Y-123788426D01*
X142535370Y-123918660D01*
X142688509Y-124020984D01*
X142858669Y-124091466D01*
X143039309Y-124127398D01*
X143223487Y-124127398D01*
X143404127Y-124091466D01*
X143574287Y-124020984D01*
X143727426Y-123918660D01*
X143857660Y-123788426D01*
X143959984Y-123635287D01*
X143982129Y-123581824D01*
X143985929Y-123581068D01*
X144156089Y-123510586D01*
X144309228Y-123408262D01*
X144439462Y-123278028D01*
X144541786Y-123124889D01*
X144612268Y-122954729D01*
X144648200Y-122774089D01*
X144648200Y-122589911D01*
X144612268Y-122409271D01*
X144541786Y-122239111D01*
X144439462Y-122085972D01*
X144309228Y-121955738D01*
X144156089Y-121853414D01*
X143985929Y-121782932D01*
X143805289Y-121747000D01*
X143621111Y-121747000D01*
X143440471Y-121782932D01*
X143270311Y-121853414D01*
X143117172Y-121955738D01*
X142986938Y-122085972D01*
X142884614Y-122239111D01*
X142862469Y-122292574D01*
X142858669Y-122293330D01*
X142688509Y-122363812D01*
X142535370Y-122466136D01*
X142405136Y-122596370D01*
X142302812Y-122749509D01*
X142232330Y-122919669D01*
X142196398Y-123100309D01*
X136192729Y-123100309D01*
X136174932Y-123010842D01*
X136062990Y-122740589D01*
X135900475Y-122497368D01*
X135693632Y-122290525D01*
X135519240Y-122174000D01*
X135693632Y-122057475D01*
X135900475Y-121850632D01*
X136062990Y-121607411D01*
X136174932Y-121337158D01*
X136232000Y-121050260D01*
X136232000Y-120757740D01*
X136174932Y-120470842D01*
X136062990Y-120200589D01*
X135900475Y-119957368D01*
X135693632Y-119750525D01*
X135519240Y-119634000D01*
X135693632Y-119517475D01*
X135900475Y-119310632D01*
X136062990Y-119067411D01*
X136174932Y-118797158D01*
X136232000Y-118510260D01*
X136232000Y-118217740D01*
X136174932Y-117930842D01*
X136062990Y-117660589D01*
X135900475Y-117417368D01*
X135693632Y-117210525D01*
X135519240Y-117094000D01*
X135693632Y-116977475D01*
X135900475Y-116770632D01*
X136062990Y-116527411D01*
X136174932Y-116257158D01*
X136228886Y-115985911D01*
X138003000Y-115985911D01*
X138003000Y-116170089D01*
X138038932Y-116350729D01*
X138109414Y-116520889D01*
X138211738Y-116674028D01*
X138341972Y-116804262D01*
X138495111Y-116906586D01*
X138665271Y-116977068D01*
X138845911Y-117013000D01*
X139030089Y-117013000D01*
X139210729Y-116977068D01*
X139380889Y-116906586D01*
X139534028Y-116804262D01*
X139664262Y-116674028D01*
X139766586Y-116520889D01*
X139837068Y-116350729D01*
X139859576Y-116237576D01*
X139972729Y-116215068D01*
X140142889Y-116144586D01*
X140296028Y-116042262D01*
X140426262Y-115912028D01*
X140528586Y-115758889D01*
X140599068Y-115588729D01*
X140625543Y-115455633D01*
X140627972Y-115458062D01*
X140781111Y-115560386D01*
X140951271Y-115630868D01*
X141131911Y-115666800D01*
X141316089Y-115666800D01*
X141496729Y-115630868D01*
X141666889Y-115560386D01*
X141820028Y-115458062D01*
X141950262Y-115327828D01*
X142052586Y-115174689D01*
X142123068Y-115004529D01*
X142159000Y-114823889D01*
X142159000Y-114639711D01*
X142123068Y-114459071D01*
X142052586Y-114288911D01*
X141950262Y-114135772D01*
X141820028Y-114005538D01*
X141666889Y-113903214D01*
X141496729Y-113832732D01*
X141316089Y-113796800D01*
X141131911Y-113796800D01*
X140951271Y-113832732D01*
X140781111Y-113903214D01*
X140627972Y-114005538D01*
X140497738Y-114135772D01*
X140395414Y-114288911D01*
X140324932Y-114459071D01*
X140298457Y-114592167D01*
X140296028Y-114589738D01*
X140142889Y-114487414D01*
X139972729Y-114416932D01*
X139792089Y-114381000D01*
X139607911Y-114381000D01*
X139427271Y-114416932D01*
X139257111Y-114487414D01*
X139103972Y-114589738D01*
X138973738Y-114719972D01*
X138871414Y-114873111D01*
X138800932Y-115043271D01*
X138778424Y-115156424D01*
X138665271Y-115178932D01*
X138495111Y-115249414D01*
X138341972Y-115351738D01*
X138211738Y-115481972D01*
X138109414Y-115635111D01*
X138038932Y-115805271D01*
X138003000Y-115985911D01*
X136228886Y-115985911D01*
X136232000Y-115970260D01*
X136232000Y-115677740D01*
X136174932Y-115390842D01*
X136062990Y-115120589D01*
X135900475Y-114877368D01*
X135693632Y-114670525D01*
X135519240Y-114554000D01*
X135693632Y-114437475D01*
X135900475Y-114230632D01*
X136062990Y-113987411D01*
X136174932Y-113717158D01*
X136232000Y-113430260D01*
X136232000Y-113137740D01*
X136174932Y-112850842D01*
X136062990Y-112580589D01*
X135900475Y-112337368D01*
X135693632Y-112130525D01*
X135519240Y-112014000D01*
X135657060Y-111921911D01*
X141863800Y-111921911D01*
X141863800Y-112106089D01*
X141899732Y-112286729D01*
X141970214Y-112456889D01*
X142072538Y-112610028D01*
X142202772Y-112740262D01*
X142355911Y-112842586D01*
X142526071Y-112913068D01*
X142706711Y-112949000D01*
X142890889Y-112949000D01*
X143071529Y-112913068D01*
X143241689Y-112842586D01*
X143394828Y-112740262D01*
X143525062Y-112610028D01*
X143627386Y-112456889D01*
X143697868Y-112286729D01*
X143733800Y-112106089D01*
X143733800Y-111921911D01*
X143723968Y-111872483D01*
X143900511Y-111907600D01*
X144084689Y-111907600D01*
X144265329Y-111871668D01*
X144435489Y-111801186D01*
X144588628Y-111698862D01*
X144718862Y-111568628D01*
X144821186Y-111415489D01*
X144891668Y-111245329D01*
X144927600Y-111064689D01*
X144927600Y-110994967D01*
X144943489Y-110988386D01*
X145096628Y-110886062D01*
X145211800Y-110770890D01*
X145301572Y-110860662D01*
X145454711Y-110962986D01*
X145624871Y-111033468D01*
X145805511Y-111069400D01*
X145882855Y-111069400D01*
X145784172Y-111135338D01*
X145653938Y-111265572D01*
X145551614Y-111418711D01*
X145481132Y-111588871D01*
X145445200Y-111769511D01*
X145445200Y-111953689D01*
X145481132Y-112134329D01*
X145551614Y-112304489D01*
X145653938Y-112457628D01*
X145784172Y-112587862D01*
X145937311Y-112690186D01*
X146107471Y-112760668D01*
X146288111Y-112796600D01*
X146472289Y-112796600D01*
X146551708Y-112780802D01*
X146517538Y-112814972D01*
X146415214Y-112968111D01*
X146348249Y-113129781D01*
X146269079Y-113076882D01*
X146098919Y-113006400D01*
X145918279Y-112970468D01*
X145734101Y-112970468D01*
X145553461Y-113006400D01*
X145383301Y-113076882D01*
X145230162Y-113179206D01*
X145099928Y-113309440D01*
X144997604Y-113462579D01*
X144927122Y-113632739D01*
X144891190Y-113813379D01*
X144891190Y-113997557D01*
X144927122Y-114178197D01*
X144997604Y-114348357D01*
X145065979Y-114450687D01*
X144968889Y-114385814D01*
X144798729Y-114315332D01*
X144618089Y-114279400D01*
X144433911Y-114279400D01*
X144253271Y-114315332D01*
X144083111Y-114385814D01*
X143929972Y-114488138D01*
X143799738Y-114618372D01*
X143697414Y-114771511D01*
X143626932Y-114941671D01*
X143591000Y-115122311D01*
X143591000Y-115267656D01*
X143475089Y-115244600D01*
X143290911Y-115244600D01*
X143110271Y-115280532D01*
X142940111Y-115351014D01*
X142786972Y-115453338D01*
X142656738Y-115583572D01*
X142554414Y-115736711D01*
X142483932Y-115906871D01*
X142448000Y-116087511D01*
X142448000Y-116271689D01*
X142483932Y-116452329D01*
X142554414Y-116622489D01*
X142648777Y-116763714D01*
X142605214Y-116828911D01*
X142534732Y-116999071D01*
X142498800Y-117179711D01*
X142498800Y-117363889D01*
X142534732Y-117544529D01*
X142605214Y-117714689D01*
X142707538Y-117867828D01*
X142837772Y-117998062D01*
X142990911Y-118100386D01*
X143161071Y-118170868D01*
X143341711Y-118206800D01*
X143353094Y-118206800D01*
X143372932Y-118306529D01*
X143443414Y-118476689D01*
X143545738Y-118629828D01*
X143675972Y-118760062D01*
X143829111Y-118862386D01*
X143999271Y-118932868D01*
X144179911Y-118968800D01*
X144364089Y-118968800D01*
X144538629Y-118934081D01*
X144434738Y-119037972D01*
X144332414Y-119191111D01*
X144261932Y-119361271D01*
X144226000Y-119541911D01*
X144226000Y-119726089D01*
X144261932Y-119906729D01*
X144332414Y-120076889D01*
X144434738Y-120230028D01*
X144564972Y-120360262D01*
X144718111Y-120462586D01*
X144888271Y-120533068D01*
X145068911Y-120569000D01*
X145253089Y-120569000D01*
X145371479Y-120545451D01*
X145369000Y-120557911D01*
X145369000Y-120742089D01*
X145404932Y-120922729D01*
X145475414Y-121092889D01*
X145577738Y-121246028D01*
X145707972Y-121376262D01*
X145861111Y-121478586D01*
X146031271Y-121549068D01*
X146211911Y-121585000D01*
X146396089Y-121585000D01*
X146576729Y-121549068D01*
X146746889Y-121478586D01*
X146900028Y-121376262D01*
X147030262Y-121246028D01*
X147132586Y-121092889D01*
X147203068Y-120922729D01*
X147239000Y-120742089D01*
X147239000Y-120557911D01*
X147233960Y-120532576D01*
X147280289Y-120513386D01*
X147433428Y-120411062D01*
X147563662Y-120280828D01*
X147665986Y-120127689D01*
X147736468Y-119957529D01*
X147772400Y-119776889D01*
X147772400Y-119592711D01*
X147772360Y-119592510D01*
X147940689Y-119522786D01*
X148093828Y-119420462D01*
X148224062Y-119290228D01*
X148326386Y-119137089D01*
X148396868Y-118966929D01*
X148432800Y-118786289D01*
X148432800Y-118718372D01*
X148575689Y-118659186D01*
X148587959Y-118650988D01*
X148605332Y-118738329D01*
X148675814Y-118908489D01*
X148763449Y-119039645D01*
X147757247Y-120045847D01*
X147741453Y-120065093D01*
X147729717Y-120087049D01*
X147722490Y-120110874D01*
X147720050Y-120135650D01*
X147722490Y-120160426D01*
X147729717Y-120184251D01*
X147741453Y-120206207D01*
X147757773Y-120225976D01*
X149225368Y-121676526D01*
X148065697Y-122836197D01*
X148049903Y-122855443D01*
X148038167Y-122877399D01*
X148030940Y-122901224D01*
X148028500Y-122926000D01*
X148030940Y-122950776D01*
X148038167Y-122974601D01*
X148049903Y-122996557D01*
X148066467Y-123016566D01*
X149044704Y-123978247D01*
X147874000Y-125150967D01*
X147874000Y-125002911D01*
X147838068Y-124822271D01*
X147767586Y-124652111D01*
X147665262Y-124498972D01*
X147535028Y-124368738D01*
X147381889Y-124266414D01*
X147211729Y-124195932D01*
X147031089Y-124160000D01*
X146937772Y-124160000D01*
X146878586Y-124017111D01*
X146776262Y-123863972D01*
X146646028Y-123733738D01*
X146492889Y-123631414D01*
X146322729Y-123560932D01*
X146142089Y-123525000D01*
X145957911Y-123525000D01*
X145777271Y-123560932D01*
X145607111Y-123631414D01*
X145453972Y-123733738D01*
X145323738Y-123863972D01*
X145221414Y-124017111D01*
X145150932Y-124187271D01*
X145115000Y-124367911D01*
X145115000Y-124552089D01*
X145150932Y-124732729D01*
X145221414Y-124902889D01*
X145323738Y-125056028D01*
X145453972Y-125186262D01*
X145607111Y-125288586D01*
X145777271Y-125359068D01*
X145957911Y-125395000D01*
X146051228Y-125395000D01*
X146110414Y-125537889D01*
X146212738Y-125691028D01*
X146342972Y-125821262D01*
X146496111Y-125923586D01*
X146666271Y-125994068D01*
X146846911Y-126030000D01*
X147031089Y-126030000D01*
X147211729Y-125994068D01*
X147381889Y-125923586D01*
X147535028Y-125821262D01*
X147665262Y-125691028D01*
X147693765Y-125648371D01*
X149376497Y-127331103D01*
X149377022Y-127331624D01*
X149610850Y-127562745D01*
X149666414Y-127696889D01*
X149768738Y-127850028D01*
X149898972Y-127980262D01*
X150052111Y-128082586D01*
X150197856Y-128142955D01*
X150240694Y-128185297D01*
X150301414Y-128331889D01*
X150403738Y-128485028D01*
X150533972Y-128615262D01*
X150687111Y-128717586D01*
X150845659Y-128783258D01*
X151132162Y-129066444D01*
X151151499Y-129082126D01*
X151173523Y-129093734D01*
X151197389Y-129100822D01*
X151222179Y-129103118D01*
X151246941Y-129100533D01*
X151270723Y-129093168D01*
X151292611Y-129081304D01*
X151312967Y-129064164D01*
X151579090Y-128787511D01*
X156291000Y-128787511D01*
X156291000Y-128971689D01*
X156326932Y-129152329D01*
X156397414Y-129322489D01*
X156499738Y-129475628D01*
X156629972Y-129605862D01*
X156783111Y-129708186D01*
X156953271Y-129778668D01*
X157133911Y-129814600D01*
X157318089Y-129814600D01*
X157498729Y-129778668D01*
X157668889Y-129708186D01*
X157822028Y-129605862D01*
X157952262Y-129475628D01*
X158054586Y-129322489D01*
X158125068Y-129152329D01*
X158161000Y-128971689D01*
X158161000Y-128787511D01*
X158125068Y-128606871D01*
X158054586Y-128436711D01*
X157952262Y-128283572D01*
X157822028Y-128153338D01*
X157668889Y-128051014D01*
X157498729Y-127980532D01*
X157318089Y-127944600D01*
X157133911Y-127944600D01*
X156953271Y-127980532D01*
X156783111Y-128051014D01*
X156629972Y-128153338D01*
X156499738Y-128283572D01*
X156397414Y-128436711D01*
X156326932Y-128606871D01*
X156291000Y-128787511D01*
X151579090Y-128787511D01*
X153582622Y-126704711D01*
X156265600Y-126704711D01*
X156265600Y-126888889D01*
X156301532Y-127069529D01*
X156372014Y-127239689D01*
X156474338Y-127392828D01*
X156604572Y-127523062D01*
X156757711Y-127625386D01*
X156927871Y-127695868D01*
X157108511Y-127731800D01*
X157292689Y-127731800D01*
X157473329Y-127695868D01*
X157643489Y-127625386D01*
X157796628Y-127523062D01*
X157926862Y-127392828D01*
X158029186Y-127239689D01*
X158099668Y-127069529D01*
X158135600Y-126888889D01*
X158135600Y-126704711D01*
X158099668Y-126524071D01*
X158029186Y-126353911D01*
X157926862Y-126200772D01*
X157796628Y-126070538D01*
X157643489Y-125968214D01*
X157473329Y-125897732D01*
X157292689Y-125861800D01*
X157108511Y-125861800D01*
X156927871Y-125897732D01*
X156757711Y-125968214D01*
X156604572Y-126070538D01*
X156474338Y-126200772D01*
X156372014Y-126353911D01*
X156301532Y-126524071D01*
X156265600Y-126704711D01*
X153582622Y-126704711D01*
X155093554Y-125134000D01*
X158658928Y-125134000D01*
X158658928Y-126834000D01*
X158671188Y-126958482D01*
X158707498Y-127078180D01*
X158766463Y-127188494D01*
X158845815Y-127285185D01*
X158942506Y-127364537D01*
X159052820Y-127423502D01*
X159172518Y-127459812D01*
X159297000Y-127472072D01*
X160997000Y-127472072D01*
X161121482Y-127459812D01*
X161241180Y-127423502D01*
X161351494Y-127364537D01*
X161448185Y-127285185D01*
X161527537Y-127188494D01*
X161586502Y-127078180D01*
X161608513Y-127005620D01*
X161740368Y-127137475D01*
X161983589Y-127299990D01*
X162253842Y-127411932D01*
X162540740Y-127469000D01*
X162833260Y-127469000D01*
X163120158Y-127411932D01*
X163390411Y-127299990D01*
X163633632Y-127137475D01*
X163840475Y-126930632D01*
X164002990Y-126687411D01*
X164114932Y-126417158D01*
X164172000Y-126130260D01*
X164172000Y-125837740D01*
X164114932Y-125550842D01*
X164002990Y-125280589D01*
X163840475Y-125037368D01*
X163633632Y-124830525D01*
X163459240Y-124714000D01*
X163633632Y-124597475D01*
X163840475Y-124390632D01*
X164002990Y-124147411D01*
X164114932Y-123877158D01*
X164172000Y-123590260D01*
X164172000Y-123297740D01*
X164114932Y-123010842D01*
X164002990Y-122740589D01*
X163840475Y-122497368D01*
X163633632Y-122290525D01*
X163459240Y-122174000D01*
X163633632Y-122057475D01*
X163840475Y-121850632D01*
X164002990Y-121607411D01*
X164114932Y-121337158D01*
X164172000Y-121050260D01*
X164172000Y-120757740D01*
X164114932Y-120470842D01*
X164002990Y-120200589D01*
X163840475Y-119957368D01*
X163633632Y-119750525D01*
X163459240Y-119634000D01*
X163633632Y-119517475D01*
X163840475Y-119310632D01*
X164002990Y-119067411D01*
X164114932Y-118797158D01*
X164172000Y-118510260D01*
X164172000Y-118217740D01*
X164114932Y-117930842D01*
X164002990Y-117660589D01*
X163840475Y-117417368D01*
X163633632Y-117210525D01*
X163459240Y-117094000D01*
X163633632Y-116977475D01*
X163840475Y-116770632D01*
X164002990Y-116527411D01*
X164114932Y-116257158D01*
X164172000Y-115970260D01*
X164172000Y-115677740D01*
X164114932Y-115390842D01*
X164002990Y-115120589D01*
X163840475Y-114877368D01*
X163633632Y-114670525D01*
X163459240Y-114554000D01*
X163633632Y-114437475D01*
X163840475Y-114230632D01*
X164002990Y-113987411D01*
X164114932Y-113717158D01*
X164172000Y-113430260D01*
X164172000Y-113137740D01*
X164114932Y-112850842D01*
X164002990Y-112580589D01*
X163840475Y-112337368D01*
X163633632Y-112130525D01*
X163459240Y-112014000D01*
X163633632Y-111897475D01*
X163840475Y-111690632D01*
X164002990Y-111447411D01*
X164114932Y-111177158D01*
X164172000Y-110890260D01*
X164172000Y-110597740D01*
X164114932Y-110310842D01*
X164002990Y-110040589D01*
X163840475Y-109797368D01*
X163633632Y-109590525D01*
X163459240Y-109474000D01*
X163633632Y-109357475D01*
X163840475Y-109150632D01*
X164002990Y-108907411D01*
X164114932Y-108637158D01*
X164172000Y-108350260D01*
X164172000Y-108057740D01*
X164114932Y-107770842D01*
X164002990Y-107500589D01*
X163840475Y-107257368D01*
X163633632Y-107050525D01*
X163459240Y-106934000D01*
X163633632Y-106817475D01*
X163840475Y-106610632D01*
X164002990Y-106367411D01*
X164114932Y-106097158D01*
X164172000Y-105810260D01*
X164172000Y-105517740D01*
X164114932Y-105230842D01*
X164002990Y-104960589D01*
X163840475Y-104717368D01*
X163633632Y-104510525D01*
X163459240Y-104394000D01*
X163633632Y-104277475D01*
X163840475Y-104070632D01*
X164002990Y-103827411D01*
X164114932Y-103557158D01*
X164172000Y-103270260D01*
X164172000Y-102977740D01*
X164114932Y-102690842D01*
X164002990Y-102420589D01*
X163840475Y-102177368D01*
X163633632Y-101970525D01*
X163390411Y-101808010D01*
X163120158Y-101696068D01*
X162833260Y-101639000D01*
X162540740Y-101639000D01*
X162253842Y-101696068D01*
X161983589Y-101808010D01*
X161740368Y-101970525D01*
X161533525Y-102177368D01*
X161417000Y-102351760D01*
X161300475Y-102177368D01*
X161093632Y-101970525D01*
X160850411Y-101808010D01*
X160691070Y-101742009D01*
X160701000Y-101692089D01*
X160701000Y-101507911D01*
X160665068Y-101327271D01*
X160594586Y-101157111D01*
X160492262Y-101003972D01*
X160362028Y-100873738D01*
X160208889Y-100771414D01*
X160038729Y-100700932D01*
X159858089Y-100665000D01*
X159673911Y-100665000D01*
X159493271Y-100700932D01*
X159323111Y-100771414D01*
X159169972Y-100873738D01*
X159039738Y-101003972D01*
X158937414Y-101157111D01*
X158866932Y-101327271D01*
X158831000Y-101507911D01*
X158831000Y-101692089D01*
X158866932Y-101872729D01*
X158937414Y-102042889D01*
X159013754Y-102157139D01*
X158993525Y-102177368D01*
X158831010Y-102420589D01*
X158719068Y-102690842D01*
X158662000Y-102977740D01*
X158662000Y-103270260D01*
X158719068Y-103557158D01*
X158831010Y-103827411D01*
X158993525Y-104070632D01*
X159200368Y-104277475D01*
X159374760Y-104394000D01*
X159200368Y-104510525D01*
X158993525Y-104717368D01*
X158831010Y-104960589D01*
X158719068Y-105230842D01*
X158662000Y-105517740D01*
X158662000Y-105810260D01*
X158719068Y-106097158D01*
X158831010Y-106367411D01*
X158993525Y-106610632D01*
X159200368Y-106817475D01*
X159374760Y-106934000D01*
X159200368Y-107050525D01*
X158993525Y-107257368D01*
X158831010Y-107500589D01*
X158719068Y-107770842D01*
X158662000Y-108057740D01*
X158662000Y-108350260D01*
X158719068Y-108637158D01*
X158831010Y-108907411D01*
X158993525Y-109150632D01*
X159200368Y-109357475D01*
X159374760Y-109474000D01*
X159200368Y-109590525D01*
X158993525Y-109797368D01*
X158831010Y-110040589D01*
X158719068Y-110310842D01*
X158662000Y-110597740D01*
X158662000Y-110890260D01*
X158719068Y-111177158D01*
X158831010Y-111447411D01*
X158993525Y-111690632D01*
X159200368Y-111897475D01*
X159374760Y-112014000D01*
X159200368Y-112130525D01*
X158993525Y-112337368D01*
X158831010Y-112580589D01*
X158719068Y-112850842D01*
X158662000Y-113137740D01*
X158662000Y-113430260D01*
X158719068Y-113717158D01*
X158831010Y-113987411D01*
X158993525Y-114230632D01*
X159200368Y-114437475D01*
X159374760Y-114554000D01*
X159200368Y-114670525D01*
X158993525Y-114877368D01*
X158831010Y-115120589D01*
X158719068Y-115390842D01*
X158662000Y-115677740D01*
X158662000Y-115970260D01*
X158719068Y-116257158D01*
X158831010Y-116527411D01*
X158993525Y-116770632D01*
X159200368Y-116977475D01*
X159374760Y-117094000D01*
X159200368Y-117210525D01*
X158993525Y-117417368D01*
X158831010Y-117660589D01*
X158719068Y-117930842D01*
X158662000Y-118217740D01*
X158662000Y-118510260D01*
X158719068Y-118797158D01*
X158831010Y-119067411D01*
X158993525Y-119310632D01*
X159200368Y-119517475D01*
X159374760Y-119634000D01*
X159200368Y-119750525D01*
X158993525Y-119957368D01*
X158831010Y-120200589D01*
X158719068Y-120470842D01*
X158662000Y-120757740D01*
X158662000Y-121050260D01*
X158719068Y-121337158D01*
X158831010Y-121607411D01*
X158993525Y-121850632D01*
X159200368Y-122057475D01*
X159374760Y-122174000D01*
X159200368Y-122290525D01*
X158993525Y-122497368D01*
X158831010Y-122740589D01*
X158719068Y-123010842D01*
X158662000Y-123297740D01*
X158662000Y-123590260D01*
X158719068Y-123877158D01*
X158831010Y-124147411D01*
X158993525Y-124390632D01*
X159125380Y-124522487D01*
X159052820Y-124544498D01*
X158942506Y-124603463D01*
X158845815Y-124682815D01*
X158766463Y-124779506D01*
X158707498Y-124889820D01*
X158671188Y-125009518D01*
X158658928Y-125134000D01*
X155093554Y-125134000D01*
X155646886Y-124558776D01*
X155690172Y-124602062D01*
X155843311Y-124704386D01*
X156013471Y-124774868D01*
X156194111Y-124810800D01*
X156378289Y-124810800D01*
X156558929Y-124774868D01*
X156729089Y-124704386D01*
X156882228Y-124602062D01*
X157012462Y-124471828D01*
X157114786Y-124318689D01*
X157185268Y-124148529D01*
X157221200Y-123967889D01*
X157221200Y-123783711D01*
X157185268Y-123603071D01*
X157114786Y-123432911D01*
X157012462Y-123279772D01*
X156882228Y-123149538D01*
X156729089Y-123047214D01*
X156558929Y-122976732D01*
X156378289Y-122940800D01*
X156194111Y-122940800D01*
X156013471Y-122976732D01*
X155843311Y-123047214D01*
X155690172Y-123149538D01*
X155559938Y-123279772D01*
X155457614Y-123432911D01*
X155387132Y-123603071D01*
X155360914Y-123734878D01*
X154908344Y-123281100D01*
X155060329Y-123250868D01*
X155230489Y-123180386D01*
X155383628Y-123078062D01*
X155513862Y-122947828D01*
X155616186Y-122794689D01*
X155686668Y-122624529D01*
X155722600Y-122443889D01*
X155722600Y-122259711D01*
X155686668Y-122079071D01*
X155645777Y-121980351D01*
X155814689Y-121910386D01*
X155967828Y-121808062D01*
X156098062Y-121677828D01*
X156200386Y-121524689D01*
X156270868Y-121354529D01*
X156306800Y-121173889D01*
X156306800Y-120989711D01*
X156270868Y-120809071D01*
X156200386Y-120638911D01*
X156098062Y-120485772D01*
X155967828Y-120355538D01*
X155814689Y-120253214D01*
X155644529Y-120182732D01*
X155463889Y-120146800D01*
X155279711Y-120146800D01*
X155099071Y-120182732D01*
X154928911Y-120253214D01*
X154775772Y-120355538D01*
X154645538Y-120485772D01*
X154543214Y-120638911D01*
X154472732Y-120809071D01*
X154436800Y-120989711D01*
X154436800Y-121173889D01*
X154472732Y-121354529D01*
X154513623Y-121453249D01*
X154344711Y-121523214D01*
X154191572Y-121625538D01*
X154061338Y-121755772D01*
X153959014Y-121908911D01*
X153888532Y-122079071D01*
X153858764Y-122228721D01*
X151942672Y-120307517D01*
X151923448Y-120291697D01*
X151901507Y-120279932D01*
X151877692Y-120272673D01*
X151852919Y-120270200D01*
X151828139Y-120272607D01*
X151804306Y-120279803D01*
X151782333Y-120291509D01*
X151763148Y-120307197D01*
X151130000Y-120937520D01*
X149586199Y-119400600D01*
X149596489Y-119400600D01*
X149777129Y-119364668D01*
X149947289Y-119294186D01*
X150100428Y-119191862D01*
X150230662Y-119061628D01*
X150332986Y-118908489D01*
X150403468Y-118738329D01*
X150439400Y-118557689D01*
X150439400Y-118373511D01*
X150403468Y-118192871D01*
X150332986Y-118022711D01*
X150230662Y-117869572D01*
X150100428Y-117739338D01*
X149947289Y-117637014D01*
X149777129Y-117566532D01*
X149596489Y-117530600D01*
X149412311Y-117530600D01*
X149231671Y-117566532D01*
X149061511Y-117637014D01*
X149049241Y-117645212D01*
X149031868Y-117557871D01*
X148961386Y-117387711D01*
X148859062Y-117234572D01*
X148728828Y-117104338D01*
X148575689Y-117002014D01*
X148405529Y-116931532D01*
X148224889Y-116895600D01*
X148040711Y-116895600D01*
X147860071Y-116931532D01*
X147689911Y-117002014D01*
X147536772Y-117104338D01*
X147406538Y-117234572D01*
X147304214Y-117387711D01*
X147233732Y-117557871D01*
X147197800Y-117738511D01*
X147197800Y-117806428D01*
X147054911Y-117865614D01*
X146901772Y-117967938D01*
X146771538Y-118098172D01*
X146669214Y-118251311D01*
X146598732Y-118421471D01*
X146562800Y-118602111D01*
X146562800Y-118786289D01*
X146562840Y-118786490D01*
X146394511Y-118856214D01*
X146241372Y-118958538D01*
X146111138Y-119088772D01*
X146009934Y-119240235D01*
X145989586Y-119191111D01*
X145887262Y-119037972D01*
X145757028Y-118907738D01*
X145603889Y-118805414D01*
X145433729Y-118734932D01*
X145253089Y-118699000D01*
X145068911Y-118699000D01*
X144894371Y-118733719D01*
X144998262Y-118629828D01*
X145100586Y-118476689D01*
X145171068Y-118306529D01*
X145207000Y-118125889D01*
X145207000Y-117941711D01*
X145171068Y-117761071D01*
X145100586Y-117590911D01*
X144998262Y-117437772D01*
X144868028Y-117307538D01*
X144714889Y-117205214D01*
X144544729Y-117134732D01*
X144364089Y-117098800D01*
X144352706Y-117098800D01*
X144332868Y-116999071D01*
X144262386Y-116828911D01*
X144208264Y-116747911D01*
X151134800Y-116747911D01*
X151134800Y-116932089D01*
X151170732Y-117112729D01*
X151241214Y-117282889D01*
X151343538Y-117436028D01*
X151473772Y-117566262D01*
X151626911Y-117668586D01*
X151797071Y-117739068D01*
X151977711Y-117775000D01*
X152161889Y-117775000D01*
X152342529Y-117739068D01*
X152512689Y-117668586D01*
X152665828Y-117566262D01*
X152796062Y-117436028D01*
X152898386Y-117282889D01*
X152968868Y-117112729D01*
X153004800Y-116932089D01*
X153004800Y-116747911D01*
X152968868Y-116567271D01*
X152898386Y-116397111D01*
X152796062Y-116243972D01*
X152665828Y-116113738D01*
X152664591Y-116112911D01*
X152963600Y-116112911D01*
X152963600Y-116297089D01*
X152999532Y-116477729D01*
X153070014Y-116647889D01*
X153172338Y-116801028D01*
X153302572Y-116931262D01*
X153455711Y-117033586D01*
X153625871Y-117104068D01*
X153806511Y-117140000D01*
X153990689Y-117140000D01*
X154171329Y-117104068D01*
X154341489Y-117033586D01*
X154494628Y-116931262D01*
X154624862Y-116801028D01*
X154727186Y-116647889D01*
X154797668Y-116477729D01*
X154833600Y-116297089D01*
X154833600Y-116112911D01*
X154797668Y-115932271D01*
X154727186Y-115762111D01*
X154624862Y-115608972D01*
X154494628Y-115478738D01*
X154341489Y-115376414D01*
X154171329Y-115305932D01*
X153990689Y-115270000D01*
X153806511Y-115270000D01*
X153625871Y-115305932D01*
X153455711Y-115376414D01*
X153302572Y-115478738D01*
X153172338Y-115608972D01*
X153070014Y-115762111D01*
X152999532Y-115932271D01*
X152963600Y-116112911D01*
X152664591Y-116112911D01*
X152512689Y-116011414D01*
X152342529Y-115940932D01*
X152161889Y-115905000D01*
X151977711Y-115905000D01*
X151797071Y-115940932D01*
X151626911Y-116011414D01*
X151473772Y-116113738D01*
X151343538Y-116243972D01*
X151241214Y-116397111D01*
X151170732Y-116567271D01*
X151134800Y-116747911D01*
X144208264Y-116747911D01*
X144168023Y-116687686D01*
X144211586Y-116622489D01*
X144282068Y-116452329D01*
X144318000Y-116271689D01*
X144318000Y-116126344D01*
X144433911Y-116149400D01*
X144618089Y-116149400D01*
X144798729Y-116113468D01*
X144968889Y-116042986D01*
X145122028Y-115940662D01*
X145252262Y-115810428D01*
X145354586Y-115657289D01*
X145425068Y-115487129D01*
X145461000Y-115306489D01*
X145461000Y-115122311D01*
X145425068Y-114941671D01*
X145354586Y-114771511D01*
X145286211Y-114669181D01*
X145383301Y-114734054D01*
X145553461Y-114804536D01*
X145734101Y-114840468D01*
X145918279Y-114840468D01*
X146098919Y-114804536D01*
X146269079Y-114734054D01*
X146422218Y-114631730D01*
X146552452Y-114501496D01*
X146654776Y-114348357D01*
X146721741Y-114186687D01*
X146800911Y-114239586D01*
X146971071Y-114310068D01*
X147151711Y-114346000D01*
X147335889Y-114346000D01*
X147497045Y-114313944D01*
X147436932Y-114459071D01*
X147401000Y-114639711D01*
X147401000Y-114823889D01*
X147436932Y-115004529D01*
X147507414Y-115174689D01*
X147609738Y-115327828D01*
X147739972Y-115458062D01*
X147893111Y-115560386D01*
X148063271Y-115630868D01*
X148243911Y-115666800D01*
X148428089Y-115666800D01*
X148608729Y-115630868D01*
X148778889Y-115560386D01*
X148932028Y-115458062D01*
X149062262Y-115327828D01*
X149164586Y-115174689D01*
X149235068Y-115004529D01*
X149271000Y-114823889D01*
X149271000Y-114639711D01*
X149235068Y-114459071D01*
X149164586Y-114288911D01*
X149062262Y-114135772D01*
X148932028Y-114005538D01*
X148778889Y-113903214D01*
X148608729Y-113832732D01*
X148428089Y-113796800D01*
X148243911Y-113796800D01*
X148082755Y-113828856D01*
X148142868Y-113683729D01*
X148178800Y-113503089D01*
X148178800Y-113318911D01*
X148142868Y-113138271D01*
X148072386Y-112968111D01*
X147970062Y-112814972D01*
X147839828Y-112684738D01*
X147686689Y-112582414D01*
X147516529Y-112511932D01*
X147335889Y-112476000D01*
X147151711Y-112476000D01*
X147072292Y-112491798D01*
X147106462Y-112457628D01*
X147208786Y-112304489D01*
X147279268Y-112134329D01*
X147315200Y-111953689D01*
X147315200Y-111769511D01*
X147279268Y-111588871D01*
X147208786Y-111418711D01*
X147106462Y-111265572D01*
X147000801Y-111159911D01*
X151465000Y-111159911D01*
X151465000Y-111344089D01*
X151500932Y-111524729D01*
X151571414Y-111694889D01*
X151673738Y-111848028D01*
X151803972Y-111978262D01*
X151957111Y-112080586D01*
X152127271Y-112151068D01*
X152307911Y-112187000D01*
X152492089Y-112187000D01*
X152672729Y-112151068D01*
X152781000Y-112106221D01*
X152889271Y-112151068D01*
X153069911Y-112187000D01*
X153254089Y-112187000D01*
X153434729Y-112151068D01*
X153543000Y-112106221D01*
X153651271Y-112151068D01*
X153831911Y-112187000D01*
X154016089Y-112187000D01*
X154196729Y-112151068D01*
X154366889Y-112080586D01*
X154520028Y-111978262D01*
X154650262Y-111848028D01*
X154752586Y-111694889D01*
X154823068Y-111524729D01*
X154850163Y-111388511D01*
X155478200Y-111388511D01*
X155478200Y-111572689D01*
X155514132Y-111753329D01*
X155584614Y-111923489D01*
X155686938Y-112076628D01*
X155817172Y-112206862D01*
X155970311Y-112309186D01*
X156140471Y-112379668D01*
X156321111Y-112415600D01*
X156505289Y-112415600D01*
X156685929Y-112379668D01*
X156856089Y-112309186D01*
X157009228Y-112206862D01*
X157139462Y-112076628D01*
X157241786Y-111923489D01*
X157312268Y-111753329D01*
X157348200Y-111572689D01*
X157348200Y-111388511D01*
X157312268Y-111207871D01*
X157241786Y-111037711D01*
X157139462Y-110884572D01*
X157009228Y-110754338D01*
X156856089Y-110652014D01*
X156685929Y-110581532D01*
X156505289Y-110545600D01*
X156321111Y-110545600D01*
X156140471Y-110581532D01*
X155970311Y-110652014D01*
X155817172Y-110754338D01*
X155686938Y-110884572D01*
X155584614Y-111037711D01*
X155514132Y-111207871D01*
X155478200Y-111388511D01*
X154850163Y-111388511D01*
X154859000Y-111344089D01*
X154859000Y-111159911D01*
X154823068Y-110979271D01*
X154752586Y-110809111D01*
X154650262Y-110655972D01*
X154520028Y-110525738D01*
X154366889Y-110423414D01*
X154196729Y-110352932D01*
X154016089Y-110317000D01*
X153831911Y-110317000D01*
X153651271Y-110352932D01*
X153543000Y-110397779D01*
X153434729Y-110352932D01*
X153254089Y-110317000D01*
X153069911Y-110317000D01*
X152889271Y-110352932D01*
X152781000Y-110397779D01*
X152672729Y-110352932D01*
X152492089Y-110317000D01*
X152307911Y-110317000D01*
X152127271Y-110352932D01*
X151957111Y-110423414D01*
X151803972Y-110525738D01*
X151673738Y-110655972D01*
X151571414Y-110809111D01*
X151500932Y-110979271D01*
X151465000Y-111159911D01*
X147000801Y-111159911D01*
X146976228Y-111135338D01*
X146823089Y-111033014D01*
X146652929Y-110962532D01*
X146472289Y-110926600D01*
X146394945Y-110926600D01*
X146493628Y-110860662D01*
X146623862Y-110730428D01*
X146726186Y-110577289D01*
X146796668Y-110407129D01*
X146832600Y-110226489D01*
X146832600Y-110042311D01*
X146796668Y-109861671D01*
X146726186Y-109691511D01*
X146623862Y-109538372D01*
X146493628Y-109408138D01*
X146340489Y-109305814D01*
X146170329Y-109235332D01*
X145989689Y-109199400D01*
X145805511Y-109199400D01*
X145624871Y-109235332D01*
X145454711Y-109305814D01*
X145301572Y-109408138D01*
X145186400Y-109523310D01*
X145096628Y-109433538D01*
X144943489Y-109331214D01*
X144773329Y-109260732D01*
X144592689Y-109224800D01*
X144408511Y-109224800D01*
X144227871Y-109260732D01*
X144057711Y-109331214D01*
X143904572Y-109433538D01*
X143774338Y-109563772D01*
X143672014Y-109716911D01*
X143601532Y-109887071D01*
X143565600Y-110067711D01*
X143565600Y-110137433D01*
X143549711Y-110144014D01*
X143471658Y-110196168D01*
X143471028Y-110195538D01*
X143317889Y-110093214D01*
X143147729Y-110022732D01*
X142967089Y-109986800D01*
X142782911Y-109986800D01*
X142602271Y-110022732D01*
X142432111Y-110093214D01*
X142278972Y-110195538D01*
X142148738Y-110325772D01*
X142046414Y-110478911D01*
X141975932Y-110649071D01*
X141940000Y-110829711D01*
X141940000Y-111013889D01*
X141975932Y-111194529D01*
X142046414Y-111364689D01*
X142078220Y-111412290D01*
X142072538Y-111417972D01*
X141970214Y-111571111D01*
X141899732Y-111741271D01*
X141863800Y-111921911D01*
X135657060Y-111921911D01*
X135693632Y-111897475D01*
X135900475Y-111690632D01*
X136062990Y-111447411D01*
X136174932Y-111177158D01*
X136232000Y-110890260D01*
X136232000Y-110597740D01*
X136174932Y-110310842D01*
X136062990Y-110040589D01*
X135900475Y-109797368D01*
X135693632Y-109590525D01*
X135519240Y-109474000D01*
X135693632Y-109357475D01*
X135900475Y-109150632D01*
X136062990Y-108907411D01*
X136174932Y-108637158D01*
X136232000Y-108350260D01*
X136232000Y-108057740D01*
X136174932Y-107770842D01*
X136062990Y-107500589D01*
X135900475Y-107257368D01*
X135868307Y-107225200D01*
X137196989Y-107225200D01*
X137205813Y-107314788D01*
X137231944Y-107400932D01*
X137274380Y-107480324D01*
X137331489Y-107549911D01*
X137401076Y-107607020D01*
X137480468Y-107649456D01*
X137566612Y-107675587D01*
X137656200Y-107684411D01*
X138118950Y-107682200D01*
X138233200Y-107567950D01*
X138233200Y-106648200D01*
X137313450Y-106648200D01*
X137199200Y-106762450D01*
X137196989Y-107225200D01*
X135868307Y-107225200D01*
X135693632Y-107050525D01*
X135519240Y-106934000D01*
X135693632Y-106817475D01*
X135900475Y-106610632D01*
X136062990Y-106367411D01*
X136174932Y-106097158D01*
X136232000Y-105810260D01*
X136232000Y-105525200D01*
X137196989Y-105525200D01*
X137199200Y-105987950D01*
X137313450Y-106102200D01*
X138233200Y-106102200D01*
X138233200Y-105182450D01*
X138118950Y-105068200D01*
X137656200Y-105065989D01*
X137566612Y-105074813D01*
X137480468Y-105100944D01*
X137401076Y-105143380D01*
X137331489Y-105200489D01*
X137274380Y-105270076D01*
X137231944Y-105349468D01*
X137205813Y-105435612D01*
X137196989Y-105525200D01*
X136232000Y-105525200D01*
X136232000Y-105517740D01*
X136174932Y-105230842D01*
X136062990Y-104960589D01*
X135900475Y-104717368D01*
X135693632Y-104510525D01*
X135450411Y-104348010D01*
X135346072Y-104304791D01*
X137286460Y-104304791D01*
X137401510Y-104533727D01*
X137559012Y-104735819D01*
X137752914Y-104903301D01*
X137975764Y-105029737D01*
X138036611Y-105054928D01*
X138233200Y-104996287D01*
X138233200Y-104108200D01*
X137342267Y-104108200D01*
X137286460Y-104304791D01*
X135346072Y-104304791D01*
X135317579Y-104292989D01*
X135445527Y-104228690D01*
X135647619Y-104071188D01*
X135815101Y-103877286D01*
X135941537Y-103654436D01*
X135966728Y-103593589D01*
X135908087Y-103397000D01*
X135020000Y-103397000D01*
X135020000Y-103417000D01*
X134474000Y-103417000D01*
X134474000Y-103397000D01*
X133585913Y-103397000D01*
X133527272Y-103593589D01*
X133552463Y-103654436D01*
X133678899Y-103877286D01*
X133846381Y-104071188D01*
X134048473Y-104228690D01*
X134176421Y-104292989D01*
X134043589Y-104348010D01*
X133800368Y-104510525D01*
X133593525Y-104717368D01*
X133477000Y-104891760D01*
X133360475Y-104717368D01*
X133153632Y-104510525D01*
X132910411Y-104348010D01*
X132777579Y-104292989D01*
X132905527Y-104228690D01*
X133107619Y-104071188D01*
X133275101Y-103877286D01*
X133401537Y-103654436D01*
X133426728Y-103593589D01*
X133368087Y-103397000D01*
X132480000Y-103397000D01*
X132480000Y-103417000D01*
X131934000Y-103417000D01*
X131934000Y-103397000D01*
X131045913Y-103397000D01*
X130987272Y-103593589D01*
X131012463Y-103654436D01*
X131138899Y-103877286D01*
X131306381Y-104071188D01*
X131508473Y-104228690D01*
X131636421Y-104292989D01*
X131503589Y-104348010D01*
X131260368Y-104510525D01*
X131053525Y-104717368D01*
X130891010Y-104960589D01*
X130779068Y-105230842D01*
X130722000Y-105517740D01*
X130722000Y-105810260D01*
X130779068Y-106097158D01*
X130891010Y-106367411D01*
X131053525Y-106610632D01*
X131260368Y-106817475D01*
X131434760Y-106934000D01*
X131260368Y-107050525D01*
X131053525Y-107257368D01*
X130891010Y-107500589D01*
X130779068Y-107770842D01*
X130722000Y-108057740D01*
X130722000Y-108350260D01*
X130779068Y-108637158D01*
X130891010Y-108907411D01*
X131053525Y-109150632D01*
X131260368Y-109357475D01*
X131434760Y-109474000D01*
X131260368Y-109590525D01*
X131053525Y-109797368D01*
X130891010Y-110040589D01*
X130779068Y-110310842D01*
X130722000Y-110597740D01*
X130722000Y-110890260D01*
X130779068Y-111177158D01*
X130891010Y-111447411D01*
X131053525Y-111690632D01*
X131260368Y-111897475D01*
X131434760Y-112014000D01*
X131260368Y-112130525D01*
X131053525Y-112337368D01*
X130891010Y-112580589D01*
X130779068Y-112850842D01*
X130722000Y-113137740D01*
X130722000Y-113430260D01*
X130779068Y-113717158D01*
X130891010Y-113987411D01*
X131053525Y-114230632D01*
X131260368Y-114437475D01*
X131434760Y-114554000D01*
X131260368Y-114670525D01*
X131053525Y-114877368D01*
X130891010Y-115120589D01*
X130779068Y-115390842D01*
X130722000Y-115677740D01*
X130722000Y-115970260D01*
X130779068Y-116257158D01*
X130891010Y-116527411D01*
X131053525Y-116770632D01*
X131260368Y-116977475D01*
X131434760Y-117094000D01*
X131260368Y-117210525D01*
X131053525Y-117417368D01*
X130891010Y-117660589D01*
X130779068Y-117930842D01*
X130722000Y-118217740D01*
X130722000Y-118510260D01*
X130779068Y-118797158D01*
X130891010Y-119067411D01*
X131053525Y-119310632D01*
X131260368Y-119517475D01*
X131434760Y-119634000D01*
X131260368Y-119750525D01*
X131053525Y-119957368D01*
X130891010Y-120200589D01*
X130779068Y-120470842D01*
X130722000Y-120757740D01*
X130722000Y-121050260D01*
X130779068Y-121337158D01*
X130891010Y-121607411D01*
X131053525Y-121850632D01*
X131260368Y-122057475D01*
X131434760Y-122174000D01*
X131260368Y-122290525D01*
X131053525Y-122497368D01*
X130891010Y-122740589D01*
X130779068Y-123010842D01*
X130722000Y-123297740D01*
X130722000Y-123590260D01*
X130779068Y-123877158D01*
X130891010Y-124147411D01*
X131053525Y-124390632D01*
X131185380Y-124522487D01*
X131112820Y-124544498D01*
X131002506Y-124603463D01*
X130905815Y-124682815D01*
X130826463Y-124779506D01*
X130767498Y-124889820D01*
X130731188Y-125009518D01*
X130718928Y-125134000D01*
X130660000Y-125134000D01*
X130660000Y-103365609D01*
X137286460Y-103365609D01*
X137342267Y-103562200D01*
X138233200Y-103562200D01*
X138233200Y-102674113D01*
X138779200Y-102674113D01*
X138779200Y-103562200D01*
X138799200Y-103562200D01*
X138799200Y-104108200D01*
X138779200Y-104108200D01*
X138779200Y-104996287D01*
X138975789Y-105054928D01*
X139036636Y-105029737D01*
X139259486Y-104903301D01*
X139453388Y-104735819D01*
X139610890Y-104533727D01*
X139675189Y-104405779D01*
X139730210Y-104538611D01*
X139892725Y-104781832D01*
X140099568Y-104988675D01*
X140273960Y-105105200D01*
X140099568Y-105221725D01*
X139892725Y-105428568D01*
X139815319Y-105544414D01*
X139815411Y-105525200D01*
X139806587Y-105435612D01*
X139780456Y-105349468D01*
X139738020Y-105270076D01*
X139680911Y-105200489D01*
X139611324Y-105143380D01*
X139531932Y-105100944D01*
X139445788Y-105074813D01*
X139356200Y-105065989D01*
X138893450Y-105068200D01*
X138779200Y-105182450D01*
X138779200Y-106102200D01*
X138799200Y-106102200D01*
X138799200Y-106648200D01*
X138779200Y-106648200D01*
X138779200Y-107567950D01*
X138893450Y-107682200D01*
X139356200Y-107684411D01*
X139445788Y-107675587D01*
X139531932Y-107649456D01*
X139611324Y-107607020D01*
X139680911Y-107549911D01*
X139738020Y-107480324D01*
X139780456Y-107400932D01*
X139806587Y-107314788D01*
X139815411Y-107225200D01*
X139815319Y-107205986D01*
X139892725Y-107321832D01*
X140099568Y-107528675D01*
X140342789Y-107691190D01*
X140613042Y-107803132D01*
X140899940Y-107860200D01*
X141192460Y-107860200D01*
X141479358Y-107803132D01*
X141749611Y-107691190D01*
X141992832Y-107528675D01*
X142199675Y-107321832D01*
X142316200Y-107147440D01*
X142432725Y-107321832D01*
X142639568Y-107528675D01*
X142882789Y-107691190D01*
X143153042Y-107803132D01*
X143439940Y-107860200D01*
X143732460Y-107860200D01*
X144019358Y-107803132D01*
X144289611Y-107691190D01*
X144430515Y-107597041D01*
X144434014Y-107605489D01*
X144536338Y-107758628D01*
X144666572Y-107888862D01*
X144819711Y-107991186D01*
X144989871Y-108061668D01*
X145170511Y-108097600D01*
X145354689Y-108097600D01*
X145535329Y-108061668D01*
X145705489Y-107991186D01*
X145858628Y-107888862D01*
X145988862Y-107758628D01*
X146091186Y-107605489D01*
X146161668Y-107435329D01*
X146178658Y-107349911D01*
X151592000Y-107349911D01*
X151592000Y-107534089D01*
X151627932Y-107714729D01*
X151698414Y-107884889D01*
X151800738Y-108038028D01*
X151930972Y-108168262D01*
X152084111Y-108270586D01*
X152254271Y-108341068D01*
X152434911Y-108377000D01*
X152619089Y-108377000D01*
X152799729Y-108341068D01*
X152908000Y-108296221D01*
X153016271Y-108341068D01*
X153196911Y-108377000D01*
X153381089Y-108377000D01*
X153561729Y-108341068D01*
X153670000Y-108296221D01*
X153778271Y-108341068D01*
X153958911Y-108377000D01*
X154143089Y-108377000D01*
X154323729Y-108341068D01*
X154370433Y-108321723D01*
X154470972Y-108422262D01*
X154624111Y-108524586D01*
X154794271Y-108595068D01*
X154974911Y-108631000D01*
X155159089Y-108631000D01*
X155339729Y-108595068D01*
X155509889Y-108524586D01*
X155511500Y-108523510D01*
X155513111Y-108524586D01*
X155683271Y-108595068D01*
X155863911Y-108631000D01*
X156048089Y-108631000D01*
X156228729Y-108595068D01*
X156337000Y-108550221D01*
X156445271Y-108595068D01*
X156625911Y-108631000D01*
X156810089Y-108631000D01*
X156990729Y-108595068D01*
X157099000Y-108550221D01*
X157207271Y-108595068D01*
X157387911Y-108631000D01*
X157572089Y-108631000D01*
X157752729Y-108595068D01*
X157922889Y-108524586D01*
X158076028Y-108422262D01*
X158206262Y-108292028D01*
X158308586Y-108138889D01*
X158379068Y-107968729D01*
X158415000Y-107788089D01*
X158415000Y-107603911D01*
X158379068Y-107423271D01*
X158308586Y-107253111D01*
X158206262Y-107099972D01*
X158076028Y-106969738D01*
X157922889Y-106867414D01*
X157752729Y-106796932D01*
X157572089Y-106761000D01*
X157387911Y-106761000D01*
X157207271Y-106796932D01*
X157099000Y-106841779D01*
X156990729Y-106796932D01*
X156810089Y-106761000D01*
X156625911Y-106761000D01*
X156445271Y-106796932D01*
X156337000Y-106841779D01*
X156228729Y-106796932D01*
X156048089Y-106761000D01*
X156002000Y-106761000D01*
X156002000Y-106714911D01*
X155966068Y-106534271D01*
X155921221Y-106426000D01*
X155966068Y-106317729D01*
X156002000Y-106137089D01*
X156002000Y-105952911D01*
X155966068Y-105772271D01*
X155895586Y-105602111D01*
X155793262Y-105448972D01*
X155663028Y-105318738D01*
X155509889Y-105216414D01*
X155339729Y-105145932D01*
X155159089Y-105110000D01*
X154974911Y-105110000D01*
X154794271Y-105145932D01*
X154624111Y-105216414D01*
X154470972Y-105318738D01*
X154340738Y-105448972D01*
X154238414Y-105602111D01*
X154167932Y-105772271D01*
X154132000Y-105952911D01*
X154132000Y-106137089D01*
X154167932Y-106317729D01*
X154212779Y-106426000D01*
X154176477Y-106513641D01*
X154143089Y-106507000D01*
X153958911Y-106507000D01*
X153778271Y-106542932D01*
X153670000Y-106587779D01*
X153561729Y-106542932D01*
X153381089Y-106507000D01*
X153196911Y-106507000D01*
X153016271Y-106542932D01*
X152908000Y-106587779D01*
X152799729Y-106542932D01*
X152619089Y-106507000D01*
X152434911Y-106507000D01*
X152254271Y-106542932D01*
X152084111Y-106613414D01*
X151930972Y-106715738D01*
X151800738Y-106845972D01*
X151698414Y-106999111D01*
X151627932Y-107169271D01*
X151592000Y-107349911D01*
X146178658Y-107349911D01*
X146197600Y-107254689D01*
X146197600Y-107070511D01*
X146161668Y-106889871D01*
X146091186Y-106719711D01*
X145988862Y-106566572D01*
X145858628Y-106436338D01*
X145705489Y-106334014D01*
X145535329Y-106263532D01*
X145354689Y-106227600D01*
X145170511Y-106227600D01*
X145071200Y-106247354D01*
X145071200Y-106228940D01*
X145014132Y-105942042D01*
X144973168Y-105843145D01*
X145116871Y-105902668D01*
X145297511Y-105938600D01*
X145481689Y-105938600D01*
X145662329Y-105902668D01*
X145832489Y-105832186D01*
X145985628Y-105729862D01*
X146115862Y-105599628D01*
X146218186Y-105446489D01*
X146288668Y-105276329D01*
X146324600Y-105095689D01*
X146324600Y-104911511D01*
X146288668Y-104730871D01*
X146218186Y-104560711D01*
X146115862Y-104407572D01*
X145985628Y-104277338D01*
X145832489Y-104175014D01*
X145662329Y-104104532D01*
X145481689Y-104068600D01*
X145297511Y-104068600D01*
X145116871Y-104104532D01*
X145040420Y-104136199D01*
X145071200Y-103981460D01*
X145071200Y-103688940D01*
X145014132Y-103402042D01*
X144902190Y-103131789D01*
X144739675Y-102888568D01*
X144532832Y-102681725D01*
X144289611Y-102519210D01*
X144019358Y-102407268D01*
X143732460Y-102350200D01*
X143439940Y-102350200D01*
X143153042Y-102407268D01*
X142882789Y-102519210D01*
X142639568Y-102681725D01*
X142432725Y-102888568D01*
X142316200Y-103062960D01*
X142199675Y-102888568D01*
X141992832Y-102681725D01*
X141749611Y-102519210D01*
X141479358Y-102407268D01*
X141192460Y-102350200D01*
X140899940Y-102350200D01*
X140613042Y-102407268D01*
X140342789Y-102519210D01*
X140099568Y-102681725D01*
X139892725Y-102888568D01*
X139730210Y-103131789D01*
X139675189Y-103264621D01*
X139610890Y-103136673D01*
X139453388Y-102934581D01*
X139259486Y-102767099D01*
X139036636Y-102640663D01*
X138975789Y-102615472D01*
X138779200Y-102674113D01*
X138233200Y-102674113D01*
X138036611Y-102615472D01*
X137975764Y-102640663D01*
X137752914Y-102767099D01*
X137559012Y-102934581D01*
X137401510Y-103136673D01*
X137286460Y-103365609D01*
X130660000Y-103365609D01*
X130660000Y-102654411D01*
X130987272Y-102654411D01*
X131045913Y-102851000D01*
X131934000Y-102851000D01*
X131934000Y-101960067D01*
X132480000Y-101960067D01*
X132480000Y-102851000D01*
X133368087Y-102851000D01*
X133426728Y-102654411D01*
X133527272Y-102654411D01*
X133585913Y-102851000D01*
X134474000Y-102851000D01*
X134474000Y-101960067D01*
X135020000Y-101960067D01*
X135020000Y-102851000D01*
X135908087Y-102851000D01*
X135966728Y-102654411D01*
X135941537Y-102593564D01*
X135815101Y-102370714D01*
X135647619Y-102176812D01*
X135445527Y-102019310D01*
X135216591Y-101904260D01*
X135020000Y-101960067D01*
X134474000Y-101960067D01*
X134277409Y-101904260D01*
X134048473Y-102019310D01*
X133846381Y-102176812D01*
X133678899Y-102370714D01*
X133552463Y-102593564D01*
X133527272Y-102654411D01*
X133426728Y-102654411D01*
X133401537Y-102593564D01*
X133275101Y-102370714D01*
X133107619Y-102176812D01*
X132905527Y-102019310D01*
X132676591Y-101904260D01*
X132480000Y-101960067D01*
X131934000Y-101960067D01*
X131737409Y-101904260D01*
X131508473Y-102019310D01*
X131306381Y-102176812D01*
X131138899Y-102370714D01*
X131012463Y-102593564D01*
X130987272Y-102654411D01*
X130660000Y-102654411D01*
X130660000Y-100225211D01*
X143248100Y-100225211D01*
X143248100Y-100409389D01*
X143284032Y-100590029D01*
X143354514Y-100760189D01*
X143456838Y-100913328D01*
X143587072Y-101043562D01*
X143740211Y-101145886D01*
X143910371Y-101216368D01*
X144091011Y-101252300D01*
X144275189Y-101252300D01*
X144455829Y-101216368D01*
X144625989Y-101145886D01*
X144779128Y-101043562D01*
X144909362Y-100913328D01*
X145011686Y-100760189D01*
X145070204Y-100618911D01*
X148544000Y-100618911D01*
X148544000Y-100803089D01*
X148579932Y-100983729D01*
X148650414Y-101153889D01*
X148752738Y-101307028D01*
X148882972Y-101437262D01*
X149036111Y-101539586D01*
X149206271Y-101610068D01*
X149386911Y-101646000D01*
X149571089Y-101646000D01*
X149751729Y-101610068D01*
X149921889Y-101539586D01*
X150075028Y-101437262D01*
X150205262Y-101307028D01*
X150307586Y-101153889D01*
X150350411Y-101050501D01*
X150432372Y-101132462D01*
X150585511Y-101234786D01*
X150755671Y-101305268D01*
X150936311Y-101341200D01*
X151120489Y-101341200D01*
X151301129Y-101305268D01*
X151471289Y-101234786D01*
X151624428Y-101132462D01*
X151754662Y-101002228D01*
X151856986Y-100849089D01*
X151927468Y-100678929D01*
X151963400Y-100498289D01*
X151963400Y-100352090D01*
X152083372Y-100472062D01*
X152236511Y-100574386D01*
X152406671Y-100644868D01*
X152587311Y-100680800D01*
X152771489Y-100680800D01*
X152952129Y-100644868D01*
X153009600Y-100621063D01*
X153067071Y-100644868D01*
X153247711Y-100680800D01*
X153431889Y-100680800D01*
X153612529Y-100644868D01*
X153782689Y-100574386D01*
X153935828Y-100472062D01*
X154066062Y-100341828D01*
X154168386Y-100188689D01*
X154238868Y-100018529D01*
X154274800Y-99837889D01*
X154274800Y-99653711D01*
X154238868Y-99473071D01*
X154168386Y-99302911D01*
X154066062Y-99149772D01*
X153935828Y-99019538D01*
X153782689Y-98917214D01*
X153612529Y-98846732D01*
X153431889Y-98810800D01*
X153247711Y-98810800D01*
X153067071Y-98846732D01*
X153009600Y-98870537D01*
X152952129Y-98846732D01*
X152771489Y-98810800D01*
X152587311Y-98810800D01*
X152406671Y-98846732D01*
X152236511Y-98917214D01*
X152083372Y-99019538D01*
X151953138Y-99149772D01*
X151850814Y-99302911D01*
X151780332Y-99473071D01*
X151744400Y-99653711D01*
X151744400Y-99799910D01*
X151624428Y-99679938D01*
X151471289Y-99577614D01*
X151301129Y-99507132D01*
X151120489Y-99471200D01*
X150936311Y-99471200D01*
X150755671Y-99507132D01*
X150585511Y-99577614D01*
X150432372Y-99679938D01*
X150302138Y-99810172D01*
X150199814Y-99963311D01*
X150156989Y-100066699D01*
X150075028Y-99984738D01*
X149921889Y-99882414D01*
X149751729Y-99811932D01*
X149571089Y-99776000D01*
X149386911Y-99776000D01*
X149206271Y-99811932D01*
X149036111Y-99882414D01*
X148882972Y-99984738D01*
X148752738Y-100114972D01*
X148650414Y-100268111D01*
X148579932Y-100438271D01*
X148544000Y-100618911D01*
X145070204Y-100618911D01*
X145082168Y-100590029D01*
X145118100Y-100409389D01*
X145118100Y-100225211D01*
X145082168Y-100044571D01*
X145011686Y-99874411D01*
X144909362Y-99721272D01*
X144779128Y-99591038D01*
X144625989Y-99488714D01*
X144455829Y-99418232D01*
X144275189Y-99382300D01*
X144091011Y-99382300D01*
X143910371Y-99418232D01*
X143740211Y-99488714D01*
X143587072Y-99591038D01*
X143456838Y-99721272D01*
X143354514Y-99874411D01*
X143284032Y-100044571D01*
X143248100Y-100225211D01*
X130660000Y-100225211D01*
X130660000Y-97824911D01*
X138257000Y-97824911D01*
X138257000Y-98009089D01*
X138292932Y-98189729D01*
X138363414Y-98359889D01*
X138465738Y-98513028D01*
X138595972Y-98643262D01*
X138749111Y-98745586D01*
X138919271Y-98816068D01*
X139099911Y-98852000D01*
X139284089Y-98852000D01*
X139464729Y-98816068D01*
X139634889Y-98745586D01*
X139788028Y-98643262D01*
X139918262Y-98513028D01*
X140020586Y-98359889D01*
X140091068Y-98189729D01*
X140127000Y-98009089D01*
X140127000Y-97824911D01*
X140091068Y-97644271D01*
X140020586Y-97474111D01*
X139918262Y-97320972D01*
X139788028Y-97190738D01*
X139634889Y-97088414D01*
X139464729Y-97017932D01*
X139284089Y-96982000D01*
X139099911Y-96982000D01*
X138919271Y-97017932D01*
X138749111Y-97088414D01*
X138595972Y-97190738D01*
X138465738Y-97320972D01*
X138363414Y-97474111D01*
X138292932Y-97644271D01*
X138257000Y-97824911D01*
X130660000Y-97824911D01*
X130660000Y-94032278D01*
X130693440Y-93691229D01*
X130865000Y-93691229D01*
X130865000Y-94308771D01*
X130985476Y-94914446D01*
X131221799Y-95484979D01*
X131564886Y-95998446D01*
X132001554Y-96435114D01*
X132515021Y-96778201D01*
X133085554Y-97014524D01*
X133691229Y-97135000D01*
X134308771Y-97135000D01*
X134914446Y-97014524D01*
X135484979Y-96778201D01*
X135895184Y-96504111D01*
X151719000Y-96504111D01*
X151719000Y-96688289D01*
X151754932Y-96868929D01*
X151825414Y-97039089D01*
X151927738Y-97192228D01*
X152057972Y-97322462D01*
X152211111Y-97424786D01*
X152381271Y-97495268D01*
X152561911Y-97531200D01*
X152746089Y-97531200D01*
X152926729Y-97495268D01*
X152984200Y-97471463D01*
X153041671Y-97495268D01*
X153222311Y-97531200D01*
X153406489Y-97531200D01*
X153587129Y-97495268D01*
X153757289Y-97424786D01*
X153910428Y-97322462D01*
X154040662Y-97192228D01*
X154142986Y-97039089D01*
X154213468Y-96868929D01*
X154249400Y-96688289D01*
X154249400Y-96504111D01*
X154213468Y-96323471D01*
X154142986Y-96153311D01*
X154040662Y-96000172D01*
X153910428Y-95869938D01*
X153757289Y-95767614D01*
X153587129Y-95697132D01*
X153406489Y-95661200D01*
X153222311Y-95661200D01*
X153041671Y-95697132D01*
X152984200Y-95720937D01*
X152926729Y-95697132D01*
X152746089Y-95661200D01*
X152561911Y-95661200D01*
X152381271Y-95697132D01*
X152211111Y-95767614D01*
X152057972Y-95869938D01*
X151927738Y-96000172D01*
X151825414Y-96153311D01*
X151754932Y-96323471D01*
X151719000Y-96504111D01*
X135895184Y-96504111D01*
X135998446Y-96435114D01*
X136435114Y-95998446D01*
X136778201Y-95484979D01*
X137014524Y-94914446D01*
X137135000Y-94308771D01*
X137135000Y-93691229D01*
X137107571Y-93553335D01*
X137123511Y-93563986D01*
X137293671Y-93634468D01*
X137474311Y-93670400D01*
X137658489Y-93670400D01*
X137839129Y-93634468D01*
X138009289Y-93563986D01*
X138162428Y-93461662D01*
X138292662Y-93331428D01*
X138345125Y-93252911D01*
X141305000Y-93252911D01*
X141305000Y-93437089D01*
X141340932Y-93617729D01*
X141411414Y-93787889D01*
X141513738Y-93941028D01*
X141643972Y-94071262D01*
X141797111Y-94173586D01*
X141967271Y-94244068D01*
X142147911Y-94280000D01*
X142332089Y-94280000D01*
X142512729Y-94244068D01*
X142682889Y-94173586D01*
X142836028Y-94071262D01*
X142966262Y-93941028D01*
X143068586Y-93787889D01*
X143139068Y-93617729D01*
X143175000Y-93437089D01*
X143175000Y-93391000D01*
X143221089Y-93391000D01*
X143401729Y-93355068D01*
X143571889Y-93284586D01*
X143725028Y-93182262D01*
X143855262Y-93052028D01*
X143957586Y-92898889D01*
X144028068Y-92728729D01*
X144064000Y-92548089D01*
X144064000Y-92541711D01*
X146486600Y-92541711D01*
X146486600Y-92725889D01*
X146522532Y-92906529D01*
X146593014Y-93076689D01*
X146695338Y-93229828D01*
X146825572Y-93360062D01*
X146978711Y-93462386D01*
X147148871Y-93532868D01*
X147329511Y-93568800D01*
X147513689Y-93568800D01*
X147694329Y-93532868D01*
X147864489Y-93462386D01*
X148017628Y-93360062D01*
X148147862Y-93229828D01*
X148250186Y-93076689D01*
X148320668Y-92906529D01*
X148356600Y-92725889D01*
X148356600Y-92541711D01*
X148346496Y-92490911D01*
X157053000Y-92490911D01*
X157053000Y-92675089D01*
X157088932Y-92855729D01*
X157159414Y-93025889D01*
X157261738Y-93179028D01*
X157391972Y-93309262D01*
X157545111Y-93411586D01*
X157715271Y-93482068D01*
X157895911Y-93518000D01*
X157899457Y-93518000D01*
X157865000Y-93691229D01*
X157865000Y-94308771D01*
X157985476Y-94914446D01*
X158221799Y-95484979D01*
X158564886Y-95998446D01*
X159001554Y-96435114D01*
X159515021Y-96778201D01*
X160085554Y-97014524D01*
X160691229Y-97135000D01*
X161308771Y-97135000D01*
X161914446Y-97014524D01*
X162484979Y-96778201D01*
X162998446Y-96435114D01*
X163435114Y-95998446D01*
X163778201Y-95484979D01*
X164014524Y-94914446D01*
X164135000Y-94308771D01*
X164135000Y-93691229D01*
X164014524Y-93085554D01*
X163778201Y-92515021D01*
X163435114Y-92001554D01*
X162998446Y-91564886D01*
X162484979Y-91221799D01*
X161914446Y-90985476D01*
X161308771Y-90865000D01*
X160691229Y-90865000D01*
X160085554Y-90985476D01*
X159515021Y-91221799D01*
X159001554Y-91564886D01*
X158646865Y-91919575D01*
X158584028Y-91856738D01*
X158430889Y-91754414D01*
X158260729Y-91683932D01*
X158080089Y-91648000D01*
X157895911Y-91648000D01*
X157715271Y-91683932D01*
X157545111Y-91754414D01*
X157391972Y-91856738D01*
X157261738Y-91986972D01*
X157159414Y-92140111D01*
X157088932Y-92310271D01*
X157053000Y-92490911D01*
X148346496Y-92490911D01*
X148320668Y-92361071D01*
X148250186Y-92190911D01*
X148147862Y-92037772D01*
X148017628Y-91907538D01*
X147864489Y-91805214D01*
X147694329Y-91734732D01*
X147513689Y-91698800D01*
X147329511Y-91698800D01*
X147148871Y-91734732D01*
X146978711Y-91805214D01*
X146825572Y-91907538D01*
X146695338Y-92037772D01*
X146593014Y-92190911D01*
X146522532Y-92361071D01*
X146486600Y-92541711D01*
X144064000Y-92541711D01*
X144064000Y-92363911D01*
X144028068Y-92183271D01*
X143957586Y-92013111D01*
X143855262Y-91859972D01*
X143725028Y-91729738D01*
X143571889Y-91627414D01*
X143401729Y-91556932D01*
X143221089Y-91521000D01*
X143036911Y-91521000D01*
X142856271Y-91556932D01*
X142686111Y-91627414D01*
X142532972Y-91729738D01*
X142402738Y-91859972D01*
X142300414Y-92013111D01*
X142229932Y-92183271D01*
X142194000Y-92363911D01*
X142194000Y-92410000D01*
X142147911Y-92410000D01*
X141967271Y-92445932D01*
X141797111Y-92516414D01*
X141643972Y-92618738D01*
X141513738Y-92748972D01*
X141411414Y-92902111D01*
X141340932Y-93072271D01*
X141305000Y-93252911D01*
X138345125Y-93252911D01*
X138394986Y-93178289D01*
X138465468Y-93008129D01*
X138501400Y-92827489D01*
X138501400Y-92643311D01*
X138465468Y-92462671D01*
X138394986Y-92292511D01*
X138292662Y-92139372D01*
X138162428Y-92009138D01*
X138009289Y-91906814D01*
X137839129Y-91836332D01*
X137658489Y-91800400D01*
X137474311Y-91800400D01*
X137293671Y-91836332D01*
X137123511Y-91906814D01*
X136970372Y-92009138D01*
X136840138Y-92139372D01*
X136737814Y-92292511D01*
X136696374Y-92392558D01*
X136435114Y-92001554D01*
X135998446Y-91564886D01*
X135484979Y-91221799D01*
X134914446Y-90985476D01*
X134308771Y-90865000D01*
X133691229Y-90865000D01*
X133085554Y-90985476D01*
X132515021Y-91221799D01*
X132001554Y-91564886D01*
X131564886Y-92001554D01*
X131221799Y-92515021D01*
X130985476Y-93085554D01*
X130865000Y-93691229D01*
X130693440Y-93691229D01*
X130726714Y-93351874D01*
X130914943Y-92728428D01*
X131220681Y-92153421D01*
X131632279Y-91648753D01*
X132134067Y-91233638D01*
X132706924Y-90923895D01*
X133329039Y-90731318D01*
X134007584Y-90660000D01*
X152364525Y-90660000D01*
X152354000Y-90712911D01*
M02*
