G04 #@! TF.GenerationSoftware,KiCad,Pcbnew,(5.1.5)-3*
G04 #@! TF.CreationDate,2020-08-13T21:18:49+02:00*
G04 #@! TF.ProjectId,STM32 Dev.Board,53544d33-3220-4446-9576-2e426f617264,rev?*
G04 #@! TF.SameCoordinates,Original*
G04 #@! TF.FileFunction,Soldermask,Top*
G04 #@! TF.FilePolarity,Negative*
%FSLAX46Y46*%
G04 Gerber Fmt 4.6, Leading zero omitted, Abs format (unit mm)*
G04 Created by KiCad (PCBNEW (5.1.5)-3) date 2020-08-13 21:18:49*
%MOMM*%
%LPD*%
G04 APERTURE LIST*
%ADD10C,0.100000*%
G04 APERTURE END LIST*
D10*
G36*
X152640512Y-131920527D02*
G01*
X152789812Y-131950224D01*
X152953784Y-132018144D01*
X153101354Y-132116747D01*
X153226853Y-132242246D01*
X153325456Y-132389816D01*
X153393376Y-132553788D01*
X153417861Y-132676886D01*
X153425769Y-132716640D01*
X153428000Y-132727859D01*
X153428000Y-132905341D01*
X153393376Y-133079412D01*
X153325456Y-133243384D01*
X153226853Y-133390954D01*
X153101354Y-133516453D01*
X152953784Y-133615056D01*
X152789812Y-133682976D01*
X152640512Y-133712673D01*
X152615742Y-133717600D01*
X152438258Y-133717600D01*
X152413488Y-133712673D01*
X152264188Y-133682976D01*
X152100216Y-133615056D01*
X151952646Y-133516453D01*
X151827147Y-133390954D01*
X151728544Y-133243384D01*
X151660624Y-133079412D01*
X151626000Y-132905341D01*
X151626000Y-132727859D01*
X151628232Y-132716640D01*
X151636139Y-132676886D01*
X151660624Y-132553788D01*
X151728544Y-132389816D01*
X151827147Y-132242246D01*
X151952646Y-132116747D01*
X152100216Y-132018144D01*
X152264188Y-131950224D01*
X152413488Y-131920527D01*
X152438258Y-131915600D01*
X152615742Y-131915600D01*
X152640512Y-131920527D01*
G37*
G36*
X150100512Y-131920527D02*
G01*
X150249812Y-131950224D01*
X150413784Y-132018144D01*
X150561354Y-132116747D01*
X150686853Y-132242246D01*
X150785456Y-132389816D01*
X150853376Y-132553788D01*
X150877861Y-132676886D01*
X150885769Y-132716640D01*
X150888000Y-132727859D01*
X150888000Y-132905341D01*
X150853376Y-133079412D01*
X150785456Y-133243384D01*
X150686853Y-133390954D01*
X150561354Y-133516453D01*
X150413784Y-133615056D01*
X150249812Y-133682976D01*
X150100512Y-133712673D01*
X150075742Y-133717600D01*
X149898258Y-133717600D01*
X149873488Y-133712673D01*
X149724188Y-133682976D01*
X149560216Y-133615056D01*
X149412646Y-133516453D01*
X149287147Y-133390954D01*
X149188544Y-133243384D01*
X149120624Y-133079412D01*
X149086000Y-132905341D01*
X149086000Y-132727859D01*
X149088232Y-132716640D01*
X149096139Y-132676886D01*
X149120624Y-132553788D01*
X149188544Y-132389816D01*
X149287147Y-132242246D01*
X149412646Y-132116747D01*
X149560216Y-132018144D01*
X149724188Y-131950224D01*
X149873488Y-131920527D01*
X149898258Y-131915600D01*
X150075742Y-131915600D01*
X150100512Y-131920527D01*
G37*
G36*
X143268000Y-133717600D02*
G01*
X141466000Y-133717600D01*
X141466000Y-131915600D01*
X143268000Y-131915600D01*
X143268000Y-133717600D01*
G37*
G36*
X147560512Y-131920527D02*
G01*
X147709812Y-131950224D01*
X147873784Y-132018144D01*
X148021354Y-132116747D01*
X148146853Y-132242246D01*
X148245456Y-132389816D01*
X148313376Y-132553788D01*
X148337861Y-132676886D01*
X148345769Y-132716640D01*
X148348000Y-132727859D01*
X148348000Y-132905341D01*
X148313376Y-133079412D01*
X148245456Y-133243384D01*
X148146853Y-133390954D01*
X148021354Y-133516453D01*
X147873784Y-133615056D01*
X147709812Y-133682976D01*
X147560512Y-133712673D01*
X147535742Y-133717600D01*
X147358258Y-133717600D01*
X147333488Y-133712673D01*
X147184188Y-133682976D01*
X147020216Y-133615056D01*
X146872646Y-133516453D01*
X146747147Y-133390954D01*
X146648544Y-133243384D01*
X146580624Y-133079412D01*
X146546000Y-132905341D01*
X146546000Y-132727859D01*
X146548232Y-132716640D01*
X146556139Y-132676886D01*
X146580624Y-132553788D01*
X146648544Y-132389816D01*
X146747147Y-132242246D01*
X146872646Y-132116747D01*
X147020216Y-132018144D01*
X147184188Y-131950224D01*
X147333488Y-131920527D01*
X147358258Y-131915600D01*
X147535742Y-131915600D01*
X147560512Y-131920527D01*
G37*
G36*
X145020512Y-131920527D02*
G01*
X145169812Y-131950224D01*
X145333784Y-132018144D01*
X145481354Y-132116747D01*
X145606853Y-132242246D01*
X145705456Y-132389816D01*
X145773376Y-132553788D01*
X145797861Y-132676886D01*
X145805769Y-132716640D01*
X145808000Y-132727859D01*
X145808000Y-132905341D01*
X145773376Y-133079412D01*
X145705456Y-133243384D01*
X145606853Y-133390954D01*
X145481354Y-133516453D01*
X145333784Y-133615056D01*
X145169812Y-133682976D01*
X145020512Y-133712673D01*
X144995742Y-133717600D01*
X144818258Y-133717600D01*
X144793488Y-133712673D01*
X144644188Y-133682976D01*
X144480216Y-133615056D01*
X144332646Y-133516453D01*
X144207147Y-133390954D01*
X144108544Y-133243384D01*
X144040624Y-133079412D01*
X144006000Y-132905341D01*
X144006000Y-132727859D01*
X144008232Y-132716640D01*
X144016139Y-132676886D01*
X144040624Y-132553788D01*
X144108544Y-132389816D01*
X144207147Y-132242246D01*
X144332646Y-132116747D01*
X144480216Y-132018144D01*
X144644188Y-131950224D01*
X144793488Y-131920527D01*
X144818258Y-131915600D01*
X144995742Y-131915600D01*
X145020512Y-131920527D01*
G37*
G36*
X161744098Y-128547033D02*
G01*
X162208350Y-128739332D01*
X162208352Y-128739333D01*
X162626168Y-129018509D01*
X162981491Y-129373832D01*
X163117075Y-129576748D01*
X163260668Y-129791650D01*
X163452967Y-130255902D01*
X163551000Y-130748747D01*
X163551000Y-131251253D01*
X163452967Y-131744098D01*
X163271271Y-132182751D01*
X163260667Y-132208352D01*
X162981491Y-132626168D01*
X162626168Y-132981491D01*
X162208352Y-133260667D01*
X162208351Y-133260668D01*
X162208350Y-133260668D01*
X161744098Y-133452967D01*
X161251253Y-133551000D01*
X160748747Y-133551000D01*
X160255902Y-133452967D01*
X159791650Y-133260668D01*
X159791649Y-133260668D01*
X159791648Y-133260667D01*
X159373832Y-132981491D01*
X159018509Y-132626168D01*
X158739333Y-132208352D01*
X158728729Y-132182751D01*
X158547033Y-131744098D01*
X158449000Y-131251253D01*
X158449000Y-130748747D01*
X158547033Y-130255902D01*
X158739332Y-129791650D01*
X158882925Y-129576748D01*
X159018509Y-129373832D01*
X159373832Y-129018509D01*
X159791648Y-128739333D01*
X159791650Y-128739332D01*
X160255902Y-128547033D01*
X160748747Y-128449000D01*
X161251253Y-128449000D01*
X161744098Y-128547033D01*
G37*
G36*
X134744098Y-128547033D02*
G01*
X135208350Y-128739332D01*
X135208352Y-128739333D01*
X135626168Y-129018509D01*
X135981491Y-129373832D01*
X136117075Y-129576748D01*
X136260668Y-129791650D01*
X136452967Y-130255902D01*
X136551000Y-130748747D01*
X136551000Y-131251253D01*
X136452967Y-131744098D01*
X136271271Y-132182751D01*
X136260667Y-132208352D01*
X135981491Y-132626168D01*
X135626168Y-132981491D01*
X135208352Y-133260667D01*
X135208351Y-133260668D01*
X135208350Y-133260668D01*
X134744098Y-133452967D01*
X134251253Y-133551000D01*
X133748747Y-133551000D01*
X133255902Y-133452967D01*
X132791650Y-133260668D01*
X132791649Y-133260668D01*
X132791648Y-133260667D01*
X132373832Y-132981491D01*
X132018509Y-132626168D01*
X131739333Y-132208352D01*
X131728729Y-132182751D01*
X131547033Y-131744098D01*
X131449000Y-131251253D01*
X131449000Y-130748747D01*
X131547033Y-130255902D01*
X131739332Y-129791650D01*
X131882925Y-129576748D01*
X132018509Y-129373832D01*
X132373832Y-129018509D01*
X132791648Y-128739333D01*
X132791650Y-128739332D01*
X133255902Y-128547033D01*
X133748747Y-128449000D01*
X134251253Y-128449000D01*
X134744098Y-128547033D01*
G37*
G36*
X140235938Y-132602716D02*
G01*
X140256557Y-132608971D01*
X140275553Y-132619124D01*
X140292208Y-132632792D01*
X140305876Y-132649447D01*
X140316029Y-132668443D01*
X140322284Y-132689062D01*
X140325000Y-132716640D01*
X140325000Y-133175360D01*
X140322284Y-133202938D01*
X140316029Y-133223557D01*
X140305876Y-133242553D01*
X140292208Y-133259208D01*
X140275553Y-133272876D01*
X140256557Y-133283029D01*
X140235938Y-133289284D01*
X140208360Y-133292000D01*
X139699640Y-133292000D01*
X139672062Y-133289284D01*
X139651443Y-133283029D01*
X139632447Y-133272876D01*
X139615792Y-133259208D01*
X139602124Y-133242553D01*
X139591971Y-133223557D01*
X139585716Y-133202938D01*
X139583000Y-133175360D01*
X139583000Y-132716640D01*
X139585716Y-132689062D01*
X139591971Y-132668443D01*
X139602124Y-132649447D01*
X139615792Y-132632792D01*
X139632447Y-132619124D01*
X139651443Y-132608971D01*
X139672062Y-132602716D01*
X139699640Y-132600000D01*
X140208360Y-132600000D01*
X140235938Y-132602716D01*
G37*
G36*
X140235938Y-131632716D02*
G01*
X140256557Y-131638971D01*
X140275553Y-131649124D01*
X140292208Y-131662792D01*
X140305876Y-131679447D01*
X140316029Y-131698443D01*
X140322284Y-131719062D01*
X140325000Y-131746640D01*
X140325000Y-132205360D01*
X140322284Y-132232938D01*
X140316029Y-132253557D01*
X140305876Y-132272553D01*
X140292208Y-132289208D01*
X140275553Y-132302876D01*
X140256557Y-132313029D01*
X140235938Y-132319284D01*
X140208360Y-132322000D01*
X139699640Y-132322000D01*
X139672062Y-132319284D01*
X139651443Y-132313029D01*
X139632447Y-132302876D01*
X139615792Y-132289208D01*
X139602124Y-132272553D01*
X139591971Y-132253557D01*
X139585716Y-132232938D01*
X139583000Y-132205360D01*
X139583000Y-131746640D01*
X139585716Y-131719062D01*
X139591971Y-131698443D01*
X139602124Y-131679447D01*
X139615792Y-131662792D01*
X139632447Y-131649124D01*
X139651443Y-131638971D01*
X139672062Y-131632716D01*
X139699640Y-131630000D01*
X140208360Y-131630000D01*
X140235938Y-131632716D01*
G37*
G36*
X142480512Y-129380527D02*
G01*
X142629812Y-129410224D01*
X142793784Y-129478144D01*
X142941354Y-129576747D01*
X143066853Y-129702246D01*
X143165456Y-129849816D01*
X143233376Y-130013788D01*
X143268000Y-130187859D01*
X143268000Y-130365341D01*
X143233376Y-130539412D01*
X143165456Y-130703384D01*
X143066853Y-130850954D01*
X142941354Y-130976453D01*
X142793784Y-131075056D01*
X142629812Y-131142976D01*
X142480512Y-131172673D01*
X142455742Y-131177600D01*
X142278258Y-131177600D01*
X142253488Y-131172673D01*
X142104188Y-131142976D01*
X141940216Y-131075056D01*
X141792646Y-130976453D01*
X141667147Y-130850954D01*
X141568544Y-130703384D01*
X141500624Y-130539412D01*
X141466000Y-130365341D01*
X141466000Y-130187859D01*
X141500624Y-130013788D01*
X141568544Y-129849816D01*
X141667147Y-129702246D01*
X141792646Y-129576747D01*
X141940216Y-129478144D01*
X142104188Y-129410224D01*
X142253488Y-129380527D01*
X142278258Y-129375600D01*
X142455742Y-129375600D01*
X142480512Y-129380527D01*
G37*
G36*
X150100512Y-129380527D02*
G01*
X150249812Y-129410224D01*
X150413784Y-129478144D01*
X150561354Y-129576747D01*
X150686853Y-129702246D01*
X150785456Y-129849816D01*
X150853376Y-130013788D01*
X150888000Y-130187859D01*
X150888000Y-130365341D01*
X150853376Y-130539412D01*
X150785456Y-130703384D01*
X150686853Y-130850954D01*
X150561354Y-130976453D01*
X150413784Y-131075056D01*
X150249812Y-131142976D01*
X150100512Y-131172673D01*
X150075742Y-131177600D01*
X149898258Y-131177600D01*
X149873488Y-131172673D01*
X149724188Y-131142976D01*
X149560216Y-131075056D01*
X149412646Y-130976453D01*
X149287147Y-130850954D01*
X149188544Y-130703384D01*
X149120624Y-130539412D01*
X149086000Y-130365341D01*
X149086000Y-130187859D01*
X149120624Y-130013788D01*
X149188544Y-129849816D01*
X149287147Y-129702246D01*
X149412646Y-129576747D01*
X149560216Y-129478144D01*
X149724188Y-129410224D01*
X149873488Y-129380527D01*
X149898258Y-129375600D01*
X150075742Y-129375600D01*
X150100512Y-129380527D01*
G37*
G36*
X152640512Y-129380527D02*
G01*
X152789812Y-129410224D01*
X152953784Y-129478144D01*
X153101354Y-129576747D01*
X153226853Y-129702246D01*
X153325456Y-129849816D01*
X153393376Y-130013788D01*
X153428000Y-130187859D01*
X153428000Y-130365341D01*
X153393376Y-130539412D01*
X153325456Y-130703384D01*
X153226853Y-130850954D01*
X153101354Y-130976453D01*
X152953784Y-131075056D01*
X152789812Y-131142976D01*
X152640512Y-131172673D01*
X152615742Y-131177600D01*
X152438258Y-131177600D01*
X152413488Y-131172673D01*
X152264188Y-131142976D01*
X152100216Y-131075056D01*
X151952646Y-130976453D01*
X151827147Y-130850954D01*
X151728544Y-130703384D01*
X151660624Y-130539412D01*
X151626000Y-130365341D01*
X151626000Y-130187859D01*
X151660624Y-130013788D01*
X151728544Y-129849816D01*
X151827147Y-129702246D01*
X151952646Y-129576747D01*
X152100216Y-129478144D01*
X152264188Y-129410224D01*
X152413488Y-129380527D01*
X152438258Y-129375600D01*
X152615742Y-129375600D01*
X152640512Y-129380527D01*
G37*
G36*
X145020512Y-129380527D02*
G01*
X145169812Y-129410224D01*
X145333784Y-129478144D01*
X145481354Y-129576747D01*
X145606853Y-129702246D01*
X145705456Y-129849816D01*
X145773376Y-130013788D01*
X145808000Y-130187859D01*
X145808000Y-130365341D01*
X145773376Y-130539412D01*
X145705456Y-130703384D01*
X145606853Y-130850954D01*
X145481354Y-130976453D01*
X145333784Y-131075056D01*
X145169812Y-131142976D01*
X145020512Y-131172673D01*
X144995742Y-131177600D01*
X144818258Y-131177600D01*
X144793488Y-131172673D01*
X144644188Y-131142976D01*
X144480216Y-131075056D01*
X144332646Y-130976453D01*
X144207147Y-130850954D01*
X144108544Y-130703384D01*
X144040624Y-130539412D01*
X144006000Y-130365341D01*
X144006000Y-130187859D01*
X144040624Y-130013788D01*
X144108544Y-129849816D01*
X144207147Y-129702246D01*
X144332646Y-129576747D01*
X144480216Y-129478144D01*
X144644188Y-129410224D01*
X144793488Y-129380527D01*
X144818258Y-129375600D01*
X144995742Y-129375600D01*
X145020512Y-129380527D01*
G37*
G36*
X147560512Y-129380527D02*
G01*
X147709812Y-129410224D01*
X147873784Y-129478144D01*
X148021354Y-129576747D01*
X148146853Y-129702246D01*
X148245456Y-129849816D01*
X148313376Y-130013788D01*
X148348000Y-130187859D01*
X148348000Y-130365341D01*
X148313376Y-130539412D01*
X148245456Y-130703384D01*
X148146853Y-130850954D01*
X148021354Y-130976453D01*
X147873784Y-131075056D01*
X147709812Y-131142976D01*
X147560512Y-131172673D01*
X147535742Y-131177600D01*
X147358258Y-131177600D01*
X147333488Y-131172673D01*
X147184188Y-131142976D01*
X147020216Y-131075056D01*
X146872646Y-130976453D01*
X146747147Y-130850954D01*
X146648544Y-130703384D01*
X146580624Y-130539412D01*
X146546000Y-130365341D01*
X146546000Y-130187859D01*
X146580624Y-130013788D01*
X146648544Y-129849816D01*
X146747147Y-129702246D01*
X146872646Y-129576747D01*
X147020216Y-129478144D01*
X147184188Y-129410224D01*
X147333488Y-129380527D01*
X147358258Y-129375600D01*
X147535742Y-129375600D01*
X147560512Y-129380527D01*
G37*
G36*
X156037200Y-130313000D02*
G01*
X154935200Y-130313000D01*
X154935200Y-129311000D01*
X156037200Y-129311000D01*
X156037200Y-130313000D01*
G37*
G36*
X157637200Y-130313000D02*
G01*
X156535200Y-130313000D01*
X156535200Y-129311000D01*
X157637200Y-129311000D01*
X157637200Y-130313000D01*
G37*
G36*
X152526741Y-126925569D02*
G01*
X151606088Y-127846222D01*
X150544013Y-126784147D01*
X151464666Y-125863494D01*
X152526741Y-126925569D01*
G37*
G36*
X161048000Y-126885000D02*
G01*
X159246000Y-126885000D01*
X159246000Y-125083000D01*
X161048000Y-125083000D01*
X161048000Y-126885000D01*
G37*
G36*
X133108000Y-126885000D02*
G01*
X131306000Y-126885000D01*
X131306000Y-125083000D01*
X133108000Y-125083000D01*
X133108000Y-126885000D01*
G37*
G36*
X162800512Y-125087927D02*
G01*
X162949812Y-125117624D01*
X163113784Y-125185544D01*
X163261354Y-125284147D01*
X163386853Y-125409646D01*
X163485456Y-125557216D01*
X163553376Y-125721188D01*
X163588000Y-125895259D01*
X163588000Y-126072741D01*
X163553376Y-126246812D01*
X163485456Y-126410784D01*
X163386853Y-126558354D01*
X163261354Y-126683853D01*
X163113784Y-126782456D01*
X162949812Y-126850376D01*
X162800512Y-126880073D01*
X162775742Y-126885000D01*
X162598258Y-126885000D01*
X162573488Y-126880073D01*
X162424188Y-126850376D01*
X162260216Y-126782456D01*
X162112646Y-126683853D01*
X161987147Y-126558354D01*
X161888544Y-126410784D01*
X161820624Y-126246812D01*
X161786000Y-126072741D01*
X161786000Y-125895259D01*
X161820624Y-125721188D01*
X161888544Y-125557216D01*
X161987147Y-125409646D01*
X162112646Y-125284147D01*
X162260216Y-125185544D01*
X162424188Y-125117624D01*
X162573488Y-125087927D01*
X162598258Y-125083000D01*
X162775742Y-125083000D01*
X162800512Y-125087927D01*
G37*
G36*
X134860512Y-125087927D02*
G01*
X135009812Y-125117624D01*
X135173784Y-125185544D01*
X135321354Y-125284147D01*
X135446853Y-125409646D01*
X135545456Y-125557216D01*
X135613376Y-125721188D01*
X135648000Y-125895259D01*
X135648000Y-126072741D01*
X135613376Y-126246812D01*
X135545456Y-126410784D01*
X135446853Y-126558354D01*
X135321354Y-126683853D01*
X135173784Y-126782456D01*
X135009812Y-126850376D01*
X134860512Y-126880073D01*
X134835742Y-126885000D01*
X134658258Y-126885000D01*
X134633488Y-126880073D01*
X134484188Y-126850376D01*
X134320216Y-126782456D01*
X134172646Y-126683853D01*
X134047147Y-126558354D01*
X133948544Y-126410784D01*
X133880624Y-126246812D01*
X133846000Y-126072741D01*
X133846000Y-125895259D01*
X133880624Y-125721188D01*
X133948544Y-125557216D01*
X134047147Y-125409646D01*
X134172646Y-125284147D01*
X134320216Y-125185544D01*
X134484188Y-125117624D01*
X134633488Y-125087927D01*
X134658258Y-125083000D01*
X134835742Y-125083000D01*
X134860512Y-125087927D01*
G37*
G36*
X153728822Y-125723488D02*
G01*
X152808169Y-126644141D01*
X151746094Y-125582066D01*
X152666747Y-124661413D01*
X153728822Y-125723488D01*
G37*
G36*
X150971106Y-125369934D02*
G01*
X150050453Y-126290587D01*
X148988378Y-125228512D01*
X149909031Y-124307859D01*
X150971106Y-125369934D01*
G37*
G36*
X157637200Y-126213000D02*
G01*
X156535200Y-126213000D01*
X156535200Y-125211000D01*
X157637200Y-125211000D01*
X157637200Y-126213000D01*
G37*
G36*
X156037200Y-126213000D02*
G01*
X154935200Y-126213000D01*
X154935200Y-125211000D01*
X156037200Y-125211000D01*
X156037200Y-126213000D01*
G37*
G36*
X152173187Y-124167853D02*
G01*
X151252534Y-125088506D01*
X150190459Y-124026431D01*
X151111112Y-123105778D01*
X152173187Y-124167853D01*
G37*
G36*
X147501513Y-124052338D02*
G01*
X147522132Y-124058593D01*
X147541128Y-124068746D01*
X147562549Y-124086326D01*
X147922274Y-124446051D01*
X147939854Y-124467472D01*
X147950007Y-124486468D01*
X147956262Y-124507087D01*
X147958373Y-124528525D01*
X147956262Y-124549963D01*
X147950007Y-124570582D01*
X147939854Y-124589578D01*
X147922274Y-124610999D01*
X147597905Y-124935368D01*
X147576484Y-124952948D01*
X147557488Y-124963101D01*
X147536869Y-124969356D01*
X147515431Y-124971467D01*
X147493993Y-124969356D01*
X147473374Y-124963101D01*
X147454378Y-124952948D01*
X147432957Y-124935368D01*
X147073232Y-124575643D01*
X147055652Y-124554222D01*
X147045499Y-124535226D01*
X147039244Y-124514607D01*
X147037133Y-124493169D01*
X147039244Y-124471731D01*
X147045499Y-124451112D01*
X147055652Y-124432116D01*
X147073232Y-124410695D01*
X147397601Y-124086326D01*
X147419022Y-124068746D01*
X147438018Y-124058593D01*
X147458637Y-124052338D01*
X147480075Y-124050227D01*
X147501513Y-124052338D01*
G37*
G36*
X144450863Y-124001538D02*
G01*
X144471482Y-124007793D01*
X144490478Y-124017946D01*
X144511899Y-124035526D01*
X144836268Y-124359895D01*
X144853848Y-124381316D01*
X144864001Y-124400312D01*
X144870256Y-124420931D01*
X144872367Y-124442369D01*
X144870256Y-124463807D01*
X144864001Y-124484426D01*
X144853848Y-124503422D01*
X144836268Y-124524843D01*
X144476543Y-124884568D01*
X144455122Y-124902148D01*
X144436126Y-124912301D01*
X144415507Y-124918556D01*
X144394069Y-124920667D01*
X144372631Y-124918556D01*
X144352012Y-124912301D01*
X144333016Y-124902148D01*
X144311595Y-124884568D01*
X143987226Y-124560199D01*
X143969646Y-124538778D01*
X143959493Y-124519782D01*
X143953238Y-124499163D01*
X143951127Y-124477725D01*
X143953238Y-124456287D01*
X143959493Y-124435668D01*
X143969646Y-124416672D01*
X143987226Y-124395251D01*
X144346951Y-124035526D01*
X144368372Y-124017946D01*
X144387368Y-124007793D01*
X144407987Y-124001538D01*
X144429425Y-123999427D01*
X144450863Y-124001538D01*
G37*
G36*
X153330813Y-123734838D02*
G01*
X153351432Y-123741093D01*
X153370428Y-123751246D01*
X153391849Y-123768826D01*
X153751574Y-124128551D01*
X153769154Y-124149972D01*
X153779307Y-124168968D01*
X153785562Y-124189587D01*
X153787673Y-124211025D01*
X153785562Y-124232463D01*
X153779307Y-124253082D01*
X153769154Y-124272078D01*
X153751574Y-124293499D01*
X153427205Y-124617868D01*
X153405784Y-124635448D01*
X153386788Y-124645601D01*
X153366169Y-124651856D01*
X153344731Y-124653967D01*
X153323293Y-124651856D01*
X153302674Y-124645601D01*
X153283678Y-124635448D01*
X153262257Y-124617868D01*
X152902532Y-124258143D01*
X152884952Y-124236722D01*
X152874799Y-124217726D01*
X152868544Y-124197107D01*
X152866433Y-124175669D01*
X152868544Y-124154231D01*
X152874799Y-124133612D01*
X152884952Y-124114616D01*
X152902532Y-124093195D01*
X153226901Y-123768826D01*
X153248322Y-123751246D01*
X153267318Y-123741093D01*
X153287937Y-123734838D01*
X153309375Y-123732727D01*
X153330813Y-123734838D01*
G37*
G36*
X134860512Y-122547927D02*
G01*
X135009812Y-122577624D01*
X135173784Y-122645544D01*
X135321354Y-122744147D01*
X135446853Y-122869646D01*
X135545456Y-123017216D01*
X135613376Y-123181188D01*
X135638546Y-123307731D01*
X135648000Y-123355258D01*
X135648000Y-123532742D01*
X135645409Y-123545766D01*
X135613376Y-123706812D01*
X135545456Y-123870784D01*
X135446853Y-124018354D01*
X135321354Y-124143853D01*
X135173784Y-124242456D01*
X135009812Y-124310376D01*
X134860512Y-124340073D01*
X134835742Y-124345000D01*
X134658258Y-124345000D01*
X134633488Y-124340073D01*
X134484188Y-124310376D01*
X134320216Y-124242456D01*
X134172646Y-124143853D01*
X134047147Y-124018354D01*
X133948544Y-123870784D01*
X133880624Y-123706812D01*
X133848591Y-123545766D01*
X133846000Y-123532742D01*
X133846000Y-123355258D01*
X133855454Y-123307731D01*
X133880624Y-123181188D01*
X133948544Y-123017216D01*
X134047147Y-122869646D01*
X134172646Y-122744147D01*
X134320216Y-122645544D01*
X134484188Y-122577624D01*
X134633488Y-122547927D01*
X134658258Y-122543000D01*
X134835742Y-122543000D01*
X134860512Y-122547927D01*
G37*
G36*
X162800512Y-122547927D02*
G01*
X162949812Y-122577624D01*
X163113784Y-122645544D01*
X163261354Y-122744147D01*
X163386853Y-122869646D01*
X163485456Y-123017216D01*
X163553376Y-123181188D01*
X163578546Y-123307731D01*
X163588000Y-123355258D01*
X163588000Y-123532742D01*
X163585409Y-123545766D01*
X163553376Y-123706812D01*
X163485456Y-123870784D01*
X163386853Y-124018354D01*
X163261354Y-124143853D01*
X163113784Y-124242456D01*
X162949812Y-124310376D01*
X162800512Y-124340073D01*
X162775742Y-124345000D01*
X162598258Y-124345000D01*
X162573488Y-124340073D01*
X162424188Y-124310376D01*
X162260216Y-124242456D01*
X162112646Y-124143853D01*
X161987147Y-124018354D01*
X161888544Y-123870784D01*
X161820624Y-123706812D01*
X161788591Y-123545766D01*
X161786000Y-123532742D01*
X161786000Y-123355258D01*
X161795454Y-123307731D01*
X161820624Y-123181188D01*
X161888544Y-123017216D01*
X161987147Y-122869646D01*
X162112646Y-122744147D01*
X162260216Y-122645544D01*
X162424188Y-122577624D01*
X162573488Y-122547927D01*
X162598258Y-122543000D01*
X162775742Y-122543000D01*
X162800512Y-122547927D01*
G37*
G36*
X160260512Y-122547927D02*
G01*
X160409812Y-122577624D01*
X160573784Y-122645544D01*
X160721354Y-122744147D01*
X160846853Y-122869646D01*
X160945456Y-123017216D01*
X161013376Y-123181188D01*
X161038546Y-123307731D01*
X161048000Y-123355258D01*
X161048000Y-123532742D01*
X161045409Y-123545766D01*
X161013376Y-123706812D01*
X160945456Y-123870784D01*
X160846853Y-124018354D01*
X160721354Y-124143853D01*
X160573784Y-124242456D01*
X160409812Y-124310376D01*
X160260512Y-124340073D01*
X160235742Y-124345000D01*
X160058258Y-124345000D01*
X160033488Y-124340073D01*
X159884188Y-124310376D01*
X159720216Y-124242456D01*
X159572646Y-124143853D01*
X159447147Y-124018354D01*
X159348544Y-123870784D01*
X159280624Y-123706812D01*
X159248591Y-123545766D01*
X159246000Y-123532742D01*
X159246000Y-123355258D01*
X159255454Y-123307731D01*
X159280624Y-123181188D01*
X159348544Y-123017216D01*
X159447147Y-122869646D01*
X159572646Y-122744147D01*
X159720216Y-122645544D01*
X159884188Y-122577624D01*
X160033488Y-122547927D01*
X160058258Y-122543000D01*
X160235742Y-122543000D01*
X160260512Y-122547927D01*
G37*
G36*
X132320512Y-122547927D02*
G01*
X132469812Y-122577624D01*
X132633784Y-122645544D01*
X132781354Y-122744147D01*
X132906853Y-122869646D01*
X133005456Y-123017216D01*
X133073376Y-123181188D01*
X133098546Y-123307731D01*
X133108000Y-123355258D01*
X133108000Y-123532742D01*
X133105409Y-123545766D01*
X133073376Y-123706812D01*
X133005456Y-123870784D01*
X132906853Y-124018354D01*
X132781354Y-124143853D01*
X132633784Y-124242456D01*
X132469812Y-124310376D01*
X132320512Y-124340073D01*
X132295742Y-124345000D01*
X132118258Y-124345000D01*
X132093488Y-124340073D01*
X131944188Y-124310376D01*
X131780216Y-124242456D01*
X131632646Y-124143853D01*
X131507147Y-124018354D01*
X131408544Y-123870784D01*
X131340624Y-123706812D01*
X131308591Y-123545766D01*
X131306000Y-123532742D01*
X131306000Y-123355258D01*
X131315454Y-123307731D01*
X131340624Y-123181188D01*
X131408544Y-123017216D01*
X131507147Y-122869646D01*
X131632646Y-122744147D01*
X131780216Y-122645544D01*
X131944188Y-122577624D01*
X132093488Y-122547927D01*
X132118258Y-122543000D01*
X132295742Y-122543000D01*
X132320512Y-122547927D01*
G37*
G36*
X148187407Y-123366444D02*
G01*
X148208026Y-123372699D01*
X148227022Y-123382852D01*
X148248443Y-123400432D01*
X148608168Y-123760157D01*
X148625748Y-123781578D01*
X148635901Y-123800574D01*
X148642156Y-123821193D01*
X148644267Y-123842631D01*
X148642156Y-123864069D01*
X148635901Y-123884688D01*
X148625748Y-123903684D01*
X148608168Y-123925105D01*
X148283799Y-124249474D01*
X148262378Y-124267054D01*
X148243382Y-124277207D01*
X148222763Y-124283462D01*
X148201325Y-124285573D01*
X148179887Y-124283462D01*
X148159268Y-124277207D01*
X148140272Y-124267054D01*
X148118851Y-124249474D01*
X147759126Y-123889749D01*
X147741546Y-123868328D01*
X147731393Y-123849332D01*
X147725138Y-123828713D01*
X147723027Y-123807275D01*
X147725138Y-123785837D01*
X147731393Y-123765218D01*
X147741546Y-123746222D01*
X147759126Y-123724801D01*
X148083495Y-123400432D01*
X148104916Y-123382852D01*
X148123912Y-123372699D01*
X148144531Y-123366444D01*
X148165969Y-123364333D01*
X148187407Y-123366444D01*
G37*
G36*
X146739513Y-123341138D02*
G01*
X146760132Y-123347393D01*
X146779128Y-123357546D01*
X146800549Y-123375126D01*
X147160274Y-123734851D01*
X147177854Y-123756272D01*
X147188007Y-123775268D01*
X147194262Y-123795887D01*
X147196373Y-123817325D01*
X147194262Y-123838763D01*
X147188007Y-123859382D01*
X147177854Y-123878378D01*
X147160274Y-123899799D01*
X146835905Y-124224168D01*
X146814484Y-124241748D01*
X146795488Y-124251901D01*
X146774869Y-124258156D01*
X146753431Y-124260267D01*
X146731993Y-124258156D01*
X146711374Y-124251901D01*
X146692378Y-124241748D01*
X146670957Y-124224168D01*
X146311232Y-123864443D01*
X146293652Y-123843022D01*
X146283499Y-123824026D01*
X146277244Y-123803407D01*
X146275133Y-123781969D01*
X146277244Y-123760531D01*
X146283499Y-123739912D01*
X146293652Y-123720916D01*
X146311232Y-123699495D01*
X146635601Y-123375126D01*
X146657022Y-123357546D01*
X146676018Y-123347393D01*
X146696637Y-123341138D01*
X146718075Y-123339027D01*
X146739513Y-123341138D01*
G37*
G36*
X143764969Y-123315644D02*
G01*
X143785588Y-123321899D01*
X143804584Y-123332052D01*
X143826005Y-123349632D01*
X144150374Y-123674001D01*
X144167954Y-123695422D01*
X144178107Y-123714418D01*
X144184362Y-123735037D01*
X144186473Y-123756475D01*
X144184362Y-123777913D01*
X144178107Y-123798532D01*
X144167954Y-123817528D01*
X144150374Y-123838949D01*
X143790649Y-124198674D01*
X143769228Y-124216254D01*
X143750232Y-124226407D01*
X143729613Y-124232662D01*
X143708175Y-124234773D01*
X143686737Y-124232662D01*
X143666118Y-124226407D01*
X143647122Y-124216254D01*
X143625701Y-124198674D01*
X143301332Y-123874305D01*
X143283752Y-123852884D01*
X143273599Y-123833888D01*
X143267344Y-123813269D01*
X143265233Y-123791831D01*
X143267344Y-123770393D01*
X143273599Y-123749774D01*
X143283752Y-123730778D01*
X143301332Y-123709357D01*
X143661057Y-123349632D01*
X143682478Y-123332052D01*
X143701474Y-123321899D01*
X143722093Y-123315644D01*
X143743531Y-123313533D01*
X143764969Y-123315644D01*
G37*
G36*
X145207763Y-123239538D02*
G01*
X145228382Y-123245793D01*
X145247378Y-123255946D01*
X145268799Y-123273526D01*
X145593168Y-123597895D01*
X145610748Y-123619316D01*
X145620901Y-123638312D01*
X145627156Y-123658931D01*
X145629267Y-123680369D01*
X145627156Y-123701807D01*
X145620901Y-123722426D01*
X145610748Y-123741422D01*
X145593168Y-123762843D01*
X145233443Y-124122568D01*
X145212022Y-124140148D01*
X145193026Y-124150301D01*
X145172407Y-124156556D01*
X145150969Y-124158667D01*
X145129531Y-124156556D01*
X145108912Y-124150301D01*
X145089916Y-124140148D01*
X145068495Y-124122568D01*
X144744126Y-123798199D01*
X144726546Y-123776778D01*
X144716393Y-123757782D01*
X144710138Y-123737163D01*
X144708027Y-123715725D01*
X144710138Y-123694287D01*
X144716393Y-123673668D01*
X144726546Y-123654672D01*
X144744126Y-123633251D01*
X145103851Y-123273526D01*
X145125272Y-123255946D01*
X145144268Y-123245793D01*
X145164887Y-123239538D01*
X145186325Y-123237427D01*
X145207763Y-123239538D01*
G37*
G36*
X154016707Y-123048944D02*
G01*
X154037326Y-123055199D01*
X154056322Y-123065352D01*
X154077743Y-123082932D01*
X154437468Y-123442657D01*
X154455048Y-123464078D01*
X154465201Y-123483074D01*
X154471456Y-123503693D01*
X154473567Y-123525131D01*
X154471456Y-123546569D01*
X154465201Y-123567188D01*
X154455048Y-123586184D01*
X154437468Y-123607605D01*
X154113099Y-123931974D01*
X154091678Y-123949554D01*
X154072682Y-123959707D01*
X154052063Y-123965962D01*
X154030625Y-123968073D01*
X154009187Y-123965962D01*
X153988568Y-123959707D01*
X153969572Y-123949554D01*
X153948151Y-123931974D01*
X153588426Y-123572249D01*
X153570846Y-123550828D01*
X153560693Y-123531832D01*
X153554438Y-123511213D01*
X153552327Y-123489775D01*
X153554438Y-123468337D01*
X153560693Y-123447718D01*
X153570846Y-123428722D01*
X153588426Y-123407301D01*
X153912795Y-123082932D01*
X153934216Y-123065352D01*
X153953212Y-123055199D01*
X153973831Y-123048944D01*
X153995269Y-123046833D01*
X154016707Y-123048944D01*
G37*
G36*
X149698613Y-122896638D02*
G01*
X149719232Y-122902893D01*
X149738228Y-122913046D01*
X149759649Y-122930626D01*
X150119374Y-123290351D01*
X150136954Y-123311772D01*
X150147107Y-123330768D01*
X150153362Y-123351387D01*
X150155473Y-123372825D01*
X150153362Y-123394263D01*
X150147107Y-123414882D01*
X150136954Y-123433878D01*
X150119374Y-123455299D01*
X149795005Y-123779668D01*
X149773584Y-123797248D01*
X149754588Y-123807401D01*
X149733969Y-123813656D01*
X149712531Y-123815767D01*
X149691093Y-123813656D01*
X149670474Y-123807401D01*
X149651478Y-123797248D01*
X149630057Y-123779668D01*
X149270332Y-123419943D01*
X149252752Y-123398522D01*
X149242599Y-123379526D01*
X149236344Y-123358907D01*
X149234233Y-123337469D01*
X149236344Y-123316031D01*
X149242599Y-123295412D01*
X149252752Y-123276416D01*
X149270332Y-123254995D01*
X149594701Y-122930626D01*
X149616122Y-122913046D01*
X149635118Y-122902893D01*
X149655737Y-122896638D01*
X149677175Y-122894527D01*
X149698613Y-122896638D01*
G37*
G36*
X152612305Y-122397655D02*
G01*
X152646283Y-122407963D01*
X152677604Y-122424704D01*
X152709818Y-122451142D01*
X152749669Y-122490993D01*
X152749675Y-122490998D01*
X153095096Y-122836419D01*
X153095101Y-122836425D01*
X153134952Y-122876276D01*
X153161390Y-122908490D01*
X153178131Y-122939811D01*
X153188439Y-122973789D01*
X153191919Y-123009130D01*
X153188439Y-123044471D01*
X153178131Y-123078449D01*
X153161390Y-123109770D01*
X153134952Y-123141984D01*
X153095101Y-123181835D01*
X153095096Y-123181841D01*
X152696641Y-123580296D01*
X152696635Y-123580301D01*
X152656784Y-123620152D01*
X152624570Y-123646590D01*
X152593249Y-123663331D01*
X152559271Y-123673639D01*
X152523930Y-123677119D01*
X152488589Y-123673639D01*
X152454611Y-123663331D01*
X152423290Y-123646590D01*
X152391076Y-123620152D01*
X152351225Y-123580301D01*
X152351219Y-123580296D01*
X152005798Y-123234875D01*
X152005793Y-123234869D01*
X151965942Y-123195018D01*
X151939504Y-123162804D01*
X151922763Y-123131483D01*
X151912455Y-123097505D01*
X151908975Y-123062164D01*
X151912455Y-123026823D01*
X151922763Y-122992845D01*
X151939504Y-122961524D01*
X151965942Y-122929310D01*
X152005793Y-122889459D01*
X152005798Y-122889453D01*
X152404253Y-122490998D01*
X152404259Y-122490993D01*
X152444110Y-122451142D01*
X152476324Y-122424704D01*
X152507645Y-122407963D01*
X152541623Y-122397655D01*
X152576964Y-122394175D01*
X152612305Y-122397655D01*
G37*
G36*
X147425407Y-122655244D02*
G01*
X147446026Y-122661499D01*
X147465022Y-122671652D01*
X147486443Y-122689232D01*
X147846168Y-123048957D01*
X147863748Y-123070378D01*
X147873901Y-123089374D01*
X147880156Y-123109993D01*
X147882267Y-123131431D01*
X147880156Y-123152869D01*
X147873901Y-123173488D01*
X147863748Y-123192484D01*
X147846168Y-123213905D01*
X147521799Y-123538274D01*
X147500378Y-123555854D01*
X147481382Y-123566007D01*
X147460763Y-123572262D01*
X147439325Y-123574373D01*
X147417887Y-123572262D01*
X147397268Y-123566007D01*
X147378272Y-123555854D01*
X147356851Y-123538274D01*
X146997126Y-123178549D01*
X146979546Y-123157128D01*
X146969393Y-123138132D01*
X146963138Y-123117513D01*
X146961027Y-123096075D01*
X146963138Y-123074637D01*
X146969393Y-123054018D01*
X146979546Y-123035022D01*
X146997126Y-123013601D01*
X147321495Y-122689232D01*
X147342916Y-122671652D01*
X147361912Y-122661499D01*
X147382531Y-122655244D01*
X147403969Y-122653133D01*
X147425407Y-122655244D01*
G37*
G36*
X144521869Y-122553644D02*
G01*
X144542488Y-122559899D01*
X144561484Y-122570052D01*
X144582905Y-122587632D01*
X144907274Y-122912001D01*
X144924854Y-122933422D01*
X144935007Y-122952418D01*
X144941262Y-122973037D01*
X144943373Y-122994475D01*
X144941262Y-123015913D01*
X144935007Y-123036532D01*
X144924854Y-123055528D01*
X144907274Y-123076949D01*
X144547549Y-123436674D01*
X144526128Y-123454254D01*
X144507132Y-123464407D01*
X144486513Y-123470662D01*
X144465075Y-123472773D01*
X144443637Y-123470662D01*
X144423018Y-123464407D01*
X144404022Y-123454254D01*
X144382601Y-123436674D01*
X144058232Y-123112305D01*
X144040652Y-123090884D01*
X144030499Y-123071888D01*
X144024244Y-123051269D01*
X144022133Y-123029831D01*
X144024244Y-123008393D01*
X144030499Y-122987774D01*
X144040652Y-122968778D01*
X144058232Y-122947357D01*
X144417957Y-122587632D01*
X144439378Y-122570052D01*
X144458374Y-122559899D01*
X144478993Y-122553644D01*
X144500431Y-122551533D01*
X144521869Y-122553644D01*
G37*
G36*
X139710777Y-122042055D02*
G01*
X139744755Y-122052363D01*
X139776076Y-122069104D01*
X139808290Y-122095542D01*
X139848141Y-122135393D01*
X139848147Y-122135398D01*
X140246602Y-122533853D01*
X140246607Y-122533859D01*
X140286458Y-122573710D01*
X140312896Y-122605924D01*
X140329637Y-122637245D01*
X140339945Y-122671223D01*
X140343425Y-122706564D01*
X140339945Y-122741905D01*
X140329637Y-122775883D01*
X140312896Y-122807204D01*
X140286458Y-122839418D01*
X140246607Y-122879269D01*
X140246602Y-122879275D01*
X139901181Y-123224696D01*
X139901175Y-123224701D01*
X139861324Y-123264552D01*
X139829110Y-123290990D01*
X139797789Y-123307731D01*
X139763811Y-123318039D01*
X139728470Y-123321519D01*
X139693129Y-123318039D01*
X139659151Y-123307731D01*
X139627830Y-123290990D01*
X139595616Y-123264552D01*
X139555765Y-123224701D01*
X139555759Y-123224696D01*
X139157304Y-122826241D01*
X139157299Y-122826235D01*
X139117448Y-122786384D01*
X139091010Y-122754170D01*
X139074269Y-122722849D01*
X139063961Y-122688871D01*
X139060481Y-122653530D01*
X139063961Y-122618189D01*
X139074269Y-122584211D01*
X139091010Y-122552890D01*
X139117448Y-122520676D01*
X139157299Y-122480825D01*
X139157304Y-122480819D01*
X139502725Y-122135398D01*
X139502731Y-122135393D01*
X139542582Y-122095542D01*
X139574796Y-122069104D01*
X139606117Y-122052363D01*
X139640095Y-122042055D01*
X139675436Y-122038575D01*
X139710777Y-122042055D01*
G37*
G36*
X150384507Y-122210744D02*
G01*
X150405126Y-122216999D01*
X150424122Y-122227152D01*
X150445543Y-122244732D01*
X150805268Y-122604457D01*
X150822848Y-122625878D01*
X150833001Y-122644874D01*
X150839256Y-122665493D01*
X150841367Y-122686931D01*
X150839256Y-122708369D01*
X150833001Y-122728988D01*
X150822848Y-122747984D01*
X150805268Y-122769405D01*
X150480899Y-123093774D01*
X150459478Y-123111354D01*
X150440482Y-123121507D01*
X150419863Y-123127762D01*
X150398425Y-123129873D01*
X150376987Y-123127762D01*
X150356368Y-123121507D01*
X150337372Y-123111354D01*
X150315951Y-123093774D01*
X149956226Y-122734049D01*
X149938646Y-122712628D01*
X149928493Y-122693632D01*
X149922238Y-122673013D01*
X149920127Y-122651575D01*
X149922238Y-122630137D01*
X149928493Y-122609518D01*
X149938646Y-122590522D01*
X149956226Y-122569101D01*
X150280595Y-122244732D01*
X150302016Y-122227152D01*
X150321012Y-122216999D01*
X150341631Y-122210744D01*
X150363069Y-122208633D01*
X150384507Y-122210744D01*
G37*
G36*
X151190146Y-117359369D02*
G01*
X151197161Y-117361497D01*
X151203627Y-117364954D01*
X151214061Y-117373516D01*
X152266748Y-118426203D01*
X152275310Y-118436637D01*
X152278767Y-118443103D01*
X152280895Y-118450118D01*
X152281613Y-118457413D01*
X152280895Y-118464708D01*
X152278767Y-118471723D01*
X152275310Y-118478189D01*
X152266748Y-118488623D01*
X152044911Y-118710460D01*
X152034477Y-118719022D01*
X152028010Y-118722479D01*
X152013074Y-118727010D01*
X151990435Y-118736387D01*
X151970061Y-118750001D01*
X151952734Y-118767328D01*
X151939120Y-118787703D01*
X151929744Y-118810340D01*
X151925213Y-118825276D01*
X151921756Y-118831743D01*
X151913194Y-118842177D01*
X151691357Y-119064014D01*
X151680923Y-119072576D01*
X151674457Y-119076033D01*
X151659520Y-119080564D01*
X151636881Y-119089942D01*
X151616507Y-119103556D01*
X151599180Y-119120883D01*
X151585567Y-119141258D01*
X151576191Y-119163893D01*
X151571660Y-119178830D01*
X151568203Y-119185296D01*
X151559641Y-119195730D01*
X151337804Y-119417567D01*
X151327370Y-119426129D01*
X151320903Y-119429586D01*
X151305967Y-119434117D01*
X151283328Y-119443494D01*
X151262954Y-119457108D01*
X151245627Y-119474435D01*
X151232013Y-119494810D01*
X151222637Y-119517447D01*
X151218106Y-119532383D01*
X151214649Y-119538850D01*
X151206087Y-119549284D01*
X150984250Y-119771121D01*
X150973816Y-119779683D01*
X150967350Y-119783140D01*
X150952413Y-119787671D01*
X150929774Y-119797049D01*
X150909400Y-119810663D01*
X150892073Y-119827990D01*
X150878460Y-119848365D01*
X150869084Y-119871000D01*
X150864553Y-119885937D01*
X150861096Y-119892403D01*
X150852534Y-119902837D01*
X150630697Y-120124674D01*
X150620263Y-120133236D01*
X150613797Y-120136693D01*
X150598860Y-120141224D01*
X150576221Y-120150602D01*
X150555847Y-120164216D01*
X150538520Y-120181543D01*
X150524907Y-120201918D01*
X150515531Y-120224553D01*
X150511000Y-120239490D01*
X150507543Y-120245956D01*
X150498981Y-120256390D01*
X150277144Y-120478227D01*
X150266710Y-120486789D01*
X150260243Y-120490246D01*
X150245307Y-120494777D01*
X150222668Y-120504154D01*
X150202294Y-120517768D01*
X150184967Y-120535095D01*
X150171353Y-120555470D01*
X150161977Y-120578107D01*
X150157446Y-120593043D01*
X150153989Y-120599510D01*
X150145427Y-120609944D01*
X149923590Y-120831781D01*
X149913156Y-120840343D01*
X149906690Y-120843800D01*
X149891753Y-120848331D01*
X149869114Y-120857709D01*
X149848740Y-120871323D01*
X149831413Y-120888650D01*
X149817800Y-120909025D01*
X149808424Y-120931660D01*
X149803893Y-120946597D01*
X149800436Y-120953063D01*
X149791874Y-120963497D01*
X149570037Y-121185334D01*
X149559603Y-121193896D01*
X149553137Y-121197353D01*
X149538200Y-121201884D01*
X149515561Y-121211262D01*
X149495187Y-121224876D01*
X149477860Y-121242203D01*
X149464247Y-121262578D01*
X149454871Y-121285213D01*
X149450340Y-121300150D01*
X149446883Y-121306616D01*
X149438321Y-121317050D01*
X149216484Y-121538887D01*
X149206050Y-121547449D01*
X149199583Y-121550906D01*
X149184647Y-121555437D01*
X149162008Y-121564814D01*
X149141634Y-121578428D01*
X149124307Y-121595755D01*
X149110693Y-121616130D01*
X149101317Y-121638767D01*
X149096786Y-121653703D01*
X149093329Y-121660170D01*
X149084767Y-121670604D01*
X148862930Y-121892441D01*
X148852496Y-121901003D01*
X148846030Y-121904460D01*
X148831093Y-121908991D01*
X148808454Y-121918369D01*
X148788080Y-121931983D01*
X148770753Y-121949310D01*
X148757140Y-121969685D01*
X148747764Y-121992320D01*
X148743233Y-122007257D01*
X148739776Y-122013723D01*
X148731214Y-122024157D01*
X148509377Y-122245994D01*
X148498943Y-122254556D01*
X148492476Y-122258013D01*
X148477540Y-122262544D01*
X148454901Y-122271921D01*
X148434527Y-122285535D01*
X148417200Y-122302862D01*
X148403586Y-122323237D01*
X148394210Y-122345874D01*
X148389679Y-122360810D01*
X148386222Y-122367277D01*
X148377660Y-122377711D01*
X148155823Y-122599548D01*
X148145389Y-122608110D01*
X148138923Y-122611567D01*
X148131908Y-122613695D01*
X148124613Y-122614413D01*
X148117318Y-122613695D01*
X148110303Y-122611567D01*
X148103837Y-122608110D01*
X148093403Y-122599548D01*
X147040716Y-121546861D01*
X147032154Y-121536427D01*
X147028697Y-121529961D01*
X147026569Y-121522946D01*
X147025851Y-121515651D01*
X147026569Y-121508356D01*
X147028697Y-121501341D01*
X147032154Y-121494875D01*
X147040716Y-121484441D01*
X147262553Y-121262604D01*
X147272987Y-121254042D01*
X147279454Y-121250585D01*
X147294390Y-121246054D01*
X147317029Y-121236677D01*
X147337403Y-121223063D01*
X147354730Y-121205736D01*
X147368344Y-121185361D01*
X147377720Y-121162724D01*
X147382251Y-121147788D01*
X147385708Y-121141321D01*
X147394270Y-121130887D01*
X147616107Y-120909050D01*
X147626541Y-120900488D01*
X147633007Y-120897031D01*
X147647944Y-120892500D01*
X147670583Y-120883122D01*
X147690957Y-120869508D01*
X147708284Y-120852181D01*
X147721897Y-120831806D01*
X147731273Y-120809171D01*
X147735804Y-120794234D01*
X147739261Y-120787768D01*
X147747823Y-120777334D01*
X147969660Y-120555497D01*
X147980094Y-120546935D01*
X147986561Y-120543478D01*
X148001497Y-120538947D01*
X148024136Y-120529570D01*
X148044510Y-120515956D01*
X148061837Y-120498629D01*
X148075451Y-120478254D01*
X148084827Y-120455617D01*
X148089358Y-120440681D01*
X148092815Y-120434214D01*
X148101377Y-120423780D01*
X148323214Y-120201943D01*
X148333648Y-120193381D01*
X148340114Y-120189924D01*
X148355051Y-120185393D01*
X148377690Y-120176015D01*
X148398064Y-120162401D01*
X148415391Y-120145074D01*
X148429004Y-120124699D01*
X148438380Y-120102064D01*
X148442911Y-120087127D01*
X148446368Y-120080661D01*
X148454930Y-120070227D01*
X148676767Y-119848390D01*
X148687201Y-119839828D01*
X148693667Y-119836371D01*
X148708604Y-119831840D01*
X148731243Y-119822462D01*
X148751617Y-119808848D01*
X148768944Y-119791521D01*
X148782557Y-119771146D01*
X148791933Y-119748511D01*
X148796464Y-119733574D01*
X148799921Y-119727108D01*
X148808483Y-119716674D01*
X149030320Y-119494837D01*
X149040754Y-119486275D01*
X149047221Y-119482818D01*
X149062157Y-119478287D01*
X149084796Y-119468910D01*
X149105170Y-119455296D01*
X149122497Y-119437969D01*
X149136111Y-119417594D01*
X149145487Y-119394957D01*
X149150018Y-119380021D01*
X149153475Y-119373554D01*
X149162037Y-119363120D01*
X149383874Y-119141283D01*
X149394308Y-119132721D01*
X149400774Y-119129264D01*
X149415711Y-119124733D01*
X149438350Y-119115355D01*
X149458724Y-119101741D01*
X149476051Y-119084414D01*
X149489664Y-119064039D01*
X149499040Y-119041404D01*
X149503571Y-119026467D01*
X149507028Y-119020001D01*
X149515590Y-119009567D01*
X149737427Y-118787730D01*
X149747861Y-118779168D01*
X149754327Y-118775711D01*
X149769264Y-118771180D01*
X149791903Y-118761802D01*
X149812277Y-118748188D01*
X149829604Y-118730861D01*
X149843217Y-118710486D01*
X149852593Y-118687851D01*
X149857124Y-118672914D01*
X149860581Y-118666448D01*
X149869143Y-118656014D01*
X150090980Y-118434177D01*
X150101414Y-118425615D01*
X150107881Y-118422158D01*
X150122817Y-118417627D01*
X150145456Y-118408250D01*
X150165830Y-118394636D01*
X150183157Y-118377309D01*
X150196771Y-118356934D01*
X150206147Y-118334297D01*
X150210678Y-118319361D01*
X150214135Y-118312894D01*
X150222697Y-118302460D01*
X150444534Y-118080623D01*
X150454968Y-118072061D01*
X150461434Y-118068604D01*
X150476371Y-118064073D01*
X150499010Y-118054695D01*
X150519384Y-118041081D01*
X150536711Y-118023754D01*
X150550324Y-118003379D01*
X150559700Y-117980744D01*
X150564231Y-117965807D01*
X150567688Y-117959341D01*
X150576250Y-117948907D01*
X150798087Y-117727070D01*
X150808521Y-117718508D01*
X150814988Y-117715051D01*
X150829924Y-117710520D01*
X150852563Y-117701143D01*
X150872937Y-117687529D01*
X150890264Y-117670202D01*
X150903878Y-117649827D01*
X150913254Y-117627190D01*
X150917785Y-117612254D01*
X150921242Y-117605787D01*
X150929804Y-117595353D01*
X151151641Y-117373516D01*
X151162075Y-117364954D01*
X151168541Y-117361497D01*
X151175556Y-117359369D01*
X151182851Y-117358651D01*
X151190146Y-117359369D01*
G37*
G36*
X142245244Y-117359369D02*
G01*
X142252259Y-117361497D01*
X142258725Y-117364954D01*
X142269159Y-117373516D01*
X142490996Y-117595353D01*
X142499558Y-117605787D01*
X142503015Y-117612254D01*
X142507546Y-117627190D01*
X142516923Y-117649829D01*
X142530537Y-117670203D01*
X142547864Y-117687530D01*
X142568239Y-117701144D01*
X142590876Y-117710520D01*
X142605812Y-117715051D01*
X142612279Y-117718508D01*
X142622713Y-117727070D01*
X142844550Y-117948907D01*
X142853112Y-117959341D01*
X142856569Y-117965807D01*
X142861100Y-117980744D01*
X142870478Y-118003383D01*
X142884092Y-118023757D01*
X142901419Y-118041084D01*
X142921794Y-118054697D01*
X142944429Y-118064073D01*
X142959366Y-118068604D01*
X142965832Y-118072061D01*
X142976266Y-118080623D01*
X143198103Y-118302460D01*
X143206665Y-118312894D01*
X143210122Y-118319361D01*
X143214653Y-118334297D01*
X143224030Y-118356936D01*
X143237644Y-118377310D01*
X143254971Y-118394637D01*
X143275346Y-118408251D01*
X143297983Y-118417627D01*
X143312919Y-118422158D01*
X143319386Y-118425615D01*
X143329820Y-118434177D01*
X143551657Y-118656014D01*
X143560219Y-118666448D01*
X143563676Y-118672914D01*
X143568207Y-118687851D01*
X143577585Y-118710490D01*
X143591199Y-118730864D01*
X143608526Y-118748191D01*
X143628901Y-118761804D01*
X143651536Y-118771180D01*
X143666473Y-118775711D01*
X143672939Y-118779168D01*
X143683373Y-118787730D01*
X143905210Y-119009567D01*
X143913772Y-119020001D01*
X143917229Y-119026467D01*
X143921760Y-119041404D01*
X143931138Y-119064043D01*
X143944752Y-119084417D01*
X143962079Y-119101744D01*
X143982454Y-119115357D01*
X144005089Y-119124733D01*
X144020026Y-119129264D01*
X144026492Y-119132721D01*
X144036926Y-119141283D01*
X144258763Y-119363120D01*
X144267325Y-119373554D01*
X144270782Y-119380021D01*
X144275313Y-119394957D01*
X144284690Y-119417596D01*
X144298304Y-119437970D01*
X144315631Y-119455297D01*
X144336006Y-119468911D01*
X144358643Y-119478287D01*
X144373579Y-119482818D01*
X144380046Y-119486275D01*
X144390480Y-119494837D01*
X144612317Y-119716674D01*
X144620879Y-119727108D01*
X144624336Y-119733574D01*
X144628867Y-119748511D01*
X144638245Y-119771150D01*
X144651859Y-119791524D01*
X144669186Y-119808851D01*
X144689561Y-119822464D01*
X144712196Y-119831840D01*
X144727133Y-119836371D01*
X144733599Y-119839828D01*
X144744033Y-119848390D01*
X144965870Y-120070227D01*
X144974432Y-120080661D01*
X144977889Y-120087127D01*
X144982420Y-120102064D01*
X144991798Y-120124703D01*
X145005412Y-120145077D01*
X145022739Y-120162404D01*
X145043114Y-120176017D01*
X145065749Y-120185393D01*
X145080686Y-120189924D01*
X145087152Y-120193381D01*
X145097586Y-120201943D01*
X145319423Y-120423780D01*
X145327985Y-120434214D01*
X145331442Y-120440681D01*
X145335973Y-120455617D01*
X145345350Y-120478256D01*
X145358964Y-120498630D01*
X145376291Y-120515957D01*
X145396666Y-120529571D01*
X145419303Y-120538947D01*
X145434239Y-120543478D01*
X145440706Y-120546935D01*
X145451140Y-120555497D01*
X145672977Y-120777334D01*
X145681539Y-120787768D01*
X145684996Y-120794234D01*
X145689527Y-120809171D01*
X145698905Y-120831810D01*
X145712519Y-120852184D01*
X145729846Y-120869511D01*
X145750221Y-120883124D01*
X145772856Y-120892500D01*
X145787793Y-120897031D01*
X145794259Y-120900488D01*
X145804693Y-120909050D01*
X146026530Y-121130887D01*
X146035092Y-121141321D01*
X146038549Y-121147788D01*
X146043080Y-121162724D01*
X146052457Y-121185363D01*
X146066071Y-121205737D01*
X146083398Y-121223064D01*
X146103773Y-121236678D01*
X146126410Y-121246054D01*
X146141346Y-121250585D01*
X146147813Y-121254042D01*
X146158247Y-121262604D01*
X146380084Y-121484441D01*
X146388646Y-121494875D01*
X146392103Y-121501341D01*
X146394231Y-121508356D01*
X146394949Y-121515651D01*
X146394231Y-121522946D01*
X146392103Y-121529961D01*
X146388646Y-121536427D01*
X146380084Y-121546861D01*
X145327397Y-122599548D01*
X145316963Y-122608110D01*
X145310497Y-122611567D01*
X145303482Y-122613695D01*
X145296187Y-122614413D01*
X145288892Y-122613695D01*
X145281877Y-122611567D01*
X145275411Y-122608110D01*
X145264977Y-122599548D01*
X145043140Y-122377711D01*
X145034578Y-122367277D01*
X145031121Y-122360810D01*
X145026590Y-122345874D01*
X145017213Y-122323235D01*
X145003599Y-122302861D01*
X144986272Y-122285534D01*
X144965897Y-122271920D01*
X144943260Y-122262544D01*
X144928324Y-122258013D01*
X144921857Y-122254556D01*
X144911423Y-122245994D01*
X144689586Y-122024157D01*
X144681024Y-122013723D01*
X144677567Y-122007257D01*
X144673036Y-121992320D01*
X144663658Y-121969681D01*
X144650044Y-121949307D01*
X144632717Y-121931980D01*
X144612342Y-121918367D01*
X144589707Y-121908991D01*
X144574770Y-121904460D01*
X144568304Y-121901003D01*
X144557870Y-121892441D01*
X144336033Y-121670604D01*
X144327471Y-121660170D01*
X144324014Y-121653703D01*
X144319483Y-121638767D01*
X144310106Y-121616128D01*
X144296492Y-121595754D01*
X144279165Y-121578427D01*
X144258790Y-121564813D01*
X144236153Y-121555437D01*
X144221217Y-121550906D01*
X144214750Y-121547449D01*
X144204316Y-121538887D01*
X143982479Y-121317050D01*
X143973917Y-121306616D01*
X143970460Y-121300150D01*
X143965929Y-121285213D01*
X143956551Y-121262574D01*
X143942937Y-121242200D01*
X143925610Y-121224873D01*
X143905235Y-121211260D01*
X143882600Y-121201884D01*
X143867663Y-121197353D01*
X143861197Y-121193896D01*
X143850763Y-121185334D01*
X143628926Y-120963497D01*
X143620364Y-120953063D01*
X143616907Y-120946597D01*
X143612376Y-120931660D01*
X143602998Y-120909021D01*
X143589384Y-120888647D01*
X143572057Y-120871320D01*
X143551682Y-120857707D01*
X143529047Y-120848331D01*
X143514110Y-120843800D01*
X143507644Y-120840343D01*
X143497210Y-120831781D01*
X143275373Y-120609944D01*
X143266811Y-120599510D01*
X143263354Y-120593043D01*
X143258823Y-120578107D01*
X143249446Y-120555468D01*
X143235832Y-120535094D01*
X143218505Y-120517767D01*
X143198130Y-120504153D01*
X143175493Y-120494777D01*
X143160557Y-120490246D01*
X143154090Y-120486789D01*
X143143656Y-120478227D01*
X142921819Y-120256390D01*
X142913257Y-120245956D01*
X142909800Y-120239490D01*
X142905269Y-120224553D01*
X142895891Y-120201914D01*
X142882277Y-120181540D01*
X142864950Y-120164213D01*
X142844575Y-120150600D01*
X142821940Y-120141224D01*
X142807003Y-120136693D01*
X142800537Y-120133236D01*
X142790103Y-120124674D01*
X142568266Y-119902837D01*
X142559704Y-119892403D01*
X142556247Y-119885937D01*
X142551716Y-119871000D01*
X142542338Y-119848361D01*
X142528724Y-119827987D01*
X142511397Y-119810660D01*
X142491022Y-119797047D01*
X142468387Y-119787671D01*
X142453450Y-119783140D01*
X142446984Y-119779683D01*
X142436550Y-119771121D01*
X142214713Y-119549284D01*
X142206151Y-119538850D01*
X142202694Y-119532383D01*
X142198163Y-119517447D01*
X142188786Y-119494808D01*
X142175172Y-119474434D01*
X142157845Y-119457107D01*
X142137470Y-119443493D01*
X142114833Y-119434117D01*
X142099897Y-119429586D01*
X142093430Y-119426129D01*
X142082996Y-119417567D01*
X141861159Y-119195730D01*
X141852597Y-119185296D01*
X141849140Y-119178830D01*
X141844609Y-119163893D01*
X141835231Y-119141254D01*
X141821617Y-119120880D01*
X141804290Y-119103553D01*
X141783915Y-119089940D01*
X141761280Y-119080564D01*
X141746343Y-119076033D01*
X141739877Y-119072576D01*
X141729443Y-119064014D01*
X141507606Y-118842177D01*
X141499044Y-118831743D01*
X141495587Y-118825276D01*
X141491056Y-118810340D01*
X141481679Y-118787701D01*
X141468065Y-118767327D01*
X141450738Y-118750000D01*
X141430363Y-118736386D01*
X141407726Y-118727010D01*
X141392790Y-118722479D01*
X141386323Y-118719022D01*
X141375889Y-118710460D01*
X141154052Y-118488623D01*
X141145490Y-118478189D01*
X141142033Y-118471723D01*
X141139905Y-118464708D01*
X141139187Y-118457413D01*
X141139905Y-118450118D01*
X141142033Y-118443103D01*
X141145490Y-118436637D01*
X141154052Y-118426203D01*
X142206739Y-117373516D01*
X142217173Y-117364954D01*
X142223639Y-117361497D01*
X142230654Y-117359369D01*
X142237949Y-117358651D01*
X142245244Y-117359369D01*
G37*
G36*
X151498611Y-121283961D02*
G01*
X151532589Y-121294269D01*
X151563910Y-121311010D01*
X151596124Y-121337448D01*
X151635975Y-121377299D01*
X151635981Y-121377304D01*
X151981402Y-121722725D01*
X151981407Y-121722731D01*
X152021258Y-121762582D01*
X152047696Y-121794796D01*
X152064437Y-121826117D01*
X152074745Y-121860095D01*
X152078225Y-121895436D01*
X152074745Y-121930777D01*
X152064437Y-121964755D01*
X152047696Y-121996076D01*
X152021258Y-122028290D01*
X151981407Y-122068141D01*
X151981402Y-122068147D01*
X151582947Y-122466602D01*
X151582941Y-122466607D01*
X151543090Y-122506458D01*
X151510876Y-122532896D01*
X151479555Y-122549637D01*
X151445577Y-122559945D01*
X151410236Y-122563425D01*
X151374895Y-122559945D01*
X151340917Y-122549637D01*
X151309596Y-122532896D01*
X151277382Y-122506458D01*
X151237531Y-122466607D01*
X151237525Y-122466602D01*
X150892104Y-122121181D01*
X150892099Y-122121175D01*
X150852248Y-122081324D01*
X150825810Y-122049110D01*
X150809069Y-122017789D01*
X150798761Y-121983811D01*
X150795281Y-121948470D01*
X150798761Y-121913129D01*
X150809069Y-121879151D01*
X150825810Y-121847830D01*
X150852248Y-121815616D01*
X150892099Y-121775765D01*
X150892104Y-121775759D01*
X151290559Y-121377304D01*
X151290565Y-121377299D01*
X151330416Y-121337448D01*
X151362630Y-121311010D01*
X151393951Y-121294269D01*
X151427929Y-121283961D01*
X151463270Y-121280481D01*
X151498611Y-121283961D01*
G37*
G36*
X154136305Y-121000655D02*
G01*
X154170283Y-121010963D01*
X154201604Y-121027704D01*
X154233818Y-121054142D01*
X154273669Y-121093993D01*
X154273675Y-121093998D01*
X154619096Y-121439419D01*
X154619101Y-121439425D01*
X154658952Y-121479276D01*
X154685390Y-121511490D01*
X154702131Y-121542811D01*
X154712439Y-121576789D01*
X154715919Y-121612130D01*
X154712439Y-121647471D01*
X154702131Y-121681449D01*
X154685390Y-121712770D01*
X154658952Y-121744984D01*
X154619101Y-121784835D01*
X154619096Y-121784841D01*
X154220641Y-122183296D01*
X154220635Y-122183301D01*
X154180784Y-122223152D01*
X154148570Y-122249590D01*
X154117249Y-122266331D01*
X154083271Y-122276639D01*
X154047930Y-122280119D01*
X154012589Y-122276639D01*
X153978611Y-122266331D01*
X153947290Y-122249590D01*
X153915076Y-122223152D01*
X153875225Y-122183301D01*
X153875219Y-122183296D01*
X153529798Y-121837875D01*
X153529793Y-121837869D01*
X153489942Y-121798018D01*
X153463504Y-121765804D01*
X153446763Y-121734483D01*
X153436455Y-121700505D01*
X153432975Y-121665164D01*
X153436455Y-121629823D01*
X153446763Y-121595845D01*
X153463504Y-121564524D01*
X153489942Y-121532310D01*
X153529793Y-121492459D01*
X153529798Y-121492453D01*
X153928253Y-121093998D01*
X153928259Y-121093993D01*
X153968110Y-121054142D01*
X154000324Y-121027704D01*
X154031645Y-121010963D01*
X154065623Y-121000655D01*
X154100964Y-120997175D01*
X154136305Y-121000655D01*
G37*
G36*
X140824471Y-120928361D02*
G01*
X140858449Y-120938669D01*
X140889770Y-120955410D01*
X140921984Y-120981848D01*
X140961835Y-121021699D01*
X140961841Y-121021704D01*
X141360296Y-121420159D01*
X141360301Y-121420165D01*
X141400152Y-121460016D01*
X141426590Y-121492230D01*
X141443331Y-121523551D01*
X141453639Y-121557529D01*
X141457119Y-121592870D01*
X141453639Y-121628211D01*
X141443331Y-121662189D01*
X141426590Y-121693510D01*
X141400152Y-121725724D01*
X141360301Y-121765575D01*
X141360296Y-121765581D01*
X141014875Y-122111002D01*
X141014869Y-122111007D01*
X140975018Y-122150858D01*
X140942804Y-122177296D01*
X140911483Y-122194037D01*
X140877505Y-122204345D01*
X140842164Y-122207825D01*
X140806823Y-122204345D01*
X140772845Y-122194037D01*
X140741524Y-122177296D01*
X140709310Y-122150858D01*
X140669459Y-122111007D01*
X140669453Y-122111002D01*
X140270998Y-121712547D01*
X140270993Y-121712541D01*
X140231142Y-121672690D01*
X140204704Y-121640476D01*
X140187963Y-121609155D01*
X140177655Y-121575177D01*
X140174175Y-121539836D01*
X140177655Y-121504495D01*
X140187963Y-121470517D01*
X140204704Y-121439196D01*
X140231142Y-121406982D01*
X140270993Y-121367131D01*
X140270998Y-121367125D01*
X140616419Y-121021704D01*
X140616425Y-121021699D01*
X140656276Y-120981848D01*
X140688490Y-120955410D01*
X140719811Y-120938669D01*
X140753789Y-120928361D01*
X140789130Y-120924881D01*
X140824471Y-120928361D01*
G37*
G36*
X138237577Y-120670455D02*
G01*
X138271555Y-120680763D01*
X138302876Y-120697504D01*
X138335090Y-120723942D01*
X138374941Y-120763793D01*
X138374947Y-120763798D01*
X138773402Y-121162253D01*
X138773407Y-121162259D01*
X138813258Y-121202110D01*
X138839696Y-121234324D01*
X138856437Y-121265645D01*
X138866745Y-121299623D01*
X138870225Y-121334964D01*
X138866745Y-121370305D01*
X138856437Y-121404283D01*
X138839696Y-121435604D01*
X138813258Y-121467818D01*
X138773407Y-121507669D01*
X138773402Y-121507675D01*
X138427981Y-121853096D01*
X138427975Y-121853101D01*
X138388124Y-121892952D01*
X138355910Y-121919390D01*
X138324589Y-121936131D01*
X138290611Y-121946439D01*
X138255270Y-121949919D01*
X138219929Y-121946439D01*
X138185951Y-121936131D01*
X138154630Y-121919390D01*
X138122416Y-121892952D01*
X138082565Y-121853101D01*
X138082559Y-121853096D01*
X137684104Y-121454641D01*
X137684099Y-121454635D01*
X137644248Y-121414784D01*
X137617810Y-121382570D01*
X137601069Y-121351249D01*
X137590761Y-121317271D01*
X137587281Y-121281930D01*
X137590761Y-121246589D01*
X137601069Y-121212611D01*
X137617810Y-121181290D01*
X137644248Y-121149076D01*
X137684099Y-121109225D01*
X137684104Y-121109219D01*
X138029525Y-120763798D01*
X138029531Y-120763793D01*
X138069382Y-120723942D01*
X138101596Y-120697504D01*
X138132917Y-120680763D01*
X138166895Y-120670455D01*
X138202236Y-120666975D01*
X138237577Y-120670455D01*
G37*
G36*
X162800512Y-120007927D02*
G01*
X162949812Y-120037624D01*
X163113784Y-120105544D01*
X163261354Y-120204147D01*
X163386853Y-120329646D01*
X163485456Y-120477216D01*
X163553376Y-120641188D01*
X163571722Y-120733423D01*
X163587693Y-120813713D01*
X163588000Y-120815259D01*
X163588000Y-120992741D01*
X163553376Y-121166812D01*
X163485456Y-121330784D01*
X163386853Y-121478354D01*
X163261354Y-121603853D01*
X163113784Y-121702456D01*
X162949812Y-121770376D01*
X162800512Y-121800073D01*
X162775742Y-121805000D01*
X162598258Y-121805000D01*
X162573488Y-121800073D01*
X162424188Y-121770376D01*
X162260216Y-121702456D01*
X162112646Y-121603853D01*
X161987147Y-121478354D01*
X161888544Y-121330784D01*
X161820624Y-121166812D01*
X161786000Y-120992741D01*
X161786000Y-120815259D01*
X161786308Y-120813713D01*
X161802278Y-120733423D01*
X161820624Y-120641188D01*
X161888544Y-120477216D01*
X161987147Y-120329646D01*
X162112646Y-120204147D01*
X162260216Y-120105544D01*
X162424188Y-120037624D01*
X162573488Y-120007927D01*
X162598258Y-120003000D01*
X162775742Y-120003000D01*
X162800512Y-120007927D01*
G37*
G36*
X160260512Y-120007927D02*
G01*
X160409812Y-120037624D01*
X160573784Y-120105544D01*
X160721354Y-120204147D01*
X160846853Y-120329646D01*
X160945456Y-120477216D01*
X161013376Y-120641188D01*
X161031722Y-120733423D01*
X161047693Y-120813713D01*
X161048000Y-120815259D01*
X161048000Y-120992741D01*
X161013376Y-121166812D01*
X160945456Y-121330784D01*
X160846853Y-121478354D01*
X160721354Y-121603853D01*
X160573784Y-121702456D01*
X160409812Y-121770376D01*
X160260512Y-121800073D01*
X160235742Y-121805000D01*
X160058258Y-121805000D01*
X160033488Y-121800073D01*
X159884188Y-121770376D01*
X159720216Y-121702456D01*
X159572646Y-121603853D01*
X159447147Y-121478354D01*
X159348544Y-121330784D01*
X159280624Y-121166812D01*
X159246000Y-120992741D01*
X159246000Y-120815259D01*
X159246308Y-120813713D01*
X159262278Y-120733423D01*
X159280624Y-120641188D01*
X159348544Y-120477216D01*
X159447147Y-120329646D01*
X159572646Y-120204147D01*
X159720216Y-120105544D01*
X159884188Y-120037624D01*
X160033488Y-120007927D01*
X160058258Y-120003000D01*
X160235742Y-120003000D01*
X160260512Y-120007927D01*
G37*
G36*
X134860512Y-120007927D02*
G01*
X135009812Y-120037624D01*
X135173784Y-120105544D01*
X135321354Y-120204147D01*
X135446853Y-120329646D01*
X135545456Y-120477216D01*
X135613376Y-120641188D01*
X135631722Y-120733423D01*
X135647693Y-120813713D01*
X135648000Y-120815259D01*
X135648000Y-120992741D01*
X135613376Y-121166812D01*
X135545456Y-121330784D01*
X135446853Y-121478354D01*
X135321354Y-121603853D01*
X135173784Y-121702456D01*
X135009812Y-121770376D01*
X134860512Y-121800073D01*
X134835742Y-121805000D01*
X134658258Y-121805000D01*
X134633488Y-121800073D01*
X134484188Y-121770376D01*
X134320216Y-121702456D01*
X134172646Y-121603853D01*
X134047147Y-121478354D01*
X133948544Y-121330784D01*
X133880624Y-121166812D01*
X133846000Y-120992741D01*
X133846000Y-120815259D01*
X133846308Y-120813713D01*
X133862278Y-120733423D01*
X133880624Y-120641188D01*
X133948544Y-120477216D01*
X134047147Y-120329646D01*
X134172646Y-120204147D01*
X134320216Y-120105544D01*
X134484188Y-120037624D01*
X134633488Y-120007927D01*
X134658258Y-120003000D01*
X134835742Y-120003000D01*
X134860512Y-120007927D01*
G37*
G36*
X132320512Y-120007927D02*
G01*
X132469812Y-120037624D01*
X132633784Y-120105544D01*
X132781354Y-120204147D01*
X132906853Y-120329646D01*
X133005456Y-120477216D01*
X133073376Y-120641188D01*
X133091722Y-120733423D01*
X133107693Y-120813713D01*
X133108000Y-120815259D01*
X133108000Y-120992741D01*
X133073376Y-121166812D01*
X133005456Y-121330784D01*
X132906853Y-121478354D01*
X132781354Y-121603853D01*
X132633784Y-121702456D01*
X132469812Y-121770376D01*
X132320512Y-121800073D01*
X132295742Y-121805000D01*
X132118258Y-121805000D01*
X132093488Y-121800073D01*
X131944188Y-121770376D01*
X131780216Y-121702456D01*
X131632646Y-121603853D01*
X131507147Y-121478354D01*
X131408544Y-121330784D01*
X131340624Y-121166812D01*
X131306000Y-120992741D01*
X131306000Y-120815259D01*
X131306308Y-120813713D01*
X131322278Y-120733423D01*
X131340624Y-120641188D01*
X131408544Y-120477216D01*
X131507147Y-120329646D01*
X131632646Y-120204147D01*
X131780216Y-120105544D01*
X131944188Y-120037624D01*
X132093488Y-120007927D01*
X132118258Y-120003000D01*
X132295742Y-120003000D01*
X132320512Y-120007927D01*
G37*
G36*
X153022611Y-119886961D02*
G01*
X153056589Y-119897269D01*
X153087910Y-119914010D01*
X153120124Y-119940448D01*
X153159975Y-119980299D01*
X153159981Y-119980304D01*
X153505402Y-120325725D01*
X153505407Y-120325731D01*
X153545258Y-120365582D01*
X153571696Y-120397796D01*
X153588437Y-120429117D01*
X153598745Y-120463095D01*
X153602225Y-120498436D01*
X153598745Y-120533777D01*
X153588437Y-120567755D01*
X153571696Y-120599076D01*
X153545258Y-120631290D01*
X153505407Y-120671141D01*
X153505402Y-120671147D01*
X153106947Y-121069602D01*
X153106941Y-121069607D01*
X153067090Y-121109458D01*
X153034876Y-121135896D01*
X153003555Y-121152637D01*
X152969577Y-121162945D01*
X152934236Y-121166425D01*
X152898895Y-121162945D01*
X152864917Y-121152637D01*
X152833596Y-121135896D01*
X152801382Y-121109458D01*
X152761531Y-121069607D01*
X152761525Y-121069602D01*
X152416104Y-120724181D01*
X152416099Y-120724175D01*
X152376248Y-120684324D01*
X152349810Y-120652110D01*
X152333069Y-120620789D01*
X152322761Y-120586811D01*
X152319281Y-120551470D01*
X152322761Y-120516129D01*
X152333069Y-120482151D01*
X152349810Y-120450830D01*
X152376248Y-120418616D01*
X152416099Y-120378765D01*
X152416104Y-120378759D01*
X152814559Y-119980304D01*
X152814565Y-119980299D01*
X152854416Y-119940448D01*
X152886630Y-119914010D01*
X152917951Y-119897269D01*
X152951929Y-119886961D01*
X152987270Y-119883481D01*
X153022611Y-119886961D01*
G37*
G36*
X154814063Y-120026438D02*
G01*
X154834682Y-120032693D01*
X154853678Y-120042846D01*
X154875099Y-120060426D01*
X155199468Y-120384795D01*
X155217048Y-120406216D01*
X155227201Y-120425212D01*
X155233456Y-120445831D01*
X155235567Y-120467269D01*
X155233456Y-120488707D01*
X155227201Y-120509326D01*
X155217048Y-120528322D01*
X155199468Y-120549743D01*
X154839743Y-120909468D01*
X154818322Y-120927048D01*
X154799326Y-120937201D01*
X154778707Y-120943456D01*
X154757269Y-120945567D01*
X154735831Y-120943456D01*
X154715212Y-120937201D01*
X154696216Y-120927048D01*
X154674795Y-120909468D01*
X154350426Y-120585099D01*
X154332846Y-120563678D01*
X154322693Y-120544682D01*
X154316438Y-120524063D01*
X154314327Y-120502625D01*
X154316438Y-120481187D01*
X154322693Y-120460568D01*
X154332846Y-120441572D01*
X154350426Y-120420151D01*
X154710151Y-120060426D01*
X154731572Y-120042846D01*
X154750568Y-120032693D01*
X154771187Y-120026438D01*
X154792625Y-120024327D01*
X154814063Y-120026438D01*
G37*
G36*
X139351271Y-119556761D02*
G01*
X139385249Y-119567069D01*
X139416570Y-119583810D01*
X139448784Y-119610248D01*
X139488635Y-119650099D01*
X139488641Y-119650104D01*
X139887096Y-120048559D01*
X139887101Y-120048565D01*
X139926952Y-120088416D01*
X139953390Y-120120630D01*
X139970131Y-120151951D01*
X139980439Y-120185929D01*
X139983919Y-120221270D01*
X139980439Y-120256611D01*
X139970131Y-120290589D01*
X139953390Y-120321910D01*
X139926952Y-120354124D01*
X139887101Y-120393975D01*
X139887096Y-120393981D01*
X139541675Y-120739402D01*
X139541669Y-120739407D01*
X139501818Y-120779258D01*
X139469604Y-120805696D01*
X139438283Y-120822437D01*
X139404305Y-120832745D01*
X139368964Y-120836225D01*
X139333623Y-120832745D01*
X139299645Y-120822437D01*
X139268324Y-120805696D01*
X139236110Y-120779258D01*
X139196259Y-120739407D01*
X139196253Y-120739402D01*
X138797798Y-120340947D01*
X138797793Y-120340941D01*
X138757942Y-120301090D01*
X138731504Y-120268876D01*
X138714763Y-120237555D01*
X138704455Y-120203577D01*
X138700975Y-120168236D01*
X138704455Y-120132895D01*
X138714763Y-120098917D01*
X138731504Y-120067596D01*
X138757942Y-120035382D01*
X138797793Y-119995531D01*
X138797798Y-119995525D01*
X139143219Y-119650104D01*
X139143225Y-119650099D01*
X139183076Y-119610248D01*
X139215290Y-119583810D01*
X139246611Y-119567069D01*
X139280589Y-119556761D01*
X139315930Y-119553281D01*
X139351271Y-119556761D01*
G37*
G36*
X156453791Y-118967302D02*
G01*
X156492461Y-118979033D01*
X156528100Y-118998083D01*
X156564106Y-119027632D01*
X156603956Y-119067482D01*
X156603962Y-119067487D01*
X156984739Y-119448264D01*
X156984744Y-119448270D01*
X157024594Y-119488120D01*
X157054143Y-119524126D01*
X157073193Y-119559765D01*
X157084924Y-119598435D01*
X157088884Y-119638653D01*
X157084924Y-119678871D01*
X157073193Y-119717541D01*
X157054143Y-119753180D01*
X157024594Y-119789186D01*
X156984744Y-119829036D01*
X156984739Y-119829042D01*
X156303442Y-120510339D01*
X156303436Y-120510344D01*
X156263586Y-120550194D01*
X156227580Y-120579743D01*
X156191941Y-120598793D01*
X156153271Y-120610524D01*
X156113053Y-120614484D01*
X156072835Y-120610524D01*
X156034165Y-120598793D01*
X155998526Y-120579743D01*
X155962520Y-120550194D01*
X155922670Y-120510344D01*
X155922664Y-120510339D01*
X155541887Y-120129562D01*
X155541882Y-120129556D01*
X155502032Y-120089706D01*
X155472483Y-120053700D01*
X155453433Y-120018061D01*
X155441702Y-119979391D01*
X155437742Y-119939173D01*
X155441702Y-119898955D01*
X155453433Y-119860285D01*
X155472483Y-119824646D01*
X155502032Y-119788640D01*
X155541882Y-119748790D01*
X155541887Y-119748784D01*
X156223184Y-119067487D01*
X156223190Y-119067482D01*
X156263040Y-119027632D01*
X156299046Y-118998083D01*
X156334685Y-118979033D01*
X156373355Y-118967302D01*
X156413573Y-118963342D01*
X156453791Y-118967302D01*
G37*
G36*
X154128169Y-119340544D02*
G01*
X154148788Y-119346799D01*
X154167784Y-119356952D01*
X154189205Y-119374532D01*
X154513574Y-119698901D01*
X154531154Y-119720322D01*
X154541307Y-119739318D01*
X154547562Y-119759937D01*
X154549673Y-119781375D01*
X154547562Y-119802813D01*
X154541307Y-119823432D01*
X154531154Y-119842428D01*
X154513574Y-119863849D01*
X154153849Y-120223574D01*
X154132428Y-120241154D01*
X154113432Y-120251307D01*
X154092813Y-120257562D01*
X154071375Y-120259673D01*
X154049937Y-120257562D01*
X154029318Y-120251307D01*
X154010322Y-120241154D01*
X153988901Y-120223574D01*
X153664532Y-119899205D01*
X153646952Y-119877784D01*
X153636799Y-119858788D01*
X153630544Y-119838169D01*
X153628433Y-119816731D01*
X153630544Y-119795293D01*
X153636799Y-119774674D01*
X153646952Y-119755678D01*
X153664532Y-119734257D01*
X154024257Y-119374532D01*
X154045678Y-119356952D01*
X154064674Y-119346799D01*
X154085293Y-119340544D01*
X154106731Y-119338433D01*
X154128169Y-119340544D01*
G37*
G36*
X155127965Y-117641476D02*
G01*
X155166635Y-117653207D01*
X155202274Y-117672257D01*
X155238280Y-117701806D01*
X155278130Y-117741656D01*
X155278136Y-117741661D01*
X155658913Y-118122438D01*
X155658918Y-118122444D01*
X155698768Y-118162294D01*
X155728317Y-118198300D01*
X155747367Y-118233939D01*
X155759098Y-118272609D01*
X155763058Y-118312827D01*
X155759098Y-118353045D01*
X155747367Y-118391715D01*
X155728317Y-118427354D01*
X155698768Y-118463360D01*
X155658918Y-118503210D01*
X155658913Y-118503216D01*
X154977616Y-119184513D01*
X154977610Y-119184518D01*
X154937760Y-119224368D01*
X154901754Y-119253917D01*
X154866115Y-119272967D01*
X154827445Y-119284698D01*
X154787227Y-119288658D01*
X154747009Y-119284698D01*
X154708339Y-119272967D01*
X154672700Y-119253917D01*
X154636694Y-119224368D01*
X154596844Y-119184518D01*
X154596838Y-119184513D01*
X154216061Y-118803736D01*
X154216056Y-118803730D01*
X154176206Y-118763880D01*
X154146657Y-118727874D01*
X154127607Y-118692235D01*
X154115876Y-118653565D01*
X154111916Y-118613347D01*
X154115876Y-118573129D01*
X154127607Y-118534459D01*
X154146657Y-118498820D01*
X154176206Y-118462814D01*
X154216056Y-118422964D01*
X154216061Y-118422958D01*
X154897358Y-117741661D01*
X154897364Y-117741656D01*
X154937214Y-117701806D01*
X154973220Y-117672257D01*
X155008859Y-117653207D01*
X155047529Y-117641476D01*
X155087747Y-117637516D01*
X155127965Y-117641476D01*
G37*
G36*
X162785183Y-117464878D02*
G01*
X162949812Y-117497624D01*
X163113784Y-117565544D01*
X163261354Y-117664147D01*
X163386853Y-117789646D01*
X163485456Y-117937216D01*
X163553376Y-118101188D01*
X163579781Y-118233939D01*
X163588000Y-118275258D01*
X163588000Y-118452742D01*
X163585888Y-118463360D01*
X163553376Y-118626812D01*
X163485456Y-118790784D01*
X163386853Y-118938354D01*
X163261354Y-119063853D01*
X163113784Y-119162456D01*
X162949812Y-119230376D01*
X162800512Y-119260073D01*
X162775742Y-119265000D01*
X162598258Y-119265000D01*
X162573488Y-119260073D01*
X162424188Y-119230376D01*
X162260216Y-119162456D01*
X162112646Y-119063853D01*
X161987147Y-118938354D01*
X161888544Y-118790784D01*
X161820624Y-118626812D01*
X161788112Y-118463360D01*
X161786000Y-118452742D01*
X161786000Y-118275258D01*
X161794219Y-118233939D01*
X161820624Y-118101188D01*
X161888544Y-117937216D01*
X161987147Y-117789646D01*
X162112646Y-117664147D01*
X162260216Y-117565544D01*
X162424188Y-117497624D01*
X162588817Y-117464878D01*
X162598258Y-117463000D01*
X162775742Y-117463000D01*
X162785183Y-117464878D01*
G37*
G36*
X134845183Y-117464878D02*
G01*
X135009812Y-117497624D01*
X135173784Y-117565544D01*
X135321354Y-117664147D01*
X135446853Y-117789646D01*
X135545456Y-117937216D01*
X135613376Y-118101188D01*
X135639781Y-118233939D01*
X135648000Y-118275258D01*
X135648000Y-118452742D01*
X135645888Y-118463360D01*
X135613376Y-118626812D01*
X135545456Y-118790784D01*
X135446853Y-118938354D01*
X135321354Y-119063853D01*
X135173784Y-119162456D01*
X135009812Y-119230376D01*
X134860512Y-119260073D01*
X134835742Y-119265000D01*
X134658258Y-119265000D01*
X134633488Y-119260073D01*
X134484188Y-119230376D01*
X134320216Y-119162456D01*
X134172646Y-119063853D01*
X134047147Y-118938354D01*
X133948544Y-118790784D01*
X133880624Y-118626812D01*
X133848112Y-118463360D01*
X133846000Y-118452742D01*
X133846000Y-118275258D01*
X133854219Y-118233939D01*
X133880624Y-118101188D01*
X133948544Y-117937216D01*
X134047147Y-117789646D01*
X134172646Y-117664147D01*
X134320216Y-117565544D01*
X134484188Y-117497624D01*
X134648817Y-117464878D01*
X134658258Y-117463000D01*
X134835742Y-117463000D01*
X134845183Y-117464878D01*
G37*
G36*
X132305183Y-117464878D02*
G01*
X132469812Y-117497624D01*
X132633784Y-117565544D01*
X132781354Y-117664147D01*
X132906853Y-117789646D01*
X133005456Y-117937216D01*
X133073376Y-118101188D01*
X133099781Y-118233939D01*
X133108000Y-118275258D01*
X133108000Y-118452742D01*
X133105888Y-118463360D01*
X133073376Y-118626812D01*
X133005456Y-118790784D01*
X132906853Y-118938354D01*
X132781354Y-119063853D01*
X132633784Y-119162456D01*
X132469812Y-119230376D01*
X132320512Y-119260073D01*
X132295742Y-119265000D01*
X132118258Y-119265000D01*
X132093488Y-119260073D01*
X131944188Y-119230376D01*
X131780216Y-119162456D01*
X131632646Y-119063853D01*
X131507147Y-118938354D01*
X131408544Y-118790784D01*
X131340624Y-118626812D01*
X131308112Y-118463360D01*
X131306000Y-118452742D01*
X131306000Y-118275258D01*
X131314219Y-118233939D01*
X131340624Y-118101188D01*
X131408544Y-117937216D01*
X131507147Y-117789646D01*
X131632646Y-117664147D01*
X131780216Y-117565544D01*
X131944188Y-117497624D01*
X132108817Y-117464878D01*
X132118258Y-117463000D01*
X132295742Y-117463000D01*
X132305183Y-117464878D01*
G37*
G36*
X160245183Y-117464878D02*
G01*
X160409812Y-117497624D01*
X160573784Y-117565544D01*
X160721354Y-117664147D01*
X160846853Y-117789646D01*
X160945456Y-117937216D01*
X161013376Y-118101188D01*
X161039781Y-118233939D01*
X161048000Y-118275258D01*
X161048000Y-118452742D01*
X161045888Y-118463360D01*
X161013376Y-118626812D01*
X160945456Y-118790784D01*
X160846853Y-118938354D01*
X160721354Y-119063853D01*
X160573784Y-119162456D01*
X160409812Y-119230376D01*
X160260512Y-119260073D01*
X160235742Y-119265000D01*
X160058258Y-119265000D01*
X160033488Y-119260073D01*
X159884188Y-119230376D01*
X159720216Y-119162456D01*
X159572646Y-119063853D01*
X159447147Y-118938354D01*
X159348544Y-118790784D01*
X159280624Y-118626812D01*
X159248112Y-118463360D01*
X159246000Y-118452742D01*
X159246000Y-118275258D01*
X159254219Y-118233939D01*
X159280624Y-118101188D01*
X159348544Y-117937216D01*
X159447147Y-117789646D01*
X159572646Y-117664147D01*
X159720216Y-117565544D01*
X159884188Y-117497624D01*
X160048817Y-117464878D01*
X160058258Y-117463000D01*
X160235742Y-117463000D01*
X160245183Y-117464878D01*
G37*
G36*
X152670413Y-116978438D02*
G01*
X152691032Y-116984693D01*
X152710028Y-116994846D01*
X152731449Y-117012426D01*
X153091174Y-117372151D01*
X153108754Y-117393572D01*
X153118907Y-117412568D01*
X153125162Y-117433187D01*
X153127273Y-117454625D01*
X153125162Y-117476063D01*
X153118907Y-117496682D01*
X153108754Y-117515678D01*
X153091174Y-117537099D01*
X152766805Y-117861468D01*
X152745384Y-117879048D01*
X152726388Y-117889201D01*
X152705769Y-117895456D01*
X152684331Y-117897567D01*
X152662893Y-117895456D01*
X152642274Y-117889201D01*
X152623278Y-117879048D01*
X152601857Y-117861468D01*
X152242132Y-117501743D01*
X152224552Y-117480322D01*
X152214399Y-117461326D01*
X152208144Y-117440707D01*
X152206033Y-117419269D01*
X152208144Y-117397831D01*
X152214399Y-117377212D01*
X152224552Y-117358216D01*
X152242132Y-117336795D01*
X152566501Y-117012426D01*
X152587922Y-116994846D01*
X152606918Y-116984693D01*
X152627537Y-116978438D01*
X152648975Y-116976327D01*
X152670413Y-116978438D01*
G37*
G36*
X140336063Y-116927638D02*
G01*
X140356682Y-116933893D01*
X140375678Y-116944046D01*
X140397099Y-116961626D01*
X140721468Y-117285995D01*
X140739048Y-117307416D01*
X140749201Y-117326412D01*
X140755456Y-117347031D01*
X140757567Y-117368469D01*
X140755456Y-117389907D01*
X140749201Y-117410526D01*
X140739048Y-117429522D01*
X140721468Y-117450943D01*
X140361743Y-117810668D01*
X140340322Y-117828248D01*
X140321326Y-117838401D01*
X140300707Y-117844656D01*
X140279269Y-117846767D01*
X140257831Y-117844656D01*
X140237212Y-117838401D01*
X140218216Y-117828248D01*
X140196795Y-117810668D01*
X139872426Y-117486299D01*
X139854846Y-117464878D01*
X139844693Y-117445882D01*
X139838438Y-117425263D01*
X139836327Y-117403825D01*
X139838438Y-117382387D01*
X139844693Y-117361768D01*
X139854846Y-117342772D01*
X139872426Y-117321351D01*
X140232151Y-116961626D01*
X140253572Y-116944046D01*
X140272568Y-116933893D01*
X140293187Y-116927638D01*
X140314625Y-116925527D01*
X140336063Y-116927638D01*
G37*
G36*
X153356307Y-116292544D02*
G01*
X153376926Y-116298799D01*
X153395922Y-116308952D01*
X153417343Y-116326532D01*
X153777068Y-116686257D01*
X153794648Y-116707678D01*
X153804801Y-116726674D01*
X153811056Y-116747293D01*
X153813167Y-116768731D01*
X153811056Y-116790169D01*
X153804801Y-116810788D01*
X153794648Y-116829784D01*
X153777068Y-116851205D01*
X153452699Y-117175574D01*
X153431278Y-117193154D01*
X153412282Y-117203307D01*
X153391663Y-117209562D01*
X153370225Y-117211673D01*
X153348787Y-117209562D01*
X153328168Y-117203307D01*
X153309172Y-117193154D01*
X153287751Y-117175574D01*
X152928026Y-116815849D01*
X152910446Y-116794428D01*
X152900293Y-116775432D01*
X152894038Y-116754813D01*
X152891927Y-116733375D01*
X152894038Y-116711937D01*
X152900293Y-116691318D01*
X152910446Y-116672322D01*
X152928026Y-116650901D01*
X153252395Y-116326532D01*
X153273816Y-116308952D01*
X153292812Y-116298799D01*
X153313431Y-116292544D01*
X153334869Y-116290433D01*
X153356307Y-116292544D01*
G37*
G36*
X139650169Y-116241744D02*
G01*
X139670788Y-116247999D01*
X139689784Y-116258152D01*
X139711205Y-116275732D01*
X140035574Y-116600101D01*
X140053154Y-116621522D01*
X140063307Y-116640518D01*
X140069562Y-116661137D01*
X140071673Y-116682575D01*
X140069562Y-116704013D01*
X140063307Y-116724632D01*
X140053154Y-116743628D01*
X140035574Y-116765049D01*
X139675849Y-117124774D01*
X139654428Y-117142354D01*
X139635432Y-117152507D01*
X139614813Y-117158762D01*
X139593375Y-117160873D01*
X139571937Y-117158762D01*
X139551318Y-117152507D01*
X139532322Y-117142354D01*
X139510901Y-117124774D01*
X139186532Y-116800405D01*
X139168952Y-116778984D01*
X139158799Y-116759988D01*
X139152544Y-116739369D01*
X139150433Y-116717931D01*
X139152544Y-116696493D01*
X139158799Y-116675874D01*
X139168952Y-116656878D01*
X139186532Y-116635457D01*
X139546257Y-116275732D01*
X139567678Y-116258152D01*
X139586674Y-116247999D01*
X139607293Y-116241744D01*
X139628731Y-116239633D01*
X139650169Y-116241744D01*
G37*
G36*
X141098063Y-116165638D02*
G01*
X141118682Y-116171893D01*
X141137678Y-116182046D01*
X141159099Y-116199626D01*
X141483468Y-116523995D01*
X141501048Y-116545416D01*
X141511201Y-116564412D01*
X141517456Y-116585031D01*
X141519567Y-116606469D01*
X141517456Y-116627907D01*
X141511201Y-116648526D01*
X141501048Y-116667522D01*
X141483468Y-116688943D01*
X141123743Y-117048668D01*
X141102322Y-117066248D01*
X141083326Y-117076401D01*
X141062707Y-117082656D01*
X141041269Y-117084767D01*
X141019831Y-117082656D01*
X140999212Y-117076401D01*
X140980216Y-117066248D01*
X140958795Y-117048668D01*
X140634426Y-116724299D01*
X140616846Y-116702878D01*
X140606693Y-116683882D01*
X140600438Y-116663263D01*
X140598327Y-116641825D01*
X140600438Y-116620387D01*
X140606693Y-116599768D01*
X140616846Y-116580772D01*
X140634426Y-116559351D01*
X140994151Y-116199626D01*
X141015572Y-116182046D01*
X141034568Y-116171893D01*
X141055187Y-116165638D01*
X141076625Y-116163527D01*
X141098063Y-116165638D01*
G37*
G36*
X145303482Y-111472705D02*
G01*
X145310497Y-111474833D01*
X145316963Y-111478290D01*
X145327397Y-111486852D01*
X146380084Y-112539539D01*
X146388646Y-112549973D01*
X146392103Y-112556439D01*
X146394231Y-112563454D01*
X146394949Y-112570749D01*
X146394231Y-112578044D01*
X146392103Y-112585059D01*
X146388646Y-112591525D01*
X146380084Y-112601959D01*
X146158247Y-112823796D01*
X146147813Y-112832358D01*
X146141346Y-112835815D01*
X146126410Y-112840346D01*
X146103771Y-112849723D01*
X146083397Y-112863337D01*
X146066070Y-112880664D01*
X146052456Y-112901039D01*
X146043080Y-112923676D01*
X146038549Y-112938612D01*
X146035092Y-112945079D01*
X146026530Y-112955513D01*
X145804693Y-113177350D01*
X145794259Y-113185912D01*
X145787793Y-113189369D01*
X145772856Y-113193900D01*
X145750217Y-113203278D01*
X145729843Y-113216892D01*
X145712516Y-113234219D01*
X145698903Y-113254594D01*
X145689527Y-113277229D01*
X145684996Y-113292166D01*
X145681539Y-113298632D01*
X145672977Y-113309066D01*
X145451140Y-113530903D01*
X145440706Y-113539465D01*
X145434239Y-113542922D01*
X145419303Y-113547453D01*
X145396664Y-113556830D01*
X145376290Y-113570444D01*
X145358963Y-113587771D01*
X145345349Y-113608146D01*
X145335973Y-113630783D01*
X145331442Y-113645719D01*
X145327985Y-113652186D01*
X145319423Y-113662620D01*
X145097586Y-113884457D01*
X145087152Y-113893019D01*
X145080686Y-113896476D01*
X145065749Y-113901007D01*
X145043110Y-113910385D01*
X145022736Y-113923999D01*
X145005409Y-113941326D01*
X144991796Y-113961701D01*
X144982420Y-113984336D01*
X144977889Y-113999273D01*
X144974432Y-114005739D01*
X144965870Y-114016173D01*
X144744033Y-114238010D01*
X144733599Y-114246572D01*
X144727133Y-114250029D01*
X144712196Y-114254560D01*
X144689557Y-114263938D01*
X144669183Y-114277552D01*
X144651856Y-114294879D01*
X144638243Y-114315254D01*
X144628867Y-114337889D01*
X144624336Y-114352826D01*
X144620879Y-114359292D01*
X144612317Y-114369726D01*
X144390480Y-114591563D01*
X144380046Y-114600125D01*
X144373579Y-114603582D01*
X144358643Y-114608113D01*
X144336004Y-114617490D01*
X144315630Y-114631104D01*
X144298303Y-114648431D01*
X144284689Y-114668806D01*
X144275313Y-114691443D01*
X144270782Y-114706379D01*
X144267325Y-114712846D01*
X144258763Y-114723280D01*
X144036926Y-114945117D01*
X144026492Y-114953679D01*
X144020026Y-114957136D01*
X144005089Y-114961667D01*
X143982450Y-114971045D01*
X143962076Y-114984659D01*
X143944749Y-115001986D01*
X143931136Y-115022361D01*
X143921760Y-115044996D01*
X143917229Y-115059933D01*
X143913772Y-115066399D01*
X143905210Y-115076833D01*
X143683373Y-115298670D01*
X143672939Y-115307232D01*
X143666473Y-115310689D01*
X143651536Y-115315220D01*
X143628897Y-115324598D01*
X143608523Y-115338212D01*
X143591196Y-115355539D01*
X143577583Y-115375914D01*
X143568207Y-115398549D01*
X143563676Y-115413486D01*
X143560219Y-115419952D01*
X143551657Y-115430386D01*
X143329820Y-115652223D01*
X143319386Y-115660785D01*
X143312919Y-115664242D01*
X143297983Y-115668773D01*
X143275344Y-115678150D01*
X143254970Y-115691764D01*
X143237643Y-115709091D01*
X143224029Y-115729466D01*
X143214653Y-115752103D01*
X143210122Y-115767039D01*
X143206665Y-115773506D01*
X143198103Y-115783940D01*
X142976266Y-116005777D01*
X142965832Y-116014339D01*
X142959366Y-116017796D01*
X142944429Y-116022327D01*
X142921790Y-116031705D01*
X142901416Y-116045319D01*
X142884089Y-116062646D01*
X142870476Y-116083021D01*
X142861100Y-116105656D01*
X142856569Y-116120593D01*
X142853112Y-116127059D01*
X142844550Y-116137493D01*
X142622713Y-116359330D01*
X142612279Y-116367892D01*
X142605812Y-116371349D01*
X142590876Y-116375880D01*
X142568237Y-116385257D01*
X142547863Y-116398871D01*
X142530536Y-116416198D01*
X142516922Y-116436573D01*
X142507546Y-116459210D01*
X142503015Y-116474146D01*
X142499558Y-116480613D01*
X142490996Y-116491047D01*
X142269159Y-116712884D01*
X142258725Y-116721446D01*
X142252259Y-116724903D01*
X142245244Y-116727031D01*
X142237949Y-116727749D01*
X142230654Y-116727031D01*
X142223639Y-116724903D01*
X142217173Y-116721446D01*
X142206739Y-116712884D01*
X141154052Y-115660197D01*
X141145490Y-115649763D01*
X141142033Y-115643297D01*
X141139905Y-115636282D01*
X141139187Y-115628987D01*
X141139905Y-115621692D01*
X141142033Y-115614677D01*
X141145490Y-115608211D01*
X141154052Y-115597777D01*
X141375889Y-115375940D01*
X141386323Y-115367378D01*
X141392790Y-115363921D01*
X141407726Y-115359390D01*
X141430365Y-115350013D01*
X141450739Y-115336399D01*
X141468066Y-115319072D01*
X141481680Y-115298697D01*
X141491056Y-115276060D01*
X141495587Y-115261124D01*
X141499044Y-115254657D01*
X141507606Y-115244223D01*
X141729443Y-115022386D01*
X141739877Y-115013824D01*
X141746343Y-115010367D01*
X141761280Y-115005836D01*
X141783919Y-114996458D01*
X141804293Y-114982844D01*
X141821620Y-114965517D01*
X141835233Y-114945142D01*
X141844609Y-114922507D01*
X141849140Y-114907570D01*
X141852597Y-114901104D01*
X141861159Y-114890670D01*
X142082996Y-114668833D01*
X142093430Y-114660271D01*
X142099897Y-114656814D01*
X142114833Y-114652283D01*
X142137472Y-114642906D01*
X142157846Y-114629292D01*
X142175173Y-114611965D01*
X142188787Y-114591590D01*
X142198163Y-114568953D01*
X142202694Y-114554017D01*
X142206151Y-114547550D01*
X142214713Y-114537116D01*
X142436550Y-114315279D01*
X142446984Y-114306717D01*
X142453450Y-114303260D01*
X142468387Y-114298729D01*
X142491026Y-114289351D01*
X142511400Y-114275737D01*
X142528727Y-114258410D01*
X142542340Y-114238035D01*
X142551716Y-114215400D01*
X142556247Y-114200463D01*
X142559704Y-114193997D01*
X142568266Y-114183563D01*
X142790103Y-113961726D01*
X142800537Y-113953164D01*
X142807003Y-113949707D01*
X142821940Y-113945176D01*
X142844579Y-113935798D01*
X142864953Y-113922184D01*
X142882280Y-113904857D01*
X142895893Y-113884482D01*
X142905269Y-113861847D01*
X142909800Y-113846910D01*
X142913257Y-113840444D01*
X142921819Y-113830010D01*
X143143656Y-113608173D01*
X143154090Y-113599611D01*
X143160557Y-113596154D01*
X143175493Y-113591623D01*
X143198132Y-113582246D01*
X143218506Y-113568632D01*
X143235833Y-113551305D01*
X143249447Y-113530930D01*
X143258823Y-113508293D01*
X143263354Y-113493357D01*
X143266811Y-113486890D01*
X143275373Y-113476456D01*
X143497210Y-113254619D01*
X143507644Y-113246057D01*
X143514110Y-113242600D01*
X143529047Y-113238069D01*
X143551686Y-113228691D01*
X143572060Y-113215077D01*
X143589387Y-113197750D01*
X143603000Y-113177375D01*
X143612376Y-113154740D01*
X143616907Y-113139803D01*
X143620364Y-113133337D01*
X143628926Y-113122903D01*
X143850763Y-112901066D01*
X143861197Y-112892504D01*
X143867663Y-112889047D01*
X143882600Y-112884516D01*
X143905239Y-112875138D01*
X143925613Y-112861524D01*
X143942940Y-112844197D01*
X143956553Y-112823822D01*
X143965929Y-112801187D01*
X143970460Y-112786250D01*
X143973917Y-112779784D01*
X143982479Y-112769350D01*
X144204316Y-112547513D01*
X144214750Y-112538951D01*
X144221217Y-112535494D01*
X144236153Y-112530963D01*
X144258792Y-112521586D01*
X144279166Y-112507972D01*
X144296493Y-112490645D01*
X144310107Y-112470270D01*
X144319483Y-112447633D01*
X144324014Y-112432697D01*
X144327471Y-112426230D01*
X144336033Y-112415796D01*
X144557870Y-112193959D01*
X144568304Y-112185397D01*
X144574770Y-112181940D01*
X144589707Y-112177409D01*
X144612346Y-112168031D01*
X144632720Y-112154417D01*
X144650047Y-112137090D01*
X144663660Y-112116715D01*
X144673036Y-112094080D01*
X144677567Y-112079143D01*
X144681024Y-112072677D01*
X144689586Y-112062243D01*
X144911423Y-111840406D01*
X144921857Y-111831844D01*
X144928324Y-111828387D01*
X144943260Y-111823856D01*
X144965899Y-111814479D01*
X144986273Y-111800865D01*
X145003600Y-111783538D01*
X145017214Y-111763163D01*
X145026590Y-111740526D01*
X145031121Y-111725590D01*
X145034578Y-111719123D01*
X145043140Y-111708689D01*
X145264977Y-111486852D01*
X145275411Y-111478290D01*
X145281877Y-111474833D01*
X145288892Y-111472705D01*
X145296187Y-111471987D01*
X145303482Y-111472705D01*
G37*
G36*
X148131908Y-111472705D02*
G01*
X148138923Y-111474833D01*
X148145389Y-111478290D01*
X148155823Y-111486852D01*
X148377660Y-111708689D01*
X148386222Y-111719123D01*
X148389679Y-111725590D01*
X148394210Y-111740526D01*
X148403587Y-111763165D01*
X148417201Y-111783539D01*
X148434528Y-111800866D01*
X148454903Y-111814480D01*
X148477540Y-111823856D01*
X148492476Y-111828387D01*
X148498943Y-111831844D01*
X148509377Y-111840406D01*
X148731214Y-112062243D01*
X148739776Y-112072677D01*
X148743233Y-112079143D01*
X148747764Y-112094080D01*
X148757142Y-112116719D01*
X148770756Y-112137093D01*
X148788083Y-112154420D01*
X148808458Y-112168033D01*
X148831093Y-112177409D01*
X148846030Y-112181940D01*
X148852496Y-112185397D01*
X148862930Y-112193959D01*
X149084767Y-112415796D01*
X149093329Y-112426230D01*
X149096786Y-112432697D01*
X149101317Y-112447633D01*
X149110694Y-112470272D01*
X149124308Y-112490646D01*
X149141635Y-112507973D01*
X149162010Y-112521587D01*
X149184647Y-112530963D01*
X149199583Y-112535494D01*
X149206050Y-112538951D01*
X149216484Y-112547513D01*
X149438321Y-112769350D01*
X149446883Y-112779784D01*
X149450340Y-112786250D01*
X149454871Y-112801187D01*
X149464249Y-112823826D01*
X149477863Y-112844200D01*
X149495190Y-112861527D01*
X149515565Y-112875140D01*
X149538200Y-112884516D01*
X149553137Y-112889047D01*
X149559603Y-112892504D01*
X149570037Y-112901066D01*
X149791874Y-113122903D01*
X149800436Y-113133337D01*
X149803893Y-113139803D01*
X149808424Y-113154740D01*
X149817802Y-113177379D01*
X149831416Y-113197753D01*
X149848743Y-113215080D01*
X149869118Y-113228693D01*
X149891753Y-113238069D01*
X149906690Y-113242600D01*
X149913156Y-113246057D01*
X149923590Y-113254619D01*
X150145427Y-113476456D01*
X150153989Y-113486890D01*
X150157446Y-113493357D01*
X150161977Y-113508293D01*
X150171354Y-113530932D01*
X150184968Y-113551306D01*
X150202295Y-113568633D01*
X150222670Y-113582247D01*
X150245307Y-113591623D01*
X150260243Y-113596154D01*
X150266710Y-113599611D01*
X150277144Y-113608173D01*
X150498981Y-113830010D01*
X150507543Y-113840444D01*
X150511000Y-113846910D01*
X150515531Y-113861847D01*
X150524909Y-113884486D01*
X150538523Y-113904860D01*
X150555850Y-113922187D01*
X150576225Y-113935800D01*
X150598860Y-113945176D01*
X150613797Y-113949707D01*
X150620263Y-113953164D01*
X150630697Y-113961726D01*
X150852534Y-114183563D01*
X150861096Y-114193997D01*
X150864553Y-114200463D01*
X150869084Y-114215400D01*
X150878462Y-114238039D01*
X150892076Y-114258413D01*
X150909403Y-114275740D01*
X150929778Y-114289353D01*
X150952413Y-114298729D01*
X150967350Y-114303260D01*
X150973816Y-114306717D01*
X150984250Y-114315279D01*
X151206087Y-114537116D01*
X151214649Y-114547550D01*
X151218106Y-114554017D01*
X151222637Y-114568953D01*
X151232014Y-114591592D01*
X151245628Y-114611966D01*
X151262955Y-114629293D01*
X151283330Y-114642907D01*
X151305967Y-114652283D01*
X151320903Y-114656814D01*
X151327370Y-114660271D01*
X151337804Y-114668833D01*
X151559641Y-114890670D01*
X151568203Y-114901104D01*
X151571660Y-114907570D01*
X151576191Y-114922507D01*
X151585569Y-114945146D01*
X151599183Y-114965520D01*
X151616510Y-114982847D01*
X151636885Y-114996460D01*
X151659520Y-115005836D01*
X151674457Y-115010367D01*
X151680923Y-115013824D01*
X151691357Y-115022386D01*
X151913194Y-115244223D01*
X151921756Y-115254657D01*
X151925213Y-115261124D01*
X151929744Y-115276060D01*
X151939121Y-115298699D01*
X151952735Y-115319073D01*
X151970062Y-115336400D01*
X151990437Y-115350014D01*
X152013074Y-115359390D01*
X152028010Y-115363921D01*
X152034477Y-115367378D01*
X152044911Y-115375940D01*
X152266748Y-115597777D01*
X152275310Y-115608211D01*
X152278767Y-115614677D01*
X152280895Y-115621692D01*
X152281613Y-115628987D01*
X152280895Y-115636282D01*
X152278767Y-115643297D01*
X152275310Y-115649763D01*
X152266748Y-115660197D01*
X151214061Y-116712884D01*
X151203627Y-116721446D01*
X151197161Y-116724903D01*
X151190146Y-116727031D01*
X151182851Y-116727749D01*
X151175556Y-116727031D01*
X151168541Y-116724903D01*
X151162075Y-116721446D01*
X151151641Y-116712884D01*
X150929804Y-116491047D01*
X150921242Y-116480613D01*
X150917785Y-116474146D01*
X150913254Y-116459210D01*
X150903877Y-116436571D01*
X150890263Y-116416197D01*
X150872936Y-116398870D01*
X150852561Y-116385256D01*
X150829924Y-116375880D01*
X150814988Y-116371349D01*
X150808521Y-116367892D01*
X150798087Y-116359330D01*
X150576250Y-116137493D01*
X150567688Y-116127059D01*
X150564231Y-116120593D01*
X150559700Y-116105656D01*
X150550322Y-116083017D01*
X150536708Y-116062643D01*
X150519381Y-116045316D01*
X150499006Y-116031703D01*
X150476371Y-116022327D01*
X150461434Y-116017796D01*
X150454968Y-116014339D01*
X150444534Y-116005777D01*
X150222697Y-115783940D01*
X150214135Y-115773506D01*
X150210678Y-115767039D01*
X150206147Y-115752103D01*
X150196770Y-115729464D01*
X150183156Y-115709090D01*
X150165829Y-115691763D01*
X150145454Y-115678149D01*
X150122817Y-115668773D01*
X150107881Y-115664242D01*
X150101414Y-115660785D01*
X150090980Y-115652223D01*
X149869143Y-115430386D01*
X149860581Y-115419952D01*
X149857124Y-115413486D01*
X149852593Y-115398549D01*
X149843215Y-115375910D01*
X149829601Y-115355536D01*
X149812274Y-115338209D01*
X149791899Y-115324596D01*
X149769264Y-115315220D01*
X149754327Y-115310689D01*
X149747861Y-115307232D01*
X149737427Y-115298670D01*
X149515590Y-115076833D01*
X149507028Y-115066399D01*
X149503571Y-115059933D01*
X149499040Y-115044996D01*
X149489662Y-115022357D01*
X149476048Y-115001983D01*
X149458721Y-114984656D01*
X149438346Y-114971043D01*
X149415711Y-114961667D01*
X149400774Y-114957136D01*
X149394308Y-114953679D01*
X149383874Y-114945117D01*
X149162037Y-114723280D01*
X149153475Y-114712846D01*
X149150018Y-114706379D01*
X149145487Y-114691443D01*
X149136110Y-114668804D01*
X149122496Y-114648430D01*
X149105169Y-114631103D01*
X149084794Y-114617489D01*
X149062157Y-114608113D01*
X149047221Y-114603582D01*
X149040754Y-114600125D01*
X149030320Y-114591563D01*
X148808483Y-114369726D01*
X148799921Y-114359292D01*
X148796464Y-114352826D01*
X148791933Y-114337889D01*
X148782555Y-114315250D01*
X148768941Y-114294876D01*
X148751614Y-114277549D01*
X148731239Y-114263936D01*
X148708604Y-114254560D01*
X148693667Y-114250029D01*
X148687201Y-114246572D01*
X148676767Y-114238010D01*
X148454930Y-114016173D01*
X148446368Y-114005739D01*
X148442911Y-113999273D01*
X148438380Y-113984336D01*
X148429002Y-113961697D01*
X148415388Y-113941323D01*
X148398061Y-113923996D01*
X148377686Y-113910383D01*
X148355051Y-113901007D01*
X148340114Y-113896476D01*
X148333648Y-113893019D01*
X148323214Y-113884457D01*
X148101377Y-113662620D01*
X148092815Y-113652186D01*
X148089358Y-113645719D01*
X148084827Y-113630783D01*
X148075450Y-113608144D01*
X148061836Y-113587770D01*
X148044509Y-113570443D01*
X148024134Y-113556829D01*
X148001497Y-113547453D01*
X147986561Y-113542922D01*
X147980094Y-113539465D01*
X147969660Y-113530903D01*
X147747823Y-113309066D01*
X147739261Y-113298632D01*
X147735804Y-113292166D01*
X147731273Y-113277229D01*
X147721895Y-113254590D01*
X147708281Y-113234216D01*
X147690954Y-113216889D01*
X147670579Y-113203276D01*
X147647944Y-113193900D01*
X147633007Y-113189369D01*
X147626541Y-113185912D01*
X147616107Y-113177350D01*
X147394270Y-112955513D01*
X147385708Y-112945079D01*
X147382251Y-112938612D01*
X147377720Y-112923676D01*
X147368343Y-112901037D01*
X147354729Y-112880663D01*
X147337402Y-112863336D01*
X147317027Y-112849722D01*
X147294390Y-112840346D01*
X147279454Y-112835815D01*
X147272987Y-112832358D01*
X147262553Y-112823796D01*
X147040716Y-112601959D01*
X147032154Y-112591525D01*
X147028697Y-112585059D01*
X147026569Y-112578044D01*
X147025851Y-112570749D01*
X147026569Y-112563454D01*
X147028697Y-112556439D01*
X147032154Y-112549973D01*
X147040716Y-112539539D01*
X148093403Y-111486852D01*
X148103837Y-111478290D01*
X148110303Y-111474833D01*
X148117318Y-111472705D01*
X148124613Y-111471987D01*
X148131908Y-111472705D01*
G37*
G36*
X162796097Y-114927049D02*
G01*
X162949812Y-114957624D01*
X163113784Y-115025544D01*
X163261354Y-115124147D01*
X163386853Y-115249646D01*
X163485456Y-115397216D01*
X163553376Y-115561188D01*
X163588000Y-115735259D01*
X163588000Y-115912741D01*
X163553376Y-116086812D01*
X163485456Y-116250784D01*
X163386853Y-116398354D01*
X163261354Y-116523853D01*
X163113784Y-116622456D01*
X162949812Y-116690376D01*
X162811280Y-116717931D01*
X162775742Y-116725000D01*
X162598258Y-116725000D01*
X162562720Y-116717931D01*
X162424188Y-116690376D01*
X162260216Y-116622456D01*
X162112646Y-116523853D01*
X161987147Y-116398354D01*
X161888544Y-116250784D01*
X161820624Y-116086812D01*
X161786000Y-115912741D01*
X161786000Y-115735259D01*
X161820624Y-115561188D01*
X161888544Y-115397216D01*
X161987147Y-115249646D01*
X162112646Y-115124147D01*
X162260216Y-115025544D01*
X162424188Y-114957624D01*
X162577903Y-114927049D01*
X162598258Y-114923000D01*
X162775742Y-114923000D01*
X162796097Y-114927049D01*
G37*
G36*
X134856097Y-114927049D02*
G01*
X135009812Y-114957624D01*
X135173784Y-115025544D01*
X135321354Y-115124147D01*
X135446853Y-115249646D01*
X135545456Y-115397216D01*
X135613376Y-115561188D01*
X135648000Y-115735259D01*
X135648000Y-115912741D01*
X135613376Y-116086812D01*
X135545456Y-116250784D01*
X135446853Y-116398354D01*
X135321354Y-116523853D01*
X135173784Y-116622456D01*
X135009812Y-116690376D01*
X134871280Y-116717931D01*
X134835742Y-116725000D01*
X134658258Y-116725000D01*
X134622720Y-116717931D01*
X134484188Y-116690376D01*
X134320216Y-116622456D01*
X134172646Y-116523853D01*
X134047147Y-116398354D01*
X133948544Y-116250784D01*
X133880624Y-116086812D01*
X133846000Y-115912741D01*
X133846000Y-115735259D01*
X133880624Y-115561188D01*
X133948544Y-115397216D01*
X134047147Y-115249646D01*
X134172646Y-115124147D01*
X134320216Y-115025544D01*
X134484188Y-114957624D01*
X134637903Y-114927049D01*
X134658258Y-114923000D01*
X134835742Y-114923000D01*
X134856097Y-114927049D01*
G37*
G36*
X160256097Y-114927049D02*
G01*
X160409812Y-114957624D01*
X160573784Y-115025544D01*
X160721354Y-115124147D01*
X160846853Y-115249646D01*
X160945456Y-115397216D01*
X161013376Y-115561188D01*
X161048000Y-115735259D01*
X161048000Y-115912741D01*
X161013376Y-116086812D01*
X160945456Y-116250784D01*
X160846853Y-116398354D01*
X160721354Y-116523853D01*
X160573784Y-116622456D01*
X160409812Y-116690376D01*
X160271280Y-116717931D01*
X160235742Y-116725000D01*
X160058258Y-116725000D01*
X160022720Y-116717931D01*
X159884188Y-116690376D01*
X159720216Y-116622456D01*
X159572646Y-116523853D01*
X159447147Y-116398354D01*
X159348544Y-116250784D01*
X159280624Y-116086812D01*
X159246000Y-115912741D01*
X159246000Y-115735259D01*
X159280624Y-115561188D01*
X159348544Y-115397216D01*
X159447147Y-115249646D01*
X159572646Y-115124147D01*
X159720216Y-115025544D01*
X159884188Y-114957624D01*
X160037903Y-114927049D01*
X160058258Y-114923000D01*
X160235742Y-114923000D01*
X160256097Y-114927049D01*
G37*
G36*
X132316097Y-114927049D02*
G01*
X132469812Y-114957624D01*
X132633784Y-115025544D01*
X132781354Y-115124147D01*
X132906853Y-115249646D01*
X133005456Y-115397216D01*
X133073376Y-115561188D01*
X133108000Y-115735259D01*
X133108000Y-115912741D01*
X133073376Y-116086812D01*
X133005456Y-116250784D01*
X132906853Y-116398354D01*
X132781354Y-116523853D01*
X132633784Y-116622456D01*
X132469812Y-116690376D01*
X132331280Y-116717931D01*
X132295742Y-116725000D01*
X132118258Y-116725000D01*
X132082720Y-116717931D01*
X131944188Y-116690376D01*
X131780216Y-116622456D01*
X131632646Y-116523853D01*
X131507147Y-116398354D01*
X131408544Y-116250784D01*
X131340624Y-116086812D01*
X131306000Y-115912741D01*
X131306000Y-115735259D01*
X131340624Y-115561188D01*
X131408544Y-115397216D01*
X131507147Y-115249646D01*
X131632646Y-115124147D01*
X131780216Y-115025544D01*
X131944188Y-114957624D01*
X132097903Y-114927049D01*
X132118258Y-114923000D01*
X132295742Y-114923000D01*
X132316097Y-114927049D01*
G37*
G36*
X140412169Y-115479744D02*
G01*
X140432788Y-115485999D01*
X140451784Y-115496152D01*
X140473205Y-115513732D01*
X140797574Y-115838101D01*
X140815154Y-115859522D01*
X140825307Y-115878518D01*
X140831562Y-115899137D01*
X140833673Y-115920575D01*
X140831562Y-115942013D01*
X140825307Y-115962632D01*
X140815154Y-115981628D01*
X140797574Y-116003049D01*
X140437849Y-116362774D01*
X140416428Y-116380354D01*
X140397432Y-116390507D01*
X140376813Y-116396762D01*
X140355375Y-116398873D01*
X140333937Y-116396762D01*
X140313318Y-116390507D01*
X140294322Y-116380354D01*
X140272901Y-116362774D01*
X139948532Y-116038405D01*
X139930952Y-116016984D01*
X139920799Y-115997988D01*
X139914544Y-115977369D01*
X139912433Y-115955931D01*
X139914544Y-115934493D01*
X139920799Y-115913874D01*
X139930952Y-115894878D01*
X139948532Y-115873457D01*
X140308257Y-115513732D01*
X140329678Y-115496152D01*
X140348674Y-115485999D01*
X140369293Y-115479744D01*
X140390731Y-115477633D01*
X140412169Y-115479744D01*
G37*
G36*
X140641285Y-112956475D02*
G01*
X140675263Y-112966783D01*
X140706584Y-112983524D01*
X140738798Y-113009962D01*
X140778649Y-113049813D01*
X140778655Y-113049818D01*
X141124076Y-113395239D01*
X141124081Y-113395245D01*
X141163932Y-113435096D01*
X141190370Y-113467310D01*
X141207111Y-113498631D01*
X141217419Y-113532609D01*
X141220899Y-113567950D01*
X141217419Y-113603291D01*
X141207111Y-113637269D01*
X141190370Y-113668590D01*
X141163932Y-113700804D01*
X141124081Y-113740655D01*
X141124076Y-113740661D01*
X140725621Y-114139116D01*
X140725615Y-114139121D01*
X140685764Y-114178972D01*
X140653550Y-114205410D01*
X140622229Y-114222151D01*
X140588251Y-114232459D01*
X140552910Y-114235939D01*
X140517569Y-114232459D01*
X140483591Y-114222151D01*
X140452270Y-114205410D01*
X140420056Y-114178972D01*
X140380205Y-114139121D01*
X140380199Y-114139116D01*
X140034778Y-113793695D01*
X140034773Y-113793689D01*
X139994922Y-113753838D01*
X139968484Y-113721624D01*
X139951743Y-113690303D01*
X139941435Y-113656325D01*
X139937955Y-113620984D01*
X139941435Y-113585643D01*
X139951743Y-113551665D01*
X139968484Y-113520344D01*
X139994922Y-113488130D01*
X140034773Y-113448279D01*
X140034778Y-113448273D01*
X140433233Y-113049818D01*
X140433239Y-113049813D01*
X140473090Y-113009962D01*
X140505304Y-112983524D01*
X140536625Y-112966783D01*
X140570603Y-112956475D01*
X140605944Y-112952995D01*
X140641285Y-112956475D01*
G37*
G36*
X160260512Y-112387927D02*
G01*
X160409812Y-112417624D01*
X160573784Y-112485544D01*
X160721354Y-112584147D01*
X160846853Y-112709646D01*
X160945456Y-112857216D01*
X161013376Y-113021188D01*
X161039816Y-113154113D01*
X161046829Y-113189369D01*
X161048000Y-113195259D01*
X161048000Y-113372741D01*
X161013376Y-113546812D01*
X160945456Y-113710784D01*
X160846853Y-113858354D01*
X160721354Y-113983853D01*
X160573784Y-114082456D01*
X160409812Y-114150376D01*
X160260512Y-114180073D01*
X160235742Y-114185000D01*
X160058258Y-114185000D01*
X160033488Y-114180073D01*
X159884188Y-114150376D01*
X159720216Y-114082456D01*
X159572646Y-113983853D01*
X159447147Y-113858354D01*
X159348544Y-113710784D01*
X159280624Y-113546812D01*
X159246000Y-113372741D01*
X159246000Y-113195259D01*
X159247172Y-113189369D01*
X159254184Y-113154113D01*
X159280624Y-113021188D01*
X159348544Y-112857216D01*
X159447147Y-112709646D01*
X159572646Y-112584147D01*
X159720216Y-112485544D01*
X159884188Y-112417624D01*
X160033488Y-112387927D01*
X160058258Y-112383000D01*
X160235742Y-112383000D01*
X160260512Y-112387927D01*
G37*
G36*
X162800512Y-112387927D02*
G01*
X162949812Y-112417624D01*
X163113784Y-112485544D01*
X163261354Y-112584147D01*
X163386853Y-112709646D01*
X163485456Y-112857216D01*
X163553376Y-113021188D01*
X163579816Y-113154113D01*
X163586829Y-113189369D01*
X163588000Y-113195259D01*
X163588000Y-113372741D01*
X163553376Y-113546812D01*
X163485456Y-113710784D01*
X163386853Y-113858354D01*
X163261354Y-113983853D01*
X163113784Y-114082456D01*
X162949812Y-114150376D01*
X162800512Y-114180073D01*
X162775742Y-114185000D01*
X162598258Y-114185000D01*
X162573488Y-114180073D01*
X162424188Y-114150376D01*
X162260216Y-114082456D01*
X162112646Y-113983853D01*
X161987147Y-113858354D01*
X161888544Y-113710784D01*
X161820624Y-113546812D01*
X161786000Y-113372741D01*
X161786000Y-113195259D01*
X161787172Y-113189369D01*
X161794184Y-113154113D01*
X161820624Y-113021188D01*
X161888544Y-112857216D01*
X161987147Y-112709646D01*
X162112646Y-112584147D01*
X162260216Y-112485544D01*
X162424188Y-112417624D01*
X162573488Y-112387927D01*
X162598258Y-112383000D01*
X162775742Y-112383000D01*
X162800512Y-112387927D01*
G37*
G36*
X134860512Y-112387927D02*
G01*
X135009812Y-112417624D01*
X135173784Y-112485544D01*
X135321354Y-112584147D01*
X135446853Y-112709646D01*
X135545456Y-112857216D01*
X135613376Y-113021188D01*
X135639816Y-113154113D01*
X135646829Y-113189369D01*
X135648000Y-113195259D01*
X135648000Y-113372741D01*
X135613376Y-113546812D01*
X135545456Y-113710784D01*
X135446853Y-113858354D01*
X135321354Y-113983853D01*
X135173784Y-114082456D01*
X135009812Y-114150376D01*
X134860512Y-114180073D01*
X134835742Y-114185000D01*
X134658258Y-114185000D01*
X134633488Y-114180073D01*
X134484188Y-114150376D01*
X134320216Y-114082456D01*
X134172646Y-113983853D01*
X134047147Y-113858354D01*
X133948544Y-113710784D01*
X133880624Y-113546812D01*
X133846000Y-113372741D01*
X133846000Y-113195259D01*
X133847172Y-113189369D01*
X133854184Y-113154113D01*
X133880624Y-113021188D01*
X133948544Y-112857216D01*
X134047147Y-112709646D01*
X134172646Y-112584147D01*
X134320216Y-112485544D01*
X134484188Y-112417624D01*
X134633488Y-112387927D01*
X134658258Y-112383000D01*
X134835742Y-112383000D01*
X134860512Y-112387927D01*
G37*
G36*
X132320512Y-112387927D02*
G01*
X132469812Y-112417624D01*
X132633784Y-112485544D01*
X132781354Y-112584147D01*
X132906853Y-112709646D01*
X133005456Y-112857216D01*
X133073376Y-113021188D01*
X133099816Y-113154113D01*
X133106829Y-113189369D01*
X133108000Y-113195259D01*
X133108000Y-113372741D01*
X133073376Y-113546812D01*
X133005456Y-113710784D01*
X132906853Y-113858354D01*
X132781354Y-113983853D01*
X132633784Y-114082456D01*
X132469812Y-114150376D01*
X132320512Y-114180073D01*
X132295742Y-114185000D01*
X132118258Y-114185000D01*
X132093488Y-114180073D01*
X131944188Y-114150376D01*
X131780216Y-114082456D01*
X131632646Y-113983853D01*
X131507147Y-113858354D01*
X131408544Y-113710784D01*
X131340624Y-113546812D01*
X131306000Y-113372741D01*
X131306000Y-113195259D01*
X131307172Y-113189369D01*
X131314184Y-113154113D01*
X131340624Y-113021188D01*
X131408544Y-112857216D01*
X131507147Y-112709646D01*
X131632646Y-112584147D01*
X131780216Y-112485544D01*
X131944188Y-112417624D01*
X132093488Y-112387927D01*
X132118258Y-112383000D01*
X132295742Y-112383000D01*
X132320512Y-112387927D01*
G37*
G36*
X139527591Y-111842781D02*
G01*
X139561569Y-111853089D01*
X139592890Y-111869830D01*
X139625104Y-111896268D01*
X139664955Y-111936119D01*
X139664961Y-111936124D01*
X140010382Y-112281545D01*
X140010387Y-112281551D01*
X140050238Y-112321402D01*
X140076676Y-112353616D01*
X140093417Y-112384937D01*
X140103725Y-112418915D01*
X140107205Y-112454256D01*
X140103725Y-112489597D01*
X140093417Y-112523575D01*
X140076676Y-112554896D01*
X140050238Y-112587110D01*
X140010387Y-112626961D01*
X140010382Y-112626967D01*
X139611927Y-113025422D01*
X139611921Y-113025427D01*
X139572070Y-113065278D01*
X139539856Y-113091716D01*
X139508535Y-113108457D01*
X139474557Y-113118765D01*
X139439216Y-113122245D01*
X139403875Y-113118765D01*
X139369897Y-113108457D01*
X139338576Y-113091716D01*
X139306362Y-113065278D01*
X139266511Y-113025427D01*
X139266505Y-113025422D01*
X138921084Y-112680001D01*
X138921079Y-112679995D01*
X138881228Y-112640144D01*
X138854790Y-112607930D01*
X138838049Y-112576609D01*
X138827741Y-112542631D01*
X138824261Y-112507290D01*
X138827741Y-112471949D01*
X138838049Y-112437971D01*
X138854790Y-112406650D01*
X138881228Y-112374436D01*
X138921079Y-112334585D01*
X138921084Y-112334579D01*
X139319539Y-111936124D01*
X139319545Y-111936119D01*
X139359396Y-111896268D01*
X139391610Y-111869830D01*
X139422931Y-111853089D01*
X139456909Y-111842781D01*
X139492250Y-111839301D01*
X139527591Y-111842781D01*
G37*
G36*
X141758885Y-111838875D02*
G01*
X141792863Y-111849183D01*
X141824184Y-111865924D01*
X141856398Y-111892362D01*
X141896249Y-111932213D01*
X141896255Y-111932218D01*
X142241676Y-112277639D01*
X142241681Y-112277645D01*
X142281532Y-112317496D01*
X142307970Y-112349710D01*
X142324711Y-112381031D01*
X142335019Y-112415009D01*
X142338499Y-112450350D01*
X142335019Y-112485691D01*
X142324711Y-112519669D01*
X142307970Y-112550990D01*
X142281532Y-112583204D01*
X142241681Y-112623055D01*
X142241676Y-112623061D01*
X141843221Y-113021516D01*
X141843215Y-113021521D01*
X141803364Y-113061372D01*
X141771150Y-113087810D01*
X141739829Y-113104551D01*
X141705851Y-113114859D01*
X141670510Y-113118339D01*
X141635169Y-113114859D01*
X141601191Y-113104551D01*
X141569870Y-113087810D01*
X141537656Y-113061372D01*
X141497805Y-113021521D01*
X141497799Y-113021516D01*
X141152378Y-112676095D01*
X141152373Y-112676089D01*
X141112522Y-112636238D01*
X141086084Y-112604024D01*
X141069343Y-112572703D01*
X141059035Y-112538725D01*
X141055555Y-112503384D01*
X141059035Y-112468043D01*
X141069343Y-112434065D01*
X141086084Y-112402744D01*
X141112522Y-112370530D01*
X141152373Y-112330679D01*
X141152378Y-112330673D01*
X141550833Y-111932218D01*
X141550839Y-111932213D01*
X141590690Y-111892362D01*
X141622904Y-111865924D01*
X141654225Y-111849183D01*
X141688203Y-111838875D01*
X141723544Y-111835395D01*
X141758885Y-111838875D01*
G37*
G36*
X140645191Y-110725181D02*
G01*
X140679169Y-110735489D01*
X140710490Y-110752230D01*
X140742704Y-110778668D01*
X140782555Y-110818519D01*
X140782561Y-110818524D01*
X141127982Y-111163945D01*
X141127987Y-111163951D01*
X141167838Y-111203802D01*
X141194276Y-111236016D01*
X141211017Y-111267337D01*
X141221325Y-111301315D01*
X141224805Y-111336656D01*
X141221325Y-111371997D01*
X141211017Y-111405975D01*
X141194276Y-111437296D01*
X141167838Y-111469510D01*
X141127987Y-111509361D01*
X141127982Y-111509367D01*
X140729527Y-111907822D01*
X140729521Y-111907827D01*
X140689670Y-111947678D01*
X140657456Y-111974116D01*
X140626135Y-111990857D01*
X140592157Y-112001165D01*
X140556816Y-112004645D01*
X140521475Y-112001165D01*
X140487497Y-111990857D01*
X140456176Y-111974116D01*
X140423962Y-111947678D01*
X140384111Y-111907827D01*
X140384105Y-111907822D01*
X140038684Y-111562401D01*
X140038679Y-111562395D01*
X139998828Y-111522544D01*
X139972390Y-111490330D01*
X139955649Y-111459009D01*
X139945341Y-111425031D01*
X139941861Y-111389690D01*
X139945341Y-111354349D01*
X139955649Y-111320371D01*
X139972390Y-111289050D01*
X139998828Y-111256836D01*
X140038679Y-111216985D01*
X140038684Y-111216979D01*
X140437139Y-110818524D01*
X140437145Y-110818519D01*
X140476996Y-110778668D01*
X140509210Y-110752230D01*
X140540531Y-110735489D01*
X140574509Y-110725181D01*
X140609850Y-110721701D01*
X140645191Y-110725181D01*
G37*
G36*
X147194063Y-110933238D02*
G01*
X147214682Y-110939493D01*
X147233678Y-110949646D01*
X147255099Y-110967226D01*
X147579468Y-111291595D01*
X147597048Y-111313016D01*
X147607201Y-111332012D01*
X147613456Y-111352631D01*
X147615567Y-111374069D01*
X147613456Y-111395507D01*
X147607201Y-111416126D01*
X147597048Y-111435122D01*
X147579468Y-111456543D01*
X147219743Y-111816268D01*
X147198322Y-111833848D01*
X147179326Y-111844001D01*
X147158707Y-111850256D01*
X147137269Y-111852367D01*
X147115831Y-111850256D01*
X147095212Y-111844001D01*
X147076216Y-111833848D01*
X147054795Y-111816268D01*
X146730426Y-111491899D01*
X146712846Y-111470478D01*
X146702693Y-111451482D01*
X146696438Y-111430863D01*
X146694327Y-111409425D01*
X146696438Y-111387987D01*
X146702693Y-111367368D01*
X146712846Y-111348372D01*
X146730426Y-111326951D01*
X147090151Y-110967226D01*
X147111572Y-110949646D01*
X147130568Y-110939493D01*
X147151187Y-110933238D01*
X147172625Y-110931127D01*
X147194063Y-110933238D01*
G37*
G36*
X132320512Y-109847927D02*
G01*
X132469812Y-109877624D01*
X132633784Y-109945544D01*
X132781354Y-110044147D01*
X132906853Y-110169646D01*
X133005456Y-110317216D01*
X133073376Y-110481188D01*
X133108000Y-110655259D01*
X133108000Y-110832741D01*
X133073376Y-111006812D01*
X133005456Y-111170784D01*
X132906853Y-111318354D01*
X132781354Y-111443853D01*
X132633784Y-111542456D01*
X132469812Y-111610376D01*
X132320512Y-111640073D01*
X132295742Y-111645000D01*
X132118258Y-111645000D01*
X132093488Y-111640073D01*
X131944188Y-111610376D01*
X131780216Y-111542456D01*
X131632646Y-111443853D01*
X131507147Y-111318354D01*
X131408544Y-111170784D01*
X131340624Y-111006812D01*
X131306000Y-110832741D01*
X131306000Y-110655259D01*
X131340624Y-110481188D01*
X131408544Y-110317216D01*
X131507147Y-110169646D01*
X131632646Y-110044147D01*
X131780216Y-109945544D01*
X131944188Y-109877624D01*
X132093488Y-109847927D01*
X132118258Y-109843000D01*
X132295742Y-109843000D01*
X132320512Y-109847927D01*
G37*
G36*
X134860512Y-109847927D02*
G01*
X135009812Y-109877624D01*
X135173784Y-109945544D01*
X135321354Y-110044147D01*
X135446853Y-110169646D01*
X135545456Y-110317216D01*
X135613376Y-110481188D01*
X135648000Y-110655259D01*
X135648000Y-110832741D01*
X135613376Y-111006812D01*
X135545456Y-111170784D01*
X135446853Y-111318354D01*
X135321354Y-111443853D01*
X135173784Y-111542456D01*
X135009812Y-111610376D01*
X134860512Y-111640073D01*
X134835742Y-111645000D01*
X134658258Y-111645000D01*
X134633488Y-111640073D01*
X134484188Y-111610376D01*
X134320216Y-111542456D01*
X134172646Y-111443853D01*
X134047147Y-111318354D01*
X133948544Y-111170784D01*
X133880624Y-111006812D01*
X133846000Y-110832741D01*
X133846000Y-110655259D01*
X133880624Y-110481188D01*
X133948544Y-110317216D01*
X134047147Y-110169646D01*
X134172646Y-110044147D01*
X134320216Y-109945544D01*
X134484188Y-109877624D01*
X134633488Y-109847927D01*
X134658258Y-109843000D01*
X134835742Y-109843000D01*
X134860512Y-109847927D01*
G37*
G36*
X160260512Y-109847927D02*
G01*
X160409812Y-109877624D01*
X160573784Y-109945544D01*
X160721354Y-110044147D01*
X160846853Y-110169646D01*
X160945456Y-110317216D01*
X161013376Y-110481188D01*
X161048000Y-110655259D01*
X161048000Y-110832741D01*
X161013376Y-111006812D01*
X160945456Y-111170784D01*
X160846853Y-111318354D01*
X160721354Y-111443853D01*
X160573784Y-111542456D01*
X160409812Y-111610376D01*
X160260512Y-111640073D01*
X160235742Y-111645000D01*
X160058258Y-111645000D01*
X160033488Y-111640073D01*
X159884188Y-111610376D01*
X159720216Y-111542456D01*
X159572646Y-111443853D01*
X159447147Y-111318354D01*
X159348544Y-111170784D01*
X159280624Y-111006812D01*
X159246000Y-110832741D01*
X159246000Y-110655259D01*
X159280624Y-110481188D01*
X159348544Y-110317216D01*
X159447147Y-110169646D01*
X159572646Y-110044147D01*
X159720216Y-109945544D01*
X159884188Y-109877624D01*
X160033488Y-109847927D01*
X160058258Y-109843000D01*
X160235742Y-109843000D01*
X160260512Y-109847927D01*
G37*
G36*
X162800512Y-109847927D02*
G01*
X162949812Y-109877624D01*
X163113784Y-109945544D01*
X163261354Y-110044147D01*
X163386853Y-110169646D01*
X163485456Y-110317216D01*
X163553376Y-110481188D01*
X163588000Y-110655259D01*
X163588000Y-110832741D01*
X163553376Y-111006812D01*
X163485456Y-111170784D01*
X163386853Y-111318354D01*
X163261354Y-111443853D01*
X163113784Y-111542456D01*
X162949812Y-111610376D01*
X162800512Y-111640073D01*
X162775742Y-111645000D01*
X162598258Y-111645000D01*
X162573488Y-111640073D01*
X162424188Y-111610376D01*
X162260216Y-111542456D01*
X162112646Y-111443853D01*
X161987147Y-111318354D01*
X161888544Y-111170784D01*
X161820624Y-111006812D01*
X161786000Y-110832741D01*
X161786000Y-110655259D01*
X161820624Y-110481188D01*
X161888544Y-110317216D01*
X161987147Y-110169646D01*
X162112646Y-110044147D01*
X162260216Y-109945544D01*
X162424188Y-109877624D01*
X162573488Y-109847927D01*
X162598258Y-109843000D01*
X162775742Y-109843000D01*
X162800512Y-109847927D01*
G37*
G36*
X155878391Y-110361285D02*
G01*
X155912369Y-110371593D01*
X155943690Y-110388334D01*
X155971139Y-110410861D01*
X155993666Y-110438310D01*
X156010407Y-110469631D01*
X156020715Y-110503609D01*
X156024800Y-110545090D01*
X156024800Y-111146310D01*
X156020715Y-111187791D01*
X156010407Y-111221769D01*
X155993666Y-111253090D01*
X155971139Y-111280539D01*
X155943690Y-111303066D01*
X155912369Y-111319807D01*
X155878391Y-111330115D01*
X155836910Y-111334200D01*
X155160690Y-111334200D01*
X155119209Y-111330115D01*
X155085231Y-111319807D01*
X155053910Y-111303066D01*
X155026461Y-111280539D01*
X155003934Y-111253090D01*
X154987193Y-111221769D01*
X154976885Y-111187791D01*
X154972800Y-111146310D01*
X154972800Y-110545090D01*
X154976885Y-110503609D01*
X154987193Y-110469631D01*
X155003934Y-110438310D01*
X155026461Y-110410861D01*
X155053910Y-110388334D01*
X155085231Y-110371593D01*
X155119209Y-110361285D01*
X155160690Y-110357200D01*
X155836910Y-110357200D01*
X155878391Y-110361285D01*
G37*
G36*
X157656391Y-110361285D02*
G01*
X157690369Y-110371593D01*
X157721690Y-110388334D01*
X157749139Y-110410861D01*
X157771666Y-110438310D01*
X157788407Y-110469631D01*
X157798715Y-110503609D01*
X157802800Y-110545090D01*
X157802800Y-111146310D01*
X157798715Y-111187791D01*
X157788407Y-111221769D01*
X157771666Y-111253090D01*
X157749139Y-111280539D01*
X157721690Y-111303066D01*
X157690369Y-111319807D01*
X157656391Y-111330115D01*
X157614910Y-111334200D01*
X156938690Y-111334200D01*
X156897209Y-111330115D01*
X156863231Y-111319807D01*
X156831910Y-111303066D01*
X156804461Y-111280539D01*
X156781934Y-111253090D01*
X156765193Y-111221769D01*
X156754885Y-111187791D01*
X156750800Y-111146310D01*
X156750800Y-110545090D01*
X156754885Y-110503609D01*
X156765193Y-110469631D01*
X156781934Y-110438310D01*
X156804461Y-110410861D01*
X156831910Y-110388334D01*
X156863231Y-110371593D01*
X156897209Y-110361285D01*
X156938690Y-110357200D01*
X157614910Y-110357200D01*
X157656391Y-110361285D01*
G37*
G36*
X146508169Y-110247344D02*
G01*
X146528788Y-110253599D01*
X146547784Y-110263752D01*
X146569205Y-110281332D01*
X146893574Y-110605701D01*
X146911154Y-110627122D01*
X146921307Y-110646118D01*
X146927562Y-110666737D01*
X146929673Y-110688175D01*
X146927562Y-110709613D01*
X146921307Y-110730232D01*
X146911154Y-110749228D01*
X146893574Y-110770649D01*
X146533849Y-111130374D01*
X146512428Y-111147954D01*
X146493432Y-111158107D01*
X146472813Y-111164362D01*
X146451375Y-111166473D01*
X146429937Y-111164362D01*
X146409318Y-111158107D01*
X146390322Y-111147954D01*
X146368901Y-111130374D01*
X146044532Y-110806005D01*
X146026952Y-110784584D01*
X146016799Y-110765588D01*
X146010544Y-110744969D01*
X146008433Y-110723531D01*
X146010544Y-110702093D01*
X146016799Y-110681474D01*
X146026952Y-110662478D01*
X146044532Y-110641057D01*
X146404257Y-110281332D01*
X146425678Y-110263752D01*
X146444674Y-110253599D01*
X146465293Y-110247344D01*
X146486731Y-110245233D01*
X146508169Y-110247344D01*
G37*
G36*
X147917916Y-110183891D02*
G01*
X147938535Y-110190146D01*
X147957531Y-110200299D01*
X147978952Y-110217879D01*
X148303321Y-110542248D01*
X148320901Y-110563669D01*
X148331054Y-110582665D01*
X148337309Y-110603284D01*
X148339420Y-110624722D01*
X148337309Y-110646160D01*
X148331054Y-110666779D01*
X148320901Y-110685775D01*
X148303321Y-110707196D01*
X147943596Y-111066921D01*
X147922175Y-111084501D01*
X147903179Y-111094654D01*
X147882560Y-111100909D01*
X147861122Y-111103020D01*
X147839684Y-111100909D01*
X147819065Y-111094654D01*
X147800069Y-111084501D01*
X147778648Y-111066921D01*
X147454279Y-110742552D01*
X147436699Y-110721131D01*
X147426546Y-110702135D01*
X147420291Y-110681516D01*
X147418180Y-110660078D01*
X147420291Y-110638640D01*
X147426546Y-110618021D01*
X147436699Y-110599025D01*
X147454279Y-110577604D01*
X147814004Y-110217879D01*
X147835425Y-110200299D01*
X147854421Y-110190146D01*
X147875040Y-110183891D01*
X147896478Y-110181780D01*
X147917916Y-110183891D01*
G37*
G36*
X153988811Y-108125271D02*
G01*
X154024603Y-108136129D01*
X154057595Y-108153763D01*
X154086508Y-108177492D01*
X154110237Y-108206405D01*
X154127871Y-108239397D01*
X154138729Y-108275189D01*
X154143000Y-108318555D01*
X154143000Y-110375445D01*
X154138729Y-110418811D01*
X154127871Y-110454603D01*
X154110237Y-110487595D01*
X154086508Y-110516508D01*
X154057595Y-110540237D01*
X154024603Y-110557871D01*
X153988811Y-110568729D01*
X153945445Y-110573000D01*
X152913555Y-110573000D01*
X152870189Y-110568729D01*
X152834397Y-110557871D01*
X152801405Y-110540237D01*
X152772492Y-110516508D01*
X152748763Y-110487595D01*
X152731129Y-110454603D01*
X152720271Y-110418811D01*
X152716000Y-110375445D01*
X152716000Y-108318555D01*
X152720271Y-108275189D01*
X152731129Y-108239397D01*
X152748763Y-108206405D01*
X152772492Y-108177492D01*
X152801405Y-108153763D01*
X152834397Y-108136129D01*
X152870189Y-108125271D01*
X152913555Y-108121000D01*
X153945445Y-108121000D01*
X153988811Y-108125271D01*
G37*
G36*
X150913811Y-108125271D02*
G01*
X150949603Y-108136129D01*
X150982595Y-108153763D01*
X151011508Y-108177492D01*
X151035237Y-108206405D01*
X151052871Y-108239397D01*
X151063729Y-108275189D01*
X151068000Y-108318555D01*
X151068000Y-110375445D01*
X151063729Y-110418811D01*
X151052871Y-110454603D01*
X151035237Y-110487595D01*
X151011508Y-110516508D01*
X150982595Y-110540237D01*
X150949603Y-110557871D01*
X150913811Y-110568729D01*
X150870445Y-110573000D01*
X149838555Y-110573000D01*
X149795189Y-110568729D01*
X149759397Y-110557871D01*
X149726405Y-110540237D01*
X149697492Y-110516508D01*
X149673763Y-110487595D01*
X149656129Y-110454603D01*
X149645271Y-110418811D01*
X149641000Y-110375445D01*
X149641000Y-108318555D01*
X149645271Y-108275189D01*
X149656129Y-108239397D01*
X149673763Y-108206405D01*
X149697492Y-108177492D01*
X149726405Y-108153763D01*
X149759397Y-108136129D01*
X149795189Y-108125271D01*
X149838555Y-108121000D01*
X150870445Y-108121000D01*
X150913811Y-108125271D01*
G37*
G36*
X147232022Y-109497997D02*
G01*
X147252641Y-109504252D01*
X147271637Y-109514405D01*
X147293058Y-109531985D01*
X147617427Y-109856354D01*
X147635007Y-109877775D01*
X147645160Y-109896771D01*
X147651415Y-109917390D01*
X147653526Y-109938828D01*
X147651415Y-109960266D01*
X147645160Y-109980885D01*
X147635007Y-109999881D01*
X147617427Y-110021302D01*
X147257702Y-110381027D01*
X147236281Y-110398607D01*
X147217285Y-110408760D01*
X147196666Y-110415015D01*
X147175228Y-110417126D01*
X147153790Y-110415015D01*
X147133171Y-110408760D01*
X147114175Y-110398607D01*
X147092754Y-110381027D01*
X146768385Y-110056658D01*
X146750805Y-110035237D01*
X146740652Y-110016241D01*
X146734397Y-109995622D01*
X146732286Y-109974184D01*
X146734397Y-109952746D01*
X146740652Y-109932127D01*
X146750805Y-109913131D01*
X146768385Y-109891710D01*
X147128110Y-109531985D01*
X147149531Y-109514405D01*
X147168527Y-109504252D01*
X147189146Y-109497997D01*
X147210584Y-109495886D01*
X147232022Y-109497997D01*
G37*
G36*
X157656391Y-108786285D02*
G01*
X157690369Y-108796593D01*
X157721690Y-108813334D01*
X157749139Y-108835861D01*
X157771666Y-108863310D01*
X157788407Y-108894631D01*
X157798715Y-108928609D01*
X157802800Y-108970090D01*
X157802800Y-109571310D01*
X157798715Y-109612791D01*
X157788407Y-109646769D01*
X157771666Y-109678090D01*
X157749139Y-109705539D01*
X157721690Y-109728066D01*
X157690369Y-109744807D01*
X157656391Y-109755115D01*
X157614910Y-109759200D01*
X156938690Y-109759200D01*
X156897209Y-109755115D01*
X156863231Y-109744807D01*
X156831910Y-109728066D01*
X156804461Y-109705539D01*
X156781934Y-109678090D01*
X156765193Y-109646769D01*
X156754885Y-109612791D01*
X156750800Y-109571310D01*
X156750800Y-108970090D01*
X156754885Y-108928609D01*
X156765193Y-108894631D01*
X156781934Y-108863310D01*
X156804461Y-108835861D01*
X156831910Y-108813334D01*
X156863231Y-108796593D01*
X156897209Y-108786285D01*
X156938690Y-108782200D01*
X157614910Y-108782200D01*
X157656391Y-108786285D01*
G37*
G36*
X155878391Y-108786285D02*
G01*
X155912369Y-108796593D01*
X155943690Y-108813334D01*
X155971139Y-108835861D01*
X155993666Y-108863310D01*
X156010407Y-108894631D01*
X156020715Y-108928609D01*
X156024800Y-108970090D01*
X156024800Y-109571310D01*
X156020715Y-109612791D01*
X156010407Y-109646769D01*
X155993666Y-109678090D01*
X155971139Y-109705539D01*
X155943690Y-109728066D01*
X155912369Y-109744807D01*
X155878391Y-109755115D01*
X155836910Y-109759200D01*
X155160690Y-109759200D01*
X155119209Y-109755115D01*
X155085231Y-109744807D01*
X155053910Y-109728066D01*
X155026461Y-109705539D01*
X155003934Y-109678090D01*
X154987193Y-109646769D01*
X154976885Y-109612791D01*
X154972800Y-109571310D01*
X154972800Y-108970090D01*
X154976885Y-108928609D01*
X154987193Y-108894631D01*
X155003934Y-108863310D01*
X155026461Y-108835861D01*
X155053910Y-108813334D01*
X155085231Y-108796593D01*
X155119209Y-108786285D01*
X155160690Y-108782200D01*
X155836910Y-108782200D01*
X155878391Y-108786285D01*
G37*
G36*
X160260512Y-107307927D02*
G01*
X160409812Y-107337624D01*
X160573784Y-107405544D01*
X160721354Y-107504147D01*
X160846853Y-107629646D01*
X160945456Y-107777216D01*
X161013376Y-107941188D01*
X161048000Y-108115259D01*
X161048000Y-108292741D01*
X161013376Y-108466812D01*
X160945456Y-108630784D01*
X160846853Y-108778354D01*
X160721354Y-108903853D01*
X160573784Y-109002456D01*
X160409812Y-109070376D01*
X160260512Y-109100073D01*
X160235742Y-109105000D01*
X160058258Y-109105000D01*
X160033488Y-109100073D01*
X159884188Y-109070376D01*
X159720216Y-109002456D01*
X159572646Y-108903853D01*
X159447147Y-108778354D01*
X159348544Y-108630784D01*
X159280624Y-108466812D01*
X159246000Y-108292741D01*
X159246000Y-108115259D01*
X159280624Y-107941188D01*
X159348544Y-107777216D01*
X159447147Y-107629646D01*
X159572646Y-107504147D01*
X159720216Y-107405544D01*
X159884188Y-107337624D01*
X160033488Y-107307927D01*
X160058258Y-107303000D01*
X160235742Y-107303000D01*
X160260512Y-107307927D01*
G37*
G36*
X134860512Y-107307927D02*
G01*
X135009812Y-107337624D01*
X135173784Y-107405544D01*
X135321354Y-107504147D01*
X135446853Y-107629646D01*
X135545456Y-107777216D01*
X135613376Y-107941188D01*
X135648000Y-108115259D01*
X135648000Y-108292741D01*
X135613376Y-108466812D01*
X135545456Y-108630784D01*
X135446853Y-108778354D01*
X135321354Y-108903853D01*
X135173784Y-109002456D01*
X135009812Y-109070376D01*
X134860512Y-109100073D01*
X134835742Y-109105000D01*
X134658258Y-109105000D01*
X134633488Y-109100073D01*
X134484188Y-109070376D01*
X134320216Y-109002456D01*
X134172646Y-108903853D01*
X134047147Y-108778354D01*
X133948544Y-108630784D01*
X133880624Y-108466812D01*
X133846000Y-108292741D01*
X133846000Y-108115259D01*
X133880624Y-107941188D01*
X133948544Y-107777216D01*
X134047147Y-107629646D01*
X134172646Y-107504147D01*
X134320216Y-107405544D01*
X134484188Y-107337624D01*
X134633488Y-107307927D01*
X134658258Y-107303000D01*
X134835742Y-107303000D01*
X134860512Y-107307927D01*
G37*
G36*
X162800512Y-107307927D02*
G01*
X162949812Y-107337624D01*
X163113784Y-107405544D01*
X163261354Y-107504147D01*
X163386853Y-107629646D01*
X163485456Y-107777216D01*
X163553376Y-107941188D01*
X163588000Y-108115259D01*
X163588000Y-108292741D01*
X163553376Y-108466812D01*
X163485456Y-108630784D01*
X163386853Y-108778354D01*
X163261354Y-108903853D01*
X163113784Y-109002456D01*
X162949812Y-109070376D01*
X162800512Y-109100073D01*
X162775742Y-109105000D01*
X162598258Y-109105000D01*
X162573488Y-109100073D01*
X162424188Y-109070376D01*
X162260216Y-109002456D01*
X162112646Y-108903853D01*
X161987147Y-108778354D01*
X161888544Y-108630784D01*
X161820624Y-108466812D01*
X161786000Y-108292741D01*
X161786000Y-108115259D01*
X161820624Y-107941188D01*
X161888544Y-107777216D01*
X161987147Y-107629646D01*
X162112646Y-107504147D01*
X162260216Y-107405544D01*
X162424188Y-107337624D01*
X162573488Y-107307927D01*
X162598258Y-107303000D01*
X162775742Y-107303000D01*
X162800512Y-107307927D01*
G37*
G36*
X132320512Y-107307927D02*
G01*
X132469812Y-107337624D01*
X132633784Y-107405544D01*
X132781354Y-107504147D01*
X132906853Y-107629646D01*
X133005456Y-107777216D01*
X133073376Y-107941188D01*
X133108000Y-108115259D01*
X133108000Y-108292741D01*
X133073376Y-108466812D01*
X133005456Y-108630784D01*
X132906853Y-108778354D01*
X132781354Y-108903853D01*
X132633784Y-109002456D01*
X132469812Y-109070376D01*
X132320512Y-109100073D01*
X132295742Y-109105000D01*
X132118258Y-109105000D01*
X132093488Y-109100073D01*
X131944188Y-109070376D01*
X131780216Y-109002456D01*
X131632646Y-108903853D01*
X131507147Y-108778354D01*
X131408544Y-108630784D01*
X131340624Y-108466812D01*
X131306000Y-108292741D01*
X131306000Y-108115259D01*
X131340624Y-107941188D01*
X131408544Y-107777216D01*
X131507147Y-107629646D01*
X131632646Y-107504147D01*
X131780216Y-107405544D01*
X131944188Y-107337624D01*
X132093488Y-107307927D01*
X132118258Y-107303000D01*
X132295742Y-107303000D01*
X132320512Y-107307927D01*
G37*
G36*
X146632791Y-106932285D02*
G01*
X146666769Y-106942593D01*
X146698090Y-106959334D01*
X146725539Y-106981861D01*
X146748066Y-107009310D01*
X146764807Y-107040631D01*
X146775115Y-107074609D01*
X146779200Y-107116090D01*
X146779200Y-107717310D01*
X146775115Y-107758791D01*
X146764807Y-107792769D01*
X146748066Y-107824090D01*
X146725539Y-107851539D01*
X146698090Y-107874066D01*
X146666769Y-107890807D01*
X146632791Y-107901115D01*
X146591310Y-107905200D01*
X145915090Y-107905200D01*
X145873609Y-107901115D01*
X145839631Y-107890807D01*
X145808310Y-107874066D01*
X145780861Y-107851539D01*
X145758334Y-107824090D01*
X145741593Y-107792769D01*
X145731285Y-107758791D01*
X145727200Y-107717310D01*
X145727200Y-107116090D01*
X145731285Y-107074609D01*
X145741593Y-107040631D01*
X145758334Y-107009310D01*
X145780861Y-106981861D01*
X145808310Y-106959334D01*
X145839631Y-106942593D01*
X145873609Y-106932285D01*
X145915090Y-106928200D01*
X146591310Y-106928200D01*
X146632791Y-106932285D01*
G37*
G36*
X139407200Y-107276200D02*
G01*
X137605200Y-107276200D01*
X137605200Y-105474200D01*
X139407200Y-105474200D01*
X139407200Y-107276200D01*
G37*
G36*
X141159712Y-105479127D02*
G01*
X141309012Y-105508824D01*
X141472984Y-105576744D01*
X141620554Y-105675347D01*
X141746053Y-105800846D01*
X141844656Y-105948416D01*
X141912576Y-106112388D01*
X141947200Y-106286459D01*
X141947200Y-106463941D01*
X141912576Y-106638012D01*
X141844656Y-106801984D01*
X141746053Y-106949554D01*
X141620554Y-107075053D01*
X141472984Y-107173656D01*
X141309012Y-107241576D01*
X141159712Y-107271273D01*
X141134942Y-107276200D01*
X140957458Y-107276200D01*
X140932688Y-107271273D01*
X140783388Y-107241576D01*
X140619416Y-107173656D01*
X140471846Y-107075053D01*
X140346347Y-106949554D01*
X140247744Y-106801984D01*
X140179824Y-106638012D01*
X140145200Y-106463941D01*
X140145200Y-106286459D01*
X140179824Y-106112388D01*
X140247744Y-105948416D01*
X140346347Y-105800846D01*
X140471846Y-105675347D01*
X140619416Y-105576744D01*
X140783388Y-105508824D01*
X140932688Y-105479127D01*
X140957458Y-105474200D01*
X141134942Y-105474200D01*
X141159712Y-105479127D01*
G37*
G36*
X143699712Y-105479127D02*
G01*
X143849012Y-105508824D01*
X144012984Y-105576744D01*
X144160554Y-105675347D01*
X144286053Y-105800846D01*
X144384656Y-105948416D01*
X144452576Y-106112388D01*
X144487200Y-106286459D01*
X144487200Y-106463941D01*
X144452576Y-106638012D01*
X144384656Y-106801984D01*
X144286053Y-106949554D01*
X144160554Y-107075053D01*
X144012984Y-107173656D01*
X143849012Y-107241576D01*
X143699712Y-107271273D01*
X143674942Y-107276200D01*
X143497458Y-107276200D01*
X143472688Y-107271273D01*
X143323388Y-107241576D01*
X143159416Y-107173656D01*
X143011846Y-107075053D01*
X142886347Y-106949554D01*
X142787744Y-106801984D01*
X142719824Y-106638012D01*
X142685200Y-106463941D01*
X142685200Y-106286459D01*
X142719824Y-106112388D01*
X142787744Y-105948416D01*
X142886347Y-105800846D01*
X143011846Y-105675347D01*
X143159416Y-105576744D01*
X143323388Y-105508824D01*
X143472688Y-105479127D01*
X143497458Y-105474200D01*
X143674942Y-105474200D01*
X143699712Y-105479127D01*
G37*
G36*
X157846000Y-106987000D02*
G01*
X155744000Y-106987000D01*
X155744000Y-105385000D01*
X157846000Y-105385000D01*
X157846000Y-106987000D01*
G37*
G36*
X134860512Y-104767927D02*
G01*
X135009812Y-104797624D01*
X135173784Y-104865544D01*
X135321354Y-104964147D01*
X135446853Y-105089646D01*
X135545456Y-105237216D01*
X135613376Y-105401188D01*
X135648000Y-105575259D01*
X135648000Y-105752741D01*
X135613376Y-105926812D01*
X135545456Y-106090784D01*
X135446853Y-106238354D01*
X135321354Y-106363853D01*
X135173784Y-106462456D01*
X135009812Y-106530376D01*
X134860512Y-106560073D01*
X134835742Y-106565000D01*
X134658258Y-106565000D01*
X134633488Y-106560073D01*
X134484188Y-106530376D01*
X134320216Y-106462456D01*
X134172646Y-106363853D01*
X134047147Y-106238354D01*
X133948544Y-106090784D01*
X133880624Y-105926812D01*
X133846000Y-105752741D01*
X133846000Y-105575259D01*
X133880624Y-105401188D01*
X133948544Y-105237216D01*
X134047147Y-105089646D01*
X134172646Y-104964147D01*
X134320216Y-104865544D01*
X134484188Y-104797624D01*
X134633488Y-104767927D01*
X134658258Y-104763000D01*
X134835742Y-104763000D01*
X134860512Y-104767927D01*
G37*
G36*
X162800512Y-104767927D02*
G01*
X162949812Y-104797624D01*
X163113784Y-104865544D01*
X163261354Y-104964147D01*
X163386853Y-105089646D01*
X163485456Y-105237216D01*
X163553376Y-105401188D01*
X163588000Y-105575259D01*
X163588000Y-105752741D01*
X163553376Y-105926812D01*
X163485456Y-106090784D01*
X163386853Y-106238354D01*
X163261354Y-106363853D01*
X163113784Y-106462456D01*
X162949812Y-106530376D01*
X162800512Y-106560073D01*
X162775742Y-106565000D01*
X162598258Y-106565000D01*
X162573488Y-106560073D01*
X162424188Y-106530376D01*
X162260216Y-106462456D01*
X162112646Y-106363853D01*
X161987147Y-106238354D01*
X161888544Y-106090784D01*
X161820624Y-105926812D01*
X161786000Y-105752741D01*
X161786000Y-105575259D01*
X161820624Y-105401188D01*
X161888544Y-105237216D01*
X161987147Y-105089646D01*
X162112646Y-104964147D01*
X162260216Y-104865544D01*
X162424188Y-104797624D01*
X162573488Y-104767927D01*
X162598258Y-104763000D01*
X162775742Y-104763000D01*
X162800512Y-104767927D01*
G37*
G36*
X160260512Y-104767927D02*
G01*
X160409812Y-104797624D01*
X160573784Y-104865544D01*
X160721354Y-104964147D01*
X160846853Y-105089646D01*
X160945456Y-105237216D01*
X161013376Y-105401188D01*
X161048000Y-105575259D01*
X161048000Y-105752741D01*
X161013376Y-105926812D01*
X160945456Y-106090784D01*
X160846853Y-106238354D01*
X160721354Y-106363853D01*
X160573784Y-106462456D01*
X160409812Y-106530376D01*
X160260512Y-106560073D01*
X160235742Y-106565000D01*
X160058258Y-106565000D01*
X160033488Y-106560073D01*
X159884188Y-106530376D01*
X159720216Y-106462456D01*
X159572646Y-106363853D01*
X159447147Y-106238354D01*
X159348544Y-106090784D01*
X159280624Y-105926812D01*
X159246000Y-105752741D01*
X159246000Y-105575259D01*
X159280624Y-105401188D01*
X159348544Y-105237216D01*
X159447147Y-105089646D01*
X159572646Y-104964147D01*
X159720216Y-104865544D01*
X159884188Y-104797624D01*
X160033488Y-104767927D01*
X160058258Y-104763000D01*
X160235742Y-104763000D01*
X160260512Y-104767927D01*
G37*
G36*
X132320512Y-104767927D02*
G01*
X132469812Y-104797624D01*
X132633784Y-104865544D01*
X132781354Y-104964147D01*
X132906853Y-105089646D01*
X133005456Y-105237216D01*
X133073376Y-105401188D01*
X133108000Y-105575259D01*
X133108000Y-105752741D01*
X133073376Y-105926812D01*
X133005456Y-106090784D01*
X132906853Y-106238354D01*
X132781354Y-106363853D01*
X132633784Y-106462456D01*
X132469812Y-106530376D01*
X132320512Y-106560073D01*
X132295742Y-106565000D01*
X132118258Y-106565000D01*
X132093488Y-106560073D01*
X131944188Y-106530376D01*
X131780216Y-106462456D01*
X131632646Y-106363853D01*
X131507147Y-106238354D01*
X131408544Y-106090784D01*
X131340624Y-105926812D01*
X131306000Y-105752741D01*
X131306000Y-105575259D01*
X131340624Y-105401188D01*
X131408544Y-105237216D01*
X131507147Y-105089646D01*
X131632646Y-104964147D01*
X131780216Y-104865544D01*
X131944188Y-104797624D01*
X132093488Y-104767927D01*
X132118258Y-104763000D01*
X132295742Y-104763000D01*
X132320512Y-104767927D01*
G37*
G36*
X146632791Y-105357285D02*
G01*
X146666769Y-105367593D01*
X146698090Y-105384334D01*
X146725539Y-105406861D01*
X146748066Y-105434310D01*
X146764807Y-105465631D01*
X146775115Y-105499609D01*
X146779200Y-105541090D01*
X146779200Y-106142310D01*
X146775115Y-106183791D01*
X146764807Y-106217769D01*
X146748066Y-106249090D01*
X146725539Y-106276539D01*
X146698090Y-106299066D01*
X146666769Y-106315807D01*
X146632791Y-106326115D01*
X146591310Y-106330200D01*
X145915090Y-106330200D01*
X145873609Y-106326115D01*
X145839631Y-106315807D01*
X145808310Y-106299066D01*
X145780861Y-106276539D01*
X145758334Y-106249090D01*
X145741593Y-106217769D01*
X145731285Y-106183791D01*
X145727200Y-106142310D01*
X145727200Y-105541090D01*
X145731285Y-105499609D01*
X145741593Y-105465631D01*
X145758334Y-105434310D01*
X145780861Y-105406861D01*
X145808310Y-105384334D01*
X145839631Y-105367593D01*
X145873609Y-105357285D01*
X145915090Y-105353200D01*
X146591310Y-105353200D01*
X146632791Y-105357285D01*
G37*
G36*
X151546000Y-105837000D02*
G01*
X149444000Y-105837000D01*
X149444000Y-101935000D01*
X151546000Y-101935000D01*
X151546000Y-105837000D01*
G37*
G36*
X146632791Y-103782685D02*
G01*
X146666769Y-103792993D01*
X146698090Y-103809734D01*
X146725539Y-103832261D01*
X146748066Y-103859710D01*
X146764807Y-103891031D01*
X146775115Y-103925009D01*
X146779200Y-103966490D01*
X146779200Y-104567710D01*
X146775115Y-104609191D01*
X146764807Y-104643169D01*
X146748066Y-104674490D01*
X146725539Y-104701939D01*
X146698090Y-104724466D01*
X146666769Y-104741207D01*
X146632791Y-104751515D01*
X146591310Y-104755600D01*
X145915090Y-104755600D01*
X145873609Y-104751515D01*
X145839631Y-104741207D01*
X145808310Y-104724466D01*
X145780861Y-104701939D01*
X145758334Y-104674490D01*
X145741593Y-104643169D01*
X145731285Y-104609191D01*
X145727200Y-104567710D01*
X145727200Y-103966490D01*
X145731285Y-103925009D01*
X145741593Y-103891031D01*
X145758334Y-103859710D01*
X145780861Y-103832261D01*
X145808310Y-103809734D01*
X145839631Y-103792993D01*
X145873609Y-103782685D01*
X145915090Y-103778600D01*
X146591310Y-103778600D01*
X146632791Y-103782685D01*
G37*
G36*
X143699712Y-102939127D02*
G01*
X143849012Y-102968824D01*
X144012984Y-103036744D01*
X144160554Y-103135347D01*
X144286053Y-103260846D01*
X144384656Y-103408416D01*
X144452576Y-103572388D01*
X144487200Y-103746459D01*
X144487200Y-103923941D01*
X144452576Y-104098012D01*
X144384656Y-104261984D01*
X144286053Y-104409554D01*
X144160554Y-104535053D01*
X144012984Y-104633656D01*
X143849012Y-104701576D01*
X143699712Y-104731273D01*
X143674942Y-104736200D01*
X143497458Y-104736200D01*
X143472688Y-104731273D01*
X143323388Y-104701576D01*
X143159416Y-104633656D01*
X143011846Y-104535053D01*
X142886347Y-104409554D01*
X142787744Y-104261984D01*
X142719824Y-104098012D01*
X142685200Y-103923941D01*
X142685200Y-103746459D01*
X142719824Y-103572388D01*
X142787744Y-103408416D01*
X142886347Y-103260846D01*
X143011846Y-103135347D01*
X143159416Y-103036744D01*
X143323388Y-102968824D01*
X143472688Y-102939127D01*
X143497458Y-102934200D01*
X143674942Y-102934200D01*
X143699712Y-102939127D01*
G37*
G36*
X141159712Y-102939127D02*
G01*
X141309012Y-102968824D01*
X141472984Y-103036744D01*
X141620554Y-103135347D01*
X141746053Y-103260846D01*
X141844656Y-103408416D01*
X141912576Y-103572388D01*
X141947200Y-103746459D01*
X141947200Y-103923941D01*
X141912576Y-104098012D01*
X141844656Y-104261984D01*
X141746053Y-104409554D01*
X141620554Y-104535053D01*
X141472984Y-104633656D01*
X141309012Y-104701576D01*
X141159712Y-104731273D01*
X141134942Y-104736200D01*
X140957458Y-104736200D01*
X140932688Y-104731273D01*
X140783388Y-104701576D01*
X140619416Y-104633656D01*
X140471846Y-104535053D01*
X140346347Y-104409554D01*
X140247744Y-104261984D01*
X140179824Y-104098012D01*
X140145200Y-103923941D01*
X140145200Y-103746459D01*
X140179824Y-103572388D01*
X140247744Y-103408416D01*
X140346347Y-103260846D01*
X140471846Y-103135347D01*
X140619416Y-103036744D01*
X140783388Y-102968824D01*
X140932688Y-102939127D01*
X140957458Y-102934200D01*
X141134942Y-102934200D01*
X141159712Y-102939127D01*
G37*
G36*
X138619712Y-102939127D02*
G01*
X138769012Y-102968824D01*
X138932984Y-103036744D01*
X139080554Y-103135347D01*
X139206053Y-103260846D01*
X139304656Y-103408416D01*
X139372576Y-103572388D01*
X139407200Y-103746459D01*
X139407200Y-103923941D01*
X139372576Y-104098012D01*
X139304656Y-104261984D01*
X139206053Y-104409554D01*
X139080554Y-104535053D01*
X138932984Y-104633656D01*
X138769012Y-104701576D01*
X138619712Y-104731273D01*
X138594942Y-104736200D01*
X138417458Y-104736200D01*
X138392688Y-104731273D01*
X138243388Y-104701576D01*
X138079416Y-104633656D01*
X137931846Y-104535053D01*
X137806347Y-104409554D01*
X137707744Y-104261984D01*
X137639824Y-104098012D01*
X137605200Y-103923941D01*
X137605200Y-103746459D01*
X137639824Y-103572388D01*
X137707744Y-103408416D01*
X137806347Y-103260846D01*
X137931846Y-103135347D01*
X138079416Y-103036744D01*
X138243388Y-102968824D01*
X138392688Y-102939127D01*
X138417458Y-102934200D01*
X138594942Y-102934200D01*
X138619712Y-102939127D01*
G37*
G36*
X157846000Y-104687000D02*
G01*
X155744000Y-104687000D01*
X155744000Y-103085000D01*
X157846000Y-103085000D01*
X157846000Y-104687000D01*
G37*
G36*
X162800512Y-102227927D02*
G01*
X162949812Y-102257624D01*
X163113784Y-102325544D01*
X163261354Y-102424147D01*
X163386853Y-102549646D01*
X163485456Y-102697216D01*
X163553376Y-102861188D01*
X163588000Y-103035259D01*
X163588000Y-103212741D01*
X163553376Y-103386812D01*
X163485456Y-103550784D01*
X163386853Y-103698354D01*
X163261354Y-103823853D01*
X163113784Y-103922456D01*
X162949812Y-103990376D01*
X162800512Y-104020073D01*
X162775742Y-104025000D01*
X162598258Y-104025000D01*
X162573488Y-104020073D01*
X162424188Y-103990376D01*
X162260216Y-103922456D01*
X162112646Y-103823853D01*
X161987147Y-103698354D01*
X161888544Y-103550784D01*
X161820624Y-103386812D01*
X161786000Y-103212741D01*
X161786000Y-103035259D01*
X161820624Y-102861188D01*
X161888544Y-102697216D01*
X161987147Y-102549646D01*
X162112646Y-102424147D01*
X162260216Y-102325544D01*
X162424188Y-102257624D01*
X162573488Y-102227927D01*
X162598258Y-102223000D01*
X162775742Y-102223000D01*
X162800512Y-102227927D01*
G37*
G36*
X132320512Y-102227927D02*
G01*
X132469812Y-102257624D01*
X132633784Y-102325544D01*
X132781354Y-102424147D01*
X132906853Y-102549646D01*
X133005456Y-102697216D01*
X133073376Y-102861188D01*
X133108000Y-103035259D01*
X133108000Y-103212741D01*
X133073376Y-103386812D01*
X133005456Y-103550784D01*
X132906853Y-103698354D01*
X132781354Y-103823853D01*
X132633784Y-103922456D01*
X132469812Y-103990376D01*
X132320512Y-104020073D01*
X132295742Y-104025000D01*
X132118258Y-104025000D01*
X132093488Y-104020073D01*
X131944188Y-103990376D01*
X131780216Y-103922456D01*
X131632646Y-103823853D01*
X131507147Y-103698354D01*
X131408544Y-103550784D01*
X131340624Y-103386812D01*
X131306000Y-103212741D01*
X131306000Y-103035259D01*
X131340624Y-102861188D01*
X131408544Y-102697216D01*
X131507147Y-102549646D01*
X131632646Y-102424147D01*
X131780216Y-102325544D01*
X131944188Y-102257624D01*
X132093488Y-102227927D01*
X132118258Y-102223000D01*
X132295742Y-102223000D01*
X132320512Y-102227927D01*
G37*
G36*
X160260512Y-102227927D02*
G01*
X160409812Y-102257624D01*
X160573784Y-102325544D01*
X160721354Y-102424147D01*
X160846853Y-102549646D01*
X160945456Y-102697216D01*
X161013376Y-102861188D01*
X161048000Y-103035259D01*
X161048000Y-103212741D01*
X161013376Y-103386812D01*
X160945456Y-103550784D01*
X160846853Y-103698354D01*
X160721354Y-103823853D01*
X160573784Y-103922456D01*
X160409812Y-103990376D01*
X160260512Y-104020073D01*
X160235742Y-104025000D01*
X160058258Y-104025000D01*
X160033488Y-104020073D01*
X159884188Y-103990376D01*
X159720216Y-103922456D01*
X159572646Y-103823853D01*
X159447147Y-103698354D01*
X159348544Y-103550784D01*
X159280624Y-103386812D01*
X159246000Y-103212741D01*
X159246000Y-103035259D01*
X159280624Y-102861188D01*
X159348544Y-102697216D01*
X159447147Y-102549646D01*
X159572646Y-102424147D01*
X159720216Y-102325544D01*
X159884188Y-102257624D01*
X160033488Y-102227927D01*
X160058258Y-102223000D01*
X160235742Y-102223000D01*
X160260512Y-102227927D01*
G37*
G36*
X134860512Y-102227927D02*
G01*
X135009812Y-102257624D01*
X135173784Y-102325544D01*
X135321354Y-102424147D01*
X135446853Y-102549646D01*
X135545456Y-102697216D01*
X135613376Y-102861188D01*
X135648000Y-103035259D01*
X135648000Y-103212741D01*
X135613376Y-103386812D01*
X135545456Y-103550784D01*
X135446853Y-103698354D01*
X135321354Y-103823853D01*
X135173784Y-103922456D01*
X135009812Y-103990376D01*
X134860512Y-104020073D01*
X134835742Y-104025000D01*
X134658258Y-104025000D01*
X134633488Y-104020073D01*
X134484188Y-103990376D01*
X134320216Y-103922456D01*
X134172646Y-103823853D01*
X134047147Y-103698354D01*
X133948544Y-103550784D01*
X133880624Y-103386812D01*
X133846000Y-103212741D01*
X133846000Y-103035259D01*
X133880624Y-102861188D01*
X133948544Y-102697216D01*
X134047147Y-102549646D01*
X134172646Y-102424147D01*
X134320216Y-102325544D01*
X134484188Y-102257624D01*
X134633488Y-102227927D01*
X134658258Y-102223000D01*
X134835742Y-102223000D01*
X134860512Y-102227927D01*
G37*
G36*
X146632791Y-102207685D02*
G01*
X146666769Y-102217993D01*
X146698090Y-102234734D01*
X146725539Y-102257261D01*
X146748066Y-102284710D01*
X146764807Y-102316031D01*
X146775115Y-102350009D01*
X146779200Y-102391490D01*
X146779200Y-102992710D01*
X146775115Y-103034191D01*
X146764807Y-103068169D01*
X146748066Y-103099490D01*
X146725539Y-103126939D01*
X146698090Y-103149466D01*
X146666769Y-103166207D01*
X146632791Y-103176515D01*
X146591310Y-103180600D01*
X145915090Y-103180600D01*
X145873609Y-103176515D01*
X145839631Y-103166207D01*
X145808310Y-103149466D01*
X145780861Y-103126939D01*
X145758334Y-103099490D01*
X145741593Y-103068169D01*
X145731285Y-103034191D01*
X145727200Y-102992710D01*
X145727200Y-102391490D01*
X145731285Y-102350009D01*
X145741593Y-102316031D01*
X145758334Y-102284710D01*
X145780861Y-102257261D01*
X145808310Y-102234734D01*
X145839631Y-102217993D01*
X145873609Y-102207685D01*
X145915090Y-102203600D01*
X146591310Y-102203600D01*
X146632791Y-102207685D01*
G37*
G36*
X148935438Y-102376716D02*
G01*
X148956057Y-102382971D01*
X148975053Y-102393124D01*
X148991708Y-102406792D01*
X149005376Y-102423447D01*
X149015529Y-102442443D01*
X149021784Y-102463062D01*
X149024500Y-102490640D01*
X149024500Y-102949360D01*
X149021784Y-102976938D01*
X149015529Y-102997557D01*
X149005376Y-103016553D01*
X148991708Y-103033208D01*
X148975053Y-103046876D01*
X148956057Y-103057029D01*
X148935438Y-103063284D01*
X148907860Y-103066000D01*
X148399140Y-103066000D01*
X148371562Y-103063284D01*
X148350943Y-103057029D01*
X148331947Y-103046876D01*
X148315292Y-103033208D01*
X148301624Y-103016553D01*
X148291471Y-102997557D01*
X148285216Y-102976938D01*
X148282500Y-102949360D01*
X148282500Y-102490640D01*
X148285216Y-102463062D01*
X148291471Y-102442443D01*
X148301624Y-102423447D01*
X148315292Y-102406792D01*
X148331947Y-102393124D01*
X148350943Y-102382971D01*
X148371562Y-102376716D01*
X148399140Y-102374000D01*
X148907860Y-102374000D01*
X148935438Y-102376716D01*
G37*
G36*
X157846000Y-102387000D02*
G01*
X155744000Y-102387000D01*
X155744000Y-100785000D01*
X157846000Y-100785000D01*
X157846000Y-102387000D01*
G37*
G36*
X148935438Y-101406716D02*
G01*
X148956057Y-101412971D01*
X148975053Y-101423124D01*
X148991708Y-101436792D01*
X149005376Y-101453447D01*
X149015529Y-101472443D01*
X149021784Y-101493062D01*
X149024500Y-101520640D01*
X149024500Y-101979360D01*
X149021784Y-102006938D01*
X149015529Y-102027557D01*
X149005376Y-102046553D01*
X148991708Y-102063208D01*
X148975053Y-102076876D01*
X148956057Y-102087029D01*
X148935438Y-102093284D01*
X148907860Y-102096000D01*
X148399140Y-102096000D01*
X148371562Y-102093284D01*
X148350943Y-102087029D01*
X148331947Y-102076876D01*
X148315292Y-102063208D01*
X148301624Y-102046553D01*
X148291471Y-102027557D01*
X148285216Y-102006938D01*
X148282500Y-101979360D01*
X148282500Y-101520640D01*
X148285216Y-101493062D01*
X148291471Y-101472443D01*
X148301624Y-101453447D01*
X148315292Y-101436792D01*
X148331947Y-101423124D01*
X148350943Y-101412971D01*
X148371562Y-101406716D01*
X148399140Y-101404000D01*
X148907860Y-101404000D01*
X148935438Y-101406716D01*
G37*
G36*
X139305591Y-100189085D02*
G01*
X139339569Y-100199393D01*
X139370890Y-100216134D01*
X139398339Y-100238661D01*
X139420866Y-100266110D01*
X139437607Y-100297431D01*
X139447915Y-100331409D01*
X139452000Y-100372890D01*
X139452000Y-101049110D01*
X139447915Y-101090591D01*
X139437607Y-101124569D01*
X139420866Y-101155890D01*
X139398339Y-101183339D01*
X139370890Y-101205866D01*
X139339569Y-101222607D01*
X139305591Y-101232915D01*
X139264110Y-101237000D01*
X138662890Y-101237000D01*
X138621409Y-101232915D01*
X138587431Y-101222607D01*
X138556110Y-101205866D01*
X138528661Y-101183339D01*
X138506134Y-101155890D01*
X138489393Y-101124569D01*
X138479085Y-101090591D01*
X138475000Y-101049110D01*
X138475000Y-100372890D01*
X138479085Y-100331409D01*
X138489393Y-100297431D01*
X138506134Y-100266110D01*
X138528661Y-100238661D01*
X138556110Y-100216134D01*
X138587431Y-100199393D01*
X138621409Y-100189085D01*
X138662890Y-100185000D01*
X139264110Y-100185000D01*
X139305591Y-100189085D01*
G37*
G36*
X142861591Y-100189085D02*
G01*
X142895569Y-100199393D01*
X142926890Y-100216134D01*
X142954339Y-100238661D01*
X142976866Y-100266110D01*
X142993607Y-100297431D01*
X143003915Y-100331409D01*
X143008000Y-100372890D01*
X143008000Y-101049110D01*
X143003915Y-101090591D01*
X142993607Y-101124569D01*
X142976866Y-101155890D01*
X142954339Y-101183339D01*
X142926890Y-101205866D01*
X142895569Y-101222607D01*
X142861591Y-101232915D01*
X142820110Y-101237000D01*
X142218890Y-101237000D01*
X142177409Y-101232915D01*
X142143431Y-101222607D01*
X142112110Y-101205866D01*
X142084661Y-101183339D01*
X142062134Y-101155890D01*
X142045393Y-101124569D01*
X142035085Y-101090591D01*
X142031000Y-101049110D01*
X142031000Y-100372890D01*
X142035085Y-100331409D01*
X142045393Y-100297431D01*
X142062134Y-100266110D01*
X142084661Y-100238661D01*
X142112110Y-100216134D01*
X142143431Y-100199393D01*
X142177409Y-100189085D01*
X142218890Y-100185000D01*
X142820110Y-100185000D01*
X142861591Y-100189085D01*
G37*
G36*
X141286591Y-100189085D02*
G01*
X141320569Y-100199393D01*
X141351890Y-100216134D01*
X141379339Y-100238661D01*
X141401866Y-100266110D01*
X141418607Y-100297431D01*
X141428915Y-100331409D01*
X141433000Y-100372890D01*
X141433000Y-101049110D01*
X141428915Y-101090591D01*
X141418607Y-101124569D01*
X141401866Y-101155890D01*
X141379339Y-101183339D01*
X141351890Y-101205866D01*
X141320569Y-101222607D01*
X141286591Y-101232915D01*
X141245110Y-101237000D01*
X140643890Y-101237000D01*
X140602409Y-101232915D01*
X140568431Y-101222607D01*
X140537110Y-101205866D01*
X140509661Y-101183339D01*
X140487134Y-101155890D01*
X140470393Y-101124569D01*
X140460085Y-101090591D01*
X140456000Y-101049110D01*
X140456000Y-100372890D01*
X140460085Y-100331409D01*
X140470393Y-100297431D01*
X140487134Y-100266110D01*
X140509661Y-100238661D01*
X140537110Y-100216134D01*
X140568431Y-100199393D01*
X140602409Y-100189085D01*
X140643890Y-100185000D01*
X141245110Y-100185000D01*
X141286591Y-100189085D01*
G37*
G36*
X137730591Y-100189085D02*
G01*
X137764569Y-100199393D01*
X137795890Y-100216134D01*
X137823339Y-100238661D01*
X137845866Y-100266110D01*
X137862607Y-100297431D01*
X137872915Y-100331409D01*
X137877000Y-100372890D01*
X137877000Y-101049110D01*
X137872915Y-101090591D01*
X137862607Y-101124569D01*
X137845866Y-101155890D01*
X137823339Y-101183339D01*
X137795890Y-101205866D01*
X137764569Y-101222607D01*
X137730591Y-101232915D01*
X137689110Y-101237000D01*
X137087890Y-101237000D01*
X137046409Y-101232915D01*
X137012431Y-101222607D01*
X136981110Y-101205866D01*
X136953661Y-101183339D01*
X136931134Y-101155890D01*
X136914393Y-101124569D01*
X136904085Y-101090591D01*
X136900000Y-101049110D01*
X136900000Y-100372890D01*
X136904085Y-100331409D01*
X136914393Y-100297431D01*
X136931134Y-100266110D01*
X136953661Y-100238661D01*
X136981110Y-100216134D01*
X137012431Y-100199393D01*
X137046409Y-100189085D01*
X137087890Y-100185000D01*
X137689110Y-100185000D01*
X137730591Y-100189085D01*
G37*
G36*
X159029938Y-100418916D02*
G01*
X159050557Y-100425171D01*
X159069553Y-100435324D01*
X159086208Y-100448992D01*
X159099876Y-100465647D01*
X159110029Y-100484643D01*
X159116284Y-100505262D01*
X159119000Y-100532840D01*
X159119000Y-101041560D01*
X159116284Y-101069138D01*
X159110029Y-101089757D01*
X159099876Y-101108753D01*
X159086208Y-101125408D01*
X159069553Y-101139076D01*
X159050557Y-101149229D01*
X159029938Y-101155484D01*
X159002360Y-101158200D01*
X158543640Y-101158200D01*
X158516062Y-101155484D01*
X158495443Y-101149229D01*
X158476447Y-101139076D01*
X158459792Y-101125408D01*
X158446124Y-101108753D01*
X158435971Y-101089757D01*
X158429716Y-101069138D01*
X158427000Y-101041560D01*
X158427000Y-100532840D01*
X158429716Y-100505262D01*
X158435971Y-100484643D01*
X158446124Y-100465647D01*
X158459792Y-100448992D01*
X158476447Y-100435324D01*
X158495443Y-100425171D01*
X158516062Y-100418916D01*
X158543640Y-100416200D01*
X159002360Y-100416200D01*
X159029938Y-100418916D01*
G37*
G36*
X159999938Y-100418916D02*
G01*
X160020557Y-100425171D01*
X160039553Y-100435324D01*
X160056208Y-100448992D01*
X160069876Y-100465647D01*
X160080029Y-100484643D01*
X160086284Y-100505262D01*
X160089000Y-100532840D01*
X160089000Y-101041560D01*
X160086284Y-101069138D01*
X160080029Y-101089757D01*
X160069876Y-101108753D01*
X160056208Y-101125408D01*
X160039553Y-101139076D01*
X160020557Y-101149229D01*
X159999938Y-101155484D01*
X159972360Y-101158200D01*
X159513640Y-101158200D01*
X159486062Y-101155484D01*
X159465443Y-101149229D01*
X159446447Y-101139076D01*
X159429792Y-101125408D01*
X159416124Y-101108753D01*
X159405971Y-101089757D01*
X159399716Y-101069138D01*
X159397000Y-101041560D01*
X159397000Y-100532840D01*
X159399716Y-100505262D01*
X159405971Y-100484643D01*
X159416124Y-100465647D01*
X159429792Y-100448992D01*
X159446447Y-100435324D01*
X159465443Y-100425171D01*
X159486062Y-100418916D01*
X159513640Y-100416200D01*
X159972360Y-100416200D01*
X159999938Y-100418916D01*
G37*
G36*
X148442938Y-100378276D02*
G01*
X148463557Y-100384531D01*
X148482553Y-100394684D01*
X148499208Y-100408352D01*
X148512876Y-100425007D01*
X148523029Y-100444003D01*
X148529284Y-100464622D01*
X148532000Y-100492200D01*
X148532000Y-101000920D01*
X148529284Y-101028498D01*
X148523029Y-101049117D01*
X148512876Y-101068113D01*
X148499208Y-101084768D01*
X148482553Y-101098436D01*
X148463557Y-101108589D01*
X148442938Y-101114844D01*
X148415360Y-101117560D01*
X147956640Y-101117560D01*
X147929062Y-101114844D01*
X147908443Y-101108589D01*
X147889447Y-101098436D01*
X147872792Y-101084768D01*
X147859124Y-101068113D01*
X147848971Y-101049117D01*
X147842716Y-101028498D01*
X147840000Y-101000920D01*
X147840000Y-100492200D01*
X147842716Y-100464622D01*
X147848971Y-100444003D01*
X147859124Y-100425007D01*
X147872792Y-100408352D01*
X147889447Y-100394684D01*
X147908443Y-100384531D01*
X147929062Y-100378276D01*
X147956640Y-100375560D01*
X148415360Y-100375560D01*
X148442938Y-100378276D01*
G37*
G36*
X146507458Y-100378276D02*
G01*
X146528077Y-100384531D01*
X146547073Y-100394684D01*
X146563728Y-100408352D01*
X146577396Y-100425007D01*
X146587549Y-100444003D01*
X146593804Y-100464622D01*
X146596520Y-100492200D01*
X146596520Y-101000920D01*
X146593804Y-101028498D01*
X146587549Y-101049117D01*
X146577396Y-101068113D01*
X146563728Y-101084768D01*
X146547073Y-101098436D01*
X146528077Y-101108589D01*
X146507458Y-101114844D01*
X146479880Y-101117560D01*
X146021160Y-101117560D01*
X145993582Y-101114844D01*
X145972963Y-101108589D01*
X145953967Y-101098436D01*
X145937312Y-101084768D01*
X145923644Y-101068113D01*
X145913491Y-101049117D01*
X145907236Y-101028498D01*
X145904520Y-101000920D01*
X145904520Y-100492200D01*
X145907236Y-100464622D01*
X145913491Y-100444003D01*
X145923644Y-100425007D01*
X145937312Y-100408352D01*
X145953967Y-100394684D01*
X145972963Y-100384531D01*
X145993582Y-100378276D01*
X146021160Y-100375560D01*
X146479880Y-100375560D01*
X146507458Y-100378276D01*
G37*
G36*
X145537458Y-100378276D02*
G01*
X145558077Y-100384531D01*
X145577073Y-100394684D01*
X145593728Y-100408352D01*
X145607396Y-100425007D01*
X145617549Y-100444003D01*
X145623804Y-100464622D01*
X145626520Y-100492200D01*
X145626520Y-101000920D01*
X145623804Y-101028498D01*
X145617549Y-101049117D01*
X145607396Y-101068113D01*
X145593728Y-101084768D01*
X145577073Y-101098436D01*
X145558077Y-101108589D01*
X145537458Y-101114844D01*
X145509880Y-101117560D01*
X145051160Y-101117560D01*
X145023582Y-101114844D01*
X145002963Y-101108589D01*
X144983967Y-101098436D01*
X144967312Y-101084768D01*
X144953644Y-101068113D01*
X144943491Y-101049117D01*
X144937236Y-101028498D01*
X144934520Y-101000920D01*
X144934520Y-100492200D01*
X144937236Y-100464622D01*
X144943491Y-100444003D01*
X144953644Y-100425007D01*
X144967312Y-100408352D01*
X144983967Y-100394684D01*
X145002963Y-100384531D01*
X145023582Y-100378276D01*
X145051160Y-100375560D01*
X145509880Y-100375560D01*
X145537458Y-100378276D01*
G37*
G36*
X147472938Y-100378276D02*
G01*
X147493557Y-100384531D01*
X147512553Y-100394684D01*
X147529208Y-100408352D01*
X147542876Y-100425007D01*
X147553029Y-100444003D01*
X147559284Y-100464622D01*
X147562000Y-100492200D01*
X147562000Y-101000920D01*
X147559284Y-101028498D01*
X147553029Y-101049117D01*
X147542876Y-101068113D01*
X147529208Y-101084768D01*
X147512553Y-101098436D01*
X147493557Y-101108589D01*
X147472938Y-101114844D01*
X147445360Y-101117560D01*
X146986640Y-101117560D01*
X146959062Y-101114844D01*
X146938443Y-101108589D01*
X146919447Y-101098436D01*
X146902792Y-101084768D01*
X146889124Y-101068113D01*
X146878971Y-101049117D01*
X146872716Y-101028498D01*
X146870000Y-101000920D01*
X146870000Y-100492200D01*
X146872716Y-100464622D01*
X146878971Y-100444003D01*
X146889124Y-100425007D01*
X146902792Y-100408352D01*
X146919447Y-100394684D01*
X146938443Y-100384531D01*
X146959062Y-100378276D01*
X146986640Y-100375560D01*
X147445360Y-100375560D01*
X147472938Y-100378276D01*
G37*
G36*
X161867468Y-99329565D02*
G01*
X161906138Y-99341296D01*
X161941777Y-99360346D01*
X161973017Y-99385983D01*
X161998654Y-99417223D01*
X162017704Y-99452862D01*
X162029435Y-99491532D01*
X162034000Y-99537888D01*
X162034000Y-100614112D01*
X162029435Y-100660468D01*
X162017704Y-100699138D01*
X161998654Y-100734777D01*
X161973017Y-100766017D01*
X161941777Y-100791654D01*
X161906138Y-100810704D01*
X161867468Y-100822435D01*
X161821112Y-100827000D01*
X161169888Y-100827000D01*
X161123532Y-100822435D01*
X161084862Y-100810704D01*
X161049223Y-100791654D01*
X161017983Y-100766017D01*
X160992346Y-100734777D01*
X160973296Y-100699138D01*
X160961565Y-100660468D01*
X160957000Y-100614112D01*
X160957000Y-99537888D01*
X160961565Y-99491532D01*
X160973296Y-99452862D01*
X160992346Y-99417223D01*
X161017983Y-99385983D01*
X161049223Y-99360346D01*
X161084862Y-99341296D01*
X161123532Y-99329565D01*
X161169888Y-99325000D01*
X161821112Y-99325000D01*
X161867468Y-99329565D01*
G37*
G36*
X163742468Y-99329565D02*
G01*
X163781138Y-99341296D01*
X163816777Y-99360346D01*
X163848017Y-99385983D01*
X163873654Y-99417223D01*
X163892704Y-99452862D01*
X163904435Y-99491532D01*
X163909000Y-99537888D01*
X163909000Y-100614112D01*
X163904435Y-100660468D01*
X163892704Y-100699138D01*
X163873654Y-100734777D01*
X163848017Y-100766017D01*
X163816777Y-100791654D01*
X163781138Y-100810704D01*
X163742468Y-100822435D01*
X163696112Y-100827000D01*
X163044888Y-100827000D01*
X162998532Y-100822435D01*
X162959862Y-100810704D01*
X162924223Y-100791654D01*
X162892983Y-100766017D01*
X162867346Y-100734777D01*
X162848296Y-100699138D01*
X162836565Y-100660468D01*
X162832000Y-100614112D01*
X162832000Y-99537888D01*
X162836565Y-99491532D01*
X162848296Y-99452862D01*
X162867346Y-99417223D01*
X162892983Y-99385983D01*
X162924223Y-99360346D01*
X162959862Y-99341296D01*
X162998532Y-99329565D01*
X163044888Y-99325000D01*
X163696112Y-99325000D01*
X163742468Y-99329565D01*
G37*
G36*
X132240721Y-99546174D02*
G01*
X132340995Y-99587709D01*
X132340996Y-99587710D01*
X132431242Y-99648010D01*
X132507990Y-99724758D01*
X132512460Y-99731448D01*
X132568291Y-99815005D01*
X132609826Y-99915279D01*
X132631000Y-100021730D01*
X132631000Y-100130270D01*
X132609826Y-100236721D01*
X132568291Y-100336995D01*
X132568290Y-100336996D01*
X132507990Y-100427242D01*
X132431242Y-100503990D01*
X132429338Y-100505262D01*
X132340995Y-100564291D01*
X132240721Y-100605826D01*
X132134270Y-100627000D01*
X132025730Y-100627000D01*
X131919279Y-100605826D01*
X131819005Y-100564291D01*
X131730662Y-100505262D01*
X131728758Y-100503990D01*
X131652010Y-100427242D01*
X131591710Y-100336996D01*
X131591709Y-100336995D01*
X131550174Y-100236721D01*
X131529000Y-100130270D01*
X131529000Y-100021730D01*
X131550174Y-99915279D01*
X131591709Y-99815005D01*
X131647540Y-99731448D01*
X131652010Y-99724758D01*
X131728758Y-99648010D01*
X131819004Y-99587710D01*
X131819005Y-99587709D01*
X131919279Y-99546174D01*
X132025730Y-99525000D01*
X132134270Y-99525000D01*
X132240721Y-99546174D01*
G37*
G36*
X160186468Y-98440565D02*
G01*
X160225138Y-98452296D01*
X160260777Y-98471346D01*
X160292017Y-98496983D01*
X160317654Y-98528223D01*
X160336704Y-98563862D01*
X160348435Y-98602532D01*
X160353000Y-98648888D01*
X160353000Y-99725112D01*
X160348435Y-99771468D01*
X160336704Y-99810138D01*
X160317654Y-99845777D01*
X160292017Y-99877017D01*
X160260777Y-99902654D01*
X160225138Y-99921704D01*
X160186468Y-99933435D01*
X160140112Y-99938000D01*
X159488888Y-99938000D01*
X159442532Y-99933435D01*
X159403862Y-99921704D01*
X159368223Y-99902654D01*
X159336983Y-99877017D01*
X159311346Y-99845777D01*
X159292296Y-99810138D01*
X159280565Y-99771468D01*
X159276000Y-99725112D01*
X159276000Y-98648888D01*
X159280565Y-98602532D01*
X159292296Y-98563862D01*
X159311346Y-98528223D01*
X159336983Y-98496983D01*
X159368223Y-98471346D01*
X159403862Y-98452296D01*
X159442532Y-98440565D01*
X159488888Y-98436000D01*
X160140112Y-98436000D01*
X160186468Y-98440565D01*
G37*
G36*
X158311468Y-98440565D02*
G01*
X158350138Y-98452296D01*
X158385777Y-98471346D01*
X158417017Y-98496983D01*
X158442654Y-98528223D01*
X158461704Y-98563862D01*
X158473435Y-98602532D01*
X158478000Y-98648888D01*
X158478000Y-99725112D01*
X158473435Y-99771468D01*
X158461704Y-99810138D01*
X158442654Y-99845777D01*
X158417017Y-99877017D01*
X158385777Y-99902654D01*
X158350138Y-99921704D01*
X158311468Y-99933435D01*
X158265112Y-99938000D01*
X157613888Y-99938000D01*
X157567532Y-99933435D01*
X157528862Y-99921704D01*
X157493223Y-99902654D01*
X157461983Y-99877017D01*
X157436346Y-99845777D01*
X157417296Y-99810138D01*
X157405565Y-99771468D01*
X157401000Y-99725112D01*
X157401000Y-98648888D01*
X157405565Y-98602532D01*
X157417296Y-98563862D01*
X157436346Y-98528223D01*
X157461983Y-98496983D01*
X157493223Y-98471346D01*
X157528862Y-98452296D01*
X157567532Y-98440565D01*
X157613888Y-98436000D01*
X158265112Y-98436000D01*
X158311468Y-98440565D01*
G37*
G36*
X149795591Y-98792085D02*
G01*
X149829569Y-98802393D01*
X149860890Y-98819134D01*
X149888339Y-98841661D01*
X149910866Y-98869110D01*
X149927607Y-98900431D01*
X149937915Y-98934409D01*
X149942000Y-98975890D01*
X149942000Y-99652110D01*
X149937915Y-99693591D01*
X149927607Y-99727569D01*
X149910866Y-99758890D01*
X149888339Y-99786339D01*
X149860890Y-99808866D01*
X149829569Y-99825607D01*
X149795591Y-99835915D01*
X149754110Y-99840000D01*
X149152890Y-99840000D01*
X149111409Y-99835915D01*
X149077431Y-99825607D01*
X149046110Y-99808866D01*
X149018661Y-99786339D01*
X148996134Y-99758890D01*
X148979393Y-99727569D01*
X148969085Y-99693591D01*
X148965000Y-99652110D01*
X148965000Y-98975890D01*
X148969085Y-98934409D01*
X148979393Y-98900431D01*
X148996134Y-98869110D01*
X149018661Y-98841661D01*
X149046110Y-98819134D01*
X149077431Y-98802393D01*
X149111409Y-98792085D01*
X149152890Y-98788000D01*
X149754110Y-98788000D01*
X149795591Y-98792085D01*
G37*
G36*
X151370591Y-98792085D02*
G01*
X151404569Y-98802393D01*
X151435890Y-98819134D01*
X151463339Y-98841661D01*
X151485866Y-98869110D01*
X151502607Y-98900431D01*
X151512915Y-98934409D01*
X151517000Y-98975890D01*
X151517000Y-99652110D01*
X151512915Y-99693591D01*
X151502607Y-99727569D01*
X151485866Y-99758890D01*
X151463339Y-99786339D01*
X151435890Y-99808866D01*
X151404569Y-99825607D01*
X151370591Y-99835915D01*
X151329110Y-99840000D01*
X150727890Y-99840000D01*
X150686409Y-99835915D01*
X150652431Y-99825607D01*
X150621110Y-99808866D01*
X150593661Y-99786339D01*
X150571134Y-99758890D01*
X150554393Y-99727569D01*
X150544085Y-99693591D01*
X150540000Y-99652110D01*
X150540000Y-98975890D01*
X150544085Y-98934409D01*
X150554393Y-98900431D01*
X150571134Y-98869110D01*
X150593661Y-98841661D01*
X150621110Y-98819134D01*
X150652431Y-98802393D01*
X150686409Y-98792085D01*
X150727890Y-98788000D01*
X151329110Y-98788000D01*
X151370591Y-98792085D01*
G37*
G36*
X144426938Y-99074716D02*
G01*
X144447557Y-99080971D01*
X144466553Y-99091124D01*
X144483208Y-99104792D01*
X144496876Y-99121447D01*
X144507029Y-99140443D01*
X144513284Y-99161062D01*
X144516000Y-99188640D01*
X144516000Y-99647360D01*
X144513284Y-99674938D01*
X144507029Y-99695557D01*
X144496876Y-99714553D01*
X144483208Y-99731208D01*
X144466553Y-99744876D01*
X144447557Y-99755029D01*
X144426938Y-99761284D01*
X144399360Y-99764000D01*
X143890640Y-99764000D01*
X143863062Y-99761284D01*
X143842443Y-99755029D01*
X143823447Y-99744876D01*
X143806792Y-99731208D01*
X143793124Y-99714553D01*
X143782971Y-99695557D01*
X143776716Y-99674938D01*
X143774000Y-99647360D01*
X143774000Y-99188640D01*
X143776716Y-99161062D01*
X143782971Y-99140443D01*
X143793124Y-99121447D01*
X143806792Y-99104792D01*
X143823447Y-99091124D01*
X143842443Y-99080971D01*
X143863062Y-99074716D01*
X143890640Y-99072000D01*
X144399360Y-99072000D01*
X144426938Y-99074716D01*
G37*
G36*
X148011000Y-99725000D02*
G01*
X145359000Y-99725000D01*
X145359000Y-98563000D01*
X148011000Y-98563000D01*
X148011000Y-99725000D01*
G37*
G36*
X141106000Y-99418000D02*
G01*
X140204000Y-99418000D01*
X140204000Y-98416000D01*
X141106000Y-98416000D01*
X141106000Y-99418000D01*
G37*
G36*
X143006000Y-99418000D02*
G01*
X142104000Y-99418000D01*
X142104000Y-98416000D01*
X143006000Y-98416000D01*
X143006000Y-99418000D01*
G37*
G36*
X139323000Y-99418000D02*
G01*
X138421000Y-99418000D01*
X138421000Y-98416000D01*
X139323000Y-98416000D01*
X139323000Y-99418000D01*
G37*
G36*
X137423000Y-99418000D02*
G01*
X136521000Y-99418000D01*
X136521000Y-98416000D01*
X137423000Y-98416000D01*
X137423000Y-99418000D01*
G37*
G36*
X153580811Y-96949271D02*
G01*
X153616603Y-96960129D01*
X153649595Y-96977763D01*
X153678508Y-97001492D01*
X153702237Y-97030405D01*
X153719871Y-97063397D01*
X153730729Y-97099189D01*
X153735000Y-97142555D01*
X153735000Y-99199445D01*
X153730729Y-99242811D01*
X153719871Y-99278603D01*
X153702237Y-99311595D01*
X153678508Y-99340508D01*
X153649595Y-99364237D01*
X153616603Y-99381871D01*
X153580811Y-99392729D01*
X153537445Y-99397000D01*
X152505555Y-99397000D01*
X152462189Y-99392729D01*
X152426397Y-99381871D01*
X152393405Y-99364237D01*
X152364492Y-99340508D01*
X152340763Y-99311595D01*
X152323129Y-99278603D01*
X152312271Y-99242811D01*
X152308000Y-99199445D01*
X152308000Y-97142555D01*
X152312271Y-97099189D01*
X152323129Y-97063397D01*
X152340763Y-97030405D01*
X152364492Y-97001492D01*
X152393405Y-96977763D01*
X152426397Y-96960129D01*
X152462189Y-96949271D01*
X152505555Y-96945000D01*
X153537445Y-96945000D01*
X153580811Y-96949271D01*
G37*
G36*
X156655811Y-96949271D02*
G01*
X156691603Y-96960129D01*
X156724595Y-96977763D01*
X156753508Y-97001492D01*
X156777237Y-97030405D01*
X156794871Y-97063397D01*
X156805729Y-97099189D01*
X156810000Y-97142555D01*
X156810000Y-99199445D01*
X156805729Y-99242811D01*
X156794871Y-99278603D01*
X156777237Y-99311595D01*
X156753508Y-99340508D01*
X156724595Y-99364237D01*
X156691603Y-99381871D01*
X156655811Y-99392729D01*
X156612445Y-99397000D01*
X155580555Y-99397000D01*
X155537189Y-99392729D01*
X155501397Y-99381871D01*
X155468405Y-99364237D01*
X155439492Y-99340508D01*
X155415763Y-99311595D01*
X155398129Y-99278603D01*
X155387271Y-99242811D01*
X155383000Y-99199445D01*
X155383000Y-97142555D01*
X155387271Y-97099189D01*
X155398129Y-97063397D01*
X155415763Y-97030405D01*
X155439492Y-97001492D01*
X155468405Y-96977763D01*
X155501397Y-96960129D01*
X155537189Y-96949271D01*
X155580555Y-96945000D01*
X156612445Y-96945000D01*
X156655811Y-96949271D01*
G37*
G36*
X144426938Y-98104716D02*
G01*
X144447557Y-98110971D01*
X144466553Y-98121124D01*
X144483208Y-98134792D01*
X144496876Y-98151447D01*
X144507029Y-98170443D01*
X144513284Y-98191062D01*
X144516000Y-98218640D01*
X144516000Y-98677360D01*
X144513284Y-98704938D01*
X144507029Y-98725557D01*
X144496876Y-98744553D01*
X144483208Y-98761208D01*
X144466553Y-98774876D01*
X144447557Y-98785029D01*
X144426938Y-98791284D01*
X144399360Y-98794000D01*
X143890640Y-98794000D01*
X143863062Y-98791284D01*
X143842443Y-98785029D01*
X143823447Y-98774876D01*
X143806792Y-98761208D01*
X143793124Y-98744553D01*
X143782971Y-98725557D01*
X143776716Y-98704938D01*
X143774000Y-98677360D01*
X143774000Y-98218640D01*
X143776716Y-98191062D01*
X143782971Y-98170443D01*
X143793124Y-98151447D01*
X143806792Y-98134792D01*
X143823447Y-98121124D01*
X143842443Y-98110971D01*
X143863062Y-98104716D01*
X143890640Y-98102000D01*
X144399360Y-98102000D01*
X144426938Y-98104716D01*
G37*
G36*
X163457321Y-97412574D02*
G01*
X163557595Y-97454109D01*
X163557596Y-97454110D01*
X163647842Y-97514410D01*
X163724590Y-97591158D01*
X163724591Y-97591160D01*
X163784891Y-97681405D01*
X163826426Y-97781679D01*
X163847600Y-97888130D01*
X163847600Y-97996670D01*
X163826426Y-98103121D01*
X163784891Y-98203395D01*
X163759598Y-98241249D01*
X163724590Y-98293642D01*
X163647842Y-98370390D01*
X163602412Y-98400745D01*
X163557595Y-98430691D01*
X163457321Y-98472226D01*
X163350870Y-98493400D01*
X163242330Y-98493400D01*
X163135879Y-98472226D01*
X163035605Y-98430691D01*
X162990788Y-98400745D01*
X162945358Y-98370390D01*
X162868610Y-98293642D01*
X162833602Y-98241249D01*
X162808309Y-98203395D01*
X162766774Y-98103121D01*
X162745600Y-97996670D01*
X162745600Y-97888130D01*
X162766774Y-97781679D01*
X162808309Y-97681405D01*
X162868609Y-97591160D01*
X162868610Y-97591158D01*
X162945358Y-97514410D01*
X163035604Y-97454110D01*
X163035605Y-97454109D01*
X163135879Y-97412574D01*
X163242330Y-97391400D01*
X163350870Y-97391400D01*
X163457321Y-97412574D01*
G37*
G36*
X149795091Y-97229585D02*
G01*
X149829069Y-97239893D01*
X149860390Y-97256634D01*
X149887839Y-97279161D01*
X149910366Y-97306610D01*
X149927107Y-97337931D01*
X149937415Y-97371909D01*
X149941500Y-97413390D01*
X149941500Y-98014610D01*
X149937415Y-98056091D01*
X149927107Y-98090069D01*
X149910366Y-98121390D01*
X149887839Y-98148839D01*
X149860390Y-98171366D01*
X149829069Y-98188107D01*
X149795091Y-98198415D01*
X149753610Y-98202500D01*
X149077390Y-98202500D01*
X149035909Y-98198415D01*
X149001931Y-98188107D01*
X148970610Y-98171366D01*
X148943161Y-98148839D01*
X148920634Y-98121390D01*
X148903893Y-98090069D01*
X148893585Y-98056091D01*
X148889500Y-98014610D01*
X148889500Y-97413390D01*
X148893585Y-97371909D01*
X148903893Y-97337931D01*
X148920634Y-97306610D01*
X148943161Y-97279161D01*
X148970610Y-97256634D01*
X149001931Y-97239893D01*
X149035909Y-97229585D01*
X149077390Y-97225500D01*
X149753610Y-97225500D01*
X149795091Y-97229585D01*
G37*
G36*
X151446091Y-97204085D02*
G01*
X151480069Y-97214393D01*
X151511390Y-97231134D01*
X151538839Y-97253661D01*
X151561366Y-97281110D01*
X151578107Y-97312431D01*
X151588415Y-97346409D01*
X151592500Y-97387890D01*
X151592500Y-97989110D01*
X151588415Y-98030591D01*
X151578107Y-98064569D01*
X151561366Y-98095890D01*
X151538839Y-98123339D01*
X151511390Y-98145866D01*
X151480069Y-98162607D01*
X151446091Y-98172915D01*
X151404610Y-98177000D01*
X150728390Y-98177000D01*
X150686909Y-98172915D01*
X150652931Y-98162607D01*
X150621610Y-98145866D01*
X150594161Y-98123339D01*
X150571634Y-98095890D01*
X150554893Y-98064569D01*
X150544585Y-98030591D01*
X150540500Y-97989110D01*
X150540500Y-97387890D01*
X150544585Y-97346409D01*
X150554893Y-97312431D01*
X150571634Y-97281110D01*
X150594161Y-97253661D01*
X150621610Y-97231134D01*
X150652931Y-97214393D01*
X150686909Y-97204085D01*
X150728390Y-97200000D01*
X151404610Y-97200000D01*
X151446091Y-97204085D01*
G37*
G36*
X148011000Y-97525000D02*
G01*
X145359000Y-97525000D01*
X145359000Y-96363000D01*
X148011000Y-96363000D01*
X148011000Y-97525000D01*
G37*
G36*
X142056000Y-97418000D02*
G01*
X141154000Y-97418000D01*
X141154000Y-96416000D01*
X142056000Y-96416000D01*
X142056000Y-97418000D01*
G37*
G36*
X138373000Y-97418000D02*
G01*
X137471000Y-97418000D01*
X137471000Y-96416000D01*
X138373000Y-96416000D01*
X138373000Y-97418000D01*
G37*
G36*
X149795091Y-95654585D02*
G01*
X149829069Y-95664893D01*
X149860390Y-95681634D01*
X149887839Y-95704161D01*
X149910366Y-95731610D01*
X149927107Y-95762931D01*
X149937415Y-95796909D01*
X149941500Y-95838390D01*
X149941500Y-96439610D01*
X149937415Y-96481091D01*
X149927107Y-96515069D01*
X149910366Y-96546390D01*
X149887839Y-96573839D01*
X149860390Y-96596366D01*
X149829069Y-96613107D01*
X149795091Y-96623415D01*
X149753610Y-96627500D01*
X149077390Y-96627500D01*
X149035909Y-96623415D01*
X149001931Y-96613107D01*
X148970610Y-96596366D01*
X148943161Y-96573839D01*
X148920634Y-96546390D01*
X148903893Y-96515069D01*
X148893585Y-96481091D01*
X148889500Y-96439610D01*
X148889500Y-95838390D01*
X148893585Y-95796909D01*
X148903893Y-95762931D01*
X148920634Y-95731610D01*
X148943161Y-95704161D01*
X148970610Y-95681634D01*
X149001931Y-95664893D01*
X149035909Y-95654585D01*
X149077390Y-95650500D01*
X149753610Y-95650500D01*
X149795091Y-95654585D01*
G37*
G36*
X151446091Y-95629085D02*
G01*
X151480069Y-95639393D01*
X151511390Y-95656134D01*
X151538839Y-95678661D01*
X151561366Y-95706110D01*
X151578107Y-95737431D01*
X151588415Y-95771409D01*
X151592500Y-95812890D01*
X151592500Y-96414110D01*
X151588415Y-96455591D01*
X151578107Y-96489569D01*
X151561366Y-96520890D01*
X151538839Y-96548339D01*
X151511390Y-96570866D01*
X151480069Y-96587607D01*
X151446091Y-96597915D01*
X151404610Y-96602000D01*
X150728390Y-96602000D01*
X150686909Y-96597915D01*
X150652931Y-96587607D01*
X150621610Y-96570866D01*
X150594161Y-96548339D01*
X150571634Y-96520890D01*
X150554893Y-96489569D01*
X150544585Y-96455591D01*
X150540500Y-96414110D01*
X150540500Y-95812890D01*
X150544585Y-95771409D01*
X150554893Y-95737431D01*
X150571634Y-95706110D01*
X150594161Y-95678661D01*
X150621610Y-95656134D01*
X150652931Y-95639393D01*
X150686909Y-95629085D01*
X150728390Y-95625000D01*
X151404610Y-95625000D01*
X151446091Y-95629085D01*
G37*
G36*
X161744098Y-91547033D02*
G01*
X162190924Y-91732114D01*
X162208352Y-91739333D01*
X162626168Y-92018509D01*
X162981491Y-92373832D01*
X163250401Y-92776284D01*
X163260668Y-92791650D01*
X163452967Y-93255902D01*
X163551000Y-93748747D01*
X163551000Y-94251253D01*
X163452967Y-94744098D01*
X163331093Y-95038329D01*
X163260667Y-95208352D01*
X162981491Y-95626168D01*
X162626168Y-95981491D01*
X162208352Y-96260667D01*
X162208351Y-96260668D01*
X162208350Y-96260668D01*
X161744098Y-96452967D01*
X161251253Y-96551000D01*
X160748747Y-96551000D01*
X160255902Y-96452967D01*
X159791650Y-96260668D01*
X159791649Y-96260668D01*
X159791648Y-96260667D01*
X159373832Y-95981491D01*
X159018509Y-95626168D01*
X158739333Y-95208352D01*
X158668907Y-95038329D01*
X158547033Y-94744098D01*
X158449000Y-94251253D01*
X158449000Y-93748747D01*
X158547033Y-93255902D01*
X158739332Y-92791650D01*
X158749599Y-92776284D01*
X159018509Y-92373832D01*
X159373832Y-92018509D01*
X159791648Y-91739333D01*
X159809076Y-91732114D01*
X160255902Y-91547033D01*
X160748747Y-91449000D01*
X161251253Y-91449000D01*
X161744098Y-91547033D01*
G37*
G36*
X134744098Y-91547033D02*
G01*
X135190924Y-91732114D01*
X135208352Y-91739333D01*
X135626168Y-92018509D01*
X135981491Y-92373832D01*
X136250401Y-92776284D01*
X136260668Y-92791650D01*
X136452967Y-93255902D01*
X136551000Y-93748747D01*
X136551000Y-94251253D01*
X136452967Y-94744098D01*
X136331093Y-95038329D01*
X136260667Y-95208352D01*
X135981491Y-95626168D01*
X135626168Y-95981491D01*
X135208352Y-96260667D01*
X135208351Y-96260668D01*
X135208350Y-96260668D01*
X134744098Y-96452967D01*
X134251253Y-96551000D01*
X133748747Y-96551000D01*
X133255902Y-96452967D01*
X132791650Y-96260668D01*
X132791649Y-96260668D01*
X132791648Y-96260667D01*
X132373832Y-95981491D01*
X132018509Y-95626168D01*
X131739333Y-95208352D01*
X131668907Y-95038329D01*
X131547033Y-94744098D01*
X131449000Y-94251253D01*
X131449000Y-93748747D01*
X131547033Y-93255902D01*
X131739332Y-92791650D01*
X131749599Y-92776284D01*
X132018509Y-92373832D01*
X132373832Y-92018509D01*
X132791648Y-91739333D01*
X132809076Y-91732114D01*
X133255902Y-91547033D01*
X133748747Y-91449000D01*
X134251253Y-91449000D01*
X134744098Y-91547033D01*
G37*
G36*
X154299000Y-95647000D02*
G01*
X153297000Y-95647000D01*
X153297000Y-94345000D01*
X154299000Y-94345000D01*
X154299000Y-95647000D01*
G37*
G36*
X157599000Y-95647000D02*
G01*
X156597000Y-95647000D01*
X156597000Y-94345000D01*
X157599000Y-94345000D01*
X157599000Y-95647000D01*
G37*
G36*
X139508591Y-94474085D02*
G01*
X139542569Y-94484393D01*
X139573890Y-94501134D01*
X139601339Y-94523661D01*
X139623866Y-94551110D01*
X139640607Y-94582431D01*
X139650915Y-94616409D01*
X139655000Y-94657890D01*
X139655000Y-95334110D01*
X139650915Y-95375591D01*
X139640607Y-95409569D01*
X139623866Y-95440890D01*
X139601339Y-95468339D01*
X139573890Y-95490866D01*
X139542569Y-95507607D01*
X139508591Y-95517915D01*
X139467110Y-95522000D01*
X138865890Y-95522000D01*
X138824409Y-95517915D01*
X138790431Y-95507607D01*
X138759110Y-95490866D01*
X138731661Y-95468339D01*
X138709134Y-95440890D01*
X138692393Y-95409569D01*
X138682085Y-95375591D01*
X138678000Y-95334110D01*
X138678000Y-94657890D01*
X138682085Y-94616409D01*
X138692393Y-94582431D01*
X138709134Y-94551110D01*
X138731661Y-94523661D01*
X138759110Y-94501134D01*
X138790431Y-94484393D01*
X138824409Y-94474085D01*
X138865890Y-94470000D01*
X139467110Y-94470000D01*
X139508591Y-94474085D01*
G37*
G36*
X141083591Y-94474085D02*
G01*
X141117569Y-94484393D01*
X141148890Y-94501134D01*
X141176339Y-94523661D01*
X141198866Y-94551110D01*
X141215607Y-94582431D01*
X141225915Y-94616409D01*
X141230000Y-94657890D01*
X141230000Y-95334110D01*
X141225915Y-95375591D01*
X141215607Y-95409569D01*
X141198866Y-95440890D01*
X141176339Y-95468339D01*
X141148890Y-95490866D01*
X141117569Y-95507607D01*
X141083591Y-95517915D01*
X141042110Y-95522000D01*
X140440890Y-95522000D01*
X140399409Y-95517915D01*
X140365431Y-95507607D01*
X140334110Y-95490866D01*
X140306661Y-95468339D01*
X140284134Y-95440890D01*
X140267393Y-95409569D01*
X140257085Y-95375591D01*
X140253000Y-95334110D01*
X140253000Y-94657890D01*
X140257085Y-94616409D01*
X140267393Y-94582431D01*
X140284134Y-94551110D01*
X140306661Y-94523661D01*
X140334110Y-94501134D01*
X140365431Y-94484393D01*
X140399409Y-94474085D01*
X140440890Y-94470000D01*
X141042110Y-94470000D01*
X141083591Y-94474085D01*
G37*
G36*
X146104000Y-93177001D02*
G01*
X146106402Y-93201387D01*
X146113515Y-93224836D01*
X146125066Y-93246447D01*
X146140611Y-93265389D01*
X146159553Y-93280934D01*
X146181164Y-93292485D01*
X146204613Y-93299598D01*
X146228999Y-93302000D01*
X149427001Y-93302000D01*
X149451387Y-93299598D01*
X149474836Y-93292485D01*
X149496447Y-93280934D01*
X149515389Y-93265389D01*
X149530934Y-93246447D01*
X149542485Y-93224836D01*
X149549598Y-93201387D01*
X149552000Y-93177001D01*
X149552000Y-93132000D01*
X151079000Y-93132000D01*
X151079000Y-94784000D01*
X144577000Y-94784000D01*
X144577000Y-93132000D01*
X146104000Y-93132000D01*
X146104000Y-93177001D01*
G37*
G36*
X139063591Y-92251085D02*
G01*
X139097569Y-92261393D01*
X139128890Y-92278134D01*
X139156339Y-92300661D01*
X139178866Y-92328110D01*
X139195607Y-92359431D01*
X139205915Y-92393409D01*
X139210000Y-92434890D01*
X139210000Y-93036110D01*
X139205915Y-93077591D01*
X139195607Y-93111569D01*
X139178866Y-93142890D01*
X139156339Y-93170339D01*
X139128890Y-93192866D01*
X139097569Y-93209607D01*
X139063591Y-93219915D01*
X139022110Y-93224000D01*
X138345890Y-93224000D01*
X138304409Y-93219915D01*
X138270431Y-93209607D01*
X138239110Y-93192866D01*
X138211661Y-93170339D01*
X138189134Y-93142890D01*
X138172393Y-93111569D01*
X138162085Y-93077591D01*
X138158000Y-93036110D01*
X138158000Y-92434890D01*
X138162085Y-92393409D01*
X138172393Y-92359431D01*
X138189134Y-92328110D01*
X138211661Y-92300661D01*
X138239110Y-92278134D01*
X138270431Y-92261393D01*
X138304409Y-92251085D01*
X138345890Y-92247000D01*
X139022110Y-92247000D01*
X139063591Y-92251085D01*
G37*
G36*
X140968591Y-92251085D02*
G01*
X141002569Y-92261393D01*
X141033890Y-92278134D01*
X141061339Y-92300661D01*
X141083866Y-92328110D01*
X141100607Y-92359431D01*
X141110915Y-92393409D01*
X141115000Y-92434890D01*
X141115000Y-93036110D01*
X141110915Y-93077591D01*
X141100607Y-93111569D01*
X141083866Y-93142890D01*
X141061339Y-93170339D01*
X141033890Y-93192866D01*
X141002569Y-93209607D01*
X140968591Y-93219915D01*
X140927110Y-93224000D01*
X140250890Y-93224000D01*
X140209409Y-93219915D01*
X140175431Y-93209607D01*
X140144110Y-93192866D01*
X140116661Y-93170339D01*
X140094134Y-93142890D01*
X140077393Y-93111569D01*
X140067085Y-93077591D01*
X140063000Y-93036110D01*
X140063000Y-92434890D01*
X140067085Y-92393409D01*
X140077393Y-92359431D01*
X140094134Y-92328110D01*
X140116661Y-92300661D01*
X140144110Y-92278134D01*
X140175431Y-92261393D01*
X140209409Y-92251085D01*
X140250890Y-92247000D01*
X140927110Y-92247000D01*
X140968591Y-92251085D01*
G37*
G36*
X157097591Y-92124085D02*
G01*
X157131569Y-92134393D01*
X157162890Y-92151134D01*
X157190339Y-92173661D01*
X157212866Y-92201110D01*
X157229607Y-92232431D01*
X157239915Y-92266409D01*
X157244000Y-92307890D01*
X157244000Y-92909110D01*
X157239915Y-92950591D01*
X157229607Y-92984569D01*
X157212866Y-93015890D01*
X157190339Y-93043339D01*
X157162890Y-93065866D01*
X157131569Y-93082607D01*
X157097591Y-93092915D01*
X157056110Y-93097000D01*
X156379890Y-93097000D01*
X156338409Y-93092915D01*
X156304431Y-93082607D01*
X156273110Y-93065866D01*
X156245661Y-93043339D01*
X156223134Y-93015890D01*
X156206393Y-92984569D01*
X156196085Y-92950591D01*
X156192000Y-92909110D01*
X156192000Y-92307890D01*
X156196085Y-92266409D01*
X156206393Y-92232431D01*
X156223134Y-92201110D01*
X156245661Y-92173661D01*
X156273110Y-92151134D01*
X156304431Y-92134393D01*
X156338409Y-92124085D01*
X156379890Y-92120000D01*
X157056110Y-92120000D01*
X157097591Y-92124085D01*
G37*
G36*
X155192591Y-92124085D02*
G01*
X155226569Y-92134393D01*
X155257890Y-92151134D01*
X155285339Y-92173661D01*
X155307866Y-92201110D01*
X155324607Y-92232431D01*
X155334915Y-92266409D01*
X155339000Y-92307890D01*
X155339000Y-92909110D01*
X155334915Y-92950591D01*
X155324607Y-92984569D01*
X155307866Y-93015890D01*
X155285339Y-93043339D01*
X155257890Y-93065866D01*
X155226569Y-93082607D01*
X155192591Y-93092915D01*
X155151110Y-93097000D01*
X154474890Y-93097000D01*
X154433409Y-93092915D01*
X154399431Y-93082607D01*
X154368110Y-93065866D01*
X154340661Y-93043339D01*
X154318134Y-93015890D01*
X154301393Y-92984569D01*
X154291085Y-92950591D01*
X154287000Y-92909110D01*
X154287000Y-92307890D01*
X154291085Y-92266409D01*
X154301393Y-92232431D01*
X154318134Y-92201110D01*
X154340661Y-92173661D01*
X154368110Y-92151134D01*
X154399431Y-92134393D01*
X154433409Y-92124085D01*
X154474890Y-92120000D01*
X155151110Y-92120000D01*
X155192591Y-92124085D01*
G37*
G36*
X142521938Y-92089716D02*
G01*
X142542557Y-92095971D01*
X142561553Y-92106124D01*
X142578208Y-92119792D01*
X142591876Y-92136447D01*
X142602029Y-92155443D01*
X142608284Y-92176062D01*
X142611000Y-92203640D01*
X142611000Y-92662360D01*
X142608284Y-92689938D01*
X142602029Y-92710557D01*
X142591876Y-92729553D01*
X142578208Y-92746208D01*
X142561553Y-92759876D01*
X142542557Y-92770029D01*
X142521938Y-92776284D01*
X142494360Y-92779000D01*
X141985640Y-92779000D01*
X141958062Y-92776284D01*
X141937443Y-92770029D01*
X141918447Y-92759876D01*
X141901792Y-92746208D01*
X141888124Y-92729553D01*
X141877971Y-92710557D01*
X141871716Y-92689938D01*
X141869000Y-92662360D01*
X141869000Y-92203640D01*
X141871716Y-92176062D01*
X141877971Y-92155443D01*
X141888124Y-92136447D01*
X141901792Y-92119792D01*
X141918447Y-92106124D01*
X141937443Y-92095971D01*
X141958062Y-92089716D01*
X141985640Y-92087000D01*
X142494360Y-92087000D01*
X142521938Y-92089716D01*
G37*
G36*
X153570938Y-92089716D02*
G01*
X153591557Y-92095971D01*
X153610553Y-92106124D01*
X153627208Y-92119792D01*
X153640876Y-92136447D01*
X153651029Y-92155443D01*
X153657284Y-92176062D01*
X153660000Y-92203640D01*
X153660000Y-92662360D01*
X153657284Y-92689938D01*
X153651029Y-92710557D01*
X153640876Y-92729553D01*
X153627208Y-92746208D01*
X153610553Y-92759876D01*
X153591557Y-92770029D01*
X153570938Y-92776284D01*
X153543360Y-92779000D01*
X153034640Y-92779000D01*
X153007062Y-92776284D01*
X152986443Y-92770029D01*
X152967447Y-92759876D01*
X152950792Y-92746208D01*
X152937124Y-92729553D01*
X152926971Y-92710557D01*
X152920716Y-92689938D01*
X152918000Y-92662360D01*
X152918000Y-92203640D01*
X152920716Y-92176062D01*
X152926971Y-92155443D01*
X152937124Y-92136447D01*
X152950792Y-92119792D01*
X152967447Y-92106124D01*
X152986443Y-92095971D01*
X153007062Y-92089716D01*
X153034640Y-92087000D01*
X153543360Y-92087000D01*
X153570938Y-92089716D01*
G37*
G36*
X146829000Y-92384000D02*
G01*
X145727000Y-92384000D01*
X145727000Y-90382000D01*
X146829000Y-90382000D01*
X146829000Y-92384000D01*
G37*
G36*
X149929000Y-92384000D02*
G01*
X148027000Y-92384000D01*
X148027000Y-90382000D01*
X149929000Y-90382000D01*
X149929000Y-92384000D01*
G37*
G36*
X145329000Y-92084000D02*
G01*
X143577000Y-92084000D01*
X143577000Y-90682000D01*
X145329000Y-90682000D01*
X145329000Y-92084000D01*
G37*
G36*
X152079000Y-92084000D02*
G01*
X150327000Y-92084000D01*
X150327000Y-90682000D01*
X152079000Y-90682000D01*
X152079000Y-92084000D01*
G37*
G36*
X142521938Y-91119716D02*
G01*
X142542557Y-91125971D01*
X142561553Y-91136124D01*
X142578208Y-91149792D01*
X142591876Y-91166447D01*
X142602029Y-91185443D01*
X142608284Y-91206062D01*
X142611000Y-91233640D01*
X142611000Y-91692360D01*
X142608284Y-91719938D01*
X142602029Y-91740557D01*
X142591876Y-91759553D01*
X142578208Y-91776208D01*
X142561553Y-91789876D01*
X142542557Y-91800029D01*
X142521938Y-91806284D01*
X142494360Y-91809000D01*
X141985640Y-91809000D01*
X141958062Y-91806284D01*
X141937443Y-91800029D01*
X141918447Y-91789876D01*
X141901792Y-91776208D01*
X141888124Y-91759553D01*
X141877971Y-91740557D01*
X141871716Y-91719938D01*
X141869000Y-91692360D01*
X141869000Y-91233640D01*
X141871716Y-91206062D01*
X141877971Y-91185443D01*
X141888124Y-91166447D01*
X141901792Y-91149792D01*
X141918447Y-91136124D01*
X141937443Y-91125971D01*
X141958062Y-91119716D01*
X141985640Y-91117000D01*
X142494360Y-91117000D01*
X142521938Y-91119716D01*
G37*
G36*
X153570938Y-91119716D02*
G01*
X153591557Y-91125971D01*
X153610553Y-91136124D01*
X153627208Y-91149792D01*
X153640876Y-91166447D01*
X153651029Y-91185443D01*
X153657284Y-91206062D01*
X153660000Y-91233640D01*
X153660000Y-91692360D01*
X153657284Y-91719938D01*
X153651029Y-91740557D01*
X153640876Y-91759553D01*
X153627208Y-91776208D01*
X153610553Y-91789876D01*
X153591557Y-91800029D01*
X153570938Y-91806284D01*
X153543360Y-91809000D01*
X153034640Y-91809000D01*
X153007062Y-91806284D01*
X152986443Y-91800029D01*
X152967447Y-91789876D01*
X152950792Y-91776208D01*
X152937124Y-91759553D01*
X152926971Y-91740557D01*
X152920716Y-91719938D01*
X152918000Y-91692360D01*
X152918000Y-91233640D01*
X152920716Y-91206062D01*
X152926971Y-91185443D01*
X152937124Y-91166447D01*
X152950792Y-91149792D01*
X152967447Y-91136124D01*
X152986443Y-91125971D01*
X153007062Y-91119716D01*
X153034640Y-91117000D01*
X153543360Y-91117000D01*
X153570938Y-91119716D01*
G37*
G36*
X140968591Y-90676085D02*
G01*
X141002569Y-90686393D01*
X141033890Y-90703134D01*
X141061339Y-90725661D01*
X141083866Y-90753110D01*
X141100607Y-90784431D01*
X141110915Y-90818409D01*
X141115000Y-90859890D01*
X141115000Y-91461110D01*
X141110915Y-91502591D01*
X141100607Y-91536569D01*
X141083866Y-91567890D01*
X141061339Y-91595339D01*
X141033890Y-91617866D01*
X141002569Y-91634607D01*
X140968591Y-91644915D01*
X140927110Y-91649000D01*
X140250890Y-91649000D01*
X140209409Y-91644915D01*
X140175431Y-91634607D01*
X140144110Y-91617866D01*
X140116661Y-91595339D01*
X140094134Y-91567890D01*
X140077393Y-91536569D01*
X140067085Y-91502591D01*
X140063000Y-91461110D01*
X140063000Y-90859890D01*
X140067085Y-90818409D01*
X140077393Y-90784431D01*
X140094134Y-90753110D01*
X140116661Y-90725661D01*
X140144110Y-90703134D01*
X140175431Y-90686393D01*
X140209409Y-90676085D01*
X140250890Y-90672000D01*
X140927110Y-90672000D01*
X140968591Y-90676085D01*
G37*
G36*
X139063591Y-90676085D02*
G01*
X139097569Y-90686393D01*
X139128890Y-90703134D01*
X139156339Y-90725661D01*
X139178866Y-90753110D01*
X139195607Y-90784431D01*
X139205915Y-90818409D01*
X139210000Y-90859890D01*
X139210000Y-91461110D01*
X139205915Y-91502591D01*
X139195607Y-91536569D01*
X139178866Y-91567890D01*
X139156339Y-91595339D01*
X139128890Y-91617866D01*
X139097569Y-91634607D01*
X139063591Y-91644915D01*
X139022110Y-91649000D01*
X138345890Y-91649000D01*
X138304409Y-91644915D01*
X138270431Y-91634607D01*
X138239110Y-91617866D01*
X138211661Y-91595339D01*
X138189134Y-91567890D01*
X138172393Y-91536569D01*
X138162085Y-91502591D01*
X138158000Y-91461110D01*
X138158000Y-90859890D01*
X138162085Y-90818409D01*
X138172393Y-90784431D01*
X138189134Y-90753110D01*
X138211661Y-90725661D01*
X138239110Y-90703134D01*
X138270431Y-90686393D01*
X138304409Y-90676085D01*
X138345890Y-90672000D01*
X139022110Y-90672000D01*
X139063591Y-90676085D01*
G37*
G36*
X155192591Y-90549085D02*
G01*
X155226569Y-90559393D01*
X155257890Y-90576134D01*
X155285339Y-90598661D01*
X155307866Y-90626110D01*
X155324607Y-90657431D01*
X155334915Y-90691409D01*
X155339000Y-90732890D01*
X155339000Y-91334110D01*
X155334915Y-91375591D01*
X155324607Y-91409569D01*
X155307866Y-91440890D01*
X155285339Y-91468339D01*
X155257890Y-91490866D01*
X155226569Y-91507607D01*
X155192591Y-91517915D01*
X155151110Y-91522000D01*
X154474890Y-91522000D01*
X154433409Y-91517915D01*
X154399431Y-91507607D01*
X154368110Y-91490866D01*
X154340661Y-91468339D01*
X154318134Y-91440890D01*
X154301393Y-91409569D01*
X154291085Y-91375591D01*
X154287000Y-91334110D01*
X154287000Y-90732890D01*
X154291085Y-90691409D01*
X154301393Y-90657431D01*
X154318134Y-90626110D01*
X154340661Y-90598661D01*
X154368110Y-90576134D01*
X154399431Y-90559393D01*
X154433409Y-90549085D01*
X154474890Y-90545000D01*
X155151110Y-90545000D01*
X155192591Y-90549085D01*
G37*
G36*
X157097591Y-90549085D02*
G01*
X157131569Y-90559393D01*
X157162890Y-90576134D01*
X157190339Y-90598661D01*
X157212866Y-90626110D01*
X157229607Y-90657431D01*
X157239915Y-90691409D01*
X157244000Y-90732890D01*
X157244000Y-91334110D01*
X157239915Y-91375591D01*
X157229607Y-91409569D01*
X157212866Y-91440890D01*
X157190339Y-91468339D01*
X157162890Y-91490866D01*
X157131569Y-91507607D01*
X157097591Y-91517915D01*
X157056110Y-91522000D01*
X156379890Y-91522000D01*
X156338409Y-91517915D01*
X156304431Y-91507607D01*
X156273110Y-91490866D01*
X156245661Y-91468339D01*
X156223134Y-91440890D01*
X156206393Y-91409569D01*
X156196085Y-91375591D01*
X156192000Y-91334110D01*
X156192000Y-90732890D01*
X156196085Y-90691409D01*
X156206393Y-90657431D01*
X156223134Y-90626110D01*
X156245661Y-90598661D01*
X156273110Y-90576134D01*
X156304431Y-90559393D01*
X156338409Y-90549085D01*
X156379890Y-90545000D01*
X157056110Y-90545000D01*
X157097591Y-90549085D01*
G37*
M02*
