G04 #@! TF.GenerationSoftware,KiCad,Pcbnew,(5.1.5)-3*
G04 #@! TF.CreationDate,2020-08-13T21:18:49+02:00*
G04 #@! TF.ProjectId,STM32 Dev.Board,53544d33-3220-4446-9576-2e426f617264,rev?*
G04 #@! TF.SameCoordinates,Original*
G04 #@! TF.FileFunction,Legend,Top*
G04 #@! TF.FilePolarity,Positive*
%FSLAX46Y46*%
G04 Gerber Fmt 4.6, Leading zero omitted, Abs format (unit mm)*
G04 Created by KiCad (PCBNEW (5.1.5)-3) date 2020-08-13 21:18:49*
%MOMM*%
%LPD*%
G04 APERTURE LIST*
%ADD10C,0.400000*%
%ADD11C,0.200000*%
%ADD12C,0.300000*%
%ADD13C,0.250000*%
%ADD14C,0.120000*%
G04 APERTURE END LIST*
D10*
X148263922Y-95808800D02*
G75*
G03X148263922Y-95808800I-80322J0D01*
G01*
D11*
X141692380Y-95749904D02*
X142501904Y-95749904D01*
X142597142Y-95702285D01*
X142644761Y-95654666D01*
X142692380Y-95559428D01*
X142692380Y-95368952D01*
X142644761Y-95273714D01*
X142597142Y-95226095D01*
X142501904Y-95178476D01*
X141692380Y-95178476D01*
X142644761Y-94749904D02*
X142692380Y-94607047D01*
X142692380Y-94368952D01*
X142644761Y-94273714D01*
X142597142Y-94226095D01*
X142501904Y-94178476D01*
X142406666Y-94178476D01*
X142311428Y-94226095D01*
X142263809Y-94273714D01*
X142216190Y-94368952D01*
X142168571Y-94559428D01*
X142120952Y-94654666D01*
X142073333Y-94702285D01*
X141978095Y-94749904D01*
X141882857Y-94749904D01*
X141787619Y-94702285D01*
X141740000Y-94654666D01*
X141692380Y-94559428D01*
X141692380Y-94321333D01*
X141740000Y-94178476D01*
X142168571Y-93416571D02*
X142216190Y-93273714D01*
X142263809Y-93226095D01*
X142359047Y-93178476D01*
X142501904Y-93178476D01*
X142597142Y-93226095D01*
X142644761Y-93273714D01*
X142692380Y-93368952D01*
X142692380Y-93749904D01*
X141692380Y-93749904D01*
X141692380Y-93416571D01*
X141740000Y-93321333D01*
X141787619Y-93273714D01*
X141882857Y-93226095D01*
X141978095Y-93226095D01*
X142073333Y-93273714D01*
X142120952Y-93321333D01*
X142168571Y-93416571D01*
X142168571Y-93749904D01*
X148386847Y-108224628D02*
X149148752Y-108224628D01*
X148767800Y-108605580D02*
X148767800Y-107843676D01*
D10*
X146282722Y-122885200D02*
G75*
G03X146282722Y-122885200I-80322J0D01*
G01*
D12*
X157921257Y-114131628D02*
X157921257Y-114703057D01*
X156721257Y-114703057D01*
X157292685Y-113731628D02*
X157292685Y-113331628D01*
X157921257Y-113160200D02*
X157921257Y-113731628D01*
X156721257Y-113731628D01*
X156721257Y-113160200D01*
X157921257Y-112645914D02*
X156721257Y-112645914D01*
X156721257Y-112360200D01*
X156778400Y-112188771D01*
X156892685Y-112074485D01*
X157006971Y-112017342D01*
X157235542Y-111960200D01*
X157406971Y-111960200D01*
X157635542Y-112017342D01*
X157749828Y-112074485D01*
X157864114Y-112188771D01*
X157921257Y-112360200D01*
X157921257Y-112645914D01*
D13*
X133381904Y-99528380D02*
X134000952Y-99528380D01*
X133667619Y-99909333D01*
X133810476Y-99909333D01*
X133905714Y-99956952D01*
X133953333Y-100004571D01*
X134000952Y-100099809D01*
X134000952Y-100337904D01*
X133953333Y-100433142D01*
X133905714Y-100480761D01*
X133810476Y-100528380D01*
X133524761Y-100528380D01*
X133429523Y-100480761D01*
X133381904Y-100433142D01*
X134286666Y-99528380D02*
X134620000Y-100528380D01*
X134953333Y-99528380D01*
X135191428Y-99528380D02*
X135810476Y-99528380D01*
X135477142Y-99909333D01*
X135620000Y-99909333D01*
X135715238Y-99956952D01*
X135762857Y-100004571D01*
X135810476Y-100099809D01*
X135810476Y-100337904D01*
X135762857Y-100433142D01*
X135715238Y-100480761D01*
X135620000Y-100528380D01*
X135334285Y-100528380D01*
X135239047Y-100480761D01*
X135191428Y-100433142D01*
X161378923Y-97191580D02*
X160902733Y-97191580D01*
X160855114Y-97667771D01*
X160902733Y-97620152D01*
X160997971Y-97572533D01*
X161236066Y-97572533D01*
X161331304Y-97620152D01*
X161378923Y-97667771D01*
X161426542Y-97763009D01*
X161426542Y-98001104D01*
X161378923Y-98096342D01*
X161331304Y-98143961D01*
X161236066Y-98191580D01*
X160997971Y-98191580D01*
X160902733Y-98143961D01*
X160855114Y-98096342D01*
X161712257Y-97191580D02*
X162045590Y-98191580D01*
X162378923Y-97191580D01*
X158305523Y-90638380D02*
X157829333Y-90638380D01*
X157781714Y-91114571D01*
X157829333Y-91066952D01*
X157924571Y-91019333D01*
X158162666Y-91019333D01*
X158257904Y-91066952D01*
X158305523Y-91114571D01*
X158353142Y-91209809D01*
X158353142Y-91447904D01*
X158305523Y-91543142D01*
X158257904Y-91590761D01*
X158162666Y-91638380D01*
X157924571Y-91638380D01*
X157829333Y-91590761D01*
X157781714Y-91543142D01*
X158638857Y-90638380D02*
X158972190Y-91638380D01*
X159305523Y-90638380D01*
X135159904Y-90384380D02*
X135778952Y-90384380D01*
X135445619Y-90765333D01*
X135588476Y-90765333D01*
X135683714Y-90812952D01*
X135731333Y-90860571D01*
X135778952Y-90955809D01*
X135778952Y-91193904D01*
X135731333Y-91289142D01*
X135683714Y-91336761D01*
X135588476Y-91384380D01*
X135302761Y-91384380D01*
X135207523Y-91336761D01*
X135159904Y-91289142D01*
X136064666Y-90384380D02*
X136398000Y-91384380D01*
X136731333Y-90384380D01*
X136969428Y-90384380D02*
X137588476Y-90384380D01*
X137255142Y-90765333D01*
X137398000Y-90765333D01*
X137493238Y-90812952D01*
X137540857Y-90860571D01*
X137588476Y-90955809D01*
X137588476Y-91193904D01*
X137540857Y-91289142D01*
X137493238Y-91336761D01*
X137398000Y-91384380D01*
X137112285Y-91384380D01*
X137017047Y-91336761D01*
X136969428Y-91289142D01*
D12*
X141373428Y-109127142D02*
X141544857Y-109189047D01*
X141602000Y-109250952D01*
X141659142Y-109374761D01*
X141659142Y-109560476D01*
X141602000Y-109684285D01*
X141544857Y-109746190D01*
X141430571Y-109808095D01*
X140973428Y-109808095D01*
X140973428Y-108508095D01*
X141373428Y-108508095D01*
X141487714Y-108570000D01*
X141544857Y-108631904D01*
X141602000Y-108755714D01*
X141602000Y-108879523D01*
X141544857Y-109003333D01*
X141487714Y-109065238D01*
X141373428Y-109127142D01*
X140973428Y-109127142D01*
X142402000Y-108508095D02*
X142630571Y-108508095D01*
X142744857Y-108570000D01*
X142859142Y-108693809D01*
X142916285Y-108941428D01*
X142916285Y-109374761D01*
X142859142Y-109622380D01*
X142744857Y-109746190D01*
X142630571Y-109808095D01*
X142402000Y-109808095D01*
X142287714Y-109746190D01*
X142173428Y-109622380D01*
X142116285Y-109374761D01*
X142116285Y-108941428D01*
X142173428Y-108693809D01*
X142287714Y-108570000D01*
X142402000Y-108508095D01*
X143659142Y-108508095D02*
X143887714Y-108508095D01*
X144002000Y-108570000D01*
X144116285Y-108693809D01*
X144173428Y-108941428D01*
X144173428Y-109374761D01*
X144116285Y-109622380D01*
X144002000Y-109746190D01*
X143887714Y-109808095D01*
X143659142Y-109808095D01*
X143544857Y-109746190D01*
X143430571Y-109622380D01*
X143373428Y-109374761D01*
X143373428Y-108941428D01*
X143430571Y-108693809D01*
X143544857Y-108570000D01*
X143659142Y-108508095D01*
X144516285Y-108508095D02*
X145202000Y-108508095D01*
X144859142Y-109808095D02*
X144859142Y-108508095D01*
X155498095Y-132368857D02*
X155064761Y-131797428D01*
X154755238Y-132368857D02*
X154755238Y-131168857D01*
X155250476Y-131168857D01*
X155374285Y-131226000D01*
X155436190Y-131283142D01*
X155498095Y-131397428D01*
X155498095Y-131568857D01*
X155436190Y-131683142D01*
X155374285Y-131740285D01*
X155250476Y-131797428D01*
X154755238Y-131797428D01*
X155993333Y-132311714D02*
X156179047Y-132368857D01*
X156488571Y-132368857D01*
X156612380Y-132311714D01*
X156674285Y-132254571D01*
X156736190Y-132140285D01*
X156736190Y-132026000D01*
X156674285Y-131911714D01*
X156612380Y-131854571D01*
X156488571Y-131797428D01*
X156240952Y-131740285D01*
X156117142Y-131683142D01*
X156055238Y-131626000D01*
X155993333Y-131511714D01*
X155993333Y-131397428D01*
X156055238Y-131283142D01*
X156117142Y-131226000D01*
X156240952Y-131168857D01*
X156550476Y-131168857D01*
X156736190Y-131226000D01*
X157107619Y-131168857D02*
X157850476Y-131168857D01*
X157479047Y-132368857D02*
X157479047Y-131168857D01*
X140940885Y-127901619D02*
X141155171Y-127977809D01*
X141512314Y-127977809D01*
X141655171Y-127901619D01*
X141726600Y-127825428D01*
X141798028Y-127673047D01*
X141798028Y-127520666D01*
X141726600Y-127368285D01*
X141655171Y-127292095D01*
X141512314Y-127215904D01*
X141226600Y-127139714D01*
X141083742Y-127063523D01*
X141012314Y-126987333D01*
X140940885Y-126834952D01*
X140940885Y-126682571D01*
X141012314Y-126530190D01*
X141083742Y-126454000D01*
X141226600Y-126377809D01*
X141583742Y-126377809D01*
X141798028Y-126454000D01*
X142298028Y-126377809D02*
X142655171Y-127977809D01*
X142940885Y-126834952D01*
X143226600Y-127977809D01*
X143583742Y-126377809D01*
X144155171Y-127977809D02*
X144155171Y-126377809D01*
X144512314Y-126377809D01*
X144726600Y-126454000D01*
X144869457Y-126606380D01*
X144940885Y-126758761D01*
X145012314Y-127063523D01*
X145012314Y-127292095D01*
X144940885Y-127596857D01*
X144869457Y-127749238D01*
X144726600Y-127901619D01*
X144512314Y-127977809D01*
X144155171Y-127977809D01*
D11*
X131826190Y-97242380D02*
X132159523Y-98242380D01*
X132492857Y-97242380D01*
X133350000Y-98242380D02*
X132778571Y-98242380D01*
X133064285Y-98242380D02*
X133064285Y-97242380D01*
X132969047Y-97385238D01*
X132873809Y-97480476D01*
X132778571Y-97528095D01*
X133778571Y-98147142D02*
X133826190Y-98194761D01*
X133778571Y-98242380D01*
X133730952Y-98194761D01*
X133778571Y-98147142D01*
X133778571Y-98242380D01*
X134445238Y-97242380D02*
X134540476Y-97242380D01*
X134635714Y-97290000D01*
X134683333Y-97337619D01*
X134730952Y-97432857D01*
X134778571Y-97623333D01*
X134778571Y-97861428D01*
X134730952Y-98051904D01*
X134683333Y-98147142D01*
X134635714Y-98194761D01*
X134540476Y-98242380D01*
X134445238Y-98242380D01*
X134350000Y-98194761D01*
X134302380Y-98147142D01*
X134254761Y-98051904D01*
X134207142Y-97861428D01*
X134207142Y-97623333D01*
X134254761Y-97432857D01*
X134302380Y-97337619D01*
X134350000Y-97290000D01*
X134445238Y-97242380D01*
D14*
X132780000Y-100076000D02*
G75*
G03X132780000Y-100076000I-700000J0D01*
G01*
X163996600Y-97942400D02*
G75*
G03X163996600Y-97942400I-700000J0D01*
G01*
X146763200Y-103642379D02*
X146763200Y-103316821D01*
X145743200Y-103642379D02*
X145743200Y-103316821D01*
X147028598Y-121830313D02*
X147940766Y-122742481D01*
X146710400Y-122148511D02*
X147028598Y-121830313D01*
X146392202Y-121830313D02*
X146710400Y-122148511D01*
X141605089Y-117043200D02*
X141923287Y-116725002D01*
X141923287Y-117361398D02*
X141605089Y-117043200D01*
X151815711Y-117043200D02*
X151497513Y-117361398D01*
X151497513Y-116725002D02*
X151815711Y-117043200D01*
X146710400Y-111937889D02*
X146392202Y-112256087D01*
X147028598Y-112256087D02*
X146710400Y-111937889D01*
X141615907Y-111674498D02*
X141385702Y-111444293D01*
X140894658Y-112395747D02*
X140664453Y-112165542D01*
X139502000Y-97157000D02*
X139502000Y-98617000D01*
X136342000Y-97157000D02*
X136342000Y-99317000D01*
X136342000Y-97157000D02*
X137272000Y-97157000D01*
X139502000Y-97157000D02*
X138572000Y-97157000D01*
X148777660Y-125228513D02*
X151606087Y-128056940D01*
X151111113Y-122895060D02*
X148777660Y-125228513D01*
X157019000Y-96661000D02*
X152809000Y-96661000D01*
X157019000Y-99681000D02*
X157019000Y-96661000D01*
X152809000Y-99681000D02*
X157019000Y-99681000D01*
X153041873Y-121327322D02*
X153272078Y-121557527D01*
X153763122Y-120606073D02*
X153993327Y-120836278D01*
X156336200Y-129962000D02*
X156236200Y-129962000D01*
X154736200Y-125562000D02*
X154736200Y-129962000D01*
X157836200Y-129962000D02*
X157836200Y-125562000D01*
X156336200Y-125562000D02*
X156236200Y-125562000D01*
X151517873Y-122724322D02*
X151748078Y-122954527D01*
X152239122Y-122003073D02*
X152469327Y-122233278D01*
X139031122Y-121227327D02*
X139261327Y-120997122D01*
X138309873Y-120506078D02*
X138540078Y-120275873D01*
X154915512Y-119445204D02*
X155281196Y-119810888D01*
X155919604Y-118441112D02*
X156285288Y-118806796D01*
X151638000Y-89983000D02*
X151638000Y-90243000D01*
X151638000Y-92523000D02*
X151638000Y-94293000D01*
X151638000Y-94293000D02*
X151258000Y-94293000D01*
X144018000Y-94293000D02*
X144018000Y-92523000D01*
X144018000Y-90243000D02*
X144018000Y-89983000D01*
X144018000Y-94293000D02*
X144398000Y-94293000D01*
X148295000Y-98944000D02*
X148295000Y-96494000D01*
X145075000Y-97144000D02*
X145075000Y-98944000D01*
X157745000Y-107296000D02*
X151735000Y-107296000D01*
X155495000Y-100476000D02*
X151735000Y-100476000D01*
X151735000Y-107296000D02*
X151735000Y-106036000D01*
X151735000Y-100476000D02*
X151735000Y-101736000D01*
X140504322Y-122598927D02*
X140734527Y-122368722D01*
X139783073Y-121877678D02*
X140013278Y-121647473D01*
X157228000Y-91983779D02*
X157228000Y-91658221D01*
X156208000Y-91983779D02*
X156208000Y-91658221D01*
X139194000Y-92110779D02*
X139194000Y-91785221D01*
X138174000Y-92110779D02*
X138174000Y-91785221D01*
X156008800Y-110220979D02*
X156008800Y-109895421D01*
X154988800Y-110220979D02*
X154988800Y-109895421D01*
X150403779Y-98804000D02*
X150078221Y-98804000D01*
X150403779Y-99824000D02*
X150078221Y-99824000D01*
X140498307Y-112792098D02*
X140268102Y-112561893D01*
X139777058Y-113513347D02*
X139546853Y-113283142D01*
X148905500Y-96763721D02*
X148905500Y-97089279D01*
X149925500Y-96763721D02*
X149925500Y-97089279D01*
X141569221Y-101221000D02*
X141894779Y-101221000D01*
X141569221Y-100201000D02*
X141894779Y-100201000D01*
X138013221Y-101221000D02*
X138338779Y-101221000D01*
X138013221Y-100201000D02*
X138338779Y-100201000D01*
X145743200Y-106466421D02*
X145743200Y-106791979D01*
X146763200Y-106466421D02*
X146763200Y-106791979D01*
X140116779Y-94486000D02*
X139791221Y-94486000D01*
X140116779Y-95506000D02*
X139791221Y-95506000D01*
X143185000Y-97157000D02*
X143185000Y-98617000D01*
X140025000Y-97157000D02*
X140025000Y-99317000D01*
X140025000Y-97157000D02*
X140955000Y-97157000D01*
X143185000Y-97157000D02*
X142255000Y-97157000D01*
X132207000Y-127314000D02*
X130877000Y-127314000D01*
X130877000Y-127314000D02*
X130877000Y-125984000D01*
X133477000Y-127314000D02*
X133477000Y-124714000D01*
X133477000Y-124714000D02*
X130877000Y-124714000D01*
X130877000Y-124714000D02*
X130877000Y-101794000D01*
X136077000Y-101794000D02*
X130877000Y-101794000D01*
X136077000Y-127314000D02*
X136077000Y-101794000D01*
X136077000Y-127314000D02*
X133477000Y-127314000D01*
X160147000Y-127314000D02*
X158817000Y-127314000D01*
X158817000Y-127314000D02*
X158817000Y-125984000D01*
X161417000Y-127314000D02*
X161417000Y-124714000D01*
X161417000Y-124714000D02*
X158817000Y-124714000D01*
X158817000Y-124714000D02*
X158817000Y-101794000D01*
X164017000Y-101794000D02*
X158817000Y-101794000D01*
X164017000Y-127314000D02*
X164017000Y-101794000D01*
X164017000Y-127314000D02*
X161417000Y-127314000D01*
X141037000Y-134146600D02*
X141037000Y-132816600D01*
X142367000Y-134146600D02*
X141037000Y-134146600D01*
X141037000Y-131546600D02*
X141037000Y-128946600D01*
X143637000Y-131546600D02*
X141037000Y-131546600D01*
X143637000Y-134146600D02*
X143637000Y-131546600D01*
X141037000Y-128946600D02*
X153857000Y-128946600D01*
X143637000Y-134146600D02*
X153857000Y-134146600D01*
X153857000Y-134146600D02*
X153857000Y-128946600D01*
X137176200Y-107705200D02*
X137176200Y-106375200D01*
X138506200Y-107705200D02*
X137176200Y-107705200D01*
X137176200Y-105105200D02*
X137176200Y-102505200D01*
X139776200Y-105105200D02*
X137176200Y-105105200D01*
X139776200Y-107705200D02*
X139776200Y-105105200D01*
X137176200Y-102505200D02*
X144916200Y-102505200D01*
X139776200Y-107705200D02*
X144916200Y-107705200D01*
X144916200Y-107705200D02*
X144916200Y-102505200D01*
X158618422Y-99897000D02*
X159135578Y-99897000D01*
X158618422Y-98477000D02*
X159135578Y-98477000D01*
X162691578Y-99366000D02*
X162174422Y-99366000D01*
X162691578Y-100786000D02*
X162174422Y-100786000D01*
X154078000Y-90336000D02*
X154078000Y-92621000D01*
X155548000Y-90336000D02*
X154078000Y-90336000D01*
X155548000Y-92621000D02*
X155548000Y-90336000D01*
X139854000Y-90463000D02*
X139854000Y-92748000D01*
X141324000Y-90463000D02*
X139854000Y-90463000D01*
X141324000Y-92748000D02*
X141324000Y-90463000D01*
X156541800Y-108573200D02*
X156541800Y-110858200D01*
X158011800Y-108573200D02*
X156541800Y-108573200D01*
X158011800Y-110858200D02*
X158011800Y-108573200D01*
X157698000Y-95996000D02*
X153798000Y-95996000D01*
X157698000Y-93996000D02*
X153798000Y-93996000D01*
X157698000Y-95996000D02*
X157698000Y-93996000D01*
X150556500Y-96738221D02*
X150556500Y-97063779D01*
X151576500Y-96738221D02*
X151576500Y-97063779D01*
X149432000Y-110857000D02*
X153642000Y-110857000D01*
X149432000Y-107837000D02*
X149432000Y-110857000D01*
X153642000Y-107837000D02*
X149432000Y-107837000D01*
D11*
X148254980Y-104281266D02*
X147778790Y-104614600D01*
X148254980Y-104852695D02*
X147254980Y-104852695D01*
X147254980Y-104471742D01*
X147302600Y-104376504D01*
X147350219Y-104328885D01*
X147445457Y-104281266D01*
X147588314Y-104281266D01*
X147683552Y-104328885D01*
X147731171Y-104376504D01*
X147778790Y-104471742D01*
X147778790Y-104852695D01*
X147588314Y-103424123D02*
X148254980Y-103424123D01*
X147207361Y-103662219D02*
X147921647Y-103900314D01*
X147921647Y-103281266D01*
X150927677Y-112154826D02*
X150355257Y-112727246D01*
X150321585Y-112828261D01*
X150321585Y-112895605D01*
X150355257Y-112996620D01*
X150489944Y-113131307D01*
X150590959Y-113164979D01*
X150658303Y-113164979D01*
X150759318Y-113131307D01*
X151331738Y-112558887D01*
X151601112Y-112828261D02*
X152038844Y-113265994D01*
X151533768Y-113299666D01*
X151634783Y-113400681D01*
X151668455Y-113501696D01*
X151668455Y-113569040D01*
X151634783Y-113670055D01*
X151466425Y-113838414D01*
X151365409Y-113872086D01*
X151298066Y-113872086D01*
X151197051Y-113838414D01*
X150995020Y-113636383D01*
X150961348Y-113535368D01*
X150961348Y-113468025D01*
X138906667Y-110361830D02*
X139007682Y-109789410D01*
X138502606Y-109957769D02*
X139209712Y-109250662D01*
X139479087Y-109520036D01*
X139512758Y-109621051D01*
X139512758Y-109688395D01*
X139479087Y-109789410D01*
X139378071Y-109890425D01*
X139277056Y-109924097D01*
X139209712Y-109924097D01*
X139108697Y-109890425D01*
X138839323Y-109621051D01*
X139243384Y-110698548D02*
X139378071Y-110833235D01*
X139479087Y-110866906D01*
X139546430Y-110866906D01*
X139714789Y-110833235D01*
X139883148Y-110732219D01*
X140152522Y-110462845D01*
X140186193Y-110361830D01*
X140186193Y-110294487D01*
X140152522Y-110193471D01*
X140017835Y-110058784D01*
X139916819Y-110025112D01*
X139849476Y-110025112D01*
X139748461Y-110058784D01*
X139580102Y-110227143D01*
X139546430Y-110328158D01*
X139546430Y-110395502D01*
X139580102Y-110496517D01*
X139714789Y-110631204D01*
X139815804Y-110664876D01*
X139883148Y-110664876D01*
X139984163Y-110631204D01*
X154941542Y-98388466D02*
X154989161Y-98436085D01*
X155036780Y-98578942D01*
X155036780Y-98674180D01*
X154989161Y-98817038D01*
X154893923Y-98912276D01*
X154798685Y-98959895D01*
X154608209Y-99007514D01*
X154465352Y-99007514D01*
X154274876Y-98959895D01*
X154179638Y-98912276D01*
X154084400Y-98817038D01*
X154036780Y-98674180D01*
X154036780Y-98578942D01*
X154084400Y-98436085D01*
X154132019Y-98388466D01*
X154132019Y-98007514D02*
X154084400Y-97959895D01*
X154036780Y-97864657D01*
X154036780Y-97626561D01*
X154084400Y-97531323D01*
X154132019Y-97483704D01*
X154227257Y-97436085D01*
X154322495Y-97436085D01*
X154465352Y-97483704D01*
X155036780Y-98055133D01*
X155036780Y-97436085D01*
X137812712Y-120332250D02*
X137240293Y-120231235D01*
X137408651Y-120736311D02*
X136701545Y-120029204D01*
X136970919Y-119759830D01*
X137071934Y-119726158D01*
X137139277Y-119726158D01*
X137240293Y-119759830D01*
X137341308Y-119860845D01*
X137374980Y-119961861D01*
X137374980Y-120029204D01*
X137341308Y-120130219D01*
X137071934Y-120399593D01*
X138486148Y-119658815D02*
X138082087Y-120062876D01*
X138284117Y-119860845D02*
X137577010Y-119153738D01*
X137610682Y-119322097D01*
X137610682Y-119456784D01*
X137577010Y-119557800D01*
X138620835Y-118581319D02*
X139092239Y-119052723D01*
X138183102Y-118480303D02*
X138519819Y-119153738D01*
X138957552Y-118716006D01*
X156228377Y-117319510D02*
X155992675Y-117083808D01*
X155622286Y-117454197D02*
X156329393Y-116747090D01*
X156666110Y-117083808D01*
X156834469Y-117925602D02*
X156901813Y-118060289D01*
X156901813Y-118127632D01*
X156868141Y-118228648D01*
X156767126Y-118329663D01*
X156666110Y-118363335D01*
X156598767Y-118363335D01*
X156497751Y-118329663D01*
X156228377Y-118060289D01*
X156935484Y-117353182D01*
X157171187Y-117588884D01*
X157204858Y-117689899D01*
X157204858Y-117757243D01*
X157171187Y-117858258D01*
X157103843Y-117925602D01*
X157002828Y-117959273D01*
X156935484Y-117959274D01*
X156834469Y-117925602D01*
X156598767Y-117689899D01*
X157541576Y-118093961D02*
X157608919Y-118093961D01*
X157709935Y-118127632D01*
X157878293Y-118295991D01*
X157911965Y-118397006D01*
X157911965Y-118464350D01*
X157878293Y-118565365D01*
X157810950Y-118632709D01*
X157676263Y-118700052D01*
X156868141Y-118700052D01*
X157305874Y-119137785D01*
X143648180Y-97027904D02*
X144457704Y-97027904D01*
X144552942Y-96980285D01*
X144600561Y-96932666D01*
X144648180Y-96837428D01*
X144648180Y-96646952D01*
X144600561Y-96551714D01*
X144552942Y-96504095D01*
X144457704Y-96456476D01*
X143648180Y-96456476D01*
X143743419Y-96027904D02*
X143695800Y-95980285D01*
X143648180Y-95885047D01*
X143648180Y-95646952D01*
X143695800Y-95551714D01*
X143743419Y-95504095D01*
X143838657Y-95456476D01*
X143933895Y-95456476D01*
X144076752Y-95504095D01*
X144648180Y-96075523D01*
X144648180Y-95456476D01*
X152908095Y-101306380D02*
X152908095Y-102115904D01*
X152955714Y-102211142D01*
X153003333Y-102258761D01*
X153098571Y-102306380D01*
X153289047Y-102306380D01*
X153384285Y-102258761D01*
X153431904Y-102211142D01*
X153479523Y-102115904D01*
X153479523Y-101306380D01*
X154479523Y-102306380D02*
X153908095Y-102306380D01*
X154193809Y-102306380D02*
X154193809Y-101306380D01*
X154098571Y-101449238D01*
X154003333Y-101544476D01*
X153908095Y-101592095D01*
X138066712Y-125082051D02*
X137494293Y-124981036D01*
X137662651Y-125486112D02*
X136955545Y-124779005D01*
X137224919Y-124509631D01*
X137325934Y-124475959D01*
X137393277Y-124475959D01*
X137494293Y-124509631D01*
X137595308Y-124610646D01*
X137628980Y-124711662D01*
X137628980Y-124779005D01*
X137595308Y-124880020D01*
X137325934Y-125149394D01*
X138740148Y-124408616D02*
X138336087Y-124812677D01*
X138538117Y-124610646D02*
X137831010Y-123903539D01*
X137864682Y-124071898D01*
X137864682Y-124206585D01*
X137831010Y-124307601D01*
X138672804Y-123061746D02*
X138336087Y-123398463D01*
X138639132Y-123768852D01*
X138639132Y-123701509D01*
X138672804Y-123600494D01*
X138841163Y-123432135D01*
X138942178Y-123398463D01*
X139009522Y-123398463D01*
X139110537Y-123432135D01*
X139278896Y-123600494D01*
X139312567Y-123701509D01*
X139312567Y-123768852D01*
X139278896Y-123869868D01*
X139110537Y-124038226D01*
X139009522Y-124071898D01*
X138942178Y-124071898D01*
X155747980Y-113850657D02*
X155271790Y-114183990D01*
X155747980Y-114422085D02*
X154747980Y-114422085D01*
X154747980Y-114041133D01*
X154795600Y-113945895D01*
X154843219Y-113898276D01*
X154938457Y-113850657D01*
X155081314Y-113850657D01*
X155176552Y-113898276D01*
X155224171Y-113945895D01*
X155271790Y-114041133D01*
X155271790Y-114422085D01*
X155747980Y-112898276D02*
X155747980Y-113469704D01*
X155747980Y-113183990D02*
X154747980Y-113183990D01*
X154890838Y-113279228D01*
X154986076Y-113374466D01*
X155033695Y-113469704D01*
X155747980Y-111945895D02*
X155747980Y-112517323D01*
X155747980Y-112231609D02*
X154747980Y-112231609D01*
X154890838Y-112326847D01*
X154986076Y-112422085D01*
X155033695Y-112517323D01*
X137763667Y-111504830D02*
X137864682Y-110932410D01*
X137359606Y-111100769D02*
X138066712Y-110393662D01*
X138336087Y-110663036D01*
X138369758Y-110764051D01*
X138369758Y-110831395D01*
X138336087Y-110932410D01*
X138235071Y-111033425D01*
X138134056Y-111067097D01*
X138066712Y-111067097D01*
X137965697Y-111033425D01*
X137696323Y-110764051D01*
X138571789Y-111504830D02*
X138538117Y-111403815D01*
X138538117Y-111336471D01*
X138571789Y-111235456D01*
X138605461Y-111201784D01*
X138706476Y-111168112D01*
X138773819Y-111168112D01*
X138874835Y-111201784D01*
X139009522Y-111336471D01*
X139043193Y-111437487D01*
X139043193Y-111504830D01*
X139009522Y-111605845D01*
X138975850Y-111639517D01*
X138874835Y-111673189D01*
X138807491Y-111673189D01*
X138706476Y-111639517D01*
X138571789Y-111504830D01*
X138470774Y-111471158D01*
X138403430Y-111471158D01*
X138302415Y-111504830D01*
X138167728Y-111639517D01*
X138134056Y-111740532D01*
X138134056Y-111807876D01*
X138167728Y-111908891D01*
X138302415Y-112043578D01*
X138403430Y-112077250D01*
X138470774Y-112077250D01*
X138571789Y-112043578D01*
X138706476Y-111908891D01*
X138740148Y-111807876D01*
X138740148Y-111740532D01*
X138706476Y-111639517D01*
X148254980Y-106770466D02*
X147778790Y-107103800D01*
X148254980Y-107341895D02*
X147254980Y-107341895D01*
X147254980Y-106960942D01*
X147302600Y-106865704D01*
X147350219Y-106818085D01*
X147445457Y-106770466D01*
X147588314Y-106770466D01*
X147683552Y-106818085D01*
X147731171Y-106865704D01*
X147778790Y-106960942D01*
X147778790Y-107341895D01*
X147254980Y-106437133D02*
X147254980Y-105818085D01*
X147635933Y-106151419D01*
X147635933Y-106008561D01*
X147683552Y-105913323D01*
X147731171Y-105865704D01*
X147826409Y-105818085D01*
X148064504Y-105818085D01*
X148159742Y-105865704D01*
X148207361Y-105913323D01*
X148254980Y-106008561D01*
X148254980Y-106294276D01*
X148207361Y-106389514D01*
X148159742Y-106437133D01*
X158043666Y-97465571D02*
X157710333Y-97465571D01*
X157710333Y-97989380D02*
X157710333Y-96989380D01*
X158186523Y-96989380D01*
X158900809Y-97465571D02*
X159043666Y-97513190D01*
X159091285Y-97560809D01*
X159138904Y-97656047D01*
X159138904Y-97798904D01*
X159091285Y-97894142D01*
X159043666Y-97941761D01*
X158948428Y-97989380D01*
X158567476Y-97989380D01*
X158567476Y-96989380D01*
X158900809Y-96989380D01*
X158996047Y-97037000D01*
X159043666Y-97084619D01*
X159091285Y-97179857D01*
X159091285Y-97275095D01*
X159043666Y-97370333D01*
X158996047Y-97417952D01*
X158900809Y-97465571D01*
X158567476Y-97465571D01*
X160091285Y-97989380D02*
X159519857Y-97989380D01*
X159805571Y-97989380D02*
X159805571Y-96989380D01*
X159710333Y-97132238D01*
X159615095Y-97227476D01*
X159519857Y-97275095D01*
X154760704Y-95473780D02*
X154760704Y-94473780D01*
X154998800Y-94473780D01*
X155141657Y-94521400D01*
X155236895Y-94616638D01*
X155284514Y-94711876D01*
X155332133Y-94902352D01*
X155332133Y-95045209D01*
X155284514Y-95235685D01*
X155236895Y-95330923D01*
X155141657Y-95426161D01*
X154998800Y-95473780D01*
X154760704Y-95473780D01*
X156284514Y-95473780D02*
X155713085Y-95473780D01*
X155998800Y-95473780D02*
X155998800Y-94473780D01*
X155903561Y-94616638D01*
X155808323Y-94711876D01*
X155713085Y-94759495D01*
X152299942Y-109589866D02*
X152347561Y-109637485D01*
X152395180Y-109780342D01*
X152395180Y-109875580D01*
X152347561Y-110018438D01*
X152252323Y-110113676D01*
X152157085Y-110161295D01*
X151966609Y-110208914D01*
X151823752Y-110208914D01*
X151633276Y-110161295D01*
X151538038Y-110113676D01*
X151442800Y-110018438D01*
X151395180Y-109875580D01*
X151395180Y-109780342D01*
X151442800Y-109637485D01*
X151490419Y-109589866D01*
X151728514Y-108732723D02*
X152395180Y-108732723D01*
X151347561Y-108970819D02*
X152061847Y-109208914D01*
X152061847Y-108589866D01*
M02*
