G04 #@! TF.GenerationSoftware,KiCad,Pcbnew,(5.1.5)-3*
G04 #@! TF.CreationDate,2020-08-13T21:18:49+02:00*
G04 #@! TF.ProjectId,STM32 Dev.Board,53544d33-3220-4446-9576-2e426f617264,rev?*
G04 #@! TF.SameCoordinates,Original*
G04 #@! TF.FileFunction,Legend,Bot*
G04 #@! TF.FilePolarity,Positive*
%FSLAX46Y46*%
G04 Gerber Fmt 4.6, Leading zero omitted, Abs format (unit mm)*
G04 Created by KiCad (PCBNEW (5.1.5)-3) date 2020-08-13 21:18:49*
%MOMM*%
%LPD*%
G04 APERTURE LIST*
%ADD10C,0.200000*%
%ADD11C,0.250000*%
%ADD12C,0.010000*%
G04 APERTURE END LIST*
D10*
X154432000Y-134112000D02*
X154432000Y-134366000D01*
X154432000Y-134112000D02*
X154432000Y-128016000D01*
X138938000Y-134366000D02*
X138938000Y-128016000D01*
X157559333Y-127392180D02*
X157559333Y-128106466D01*
X157606952Y-128249323D01*
X157702190Y-128344561D01*
X157845047Y-128392180D01*
X157940285Y-128392180D01*
X157130761Y-127487419D02*
X157083142Y-127439800D01*
X156987904Y-127392180D01*
X156749809Y-127392180D01*
X156654571Y-127439800D01*
X156606952Y-127487419D01*
X156559333Y-127582657D01*
X156559333Y-127677895D01*
X156606952Y-127820752D01*
X157178380Y-128392180D01*
X156559333Y-128392180D01*
X137823533Y-127468380D02*
X137823533Y-128182666D01*
X137871152Y-128325523D01*
X137966390Y-128420761D01*
X138109247Y-128468380D01*
X138204485Y-128468380D01*
X136823533Y-128468380D02*
X137394961Y-128468380D01*
X137109247Y-128468380D02*
X137109247Y-127468380D01*
X137204485Y-127611238D01*
X137299723Y-127706476D01*
X137394961Y-127754095D01*
X161724933Y-100468180D02*
X161724933Y-101182466D01*
X161772552Y-101325323D01*
X161867790Y-101420561D01*
X162010647Y-101468180D01*
X162105885Y-101468180D01*
X161296361Y-100563419D02*
X161248742Y-100515800D01*
X161153504Y-100468180D01*
X160915409Y-100468180D01*
X160820171Y-100515800D01*
X160772552Y-100563419D01*
X160724933Y-100658657D01*
X160724933Y-100753895D01*
X160772552Y-100896752D01*
X161343980Y-101468180D01*
X160724933Y-101468180D01*
X133886533Y-100595180D02*
X133886533Y-101309466D01*
X133934152Y-101452323D01*
X134029390Y-101547561D01*
X134172247Y-101595180D01*
X134267485Y-101595180D01*
X132886533Y-101595180D02*
X133457961Y-101595180D01*
X133172247Y-101595180D02*
X133172247Y-100595180D01*
X133267485Y-100738038D01*
X133362723Y-100833276D01*
X133457961Y-100880895D01*
D11*
X146859047Y-90638380D02*
X146859047Y-91352666D01*
X146906666Y-91495523D01*
X147001904Y-91590761D01*
X147144761Y-91638380D01*
X147240000Y-91638380D01*
X145906666Y-91638380D02*
X146382857Y-91638380D01*
X146382857Y-90638380D01*
X145001904Y-91543142D02*
X145049523Y-91590761D01*
X145192380Y-91638380D01*
X145287619Y-91638380D01*
X145430476Y-91590761D01*
X145525714Y-91495523D01*
X145573333Y-91400285D01*
X145620952Y-91209809D01*
X145620952Y-91066952D01*
X145573333Y-90876476D01*
X145525714Y-90781238D01*
X145430476Y-90686000D01*
X145287619Y-90638380D01*
X145192380Y-90638380D01*
X145049523Y-90686000D01*
X145001904Y-90733619D01*
X144287619Y-90638380D02*
X144287619Y-91352666D01*
X144335238Y-91495523D01*
X144430476Y-91590761D01*
X144573333Y-91638380D01*
X144668571Y-91638380D01*
X143335238Y-91638380D02*
X143811428Y-91638380D01*
X143811428Y-90638380D01*
X142430476Y-91543142D02*
X142478095Y-91590761D01*
X142620952Y-91638380D01*
X142716190Y-91638380D01*
X142859047Y-91590761D01*
X142954285Y-91495523D01*
X143001904Y-91400285D01*
X143049523Y-91209809D01*
X143049523Y-91066952D01*
X143001904Y-90876476D01*
X142954285Y-90781238D01*
X142859047Y-90686000D01*
X142716190Y-90638380D01*
X142620952Y-90638380D01*
X142478095Y-90686000D01*
X142430476Y-90733619D01*
X141716190Y-90638380D02*
X141716190Y-91352666D01*
X141763809Y-91495523D01*
X141859047Y-91590761D01*
X142001904Y-91638380D01*
X142097142Y-91638380D01*
X140763809Y-91638380D02*
X141240000Y-91638380D01*
X141240000Y-90638380D01*
X139859047Y-91543142D02*
X139906666Y-91590761D01*
X140049523Y-91638380D01*
X140144761Y-91638380D01*
X140287619Y-91590761D01*
X140382857Y-91495523D01*
X140430476Y-91400285D01*
X140478095Y-91209809D01*
X140478095Y-91066952D01*
X140430476Y-90876476D01*
X140382857Y-90781238D01*
X140287619Y-90686000D01*
X140144761Y-90638380D01*
X140049523Y-90638380D01*
X139906666Y-90686000D01*
X139859047Y-90733619D01*
X139144761Y-90638380D02*
X139144761Y-91352666D01*
X139192380Y-91495523D01*
X139287619Y-91590761D01*
X139430476Y-91638380D01*
X139525714Y-91638380D01*
X138192380Y-91638380D02*
X138668571Y-91638380D01*
X138668571Y-90638380D01*
X137287619Y-91543142D02*
X137335238Y-91590761D01*
X137478095Y-91638380D01*
X137573333Y-91638380D01*
X137716190Y-91590761D01*
X137811428Y-91495523D01*
X137859047Y-91400285D01*
X137906666Y-91209809D01*
X137906666Y-91066952D01*
X137859047Y-90876476D01*
X137811428Y-90781238D01*
X137716190Y-90686000D01*
X137573333Y-90638380D01*
X137478095Y-90638380D01*
X137335238Y-90686000D01*
X137287619Y-90733619D01*
X156676729Y-102286761D02*
X156539824Y-102334380D01*
X156301729Y-102334380D01*
X156200538Y-102286761D01*
X156146967Y-102239142D01*
X156087443Y-102143904D01*
X156075538Y-102048666D01*
X156111252Y-101953428D01*
X156152919Y-101905809D01*
X156242205Y-101858190D01*
X156426729Y-101810571D01*
X156516014Y-101762952D01*
X156557681Y-101715333D01*
X156593395Y-101620095D01*
X156581491Y-101524857D01*
X156521967Y-101429619D01*
X156468395Y-101382000D01*
X156367205Y-101334380D01*
X156129110Y-101334380D01*
X155992205Y-101382000D01*
X155700538Y-101334380D02*
X155129110Y-101334380D01*
X155539824Y-102334380D02*
X155414824Y-101334380D01*
X154920776Y-102334380D02*
X154795776Y-101334380D01*
X154551729Y-102048666D01*
X154129110Y-101334380D01*
X154254110Y-102334380D01*
X153748157Y-101334380D02*
X153129110Y-101334380D01*
X153510062Y-101715333D01*
X153367205Y-101715333D01*
X153277919Y-101762952D01*
X153236252Y-101810571D01*
X153200538Y-101905809D01*
X153230300Y-102143904D01*
X153289824Y-102239142D01*
X153343395Y-102286761D01*
X153444586Y-102334380D01*
X153730300Y-102334380D01*
X153819586Y-102286761D01*
X153861252Y-102239142D01*
X152760062Y-101429619D02*
X152706491Y-101382000D01*
X152605300Y-101334380D01*
X152367205Y-101334380D01*
X152277919Y-101382000D01*
X152236252Y-101429619D01*
X152200538Y-101524857D01*
X152212443Y-101620095D01*
X152277919Y-101762952D01*
X152920776Y-102334380D01*
X152301729Y-102334380D01*
X151474348Y-101810571D02*
X151807681Y-101810571D01*
X151873157Y-102334380D02*
X151748157Y-101334380D01*
X151271967Y-101334380D01*
X150492205Y-102334380D02*
X151063633Y-102334380D01*
X150777919Y-102334380D02*
X150652919Y-101334380D01*
X150766014Y-101477238D01*
X150873157Y-101572476D01*
X150974348Y-101620095D01*
X149748157Y-101334380D02*
X149652919Y-101334380D01*
X149563633Y-101382000D01*
X149521967Y-101429619D01*
X149486252Y-101524857D01*
X149462443Y-101715333D01*
X149492205Y-101953428D01*
X149563633Y-102143904D01*
X149623157Y-102239142D01*
X149676729Y-102286761D01*
X149777919Y-102334380D01*
X149873157Y-102334380D01*
X149962443Y-102286761D01*
X150004110Y-102239142D01*
X150039824Y-102143904D01*
X150063633Y-101953428D01*
X150033872Y-101715333D01*
X149962443Y-101524857D01*
X149902919Y-101429619D01*
X149849348Y-101382000D01*
X149748157Y-101334380D01*
X149081491Y-101334380D02*
X148462443Y-101334380D01*
X148843395Y-101715333D01*
X148700538Y-101715333D01*
X148611252Y-101762952D01*
X148569586Y-101810571D01*
X148533872Y-101905809D01*
X148563633Y-102143904D01*
X148623157Y-102239142D01*
X148676729Y-102286761D01*
X148777919Y-102334380D01*
X149063633Y-102334380D01*
X149152919Y-102286761D01*
X149194586Y-102239142D01*
X157450538Y-105310571D02*
X157313633Y-105358190D01*
X157271967Y-105405809D01*
X157236252Y-105501047D01*
X157254110Y-105643904D01*
X157313633Y-105739142D01*
X157367205Y-105786761D01*
X157468395Y-105834380D01*
X157849348Y-105834380D01*
X157724348Y-104834380D01*
X157391014Y-104834380D01*
X157301729Y-104882000D01*
X157260062Y-104929619D01*
X157224348Y-105024857D01*
X157236252Y-105120095D01*
X157295776Y-105215333D01*
X157349348Y-105262952D01*
X157450538Y-105310571D01*
X157783872Y-105310571D01*
X156849348Y-105834380D02*
X156766014Y-105167714D01*
X156789824Y-105358190D02*
X156730300Y-105262952D01*
X156676729Y-105215333D01*
X156575538Y-105167714D01*
X156480300Y-105167714D01*
X155843395Y-105786761D02*
X155944586Y-105834380D01*
X156135062Y-105834380D01*
X156224348Y-105786761D01*
X156260062Y-105691523D01*
X156212443Y-105310571D01*
X156152919Y-105215333D01*
X156051729Y-105167714D01*
X155861252Y-105167714D01*
X155771967Y-105215333D01*
X155736252Y-105310571D01*
X155748157Y-105405809D01*
X156236252Y-105501047D01*
X154944586Y-105834380D02*
X154879110Y-105310571D01*
X154914824Y-105215333D01*
X155004110Y-105167714D01*
X155194586Y-105167714D01*
X155295776Y-105215333D01*
X154938633Y-105786761D02*
X155039824Y-105834380D01*
X155277919Y-105834380D01*
X155367205Y-105786761D01*
X155402919Y-105691523D01*
X155391014Y-105596285D01*
X155331491Y-105501047D01*
X155230300Y-105453428D01*
X154992205Y-105453428D01*
X154891014Y-105405809D01*
X154468395Y-105834380D02*
X154343395Y-104834380D01*
X154325538Y-105453428D02*
X154087443Y-105834380D01*
X154004110Y-105167714D02*
X154432681Y-105548666D01*
X153516014Y-105834380D02*
X153605300Y-105786761D01*
X153646967Y-105739142D01*
X153682681Y-105643904D01*
X153646967Y-105358190D01*
X153587443Y-105262952D01*
X153533872Y-105215333D01*
X153432681Y-105167714D01*
X153289824Y-105167714D01*
X153200538Y-105215333D01*
X153158872Y-105262952D01*
X153123157Y-105358190D01*
X153158872Y-105643904D01*
X153218395Y-105739142D01*
X153271967Y-105786761D01*
X153373157Y-105834380D01*
X153516014Y-105834380D01*
X152242205Y-105167714D02*
X152325538Y-105834380D01*
X152670776Y-105167714D02*
X152736252Y-105691523D01*
X152700538Y-105786761D01*
X152611252Y-105834380D01*
X152468395Y-105834380D01*
X152367205Y-105786761D01*
X152313633Y-105739142D01*
X151908872Y-105167714D02*
X151527919Y-105167714D01*
X151724348Y-104834380D02*
X151831491Y-105691523D01*
X151795776Y-105786761D01*
X151706491Y-105834380D01*
X151611252Y-105834380D01*
X150117205Y-105310571D02*
X149980300Y-105358190D01*
X149938633Y-105405809D01*
X149902919Y-105501047D01*
X149920776Y-105643904D01*
X149980300Y-105739142D01*
X150033872Y-105786761D01*
X150135062Y-105834380D01*
X150516014Y-105834380D01*
X150391014Y-104834380D01*
X150057681Y-104834380D01*
X149968395Y-104882000D01*
X149926729Y-104929619D01*
X149891014Y-105024857D01*
X149902919Y-105120095D01*
X149962443Y-105215333D01*
X150016014Y-105262952D01*
X150117205Y-105310571D01*
X150450538Y-105310571D01*
X149373157Y-105834380D02*
X149462443Y-105786761D01*
X149504110Y-105739142D01*
X149539824Y-105643904D01*
X149504110Y-105358190D01*
X149444586Y-105262952D01*
X149391014Y-105215333D01*
X149289824Y-105167714D01*
X149146967Y-105167714D01*
X149057681Y-105215333D01*
X149016014Y-105262952D01*
X148980300Y-105358190D01*
X149016014Y-105643904D01*
X149075538Y-105739142D01*
X149129110Y-105786761D01*
X149230300Y-105834380D01*
X149373157Y-105834380D01*
X148182681Y-105834380D02*
X148117205Y-105310571D01*
X148152919Y-105215333D01*
X148242205Y-105167714D01*
X148432681Y-105167714D01*
X148533872Y-105215333D01*
X148176729Y-105786761D02*
X148277919Y-105834380D01*
X148516014Y-105834380D01*
X148605300Y-105786761D01*
X148641014Y-105691523D01*
X148629110Y-105596285D01*
X148569586Y-105501047D01*
X148468395Y-105453428D01*
X148230300Y-105453428D01*
X148129110Y-105405809D01*
X147706491Y-105834380D02*
X147623157Y-105167714D01*
X147646967Y-105358190D02*
X147587443Y-105262952D01*
X147533872Y-105215333D01*
X147432681Y-105167714D01*
X147337443Y-105167714D01*
X146658872Y-105834380D02*
X146533872Y-104834380D01*
X146652919Y-105786761D02*
X146754110Y-105834380D01*
X146944586Y-105834380D01*
X147033872Y-105786761D01*
X147075538Y-105739142D01*
X147111252Y-105643904D01*
X147075538Y-105358190D01*
X147016014Y-105262952D01*
X146962443Y-105215333D01*
X146861252Y-105167714D01*
X146670776Y-105167714D01*
X146581491Y-105215333D01*
D10*
X140638161Y-127983161D02*
X140685780Y-128120066D01*
X140685780Y-128358161D01*
X140638161Y-128459352D01*
X140590542Y-128512923D01*
X140495304Y-128572447D01*
X140400066Y-128584352D01*
X140304828Y-128548638D01*
X140257209Y-128506971D01*
X140209590Y-128417685D01*
X140161971Y-128233161D01*
X140114352Y-128143876D01*
X140066733Y-128102209D01*
X139971495Y-128066495D01*
X139876257Y-128078400D01*
X139781019Y-128137923D01*
X139733400Y-128191495D01*
X139685780Y-128292685D01*
X139685780Y-128530780D01*
X139733400Y-128667685D01*
X139685780Y-129006971D02*
X140685780Y-129120066D01*
X139971495Y-129399828D01*
X140685780Y-129501019D01*
X139685780Y-129864114D01*
X140685780Y-130120066D02*
X139685780Y-130245066D01*
X139685780Y-130483161D01*
X139733400Y-130620066D01*
X139828638Y-130703400D01*
X139923876Y-130739114D01*
X140114352Y-130762923D01*
X140257209Y-130745066D01*
X140447685Y-130673638D01*
X140542923Y-130614114D01*
X140638161Y-130506971D01*
X140685780Y-130358161D01*
X140685780Y-130120066D01*
X136652000Y-98044000D02*
X136652000Y-101854000D01*
X136906000Y-98044000D02*
X136652000Y-98044000D01*
X139954000Y-98044000D02*
X136906000Y-98044000D01*
X146304000Y-98044000D02*
X139954000Y-98044000D01*
X146304000Y-101854000D02*
X146304000Y-98044000D01*
X136652000Y-101854000D02*
X146304000Y-101854000D01*
X142263714Y-100766571D02*
X142120857Y-100814190D01*
X142073238Y-100861809D01*
X142025619Y-100957047D01*
X142025619Y-101099904D01*
X142073238Y-101195142D01*
X142120857Y-101242761D01*
X142216095Y-101290380D01*
X142597047Y-101290380D01*
X142597047Y-100290380D01*
X142263714Y-100290380D01*
X142168476Y-100338000D01*
X142120857Y-100385619D01*
X142073238Y-100480857D01*
X142073238Y-100576095D01*
X142120857Y-100671333D01*
X142168476Y-100718952D01*
X142263714Y-100766571D01*
X142597047Y-100766571D01*
X141739904Y-100290380D02*
X141168476Y-100290380D01*
X141454190Y-101290380D02*
X141454190Y-100290380D01*
X140644666Y-100290380D02*
X140549428Y-100290380D01*
X140454190Y-100338000D01*
X140406571Y-100385619D01*
X140358952Y-100480857D01*
X140311333Y-100671333D01*
X140311333Y-100909428D01*
X140358952Y-101099904D01*
X140406571Y-101195142D01*
X140454190Y-101242761D01*
X140549428Y-101290380D01*
X140644666Y-101290380D01*
X140739904Y-101242761D01*
X140787523Y-101195142D01*
X140835142Y-101099904D01*
X140882761Y-100909428D01*
X140882761Y-100671333D01*
X140835142Y-100480857D01*
X140787523Y-100385619D01*
X140739904Y-100338000D01*
X140644666Y-100290380D01*
X142263714Y-98988571D02*
X142120857Y-99036190D01*
X142073238Y-99083809D01*
X142025619Y-99179047D01*
X142025619Y-99321904D01*
X142073238Y-99417142D01*
X142120857Y-99464761D01*
X142216095Y-99512380D01*
X142597047Y-99512380D01*
X142597047Y-98512380D01*
X142263714Y-98512380D01*
X142168476Y-98560000D01*
X142120857Y-98607619D01*
X142073238Y-98702857D01*
X142073238Y-98798095D01*
X142120857Y-98893333D01*
X142168476Y-98940952D01*
X142263714Y-98988571D01*
X142597047Y-98988571D01*
X141739904Y-98512380D02*
X141168476Y-98512380D01*
X141454190Y-99512380D02*
X141454190Y-98512380D01*
X140311333Y-99512380D02*
X140882761Y-99512380D01*
X140597047Y-99512380D02*
X140597047Y-98512380D01*
X140692285Y-98655238D01*
X140787523Y-98750476D01*
X140882761Y-98798095D01*
X145287904Y-98560000D02*
X145383142Y-98512380D01*
X145526000Y-98512380D01*
X145668857Y-98560000D01*
X145764095Y-98655238D01*
X145811714Y-98750476D01*
X145859333Y-98940952D01*
X145859333Y-99083809D01*
X145811714Y-99274285D01*
X145764095Y-99369523D01*
X145668857Y-99464761D01*
X145526000Y-99512380D01*
X145430761Y-99512380D01*
X145287904Y-99464761D01*
X145240285Y-99417142D01*
X145240285Y-99083809D01*
X145430761Y-99083809D01*
X144811714Y-99512380D02*
X144811714Y-98512380D01*
X144240285Y-99512380D01*
X144240285Y-98512380D01*
X143764095Y-99512380D02*
X143764095Y-98512380D01*
X143526000Y-98512380D01*
X143383142Y-98560000D01*
X143287904Y-98655238D01*
X143240285Y-98750476D01*
X143192666Y-98940952D01*
X143192666Y-99083809D01*
X143240285Y-99274285D01*
X143287904Y-99369523D01*
X143383142Y-99464761D01*
X143526000Y-99512380D01*
X143764095Y-99512380D01*
X145287904Y-100338000D02*
X145383142Y-100290380D01*
X145526000Y-100290380D01*
X145668857Y-100338000D01*
X145764095Y-100433238D01*
X145811714Y-100528476D01*
X145859333Y-100718952D01*
X145859333Y-100861809D01*
X145811714Y-101052285D01*
X145764095Y-101147523D01*
X145668857Y-101242761D01*
X145526000Y-101290380D01*
X145430761Y-101290380D01*
X145287904Y-101242761D01*
X145240285Y-101195142D01*
X145240285Y-100861809D01*
X145430761Y-100861809D01*
X144811714Y-101290380D02*
X144811714Y-100290380D01*
X144240285Y-101290380D01*
X144240285Y-100290380D01*
X143764095Y-101290380D02*
X143764095Y-100290380D01*
X143526000Y-100290380D01*
X143383142Y-100338000D01*
X143287904Y-100433238D01*
X143240285Y-100528476D01*
X143192666Y-100718952D01*
X143192666Y-100861809D01*
X143240285Y-101052285D01*
X143287904Y-101147523D01*
X143383142Y-101242761D01*
X143526000Y-101290380D01*
X143764095Y-101290380D01*
X139668095Y-98512380D02*
X139049047Y-98512380D01*
X139382380Y-98893333D01*
X139239523Y-98893333D01*
X139144285Y-98940952D01*
X139096666Y-98988571D01*
X139049047Y-99083809D01*
X139049047Y-99321904D01*
X139096666Y-99417142D01*
X139144285Y-99464761D01*
X139239523Y-99512380D01*
X139525238Y-99512380D01*
X139620476Y-99464761D01*
X139668095Y-99417142D01*
X138763333Y-98512380D02*
X138430000Y-99512380D01*
X138096666Y-98512380D01*
X137858571Y-98512380D02*
X137239523Y-98512380D01*
X137572857Y-98893333D01*
X137430000Y-98893333D01*
X137334761Y-98940952D01*
X137287142Y-98988571D01*
X137239523Y-99083809D01*
X137239523Y-99321904D01*
X137287142Y-99417142D01*
X137334761Y-99464761D01*
X137430000Y-99512380D01*
X137715714Y-99512380D01*
X137810952Y-99464761D01*
X137858571Y-99417142D01*
X139668095Y-100290380D02*
X139049047Y-100290380D01*
X139382380Y-100671333D01*
X139239523Y-100671333D01*
X139144285Y-100718952D01*
X139096666Y-100766571D01*
X139049047Y-100861809D01*
X139049047Y-101099904D01*
X139096666Y-101195142D01*
X139144285Y-101242761D01*
X139239523Y-101290380D01*
X139525238Y-101290380D01*
X139620476Y-101242761D01*
X139668095Y-101195142D01*
X138763333Y-100290380D02*
X138430000Y-101290380D01*
X138096666Y-100290380D01*
X137858571Y-100290380D02*
X137239523Y-100290380D01*
X137572857Y-100671333D01*
X137430000Y-100671333D01*
X137334761Y-100718952D01*
X137287142Y-100766571D01*
X137239523Y-100861809D01*
X137239523Y-101099904D01*
X137287142Y-101195142D01*
X137334761Y-101242761D01*
X137430000Y-101290380D01*
X137715714Y-101290380D01*
X137810952Y-101242761D01*
X137858571Y-101195142D01*
X145263714Y-96956571D02*
X145120857Y-97004190D01*
X145073238Y-97051809D01*
X145025619Y-97147047D01*
X145025619Y-97289904D01*
X145073238Y-97385142D01*
X145120857Y-97432761D01*
X145216095Y-97480380D01*
X145597047Y-97480380D01*
X145597047Y-96480380D01*
X145263714Y-96480380D01*
X145168476Y-96528000D01*
X145120857Y-96575619D01*
X145073238Y-96670857D01*
X145073238Y-96766095D01*
X145120857Y-96861333D01*
X145168476Y-96908952D01*
X145263714Y-96956571D01*
X145597047Y-96956571D01*
X144406571Y-96480380D02*
X144216095Y-96480380D01*
X144120857Y-96528000D01*
X144025619Y-96623238D01*
X143978000Y-96813714D01*
X143978000Y-97147047D01*
X144025619Y-97337523D01*
X144120857Y-97432761D01*
X144216095Y-97480380D01*
X144406571Y-97480380D01*
X144501809Y-97432761D01*
X144597047Y-97337523D01*
X144644666Y-97147047D01*
X144644666Y-96813714D01*
X144597047Y-96623238D01*
X144501809Y-96528000D01*
X144406571Y-96480380D01*
X143358952Y-96480380D02*
X143168476Y-96480380D01*
X143073238Y-96528000D01*
X142978000Y-96623238D01*
X142930380Y-96813714D01*
X142930380Y-97147047D01*
X142978000Y-97337523D01*
X143073238Y-97432761D01*
X143168476Y-97480380D01*
X143358952Y-97480380D01*
X143454190Y-97432761D01*
X143549428Y-97337523D01*
X143597047Y-97147047D01*
X143597047Y-96813714D01*
X143549428Y-96623238D01*
X143454190Y-96528000D01*
X143358952Y-96480380D01*
X142644666Y-96480380D02*
X142073238Y-96480380D01*
X142358952Y-97480380D02*
X142358952Y-96480380D01*
X140978000Y-97480380D02*
X140978000Y-96480380D01*
X140644666Y-97194666D01*
X140311333Y-96480380D01*
X140311333Y-97480380D01*
X139644666Y-96480380D02*
X139454190Y-96480380D01*
X139358952Y-96528000D01*
X139263714Y-96623238D01*
X139216095Y-96813714D01*
X139216095Y-97147047D01*
X139263714Y-97337523D01*
X139358952Y-97432761D01*
X139454190Y-97480380D01*
X139644666Y-97480380D01*
X139739904Y-97432761D01*
X139835142Y-97337523D01*
X139882761Y-97147047D01*
X139882761Y-96813714D01*
X139835142Y-96623238D01*
X139739904Y-96528000D01*
X139644666Y-96480380D01*
X138787523Y-97480380D02*
X138787523Y-96480380D01*
X138549428Y-96480380D01*
X138406571Y-96528000D01*
X138311333Y-96623238D01*
X138263714Y-96718476D01*
X138216095Y-96908952D01*
X138216095Y-97051809D01*
X138263714Y-97242285D01*
X138311333Y-97337523D01*
X138406571Y-97432761D01*
X138549428Y-97480380D01*
X138787523Y-97480380D01*
X137787523Y-96956571D02*
X137454190Y-96956571D01*
X137311333Y-97480380D02*
X137787523Y-97480380D01*
X137787523Y-96480380D01*
X137311333Y-96480380D01*
X152780952Y-134183428D02*
X152019047Y-134183428D01*
X147700952Y-134183428D02*
X146939047Y-134183428D01*
X145160952Y-134183428D02*
X144399047Y-134183428D01*
X141096952Y-134183428D02*
X140335047Y-134183428D01*
X140716000Y-134564380D02*
X140716000Y-133802476D01*
X152947619Y-128722380D02*
X153280952Y-128246190D01*
X153519047Y-128722380D02*
X153519047Y-127722380D01*
X153138095Y-127722380D01*
X153042857Y-127770000D01*
X152995238Y-127817619D01*
X152947619Y-127912857D01*
X152947619Y-128055714D01*
X152995238Y-128150952D01*
X153042857Y-128198571D01*
X153138095Y-128246190D01*
X153519047Y-128246190D01*
X152566666Y-128674761D02*
X152423809Y-128722380D01*
X152185714Y-128722380D01*
X152090476Y-128674761D01*
X152042857Y-128627142D01*
X151995238Y-128531904D01*
X151995238Y-128436666D01*
X152042857Y-128341428D01*
X152090476Y-128293809D01*
X152185714Y-128246190D01*
X152376190Y-128198571D01*
X152471428Y-128150952D01*
X152519047Y-128103333D01*
X152566666Y-128008095D01*
X152566666Y-127912857D01*
X152519047Y-127817619D01*
X152471428Y-127770000D01*
X152376190Y-127722380D01*
X152138095Y-127722380D01*
X151995238Y-127770000D01*
X151709523Y-127722380D02*
X151138095Y-127722380D01*
X151423809Y-128722380D02*
X151423809Y-127722380D01*
X147669238Y-127722380D02*
X147478761Y-127722380D01*
X147383523Y-127770000D01*
X147288285Y-127865238D01*
X147240666Y-128055714D01*
X147240666Y-128389047D01*
X147288285Y-128579523D01*
X147383523Y-128674761D01*
X147478761Y-128722380D01*
X147669238Y-128722380D01*
X147764476Y-128674761D01*
X147859714Y-128579523D01*
X147907333Y-128389047D01*
X147907333Y-128055714D01*
X147859714Y-127865238D01*
X147764476Y-127770000D01*
X147669238Y-127722380D01*
X145883238Y-128627142D02*
X145930857Y-128674761D01*
X146073714Y-128722380D01*
X146168952Y-128722380D01*
X146311809Y-128674761D01*
X146407047Y-128579523D01*
X146454666Y-128484285D01*
X146502285Y-128293809D01*
X146502285Y-128150952D01*
X146454666Y-127960476D01*
X146407047Y-127865238D01*
X146311809Y-127770000D01*
X146168952Y-127722380D01*
X146073714Y-127722380D01*
X145930857Y-127770000D01*
X145883238Y-127817619D01*
X144978476Y-128722380D02*
X145454666Y-128722380D01*
X145454666Y-127722380D01*
X144645142Y-128722380D02*
X144645142Y-127722380D01*
X144073714Y-128722380D02*
X144502285Y-128150952D01*
X144073714Y-127722380D02*
X144645142Y-128293809D01*
X143517809Y-128722380D02*
X143517809Y-127722380D01*
X143279714Y-127722380D01*
X143136857Y-127770000D01*
X143041619Y-127865238D01*
X142994000Y-127960476D01*
X142946380Y-128150952D01*
X142946380Y-128293809D01*
X142994000Y-128484285D01*
X143041619Y-128579523D01*
X143136857Y-128674761D01*
X143279714Y-128722380D01*
X143517809Y-128722380D01*
X142517809Y-128722380D02*
X142517809Y-127722380D01*
X141851142Y-127722380D02*
X141660666Y-127722380D01*
X141565428Y-127770000D01*
X141470190Y-127865238D01*
X141422571Y-128055714D01*
X141422571Y-128389047D01*
X141470190Y-128579523D01*
X141565428Y-128674761D01*
X141660666Y-128722380D01*
X141851142Y-128722380D01*
X141946380Y-128674761D01*
X142041619Y-128579523D01*
X142089238Y-128389047D01*
X142089238Y-128055714D01*
X142041619Y-127865238D01*
X141946380Y-127770000D01*
X141851142Y-127722380D01*
X157988000Y-108712000D02*
X147828000Y-108712000D01*
X157480000Y-127000000D02*
X157988000Y-127000000D01*
X157988000Y-108966000D02*
X157988000Y-108712000D01*
X157988000Y-118618000D02*
X157988000Y-108966000D01*
X147828000Y-116078000D02*
X147828000Y-127000000D01*
X157988000Y-127000000D02*
X157988000Y-118618000D01*
X147828000Y-127000000D02*
X157480000Y-127000000D01*
X147828000Y-108712000D02*
X147828000Y-116078000D01*
D11*
X151333104Y-109659800D02*
X151428342Y-109612180D01*
X151571200Y-109612180D01*
X151714057Y-109659800D01*
X151809295Y-109755038D01*
X151856914Y-109850276D01*
X151904533Y-110040752D01*
X151904533Y-110183609D01*
X151856914Y-110374085D01*
X151809295Y-110469323D01*
X151714057Y-110564561D01*
X151571200Y-110612180D01*
X151475961Y-110612180D01*
X151333104Y-110564561D01*
X151285485Y-110516942D01*
X151285485Y-110183609D01*
X151475961Y-110183609D01*
X150856914Y-110612180D02*
X150856914Y-109612180D01*
X150285485Y-110612180D01*
X150285485Y-109612180D01*
X149809295Y-110612180D02*
X149809295Y-109612180D01*
X149571200Y-109612180D01*
X149428342Y-109659800D01*
X149333104Y-109755038D01*
X149285485Y-109850276D01*
X149237866Y-110040752D01*
X149237866Y-110183609D01*
X149285485Y-110374085D01*
X149333104Y-110469323D01*
X149428342Y-110564561D01*
X149571200Y-110612180D01*
X149809295Y-110612180D01*
X156746438Y-109612180D02*
X156413104Y-110612180D01*
X156079771Y-109612180D01*
X155746438Y-110612180D02*
X155746438Y-109612180D01*
X155270247Y-110612180D02*
X155270247Y-109612180D01*
X154698819Y-110612180D01*
X154698819Y-109612180D01*
X155963635Y-122651152D02*
X155487445Y-122651152D01*
X156058873Y-122936866D02*
X155725540Y-121936866D01*
X155392207Y-122936866D01*
X154535064Y-122936866D02*
X155106492Y-122936866D01*
X154820778Y-122936866D02*
X154820778Y-121936866D01*
X154916016Y-122079724D01*
X155011254Y-122174962D01*
X155106492Y-122222581D01*
X151685428Y-119578380D02*
X151685428Y-118578380D01*
X151352095Y-119292666D01*
X151018761Y-118578380D01*
X151018761Y-119578380D01*
X150542571Y-119578380D02*
X150542571Y-118578380D01*
X150114000Y-119530761D02*
X149971142Y-119578380D01*
X149733047Y-119578380D01*
X149637809Y-119530761D01*
X149590190Y-119483142D01*
X149542571Y-119387904D01*
X149542571Y-119292666D01*
X149590190Y-119197428D01*
X149637809Y-119149809D01*
X149733047Y-119102190D01*
X149923523Y-119054571D01*
X150018761Y-119006952D01*
X150066380Y-118959333D01*
X150114000Y-118864095D01*
X150114000Y-118768857D01*
X150066380Y-118673619D01*
X150018761Y-118626000D01*
X149923523Y-118578380D01*
X149685428Y-118578380D01*
X149542571Y-118626000D01*
X148923523Y-118578380D02*
X148733047Y-118578380D01*
X148637809Y-118626000D01*
X148542571Y-118721238D01*
X148494952Y-118911714D01*
X148494952Y-119245047D01*
X148542571Y-119435523D01*
X148637809Y-119530761D01*
X148733047Y-119578380D01*
X148923523Y-119578380D01*
X149018761Y-119530761D01*
X149114000Y-119435523D01*
X149161619Y-119245047D01*
X149161619Y-118911714D01*
X149114000Y-118721238D01*
X149018761Y-118626000D01*
X148923523Y-118578380D01*
X150828285Y-121070666D02*
X150352095Y-121070666D01*
X150923523Y-121356380D02*
X150590190Y-120356380D01*
X150256857Y-121356380D01*
X149494952Y-120689714D02*
X149494952Y-121356380D01*
X149733047Y-120308761D02*
X149971142Y-121023047D01*
X149352095Y-121023047D01*
X150756857Y-114244380D02*
X151233047Y-114244380D01*
X151233047Y-113244380D01*
X150423523Y-113720571D02*
X150090190Y-113720571D01*
X149947333Y-114244380D02*
X150423523Y-114244380D01*
X150423523Y-113244380D01*
X149947333Y-113244380D01*
X149518761Y-114244380D02*
X149518761Y-113244380D01*
X149280666Y-113244380D01*
X149137809Y-113292000D01*
X149042571Y-113387238D01*
X148994952Y-113482476D01*
X148947333Y-113672952D01*
X148947333Y-113815809D01*
X148994952Y-114006285D01*
X149042571Y-114101523D01*
X149137809Y-114196761D01*
X149280666Y-114244380D01*
X149518761Y-114244380D01*
X156820778Y-117856866D02*
X156820778Y-116856866D01*
X156487445Y-117571152D01*
X156154111Y-116856866D01*
X156154111Y-117856866D01*
X155487445Y-116856866D02*
X155296969Y-116856866D01*
X155201730Y-116904486D01*
X155106492Y-116999724D01*
X155058873Y-117190200D01*
X155058873Y-117523533D01*
X155106492Y-117714009D01*
X155201730Y-117809247D01*
X155296969Y-117856866D01*
X155487445Y-117856866D01*
X155582683Y-117809247D01*
X155677921Y-117714009D01*
X155725540Y-117523533D01*
X155725540Y-117190200D01*
X155677921Y-116999724D01*
X155582683Y-116904486D01*
X155487445Y-116856866D01*
X154677921Y-117809247D02*
X154535064Y-117856866D01*
X154296969Y-117856866D01*
X154201730Y-117809247D01*
X154154111Y-117761628D01*
X154106492Y-117666390D01*
X154106492Y-117571152D01*
X154154111Y-117475914D01*
X154201730Y-117428295D01*
X154296969Y-117380676D01*
X154487445Y-117333057D01*
X154582683Y-117285438D01*
X154630302Y-117237819D01*
X154677921Y-117142581D01*
X154677921Y-117047343D01*
X154630302Y-116952105D01*
X154582683Y-116904486D01*
X154487445Y-116856866D01*
X154249350Y-116856866D01*
X154106492Y-116904486D01*
X153677921Y-117856866D02*
X153677921Y-116856866D01*
X150828285Y-124372666D02*
X150352095Y-124372666D01*
X150923523Y-124658380D02*
X150590190Y-123658380D01*
X150256857Y-124658380D01*
X149733047Y-123658380D02*
X149637809Y-123658380D01*
X149542571Y-123706000D01*
X149494952Y-123753619D01*
X149447333Y-123848857D01*
X149399714Y-124039333D01*
X149399714Y-124277428D01*
X149447333Y-124467904D01*
X149494952Y-124563142D01*
X149542571Y-124610761D01*
X149637809Y-124658380D01*
X149733047Y-124658380D01*
X149828285Y-124610761D01*
X149875904Y-124563142D01*
X149923523Y-124467904D01*
X149971142Y-124277428D01*
X149971142Y-124039333D01*
X149923523Y-123848857D01*
X149875904Y-123753619D01*
X149828285Y-123706000D01*
X149733047Y-123658380D01*
X151828285Y-116022380D02*
X151828285Y-115022380D01*
X151447333Y-115022380D01*
X151352095Y-115070000D01*
X151304476Y-115117619D01*
X151256857Y-115212857D01*
X151256857Y-115355714D01*
X151304476Y-115450952D01*
X151352095Y-115498571D01*
X151447333Y-115546190D01*
X151828285Y-115546190D01*
X150494952Y-115498571D02*
X150352095Y-115546190D01*
X150304476Y-115593809D01*
X150256857Y-115689047D01*
X150256857Y-115831904D01*
X150304476Y-115927142D01*
X150352095Y-115974761D01*
X150447333Y-116022380D01*
X150828285Y-116022380D01*
X150828285Y-115022380D01*
X150494952Y-115022380D01*
X150399714Y-115070000D01*
X150352095Y-115117619D01*
X150304476Y-115212857D01*
X150304476Y-115308095D01*
X150352095Y-115403333D01*
X150399714Y-115450952D01*
X150494952Y-115498571D01*
X150828285Y-115498571D01*
X149304476Y-116022380D02*
X149875904Y-116022380D01*
X149590190Y-116022380D02*
X149590190Y-115022380D01*
X149685428Y-115165238D01*
X149780666Y-115260476D01*
X149875904Y-115308095D01*
X148685428Y-115022380D02*
X148590190Y-115022380D01*
X148494952Y-115070000D01*
X148447333Y-115117619D01*
X148399714Y-115212857D01*
X148352095Y-115403333D01*
X148352095Y-115641428D01*
X148399714Y-115831904D01*
X148447333Y-115927142D01*
X148494952Y-115974761D01*
X148590190Y-116022380D01*
X148685428Y-116022380D01*
X148780666Y-115974761D01*
X148828285Y-115927142D01*
X148875904Y-115831904D01*
X148923523Y-115641428D01*
X148923523Y-115403333D01*
X148875904Y-115212857D01*
X148828285Y-115117619D01*
X148780666Y-115070000D01*
X148685428Y-115022380D01*
X156963635Y-124714866D02*
X156963635Y-123714866D01*
X156582683Y-123714866D01*
X156487445Y-123762486D01*
X156439826Y-123810105D01*
X156392207Y-123905343D01*
X156392207Y-124048200D01*
X156439826Y-124143438D01*
X156487445Y-124191057D01*
X156582683Y-124238676D01*
X156963635Y-124238676D01*
X155392207Y-124619628D02*
X155439826Y-124667247D01*
X155582683Y-124714866D01*
X155677921Y-124714866D01*
X155820778Y-124667247D01*
X155916016Y-124572009D01*
X155963635Y-124476771D01*
X156011254Y-124286295D01*
X156011254Y-124143438D01*
X155963635Y-123952962D01*
X155916016Y-123857724D01*
X155820778Y-123762486D01*
X155677921Y-123714866D01*
X155582683Y-123714866D01*
X155439826Y-123762486D01*
X155392207Y-123810105D01*
X154439826Y-124714866D02*
X155011254Y-124714866D01*
X154725540Y-124714866D02*
X154725540Y-123714866D01*
X154820778Y-123857724D01*
X154916016Y-123952962D01*
X155011254Y-124000581D01*
X153535064Y-123714866D02*
X154011254Y-123714866D01*
X154058873Y-124191057D01*
X154011254Y-124143438D01*
X153916016Y-124095819D01*
X153677921Y-124095819D01*
X153582683Y-124143438D01*
X153535064Y-124191057D01*
X153487445Y-124286295D01*
X153487445Y-124524390D01*
X153535064Y-124619628D01*
X153582683Y-124667247D01*
X153677921Y-124714866D01*
X153916016Y-124714866D01*
X154011254Y-124667247D01*
X154058873Y-124619628D01*
X150828285Y-122594666D02*
X150352095Y-122594666D01*
X150923523Y-122880380D02*
X150590190Y-121880380D01*
X150256857Y-122880380D01*
X149971142Y-121975619D02*
X149923523Y-121928000D01*
X149828285Y-121880380D01*
X149590190Y-121880380D01*
X149494952Y-121928000D01*
X149447333Y-121975619D01*
X149399714Y-122070857D01*
X149399714Y-122166095D01*
X149447333Y-122308952D01*
X150018761Y-122880380D01*
X149399714Y-122880380D01*
X156963635Y-126238866D02*
X156963635Y-125238866D01*
X156582683Y-125238866D01*
X156487445Y-125286486D01*
X156439826Y-125334105D01*
X156392207Y-125429343D01*
X156392207Y-125572200D01*
X156439826Y-125667438D01*
X156487445Y-125715057D01*
X156582683Y-125762676D01*
X156963635Y-125762676D01*
X155392207Y-126143628D02*
X155439826Y-126191247D01*
X155582683Y-126238866D01*
X155677921Y-126238866D01*
X155820778Y-126191247D01*
X155916016Y-126096009D01*
X155963635Y-126000771D01*
X156011254Y-125810295D01*
X156011254Y-125667438D01*
X155963635Y-125476962D01*
X155916016Y-125381724D01*
X155820778Y-125286486D01*
X155677921Y-125238866D01*
X155582683Y-125238866D01*
X155439826Y-125286486D01*
X155392207Y-125334105D01*
X154439826Y-126238866D02*
X155011254Y-126238866D01*
X154725540Y-126238866D02*
X154725540Y-125238866D01*
X154820778Y-125381724D01*
X154916016Y-125476962D01*
X155011254Y-125524581D01*
X154106492Y-125238866D02*
X153487445Y-125238866D01*
X153820778Y-125619819D01*
X153677921Y-125619819D01*
X153582683Y-125667438D01*
X153535064Y-125715057D01*
X153487445Y-125810295D01*
X153487445Y-126048390D01*
X153535064Y-126143628D01*
X153582683Y-126191247D01*
X153677921Y-126238866D01*
X153963635Y-126238866D01*
X154058873Y-126191247D01*
X154106492Y-126143628D01*
X156535064Y-119587247D02*
X156392207Y-119634866D01*
X156154111Y-119634866D01*
X156058873Y-119587247D01*
X156011254Y-119539628D01*
X155963635Y-119444390D01*
X155963635Y-119349152D01*
X156011254Y-119253914D01*
X156058873Y-119206295D01*
X156154111Y-119158676D01*
X156344588Y-119111057D01*
X156439826Y-119063438D01*
X156487445Y-119015819D01*
X156535064Y-118920581D01*
X156535064Y-118825343D01*
X156487445Y-118730105D01*
X156439826Y-118682486D01*
X156344588Y-118634866D01*
X156106492Y-118634866D01*
X155963635Y-118682486D01*
X154963635Y-119539628D02*
X155011254Y-119587247D01*
X155154111Y-119634866D01*
X155249350Y-119634866D01*
X155392207Y-119587247D01*
X155487445Y-119492009D01*
X155535064Y-119396771D01*
X155582683Y-119206295D01*
X155582683Y-119063438D01*
X155535064Y-118872962D01*
X155487445Y-118777724D01*
X155392207Y-118682486D01*
X155249350Y-118634866D01*
X155154111Y-118634866D01*
X155011254Y-118682486D01*
X154963635Y-118730105D01*
X154535064Y-119634866D02*
X154535064Y-118634866D01*
X153963635Y-119634866D02*
X154392207Y-119063438D01*
X153963635Y-118634866D02*
X154535064Y-119206295D01*
X150828285Y-117514666D02*
X150352095Y-117514666D01*
X150923523Y-117800380D02*
X150590190Y-116800380D01*
X150256857Y-117800380D01*
X149780666Y-117228952D02*
X149875904Y-117181333D01*
X149923523Y-117133714D01*
X149971142Y-117038476D01*
X149971142Y-116990857D01*
X149923523Y-116895619D01*
X149875904Y-116848000D01*
X149780666Y-116800380D01*
X149590190Y-116800380D01*
X149494952Y-116848000D01*
X149447333Y-116895619D01*
X149399714Y-116990857D01*
X149399714Y-117038476D01*
X149447333Y-117133714D01*
X149494952Y-117181333D01*
X149590190Y-117228952D01*
X149780666Y-117228952D01*
X149875904Y-117276571D01*
X149923523Y-117324190D01*
X149971142Y-117419428D01*
X149971142Y-117609904D01*
X149923523Y-117705142D01*
X149875904Y-117752761D01*
X149780666Y-117800380D01*
X149590190Y-117800380D01*
X149494952Y-117752761D01*
X149447333Y-117705142D01*
X149399714Y-117609904D01*
X149399714Y-117419428D01*
X149447333Y-117324190D01*
X149494952Y-117276571D01*
X149590190Y-117228952D01*
X151828285Y-126182380D02*
X151828285Y-125182380D01*
X151447333Y-125182380D01*
X151352095Y-125230000D01*
X151304476Y-125277619D01*
X151256857Y-125372857D01*
X151256857Y-125515714D01*
X151304476Y-125610952D01*
X151352095Y-125658571D01*
X151447333Y-125706190D01*
X151828285Y-125706190D01*
X150256857Y-126087142D02*
X150304476Y-126134761D01*
X150447333Y-126182380D01*
X150542571Y-126182380D01*
X150685428Y-126134761D01*
X150780666Y-126039523D01*
X150828285Y-125944285D01*
X150875904Y-125753809D01*
X150875904Y-125610952D01*
X150828285Y-125420476D01*
X150780666Y-125325238D01*
X150685428Y-125230000D01*
X150542571Y-125182380D01*
X150447333Y-125182380D01*
X150304476Y-125230000D01*
X150256857Y-125277619D01*
X149304476Y-126182380D02*
X149875904Y-126182380D01*
X149590190Y-126182380D02*
X149590190Y-125182380D01*
X149685428Y-125325238D01*
X149780666Y-125420476D01*
X149875904Y-125468095D01*
X148447333Y-125515714D02*
X148447333Y-126182380D01*
X148685428Y-125134761D02*
X148923523Y-125849047D01*
X148304476Y-125849047D01*
X156963635Y-114300866D02*
X156963635Y-113300866D01*
X156582683Y-113300866D01*
X156487445Y-113348486D01*
X156439826Y-113396105D01*
X156392207Y-113491343D01*
X156392207Y-113634200D01*
X156439826Y-113729438D01*
X156487445Y-113777057D01*
X156582683Y-113824676D01*
X156963635Y-113824676D01*
X155630302Y-113777057D02*
X155487445Y-113824676D01*
X155439826Y-113872295D01*
X155392207Y-113967533D01*
X155392207Y-114110390D01*
X155439826Y-114205628D01*
X155487445Y-114253247D01*
X155582683Y-114300866D01*
X155963635Y-114300866D01*
X155963635Y-113300866D01*
X155630302Y-113300866D01*
X155535064Y-113348486D01*
X155487445Y-113396105D01*
X155439826Y-113491343D01*
X155439826Y-113586581D01*
X155487445Y-113681819D01*
X155535064Y-113729438D01*
X155630302Y-113777057D01*
X155963635Y-113777057D01*
X154439826Y-114300866D02*
X155011254Y-114300866D01*
X154725540Y-114300866D02*
X154725540Y-113300866D01*
X154820778Y-113443724D01*
X154916016Y-113538962D01*
X155011254Y-113586581D01*
X153487445Y-114300866D02*
X154058873Y-114300866D01*
X153773159Y-114300866D02*
X153773159Y-113300866D01*
X153868397Y-113443724D01*
X153963635Y-113538962D01*
X154058873Y-113586581D01*
X155963635Y-115793152D02*
X155487445Y-115793152D01*
X156058873Y-116078866D02*
X155725540Y-115078866D01*
X155392207Y-116078866D01*
X155011254Y-116078866D02*
X154820778Y-116078866D01*
X154725540Y-116031247D01*
X154677921Y-115983628D01*
X154582683Y-115840771D01*
X154535064Y-115650295D01*
X154535064Y-115269343D01*
X154582683Y-115174105D01*
X154630302Y-115126486D01*
X154725540Y-115078866D01*
X154916016Y-115078866D01*
X155011254Y-115126486D01*
X155058873Y-115174105D01*
X155106492Y-115269343D01*
X155106492Y-115507438D01*
X155058873Y-115602676D01*
X155011254Y-115650295D01*
X154916016Y-115697914D01*
X154725540Y-115697914D01*
X154630302Y-115650295D01*
X154582683Y-115602676D01*
X154535064Y-115507438D01*
X155963635Y-121127152D02*
X155487445Y-121127152D01*
X156058873Y-121412866D02*
X155725540Y-120412866D01*
X155392207Y-121412866D01*
X155154111Y-120412866D02*
X154535064Y-120412866D01*
X154868397Y-120793819D01*
X154725540Y-120793819D01*
X154630302Y-120841438D01*
X154582683Y-120889057D01*
X154535064Y-120984295D01*
X154535064Y-121222390D01*
X154582683Y-121317628D01*
X154630302Y-121365247D01*
X154725540Y-121412866D01*
X155011254Y-121412866D01*
X155106492Y-121365247D01*
X155154111Y-121317628D01*
X150875904Y-111514000D02*
X150971142Y-111466380D01*
X151114000Y-111466380D01*
X151256857Y-111514000D01*
X151352095Y-111609238D01*
X151399714Y-111704476D01*
X151447333Y-111894952D01*
X151447333Y-112037809D01*
X151399714Y-112228285D01*
X151352095Y-112323523D01*
X151256857Y-112418761D01*
X151114000Y-112466380D01*
X151018761Y-112466380D01*
X150875904Y-112418761D01*
X150828285Y-112371142D01*
X150828285Y-112037809D01*
X151018761Y-112037809D01*
X150399714Y-112466380D02*
X150399714Y-111466380D01*
X149828285Y-112466380D01*
X149828285Y-111466380D01*
X149352095Y-112466380D02*
X149352095Y-111466380D01*
X149114000Y-111466380D01*
X148971142Y-111514000D01*
X148875904Y-111609238D01*
X148828285Y-111704476D01*
X148780666Y-111894952D01*
X148780666Y-112037809D01*
X148828285Y-112228285D01*
X148875904Y-112323523D01*
X148971142Y-112418761D01*
X149114000Y-112466380D01*
X149352095Y-112466380D01*
X156035064Y-112522866D02*
X156035064Y-111522866D01*
X155463635Y-112522866D01*
X155463635Y-111522866D01*
X154416016Y-112427628D02*
X154463635Y-112475247D01*
X154606492Y-112522866D01*
X154701730Y-112522866D01*
X154844588Y-112475247D01*
X154939826Y-112380009D01*
X154987445Y-112284771D01*
X155035064Y-112094295D01*
X155035064Y-111951438D01*
X154987445Y-111760962D01*
X154939826Y-111665724D01*
X154844588Y-111570486D01*
X154701730Y-111522866D01*
X154606492Y-111522866D01*
X154463635Y-111570486D01*
X154416016Y-111618105D01*
D10*
X136906000Y-116078000D02*
X136906000Y-127000000D01*
X147066000Y-108712000D02*
X136906000Y-108712000D01*
X147066000Y-108966000D02*
X147066000Y-108712000D01*
X147066000Y-118618000D02*
X147066000Y-108966000D01*
X147066000Y-127000000D02*
X147066000Y-118618000D01*
X146812000Y-127000000D02*
X147066000Y-127000000D01*
X136906000Y-127000000D02*
X146812000Y-127000000D01*
X136906000Y-108712000D02*
X136906000Y-116078000D01*
D11*
X140207904Y-118626000D02*
X140303142Y-118578380D01*
X140446000Y-118578380D01*
X140588857Y-118626000D01*
X140684095Y-118721238D01*
X140731714Y-118816476D01*
X140779333Y-119006952D01*
X140779333Y-119149809D01*
X140731714Y-119340285D01*
X140684095Y-119435523D01*
X140588857Y-119530761D01*
X140446000Y-119578380D01*
X140350761Y-119578380D01*
X140207904Y-119530761D01*
X140160285Y-119483142D01*
X140160285Y-119149809D01*
X140350761Y-119149809D01*
X139731714Y-119578380D02*
X139731714Y-118578380D01*
X139160285Y-119578380D01*
X139160285Y-118578380D01*
X138684095Y-119578380D02*
X138684095Y-118578380D01*
X138446000Y-118578380D01*
X138303142Y-118626000D01*
X138207904Y-118721238D01*
X138160285Y-118816476D01*
X138112666Y-119006952D01*
X138112666Y-119149809D01*
X138160285Y-119340285D01*
X138207904Y-119435523D01*
X138303142Y-119530761D01*
X138446000Y-119578380D01*
X138684095Y-119578380D01*
X140207904Y-125230000D02*
X140303142Y-125182380D01*
X140446000Y-125182380D01*
X140588857Y-125230000D01*
X140684095Y-125325238D01*
X140731714Y-125420476D01*
X140779333Y-125610952D01*
X140779333Y-125753809D01*
X140731714Y-125944285D01*
X140684095Y-126039523D01*
X140588857Y-126134761D01*
X140446000Y-126182380D01*
X140350761Y-126182380D01*
X140207904Y-126134761D01*
X140160285Y-126087142D01*
X140160285Y-125753809D01*
X140350761Y-125753809D01*
X139731714Y-126182380D02*
X139731714Y-125182380D01*
X139160285Y-126182380D01*
X139160285Y-125182380D01*
X138684095Y-126182380D02*
X138684095Y-125182380D01*
X138446000Y-125182380D01*
X138303142Y-125230000D01*
X138207904Y-125325238D01*
X138160285Y-125420476D01*
X138112666Y-125610952D01*
X138112666Y-125753809D01*
X138160285Y-125944285D01*
X138207904Y-126039523D01*
X138303142Y-126134761D01*
X138446000Y-126182380D01*
X138684095Y-126182380D01*
X145343254Y-125286486D02*
X145438492Y-125238866D01*
X145581350Y-125238866D01*
X145724207Y-125286486D01*
X145819445Y-125381724D01*
X145867064Y-125476962D01*
X145914683Y-125667438D01*
X145914683Y-125810295D01*
X145867064Y-126000771D01*
X145819445Y-126096009D01*
X145724207Y-126191247D01*
X145581350Y-126238866D01*
X145486111Y-126238866D01*
X145343254Y-126191247D01*
X145295635Y-126143628D01*
X145295635Y-125810295D01*
X145486111Y-125810295D01*
X144867064Y-126238866D02*
X144867064Y-125238866D01*
X144295635Y-126238866D01*
X144295635Y-125238866D01*
X143819445Y-126238866D02*
X143819445Y-125238866D01*
X143581350Y-125238866D01*
X143438492Y-125286486D01*
X143343254Y-125381724D01*
X143295635Y-125476962D01*
X143248016Y-125667438D01*
X143248016Y-125810295D01*
X143295635Y-126000771D01*
X143343254Y-126096009D01*
X143438492Y-126191247D01*
X143581350Y-126238866D01*
X143819445Y-126238866D01*
X140684095Y-124658380D02*
X140684095Y-123658380D01*
X140303142Y-123658380D01*
X140207904Y-123706000D01*
X140160285Y-123753619D01*
X140112666Y-123848857D01*
X140112666Y-123991714D01*
X140160285Y-124086952D01*
X140207904Y-124134571D01*
X140303142Y-124182190D01*
X140684095Y-124182190D01*
X139350761Y-124134571D02*
X139207904Y-124182190D01*
X139160285Y-124229809D01*
X139112666Y-124325047D01*
X139112666Y-124467904D01*
X139160285Y-124563142D01*
X139207904Y-124610761D01*
X139303142Y-124658380D01*
X139684095Y-124658380D01*
X139684095Y-123658380D01*
X139350761Y-123658380D01*
X139255523Y-123706000D01*
X139207904Y-123753619D01*
X139160285Y-123848857D01*
X139160285Y-123944095D01*
X139207904Y-124039333D01*
X139255523Y-124086952D01*
X139350761Y-124134571D01*
X139684095Y-124134571D01*
X138636476Y-124658380D02*
X138446000Y-124658380D01*
X138350761Y-124610761D01*
X138303142Y-124563142D01*
X138207904Y-124420285D01*
X138160285Y-124229809D01*
X138160285Y-123848857D01*
X138207904Y-123753619D01*
X138255523Y-123706000D01*
X138350761Y-123658380D01*
X138541238Y-123658380D01*
X138636476Y-123706000D01*
X138684095Y-123753619D01*
X138731714Y-123848857D01*
X138731714Y-124086952D01*
X138684095Y-124182190D01*
X138636476Y-124229809D01*
X138541238Y-124277428D01*
X138350761Y-124277428D01*
X138255523Y-124229809D01*
X138207904Y-124182190D01*
X138160285Y-124086952D01*
X145819445Y-124714866D02*
X145819445Y-123714866D01*
X145438492Y-123714866D01*
X145343254Y-123762486D01*
X145295635Y-123810105D01*
X145248016Y-123905343D01*
X145248016Y-124048200D01*
X145295635Y-124143438D01*
X145343254Y-124191057D01*
X145438492Y-124238676D01*
X145819445Y-124238676D01*
X144486111Y-124191057D02*
X144343254Y-124238676D01*
X144295635Y-124286295D01*
X144248016Y-124381533D01*
X144248016Y-124524390D01*
X144295635Y-124619628D01*
X144343254Y-124667247D01*
X144438492Y-124714866D01*
X144819445Y-124714866D01*
X144819445Y-123714866D01*
X144486111Y-123714866D01*
X144390873Y-123762486D01*
X144343254Y-123810105D01*
X144295635Y-123905343D01*
X144295635Y-124000581D01*
X144343254Y-124095819D01*
X144390873Y-124143438D01*
X144486111Y-124191057D01*
X144819445Y-124191057D01*
X143676588Y-124143438D02*
X143771826Y-124095819D01*
X143819445Y-124048200D01*
X143867064Y-123952962D01*
X143867064Y-123905343D01*
X143819445Y-123810105D01*
X143771826Y-123762486D01*
X143676588Y-123714866D01*
X143486111Y-123714866D01*
X143390873Y-123762486D01*
X143343254Y-123810105D01*
X143295635Y-123905343D01*
X143295635Y-123952962D01*
X143343254Y-124048200D01*
X143390873Y-124095819D01*
X143486111Y-124143438D01*
X143676588Y-124143438D01*
X143771826Y-124191057D01*
X143819445Y-124238676D01*
X143867064Y-124333914D01*
X143867064Y-124524390D01*
X143819445Y-124619628D01*
X143771826Y-124667247D01*
X143676588Y-124714866D01*
X143486111Y-124714866D01*
X143390873Y-124667247D01*
X143343254Y-124619628D01*
X143295635Y-124524390D01*
X143295635Y-124333914D01*
X143343254Y-124238676D01*
X143390873Y-124191057D01*
X143486111Y-124143438D01*
X140636476Y-122832761D02*
X140493619Y-122880380D01*
X140255523Y-122880380D01*
X140160285Y-122832761D01*
X140112666Y-122785142D01*
X140065047Y-122689904D01*
X140065047Y-122594666D01*
X140112666Y-122499428D01*
X140160285Y-122451809D01*
X140255523Y-122404190D01*
X140446000Y-122356571D01*
X140541238Y-122308952D01*
X140588857Y-122261333D01*
X140636476Y-122166095D01*
X140636476Y-122070857D01*
X140588857Y-121975619D01*
X140541238Y-121928000D01*
X140446000Y-121880380D01*
X140207904Y-121880380D01*
X140065047Y-121928000D01*
X139065047Y-122785142D02*
X139112666Y-122832761D01*
X139255523Y-122880380D01*
X139350761Y-122880380D01*
X139493619Y-122832761D01*
X139588857Y-122737523D01*
X139636476Y-122642285D01*
X139684095Y-122451809D01*
X139684095Y-122308952D01*
X139636476Y-122118476D01*
X139588857Y-122023238D01*
X139493619Y-121928000D01*
X139350761Y-121880380D01*
X139255523Y-121880380D01*
X139112666Y-121928000D01*
X139065047Y-121975619D01*
X138160285Y-122880380D02*
X138636476Y-122880380D01*
X138636476Y-121880380D01*
X145795635Y-122889247D02*
X145652778Y-122936866D01*
X145414683Y-122936866D01*
X145319445Y-122889247D01*
X145271826Y-122841628D01*
X145224207Y-122746390D01*
X145224207Y-122651152D01*
X145271826Y-122555914D01*
X145319445Y-122508295D01*
X145414683Y-122460676D01*
X145605159Y-122413057D01*
X145700397Y-122365438D01*
X145748016Y-122317819D01*
X145795635Y-122222581D01*
X145795635Y-122127343D01*
X145748016Y-122032105D01*
X145700397Y-121984486D01*
X145605159Y-121936866D01*
X145367064Y-121936866D01*
X145224207Y-121984486D01*
X144795635Y-122936866D02*
X144795635Y-121936866D01*
X144557540Y-121936866D01*
X144414683Y-121984486D01*
X144319445Y-122079724D01*
X144271826Y-122174962D01*
X144224207Y-122365438D01*
X144224207Y-122508295D01*
X144271826Y-122698771D01*
X144319445Y-122794009D01*
X144414683Y-122889247D01*
X144557540Y-122936866D01*
X144795635Y-122936866D01*
X143843254Y-122651152D02*
X143367064Y-122651152D01*
X143938492Y-122936866D02*
X143605159Y-121936866D01*
X143271826Y-122936866D01*
X140684095Y-121356380D02*
X140684095Y-120356380D01*
X140303142Y-120356380D01*
X140207904Y-120404000D01*
X140160285Y-120451619D01*
X140112666Y-120546857D01*
X140112666Y-120689714D01*
X140160285Y-120784952D01*
X140207904Y-120832571D01*
X140303142Y-120880190D01*
X140684095Y-120880190D01*
X139350761Y-120832571D02*
X139207904Y-120880190D01*
X139160285Y-120927809D01*
X139112666Y-121023047D01*
X139112666Y-121165904D01*
X139160285Y-121261142D01*
X139207904Y-121308761D01*
X139303142Y-121356380D01*
X139684095Y-121356380D01*
X139684095Y-120356380D01*
X139350761Y-120356380D01*
X139255523Y-120404000D01*
X139207904Y-120451619D01*
X139160285Y-120546857D01*
X139160285Y-120642095D01*
X139207904Y-120737333D01*
X139255523Y-120784952D01*
X139350761Y-120832571D01*
X139684095Y-120832571D01*
X138255523Y-120689714D02*
X138255523Y-121356380D01*
X138493619Y-120308761D02*
X138731714Y-121023047D01*
X138112666Y-121023047D01*
X145819445Y-121412866D02*
X145819445Y-120412866D01*
X145438492Y-120412866D01*
X145343254Y-120460486D01*
X145295635Y-120508105D01*
X145248016Y-120603343D01*
X145248016Y-120746200D01*
X145295635Y-120841438D01*
X145343254Y-120889057D01*
X145438492Y-120936676D01*
X145819445Y-120936676D01*
X144486111Y-120889057D02*
X144343254Y-120936676D01*
X144295635Y-120984295D01*
X144248016Y-121079533D01*
X144248016Y-121222390D01*
X144295635Y-121317628D01*
X144343254Y-121365247D01*
X144438492Y-121412866D01*
X144819445Y-121412866D01*
X144819445Y-120412866D01*
X144486111Y-120412866D01*
X144390873Y-120460486D01*
X144343254Y-120508105D01*
X144295635Y-120603343D01*
X144295635Y-120698581D01*
X144343254Y-120793819D01*
X144390873Y-120841438D01*
X144486111Y-120889057D01*
X144819445Y-120889057D01*
X143343254Y-120412866D02*
X143819445Y-120412866D01*
X143867064Y-120889057D01*
X143819445Y-120841438D01*
X143724207Y-120793819D01*
X143486111Y-120793819D01*
X143390873Y-120841438D01*
X143343254Y-120889057D01*
X143295635Y-120984295D01*
X143295635Y-121222390D01*
X143343254Y-121317628D01*
X143390873Y-121365247D01*
X143486111Y-121412866D01*
X143724207Y-121412866D01*
X143819445Y-121365247D01*
X143867064Y-121317628D01*
X145343254Y-118682486D02*
X145438492Y-118634866D01*
X145581350Y-118634866D01*
X145724207Y-118682486D01*
X145819445Y-118777724D01*
X145867064Y-118872962D01*
X145914683Y-119063438D01*
X145914683Y-119206295D01*
X145867064Y-119396771D01*
X145819445Y-119492009D01*
X145724207Y-119587247D01*
X145581350Y-119634866D01*
X145486111Y-119634866D01*
X145343254Y-119587247D01*
X145295635Y-119539628D01*
X145295635Y-119206295D01*
X145486111Y-119206295D01*
X144867064Y-119634866D02*
X144867064Y-118634866D01*
X144295635Y-119634866D01*
X144295635Y-118634866D01*
X143819445Y-119634866D02*
X143819445Y-118634866D01*
X143581350Y-118634866D01*
X143438492Y-118682486D01*
X143343254Y-118777724D01*
X143295635Y-118872962D01*
X143248016Y-119063438D01*
X143248016Y-119206295D01*
X143295635Y-119396771D01*
X143343254Y-119492009D01*
X143438492Y-119587247D01*
X143581350Y-119634866D01*
X143819445Y-119634866D01*
X139612666Y-117800380D02*
X139946000Y-117324190D01*
X140184095Y-117800380D02*
X140184095Y-116800380D01*
X139803142Y-116800380D01*
X139707904Y-116848000D01*
X139660285Y-116895619D01*
X139612666Y-116990857D01*
X139612666Y-117133714D01*
X139660285Y-117228952D01*
X139707904Y-117276571D01*
X139803142Y-117324190D01*
X140184095Y-117324190D01*
X139279333Y-116800380D02*
X138612666Y-117800380D01*
X138612666Y-116800380D02*
X139279333Y-117800380D01*
X146224207Y-117856866D02*
X146224207Y-116856866D01*
X145843254Y-116856866D01*
X145748016Y-116904486D01*
X145700397Y-116952105D01*
X145652778Y-117047343D01*
X145652778Y-117190200D01*
X145700397Y-117285438D01*
X145748016Y-117333057D01*
X145843254Y-117380676D01*
X146224207Y-117380676D01*
X145271826Y-117571152D02*
X144795635Y-117571152D01*
X145367064Y-117856866D02*
X145033730Y-116856866D01*
X144700397Y-117856866D01*
X143843254Y-117856866D02*
X144414683Y-117856866D01*
X144128969Y-117856866D02*
X144128969Y-116856866D01*
X144224207Y-116999724D01*
X144319445Y-117094962D01*
X144414683Y-117142581D01*
X142938492Y-116856866D02*
X143414683Y-116856866D01*
X143462302Y-117333057D01*
X143414683Y-117285438D01*
X143319445Y-117237819D01*
X143081350Y-117237819D01*
X142986111Y-117285438D01*
X142938492Y-117333057D01*
X142890873Y-117428295D01*
X142890873Y-117666390D01*
X142938492Y-117761628D01*
X142986111Y-117809247D01*
X143081350Y-117856866D01*
X143319445Y-117856866D01*
X143414683Y-117809247D01*
X143462302Y-117761628D01*
X140041238Y-115927142D02*
X140088857Y-115974761D01*
X140231714Y-116022380D01*
X140326952Y-116022380D01*
X140469809Y-115974761D01*
X140565047Y-115879523D01*
X140612666Y-115784285D01*
X140660285Y-115593809D01*
X140660285Y-115450952D01*
X140612666Y-115260476D01*
X140565047Y-115165238D01*
X140469809Y-115070000D01*
X140326952Y-115022380D01*
X140231714Y-115022380D01*
X140088857Y-115070000D01*
X140041238Y-115117619D01*
X139136476Y-116022380D02*
X139612666Y-116022380D01*
X139612666Y-115022380D01*
X138803142Y-116022380D02*
X138803142Y-115022380D01*
X138231714Y-116022380D02*
X138660285Y-115450952D01*
X138231714Y-115022380D02*
X138803142Y-115593809D01*
X145343254Y-115078866D02*
X144771826Y-115078866D01*
X145057540Y-116078866D02*
X145057540Y-115078866D01*
X144533730Y-115078866D02*
X143867064Y-116078866D01*
X143867064Y-115078866D02*
X144533730Y-116078866D01*
X141160285Y-114244380D02*
X141160285Y-113244380D01*
X140779333Y-113244380D01*
X140684095Y-113292000D01*
X140636476Y-113339619D01*
X140588857Y-113434857D01*
X140588857Y-113577714D01*
X140636476Y-113672952D01*
X140684095Y-113720571D01*
X140779333Y-113768190D01*
X141160285Y-113768190D01*
X139826952Y-113720571D02*
X139684095Y-113768190D01*
X139636476Y-113815809D01*
X139588857Y-113911047D01*
X139588857Y-114053904D01*
X139636476Y-114149142D01*
X139684095Y-114196761D01*
X139779333Y-114244380D01*
X140160285Y-114244380D01*
X140160285Y-113244380D01*
X139826952Y-113244380D01*
X139731714Y-113292000D01*
X139684095Y-113339619D01*
X139636476Y-113434857D01*
X139636476Y-113530095D01*
X139684095Y-113625333D01*
X139731714Y-113672952D01*
X139826952Y-113720571D01*
X140160285Y-113720571D01*
X138636476Y-114244380D02*
X139207904Y-114244380D01*
X138922190Y-114244380D02*
X138922190Y-113244380D01*
X139017428Y-113387238D01*
X139112666Y-113482476D01*
X139207904Y-113530095D01*
X137779333Y-113577714D02*
X137779333Y-114244380D01*
X138017428Y-113196761D02*
X138255523Y-113911047D01*
X137636476Y-113911047D01*
X146295635Y-114300866D02*
X146295635Y-113300866D01*
X145914683Y-113300866D01*
X145819445Y-113348486D01*
X145771826Y-113396105D01*
X145724207Y-113491343D01*
X145724207Y-113634200D01*
X145771826Y-113729438D01*
X145819445Y-113777057D01*
X145914683Y-113824676D01*
X146295635Y-113824676D01*
X144962302Y-113777057D02*
X144819445Y-113824676D01*
X144771826Y-113872295D01*
X144724207Y-113967533D01*
X144724207Y-114110390D01*
X144771826Y-114205628D01*
X144819445Y-114253247D01*
X144914683Y-114300866D01*
X145295635Y-114300866D01*
X145295635Y-113300866D01*
X144962302Y-113300866D01*
X144867064Y-113348486D01*
X144819445Y-113396105D01*
X144771826Y-113491343D01*
X144771826Y-113586581D01*
X144819445Y-113681819D01*
X144867064Y-113729438D01*
X144962302Y-113777057D01*
X145295635Y-113777057D01*
X143771826Y-114300866D02*
X144343254Y-114300866D01*
X144057540Y-114300866D02*
X144057540Y-113300866D01*
X144152778Y-113443724D01*
X144248016Y-113538962D01*
X144343254Y-113586581D01*
X142867064Y-113300866D02*
X143343254Y-113300866D01*
X143390873Y-113777057D01*
X143343254Y-113729438D01*
X143248016Y-113681819D01*
X143009921Y-113681819D01*
X142914683Y-113729438D01*
X142867064Y-113777057D01*
X142819445Y-113872295D01*
X142819445Y-114110390D01*
X142867064Y-114205628D01*
X142914683Y-114253247D01*
X143009921Y-114300866D01*
X143248016Y-114300866D01*
X143343254Y-114253247D01*
X143390873Y-114205628D01*
X145343254Y-111570486D02*
X145438492Y-111522866D01*
X145581350Y-111522866D01*
X145724207Y-111570486D01*
X145819445Y-111665724D01*
X145867064Y-111760962D01*
X145914683Y-111951438D01*
X145914683Y-112094295D01*
X145867064Y-112284771D01*
X145819445Y-112380009D01*
X145724207Y-112475247D01*
X145581350Y-112522866D01*
X145486111Y-112522866D01*
X145343254Y-112475247D01*
X145295635Y-112427628D01*
X145295635Y-112094295D01*
X145486111Y-112094295D01*
X144867064Y-112522866D02*
X144867064Y-111522866D01*
X144295635Y-112522866D01*
X144295635Y-111522866D01*
X143819445Y-112522866D02*
X143819445Y-111522866D01*
X143581350Y-111522866D01*
X143438492Y-111570486D01*
X143343254Y-111665724D01*
X143295635Y-111760962D01*
X143248016Y-111951438D01*
X143248016Y-112094295D01*
X143295635Y-112284771D01*
X143343254Y-112380009D01*
X143438492Y-112475247D01*
X143581350Y-112522866D01*
X143819445Y-112522866D01*
X140207904Y-111514000D02*
X140303142Y-111466380D01*
X140446000Y-111466380D01*
X140588857Y-111514000D01*
X140684095Y-111609238D01*
X140731714Y-111704476D01*
X140779333Y-111894952D01*
X140779333Y-112037809D01*
X140731714Y-112228285D01*
X140684095Y-112323523D01*
X140588857Y-112418761D01*
X140446000Y-112466380D01*
X140350761Y-112466380D01*
X140207904Y-112418761D01*
X140160285Y-112371142D01*
X140160285Y-112037809D01*
X140350761Y-112037809D01*
X139731714Y-112466380D02*
X139731714Y-111466380D01*
X139160285Y-112466380D01*
X139160285Y-111466380D01*
X138684095Y-112466380D02*
X138684095Y-111466380D01*
X138446000Y-111466380D01*
X138303142Y-111514000D01*
X138207904Y-111609238D01*
X138160285Y-111704476D01*
X138112666Y-111894952D01*
X138112666Y-112037809D01*
X138160285Y-112228285D01*
X138207904Y-112323523D01*
X138303142Y-112418761D01*
X138446000Y-112466380D01*
X138684095Y-112466380D01*
X146745104Y-110231228D02*
X145983200Y-110231228D01*
X146364152Y-110612180D02*
X146364152Y-109850276D01*
X145602247Y-109612180D02*
X144983200Y-109612180D01*
X145316533Y-109993133D01*
X145173676Y-109993133D01*
X145078438Y-110040752D01*
X145030819Y-110088371D01*
X144983200Y-110183609D01*
X144983200Y-110421704D01*
X145030819Y-110516942D01*
X145078438Y-110564561D01*
X145173676Y-110612180D01*
X145459390Y-110612180D01*
X145554628Y-110564561D01*
X145602247Y-110516942D01*
X144697485Y-109612180D02*
X144364152Y-110612180D01*
X144030819Y-109612180D01*
X143792723Y-109612180D02*
X143173676Y-109612180D01*
X143507009Y-109993133D01*
X143364152Y-109993133D01*
X143268914Y-110040752D01*
X143221295Y-110088371D01*
X143173676Y-110183609D01*
X143173676Y-110421704D01*
X143221295Y-110516942D01*
X143268914Y-110564561D01*
X143364152Y-110612180D01*
X143649866Y-110612180D01*
X143745104Y-110564561D01*
X143792723Y-110516942D01*
X141665104Y-110231228D02*
X140903200Y-110231228D01*
X141284152Y-110612180D02*
X141284152Y-109850276D01*
X140522247Y-109612180D02*
X139903200Y-109612180D01*
X140236533Y-109993133D01*
X140093676Y-109993133D01*
X139998438Y-110040752D01*
X139950819Y-110088371D01*
X139903200Y-110183609D01*
X139903200Y-110421704D01*
X139950819Y-110516942D01*
X139998438Y-110564561D01*
X140093676Y-110612180D01*
X140379390Y-110612180D01*
X140474628Y-110564561D01*
X140522247Y-110516942D01*
X139617485Y-109612180D02*
X139284152Y-110612180D01*
X138950819Y-109612180D01*
X138712723Y-109612180D02*
X138093676Y-109612180D01*
X138427009Y-109993133D01*
X138284152Y-109993133D01*
X138188914Y-110040752D01*
X138141295Y-110088371D01*
X138093676Y-110183609D01*
X138093676Y-110421704D01*
X138141295Y-110516942D01*
X138188914Y-110564561D01*
X138284152Y-110612180D01*
X138569866Y-110612180D01*
X138665104Y-110564561D01*
X138712723Y-110516942D01*
D12*
G36*
X152997957Y-92843835D02*
G01*
X152974935Y-92881245D01*
X152939466Y-92940514D01*
X152893004Y-93019118D01*
X152837004Y-93114538D01*
X152772919Y-93224250D01*
X152702204Y-93345734D01*
X152626313Y-93476468D01*
X152546701Y-93613930D01*
X152464822Y-93755598D01*
X152382130Y-93898951D01*
X152300079Y-94041467D01*
X152220124Y-94180624D01*
X152143719Y-94313901D01*
X152072318Y-94438776D01*
X152007376Y-94552727D01*
X151950347Y-94653233D01*
X151902685Y-94737772D01*
X151865845Y-94803822D01*
X151841280Y-94848862D01*
X151830446Y-94870370D01*
X151830049Y-94871714D01*
X151843499Y-94889965D01*
X151880886Y-94917882D01*
X151937765Y-94952725D01*
X152009688Y-94991754D01*
X152084985Y-95028843D01*
X152187440Y-95073817D01*
X152295183Y-95114226D01*
X152411927Y-95150969D01*
X152541382Y-95184942D01*
X152687260Y-95217044D01*
X152853274Y-95248173D01*
X153043134Y-95279227D01*
X153239531Y-95308145D01*
X153410166Y-95333800D01*
X153553455Y-95359198D01*
X153672992Y-95385602D01*
X153772370Y-95414273D01*
X153855182Y-95446473D01*
X153925022Y-95483465D01*
X153985482Y-95526512D01*
X154040155Y-95576875D01*
X154057786Y-95595583D01*
X154096000Y-95639139D01*
X154124268Y-95674682D01*
X154137382Y-95695583D01*
X154137732Y-95697297D01*
X154142320Y-95707806D01*
X154158242Y-95707924D01*
X154188734Y-95696254D01*
X154237032Y-95671396D01*
X154306373Y-95631952D01*
X154354561Y-95603587D01*
X154426417Y-95559247D01*
X154482258Y-95521279D01*
X154518333Y-95492416D01*
X154530887Y-95475388D01*
X154530879Y-95475264D01*
X154523094Y-95459037D01*
X154501108Y-95418400D01*
X154466197Y-95355567D01*
X154419637Y-95272752D01*
X154362705Y-95172172D01*
X154296677Y-95056040D01*
X154222828Y-94926571D01*
X154142436Y-94785980D01*
X154056776Y-94636482D01*
X153967124Y-94480292D01*
X153874757Y-94319624D01*
X153780951Y-94156693D01*
X153686982Y-93993713D01*
X153594126Y-93832900D01*
X153503660Y-93676468D01*
X153416859Y-93526633D01*
X153335000Y-93385608D01*
X153259359Y-93255609D01*
X153191213Y-93138849D01*
X153131837Y-93037545D01*
X153082507Y-92953911D01*
X153044500Y-92890162D01*
X153019093Y-92848511D01*
X153007560Y-92831175D01*
X153007077Y-92830805D01*
X152997957Y-92843835D01*
G37*
X152997957Y-92843835D02*
X152974935Y-92881245D01*
X152939466Y-92940514D01*
X152893004Y-93019118D01*
X152837004Y-93114538D01*
X152772919Y-93224250D01*
X152702204Y-93345734D01*
X152626313Y-93476468D01*
X152546701Y-93613930D01*
X152464822Y-93755598D01*
X152382130Y-93898951D01*
X152300079Y-94041467D01*
X152220124Y-94180624D01*
X152143719Y-94313901D01*
X152072318Y-94438776D01*
X152007376Y-94552727D01*
X151950347Y-94653233D01*
X151902685Y-94737772D01*
X151865845Y-94803822D01*
X151841280Y-94848862D01*
X151830446Y-94870370D01*
X151830049Y-94871714D01*
X151843499Y-94889965D01*
X151880886Y-94917882D01*
X151937765Y-94952725D01*
X152009688Y-94991754D01*
X152084985Y-95028843D01*
X152187440Y-95073817D01*
X152295183Y-95114226D01*
X152411927Y-95150969D01*
X152541382Y-95184942D01*
X152687260Y-95217044D01*
X152853274Y-95248173D01*
X153043134Y-95279227D01*
X153239531Y-95308145D01*
X153410166Y-95333800D01*
X153553455Y-95359198D01*
X153672992Y-95385602D01*
X153772370Y-95414273D01*
X153855182Y-95446473D01*
X153925022Y-95483465D01*
X153985482Y-95526512D01*
X154040155Y-95576875D01*
X154057786Y-95595583D01*
X154096000Y-95639139D01*
X154124268Y-95674682D01*
X154137382Y-95695583D01*
X154137732Y-95697297D01*
X154142320Y-95707806D01*
X154158242Y-95707924D01*
X154188734Y-95696254D01*
X154237032Y-95671396D01*
X154306373Y-95631952D01*
X154354561Y-95603587D01*
X154426417Y-95559247D01*
X154482258Y-95521279D01*
X154518333Y-95492416D01*
X154530887Y-95475388D01*
X154530879Y-95475264D01*
X154523094Y-95459037D01*
X154501108Y-95418400D01*
X154466197Y-95355567D01*
X154419637Y-95272752D01*
X154362705Y-95172172D01*
X154296677Y-95056040D01*
X154222828Y-94926571D01*
X154142436Y-94785980D01*
X154056776Y-94636482D01*
X153967124Y-94480292D01*
X153874757Y-94319624D01*
X153780951Y-94156693D01*
X153686982Y-93993713D01*
X153594126Y-93832900D01*
X153503660Y-93676468D01*
X153416859Y-93526633D01*
X153335000Y-93385608D01*
X153259359Y-93255609D01*
X153191213Y-93138849D01*
X153131837Y-93037545D01*
X153082507Y-92953911D01*
X153044500Y-92890162D01*
X153019093Y-92848511D01*
X153007560Y-92831175D01*
X153007077Y-92830805D01*
X152997957Y-92843835D01*
G36*
X151174472Y-95992619D02*
G01*
X151163092Y-96011693D01*
X151137512Y-96055421D01*
X151098998Y-96121619D01*
X151048814Y-96208102D01*
X150988225Y-96312685D01*
X150918497Y-96433183D01*
X150840893Y-96567412D01*
X150756680Y-96713187D01*
X150667121Y-96868323D01*
X150575002Y-97028000D01*
X150480924Y-97191117D01*
X150390598Y-97347709D01*
X150305335Y-97495506D01*
X150226443Y-97632240D01*
X150155231Y-97755642D01*
X150093009Y-97863444D01*
X150041087Y-97953377D01*
X150000772Y-98023173D01*
X149973376Y-98070564D01*
X149960493Y-98092786D01*
X149939493Y-98130330D01*
X149928075Y-98153831D01*
X149927449Y-98157920D01*
X149941364Y-98150242D01*
X149980059Y-98128203D01*
X150041513Y-98092971D01*
X150123702Y-98045711D01*
X150224604Y-97987589D01*
X150342195Y-97919771D01*
X150474454Y-97843424D01*
X150619358Y-97759714D01*
X150774883Y-97669806D01*
X150939008Y-97574867D01*
X151001451Y-97538732D01*
X151168513Y-97442083D01*
X151327926Y-97349938D01*
X151477645Y-97263475D01*
X151615624Y-97183871D01*
X151739815Y-97112305D01*
X151848173Y-97049955D01*
X151938652Y-96997998D01*
X152009204Y-96957613D01*
X152057785Y-96929978D01*
X152082346Y-96916272D01*
X152084915Y-96914974D01*
X152077431Y-96903220D01*
X152051386Y-96871795D01*
X152009441Y-96823594D01*
X151954254Y-96761510D01*
X151888483Y-96688439D01*
X151814788Y-96607276D01*
X151735827Y-96520916D01*
X151654260Y-96432253D01*
X151572746Y-96344182D01*
X151493943Y-96259599D01*
X151420510Y-96181397D01*
X151355107Y-96112472D01*
X151300392Y-96055719D01*
X151259023Y-96014032D01*
X151244836Y-96000363D01*
X151197820Y-95956201D01*
X151174472Y-95992619D01*
G37*
X151174472Y-95992619D02*
X151163092Y-96011693D01*
X151137512Y-96055421D01*
X151098998Y-96121619D01*
X151048814Y-96208102D01*
X150988225Y-96312685D01*
X150918497Y-96433183D01*
X150840893Y-96567412D01*
X150756680Y-96713187D01*
X150667121Y-96868323D01*
X150575002Y-97028000D01*
X150480924Y-97191117D01*
X150390598Y-97347709D01*
X150305335Y-97495506D01*
X150226443Y-97632240D01*
X150155231Y-97755642D01*
X150093009Y-97863444D01*
X150041087Y-97953377D01*
X150000772Y-98023173D01*
X149973376Y-98070564D01*
X149960493Y-98092786D01*
X149939493Y-98130330D01*
X149928075Y-98153831D01*
X149927449Y-98157920D01*
X149941364Y-98150242D01*
X149980059Y-98128203D01*
X150041513Y-98092971D01*
X150123702Y-98045711D01*
X150224604Y-97987589D01*
X150342195Y-97919771D01*
X150474454Y-97843424D01*
X150619358Y-97759714D01*
X150774883Y-97669806D01*
X150939008Y-97574867D01*
X151001451Y-97538732D01*
X151168513Y-97442083D01*
X151327926Y-97349938D01*
X151477645Y-97263475D01*
X151615624Y-97183871D01*
X151739815Y-97112305D01*
X151848173Y-97049955D01*
X151938652Y-96997998D01*
X152009204Y-96957613D01*
X152057785Y-96929978D01*
X152082346Y-96916272D01*
X152084915Y-96914974D01*
X152077431Y-96903220D01*
X152051386Y-96871795D01*
X152009441Y-96823594D01*
X151954254Y-96761510D01*
X151888483Y-96688439D01*
X151814788Y-96607276D01*
X151735827Y-96520916D01*
X151654260Y-96432253D01*
X151572746Y-96344182D01*
X151493943Y-96259599D01*
X151420510Y-96181397D01*
X151355107Y-96112472D01*
X151300392Y-96055719D01*
X151259023Y-96014032D01*
X151244836Y-96000363D01*
X151197820Y-95956201D01*
X151174472Y-95992619D01*
G36*
X154839906Y-96049158D02*
G01*
X154807381Y-96061736D01*
X154757807Y-96086712D01*
X154686626Y-96125876D01*
X154681084Y-96128988D01*
X154615526Y-96166476D01*
X154560202Y-96199319D01*
X154520545Y-96224205D01*
X154501988Y-96237820D01*
X154501469Y-96238487D01*
X154505952Y-96257390D01*
X154526514Y-96299605D01*
X154561817Y-96362832D01*
X154610520Y-96444772D01*
X154671282Y-96543122D01*
X154742764Y-96655585D01*
X154760555Y-96683165D01*
X154806907Y-96759699D01*
X154840658Y-96825556D01*
X154858847Y-96874782D01*
X154860714Y-96884507D01*
X154859885Y-96927312D01*
X154850606Y-96995209D01*
X154834032Y-97083843D01*
X154811320Y-97188859D01*
X154783627Y-97305902D01*
X154752110Y-97430616D01*
X154717925Y-97558645D01*
X154682229Y-97685634D01*
X154646179Y-97807228D01*
X154610932Y-97919072D01*
X154577644Y-98016810D01*
X154547472Y-98096087D01*
X154526439Y-98143122D01*
X154501663Y-98193225D01*
X154478270Y-98241168D01*
X154477003Y-98243793D01*
X154438301Y-98292220D01*
X154381816Y-98324828D01*
X154316061Y-98340454D01*
X154249549Y-98337937D01*
X154190795Y-98316114D01*
X154157742Y-98287382D01*
X154110141Y-98208583D01*
X154075261Y-98110378D01*
X154056123Y-98002779D01*
X154053412Y-97941780D01*
X154064330Y-97827935D01*
X154096376Y-97733660D01*
X154151274Y-97654379D01*
X154168393Y-97636733D01*
X154219339Y-97587235D01*
X154222837Y-97237362D01*
X154226336Y-96887489D01*
X154137182Y-96752531D01*
X154095346Y-96691445D01*
X154055055Y-96636493D01*
X154022057Y-96595336D01*
X154007874Y-96580192D01*
X153967719Y-96542810D01*
X153913335Y-96572098D01*
X153878961Y-96593084D01*
X153860154Y-96609378D01*
X153858951Y-96612307D01*
X153846097Y-96624728D01*
X153824104Y-96633977D01*
X153802850Y-96642313D01*
X153770306Y-96658149D01*
X153723678Y-96683033D01*
X153660171Y-96718509D01*
X153576992Y-96766123D01*
X153471347Y-96827422D01*
X153413938Y-96860932D01*
X153346406Y-96901071D01*
X153302115Y-96929659D01*
X153277145Y-96950039D01*
X153267577Y-96965553D01*
X153269492Y-96979546D01*
X153271089Y-96982796D01*
X153286624Y-97003266D01*
X153319864Y-97041665D01*
X153366938Y-97093696D01*
X153423972Y-97155066D01*
X153473300Y-97207090D01*
X153586970Y-97330567D01*
X153675895Y-97437591D01*
X153740866Y-97529240D01*
X153782679Y-97606588D01*
X153796783Y-97645866D01*
X153802608Y-97680249D01*
X153808625Y-97738899D01*
X153814304Y-97815117D01*
X153819116Y-97902202D01*
X153821381Y-97957268D01*
X153824541Y-98052464D01*
X153825931Y-98122062D01*
X153825142Y-98171409D01*
X153821765Y-98205854D01*
X153815392Y-98230743D01*
X153805613Y-98251425D01*
X153797933Y-98264053D01*
X153753579Y-98312726D01*
X153696426Y-98346645D01*
X153636292Y-98361438D01*
X153591227Y-98356086D01*
X153550424Y-98332930D01*
X153499276Y-98291462D01*
X153444958Y-98238912D01*
X153394643Y-98182516D01*
X153355506Y-98129505D01*
X153341095Y-98103889D01*
X153319509Y-98068814D01*
X153280247Y-98015389D01*
X153226898Y-97947789D01*
X153163048Y-97870190D01*
X153092285Y-97786768D01*
X153018196Y-97701698D01*
X152944368Y-97619155D01*
X152874389Y-97543316D01*
X152811845Y-97478356D01*
X152762740Y-97430669D01*
X152708221Y-97383032D01*
X152662358Y-97347908D01*
X152630189Y-97328949D01*
X152619511Y-97326864D01*
X152603147Y-97335274D01*
X152562329Y-97357846D01*
X152499414Y-97393224D01*
X152416756Y-97440054D01*
X152316711Y-97496981D01*
X152201634Y-97562649D01*
X152073881Y-97635703D01*
X151935806Y-97714788D01*
X151789766Y-97798548D01*
X151638116Y-97885629D01*
X151483210Y-97974676D01*
X151327405Y-98064332D01*
X151173056Y-98153243D01*
X151022518Y-98240054D01*
X150878146Y-98323409D01*
X150742296Y-98401954D01*
X150617323Y-98474333D01*
X150505583Y-98539190D01*
X150409430Y-98595171D01*
X150331221Y-98640920D01*
X150273311Y-98675083D01*
X150238054Y-98696304D01*
X150227835Y-98702963D01*
X150241598Y-98704280D01*
X150284896Y-98705559D01*
X150356286Y-98706796D01*
X150454327Y-98707983D01*
X150577578Y-98709115D01*
X150724597Y-98710186D01*
X150893943Y-98711189D01*
X151084174Y-98712119D01*
X151293849Y-98712968D01*
X151521527Y-98713732D01*
X151765765Y-98714403D01*
X152025123Y-98714976D01*
X152298159Y-98715444D01*
X152583432Y-98715802D01*
X152879500Y-98716042D01*
X153184921Y-98716159D01*
X153313076Y-98716171D01*
X156413030Y-98716171D01*
X156191947Y-98332847D01*
X156145144Y-98251680D01*
X156084898Y-98147166D01*
X156013222Y-98022801D01*
X155932131Y-97882082D01*
X155843638Y-97728503D01*
X155749760Y-97565562D01*
X155652509Y-97396754D01*
X155553900Y-97225575D01*
X155455947Y-97055521D01*
X155431175Y-97012512D01*
X155340848Y-96855857D01*
X155254711Y-96706803D01*
X155174058Y-96567568D01*
X155100184Y-96440371D01*
X155034383Y-96327432D01*
X154977950Y-96230968D01*
X154932179Y-96153200D01*
X154898365Y-96096346D01*
X154877802Y-96062625D01*
X154872047Y-96054040D01*
X154859942Y-96047189D01*
X154839906Y-96049158D01*
G37*
X154839906Y-96049158D02*
X154807381Y-96061736D01*
X154757807Y-96086712D01*
X154686626Y-96125876D01*
X154681084Y-96128988D01*
X154615526Y-96166476D01*
X154560202Y-96199319D01*
X154520545Y-96224205D01*
X154501988Y-96237820D01*
X154501469Y-96238487D01*
X154505952Y-96257390D01*
X154526514Y-96299605D01*
X154561817Y-96362832D01*
X154610520Y-96444772D01*
X154671282Y-96543122D01*
X154742764Y-96655585D01*
X154760555Y-96683165D01*
X154806907Y-96759699D01*
X154840658Y-96825556D01*
X154858847Y-96874782D01*
X154860714Y-96884507D01*
X154859885Y-96927312D01*
X154850606Y-96995209D01*
X154834032Y-97083843D01*
X154811320Y-97188859D01*
X154783627Y-97305902D01*
X154752110Y-97430616D01*
X154717925Y-97558645D01*
X154682229Y-97685634D01*
X154646179Y-97807228D01*
X154610932Y-97919072D01*
X154577644Y-98016810D01*
X154547472Y-98096087D01*
X154526439Y-98143122D01*
X154501663Y-98193225D01*
X154478270Y-98241168D01*
X154477003Y-98243793D01*
X154438301Y-98292220D01*
X154381816Y-98324828D01*
X154316061Y-98340454D01*
X154249549Y-98337937D01*
X154190795Y-98316114D01*
X154157742Y-98287382D01*
X154110141Y-98208583D01*
X154075261Y-98110378D01*
X154056123Y-98002779D01*
X154053412Y-97941780D01*
X154064330Y-97827935D01*
X154096376Y-97733660D01*
X154151274Y-97654379D01*
X154168393Y-97636733D01*
X154219339Y-97587235D01*
X154222837Y-97237362D01*
X154226336Y-96887489D01*
X154137182Y-96752531D01*
X154095346Y-96691445D01*
X154055055Y-96636493D01*
X154022057Y-96595336D01*
X154007874Y-96580192D01*
X153967719Y-96542810D01*
X153913335Y-96572098D01*
X153878961Y-96593084D01*
X153860154Y-96609378D01*
X153858951Y-96612307D01*
X153846097Y-96624728D01*
X153824104Y-96633977D01*
X153802850Y-96642313D01*
X153770306Y-96658149D01*
X153723678Y-96683033D01*
X153660171Y-96718509D01*
X153576992Y-96766123D01*
X153471347Y-96827422D01*
X153413938Y-96860932D01*
X153346406Y-96901071D01*
X153302115Y-96929659D01*
X153277145Y-96950039D01*
X153267577Y-96965553D01*
X153269492Y-96979546D01*
X153271089Y-96982796D01*
X153286624Y-97003266D01*
X153319864Y-97041665D01*
X153366938Y-97093696D01*
X153423972Y-97155066D01*
X153473300Y-97207090D01*
X153586970Y-97330567D01*
X153675895Y-97437591D01*
X153740866Y-97529240D01*
X153782679Y-97606588D01*
X153796783Y-97645866D01*
X153802608Y-97680249D01*
X153808625Y-97738899D01*
X153814304Y-97815117D01*
X153819116Y-97902202D01*
X153821381Y-97957268D01*
X153824541Y-98052464D01*
X153825931Y-98122062D01*
X153825142Y-98171409D01*
X153821765Y-98205854D01*
X153815392Y-98230743D01*
X153805613Y-98251425D01*
X153797933Y-98264053D01*
X153753579Y-98312726D01*
X153696426Y-98346645D01*
X153636292Y-98361438D01*
X153591227Y-98356086D01*
X153550424Y-98332930D01*
X153499276Y-98291462D01*
X153444958Y-98238912D01*
X153394643Y-98182516D01*
X153355506Y-98129505D01*
X153341095Y-98103889D01*
X153319509Y-98068814D01*
X153280247Y-98015389D01*
X153226898Y-97947789D01*
X153163048Y-97870190D01*
X153092285Y-97786768D01*
X153018196Y-97701698D01*
X152944368Y-97619155D01*
X152874389Y-97543316D01*
X152811845Y-97478356D01*
X152762740Y-97430669D01*
X152708221Y-97383032D01*
X152662358Y-97347908D01*
X152630189Y-97328949D01*
X152619511Y-97326864D01*
X152603147Y-97335274D01*
X152562329Y-97357846D01*
X152499414Y-97393224D01*
X152416756Y-97440054D01*
X152316711Y-97496981D01*
X152201634Y-97562649D01*
X152073881Y-97635703D01*
X151935806Y-97714788D01*
X151789766Y-97798548D01*
X151638116Y-97885629D01*
X151483210Y-97974676D01*
X151327405Y-98064332D01*
X151173056Y-98153243D01*
X151022518Y-98240054D01*
X150878146Y-98323409D01*
X150742296Y-98401954D01*
X150617323Y-98474333D01*
X150505583Y-98539190D01*
X150409430Y-98595171D01*
X150331221Y-98640920D01*
X150273311Y-98675083D01*
X150238054Y-98696304D01*
X150227835Y-98702963D01*
X150241598Y-98704280D01*
X150284896Y-98705559D01*
X150356286Y-98706796D01*
X150454327Y-98707983D01*
X150577578Y-98709115D01*
X150724597Y-98710186D01*
X150893943Y-98711189D01*
X151084174Y-98712119D01*
X151293849Y-98712968D01*
X151521527Y-98713732D01*
X151765765Y-98714403D01*
X152025123Y-98714976D01*
X152298159Y-98715444D01*
X152583432Y-98715802D01*
X152879500Y-98716042D01*
X153184921Y-98716159D01*
X153313076Y-98716171D01*
X156413030Y-98716171D01*
X156191947Y-98332847D01*
X156145144Y-98251680D01*
X156084898Y-98147166D01*
X156013222Y-98022801D01*
X155932131Y-97882082D01*
X155843638Y-97728503D01*
X155749760Y-97565562D01*
X155652509Y-97396754D01*
X155553900Y-97225575D01*
X155455947Y-97055521D01*
X155431175Y-97012512D01*
X155340848Y-96855857D01*
X155254711Y-96706803D01*
X155174058Y-96567568D01*
X155100184Y-96440371D01*
X155034383Y-96327432D01*
X154977950Y-96230968D01*
X154932179Y-96153200D01*
X154898365Y-96096346D01*
X154877802Y-96062625D01*
X154872047Y-96054040D01*
X154859942Y-96047189D01*
X154839906Y-96049158D01*
M02*
